<?xml version="1.0" encoding="utf-8"?>
<!-- Generator: Adobe Illustrator 19.2.0, SVG Export Plug-In . SVG Version: 6.00 Build 0)  -->
<svg version="1.1" xmlns="http://www.w3.org/2000/svg" xmlns:xlink="http://www.w3.org/1999/xlink" x="0px" y="0px"
	 viewBox="0 0 616 125.6" style="enable-background:new 0 0 616 125.6;" xml:space="preserve">
<style type="text/css">
	.st0{display:none;}
	.st1{display:inline;}
	.st2{fill:#D9EBFF;}
	.st3{fill:#314563;}
	.st4{fill:#4284D3;}
	.st5{fill:#2D70C1;}
	.st6{fill:#5547D6;}
	.st7{fill:#9C61DB;}
	.st8{fill:#7A1EBC;}
	.st9{fill:#6319B2;}
	.st10{fill:#6935BC;}
	.st11{fill:#533E7F;}
	.st12{fill:#67A2E8;}
	.st13{fill:#287EE5;}
	.st14{fill:#849FBF;}
	.st15{fill:#0B66D3;}
	.st16{fill:#461FB2;}
	.st17{fill:#055EC9;}
	.st18{fill:#50B0FF;}
	.st19{fill:#416EA3;}
	.st20{fill:#216DEF;}
</style>
<g id="Layer_1" class="st0">
	<g class="st1">
		<polygon class="st2" points="113.8,244.6 133.5,212.3 195.4,195.9 237,237.4 233.4,268.9 207.3,282.6 214.4,298 200.8,298 
			180.8,271.4 141,270.4 		"/>
		<g>
			<path class="st3" d="M239.3,236.8c0-0.1-0.1-0.2-0.1-0.3c0-0.1,0-0.2-0.1-0.3c-0.1-0.1-0.1-0.3-0.2-0.4c-0.1-0.1-0.1-0.2-0.1-0.2
				L197,194c0,0-0.1-0.1-0.1-0.1c0,0-0.1-0.1-0.1-0.1c0,0,0,0-0.1-0.1c0,0,0,0,0,0c-0.2-0.1-0.4-0.2-0.6-0.2c0,0-0.1,0-0.2,0
				c-0.1,0-0.3,0-0.4,0c-0.1,0-0.1,0-0.2,0c0,0,0,0,0,0c0,0-0.1,0-0.1,0c0,0,0,0-0.1,0l-62.6,16.2c-0.1,0-0.1,0.1-0.2,0.1
				c-0.1,0-0.2,0.1-0.3,0.1c0,0-0.1,0-0.1,0.1c0,0,0,0,0,0c-0.1,0-0.1,0.1-0.2,0.2c-0.1,0.1-0.2,0.2-0.2,0.2c0,0.1-0.1,0.1-0.1,0.1
				c0,0,0,0,0,0L111,244.7c0,0.1-0.1,0.2-0.1,0.2c0,0.1-0.1,0.2-0.1,0.3c0,0.2,0,0.3-0.1,0.5c0,0.1,0,0.1,0,0.2c0,0,0,0,0,0.1
				c0,0.2,0.1,0.3,0.1,0.5c0,0.1,0,0.1,0.1,0.2c0.1,0.1,0.2,0.2,0.3,0.4c0.1,0.1,0.1,0.1,0.1,0.2c0,0,0,0,0,0l27.9,24.9
				c0.1,0.1,0.2,0.1,0.3,0.2c0.1,0,0.1,0.1,0.2,0.1c0,0,0,0,0,0c0.2,0.1,0.5,0.2,0.7,0.2l38.5,0.6l21.2,26.5c0,0.1,0.1,0.1,0.2,0.1
				c0.1,0.1,0.2,0.2,0.4,0.3c0.1,0.1,0.2,0.1,0.3,0.1c0.1,0,0.2,0.1,0.2,0.1c0.1,0,0.3,0,0.4,0h0h12c0,0,0,0,0,0
				c1.1,0,1.9-0.9,1.9-1.9c0-0.5-0.2-0.9-0.4-1.2l-7.5-13.9l13.8-7.2l13.1-5.6c0.1,0,0.2-0.1,0.3-0.2c0,0,0.1,0,0.1-0.1c0,0,0,0,0,0
				c0,0,0,0,0,0c0.2-0.1,0.3-0.3,0.4-0.4c0,0,0-0.1,0-0.1c0,0,0-0.1,0.1-0.1c0.1-0.1,0.1-0.2,0.1-0.3c0,0,0,0,0-0.1c0,0,0-0.1,0-0.1
				c0,0,0,0,0,0c0,0,0-0.1,0-0.1c0,0,0,0,0,0l3.5-31.9c0-0.1,0-0.1,0-0.2C239.3,236.9,239.3,236.8,239.3,236.8z M200.7,294
				l-14.2-17.8l16.4,7.4L200.7,294z M117.2,247.2l33.3-3l-10.7,23.2L117.2,247.2z M209.6,236l-25.5-9.3l24.6-3.7L209.6,236z
				 M180.3,223.4l15.3-24.3l11.8,20.2L180.3,223.4z M154.1,239.2l-16.2-23.9l34.7,11.2L154.1,239.2z M176.2,228.5l24,28.5
				l-42.8-15.6L176.2,228.5z M201.1,261.5l-20.5,7.5l-18.1-22.5L201.1,261.5z M182.6,230.1l26.9,9.9l-4,17.4L182.6,230.1z
				 M212.4,220.6C212.4,220.6,212.4,220.6,212.4,220.6c0-0.1,0-0.1,0-0.1c0,0,0,0,0,0c0-0.1-0.1-0.2-0.1-0.3c0-0.1-0.1-0.2-0.1-0.3
				c0,0,0,0,0-0.1l0,0c0,0,0,0,0,0l-7.4-12.6l28.3,28.2l-19.5,1.4L212.4,220.6z M175.7,223.6l-36.2-11.7l52-13.3L175.7,223.6z
				 M133.2,215.2l17.1,25.3l-34.1,3.1L133.2,215.2z M154.2,245.6l21.8,23.6l-32.4-0.5L154.2,245.6z M185.1,271.4l19.4-7.1l-1.1,15.3
				L185.1,271.4z M212.7,243.3l16.4,22.3l-20.3-5.4L212.7,243.3z M232.5,263.7l-17.2-23.3l19.9-1.4L232.5,263.7z M210.5,296.5h-6.4
				l1.8-8.5L210.5,296.5z M219.9,272.7l-12.6,6.5l1.1-15.3l19.7,5.3L219.9,272.7z"/>
		</g>
		<g>
			<path class="st3" d="M278.4,264.4c-4.1-2.2-7.2-5.4-9.3-9.5c-2.2-4.1-3.3-8.8-3.3-14.2c0-5.4,1.1-10.1,3.3-14.2
				c2.2-4.1,5.3-7.2,9.3-9.5c4.1-2.2,8.8-3.4,14.3-3.4c3.4,0,6.8,0.5,10,1.6c3.2,1,5.8,2.4,7.9,4.2l-4.3,9.7
				c-4.3-3-8.8-4.6-13.3-4.6c-4.3,0-7.6,1.3-9.8,4c-2.3,2.7-3.4,6.7-3.4,12c0,5.3,1.1,9.4,3.4,12.1c2.3,2.7,5.5,4.1,9.8,4.1
				c4.5,0,9-1.5,13.3-4.6l4.3,9.7c-2,1.7-4.7,3.1-7.9,4.2c-3.2,1-6.5,1.6-10,1.6C287.2,267.8,282.4,266.6,278.4,264.4z"/>
			<path class="st3" d="M322.6,265.3c-3.1-1.6-5.4-3.8-7.1-6.7c-1.7-2.9-2.5-6.3-2.5-10.2c0-3.9,0.8-7.3,2.5-10.1
				c1.7-2.9,4-5.1,7.1-6.6c3-1.5,6.6-2.3,10.7-2.3c4.1,0,7.6,0.8,10.7,2.3c3,1.5,5.4,3.8,7.1,6.6c1.7,2.9,2.5,6.2,2.5,10.1
				c0,3.9-0.8,7.3-2.5,10.2c-1.7,2.9-4,5.1-7.1,6.7c-3,1.6-6.6,2.4-10.7,2.4C329.3,267.7,325.7,266.9,322.6,265.3z M340.4,248.5
				c0-6.2-2.4-9.3-7.1-9.3c-4.7,0-7.1,3.1-7.1,9.3c0,6.2,2.4,9.3,7.1,9.3C338,257.7,340.4,254.6,340.4,248.5z"/>
			<path class="st3" d="M387.3,240.2l-7.3,0.7c-2.9,0.3-4.9,1.1-6.1,2.3c-1.1,1.2-1.7,3-1.7,5.3v18.5H359v-36.8h12.6v6.4
				c0.8-2.2,2.2-4,4.2-5.1c1.9-1.2,4.3-1.8,7.1-2l3.7-0.3L387.3,240.2z"/>
			<path class="st3" d="M420.7,233.4c2.8,2.7,4.1,6.8,4.1,12.4v21.2h-12.5v-5.2c-0.7,1.8-1.9,3.2-3.5,4.2c-1.6,1-3.6,1.5-5.9,1.5
				c-2.5,0-4.8-0.5-6.9-1.5c-2-1-3.7-2.4-4.8-4.3c-1.2-1.8-1.8-3.9-1.8-6.2c0-2.6,0.7-4.7,2.1-6.3c1.4-1.6,3.6-2.7,6.5-3.4
				c3-0.7,7-1,12.1-1h2v-0.9c0-1.8-0.4-3.1-1.3-3.8c-0.9-0.7-2.3-1.1-4.5-1.1c-1.7,0-3.7,0.3-5.9,1c-2.2,0.7-4.3,1.5-6.2,2.6
				L391,234c2.1-1.3,4.8-2.4,8-3.3c3.2-0.9,6.2-1.3,8.9-1.3C413.7,229.4,417.9,230.7,420.7,233.4z M410.5,256.9
				c1.1-1.3,1.7-2.9,1.7-4.9v-0.9H411c-3.2,0-5.5,0.3-6.8,0.9s-2,1.5-2,2.9c0,1.1,0.4,2.1,1.1,2.8c0.7,0.7,1.7,1.1,2.8,1.1
				C407.9,258.8,409.4,258.1,410.5,256.9z"/>
			<path class="st3" d="M431.1,267.1v-52.7h13.3v52.7H431.1z"/>
			<path class="st3" d="M459.4,265.3c-3.1-1.6-5.4-3.8-7.1-6.7c-1.7-2.9-2.5-6.3-2.5-10.2c0-3.9,0.8-7.3,2.5-10.1
				c1.7-2.9,4-5.1,7.1-6.6c3-1.5,6.6-2.3,10.7-2.3c4.1,0,7.6,0.8,10.7,2.3c3,1.5,5.4,3.8,7.1,6.6c1.7,2.9,2.5,6.2,2.5,10.1
				c0,3.9-0.8,7.3-2.5,10.2c-1.7,2.9-4,5.1-7.1,6.7c-3,1.6-6.6,2.4-10.7,2.4C466.1,267.7,462.5,266.9,459.4,265.3z M477.2,248.5
				c0-6.2-2.4-9.3-7.1-9.3c-4.7,0-7.1,3.1-7.1,9.3c0,6.2,2.4,9.3,7.1,9.3C474.8,257.7,477.2,254.6,477.2,248.5z"/>
			<path class="st3" d="M536.1,230.3v32.3c0,6.1-1.8,10.7-5.4,13.8c-3.6,3.1-9,4.7-16,4.7c-3.3,0-6.6-0.4-9.7-1.2
				c-3.1-0.8-5.9-1.9-8.1-3.3l3.4-9c2.3,1.2,4.7,2.1,7.1,2.8c2.5,0.6,4.8,1,7,1c2.9,0,5.1-0.6,6.5-1.9c1.4-1.3,2.1-3.3,2.1-6v-2.8
				c-1.1,1.6-2.7,3-4.7,3.9c-2,1-4.3,1.5-6.7,1.5c-3.2,0-6-0.7-8.5-2.2c-2.5-1.5-4.4-3.6-5.8-6.4c-1.4-2.8-2.1-6-2.1-9.6
				s0.7-6.9,2.1-9.6c1.4-2.8,3.3-4.9,5.8-6.5c2.5-1.5,5.3-2.3,8.5-2.3c2.4,0,4.7,0.5,6.7,1.5c2,1,3.6,2.4,4.7,4.1v-4.7H536.1z
				 M521.1,253.9c1.3-1.5,1.9-3.5,1.9-6.1c0-2.6-0.6-4.7-1.9-6.2c-1.3-1.5-3.1-2.2-5.5-2.2c-2.3,0-4.1,0.7-5.4,2.2
				c-1.3,1.5-1.9,3.6-1.9,6.2c0,2.6,0.7,4.6,2,6.1c1.3,1.5,3.1,2.2,5.3,2.2C518,256.1,519.8,255.4,521.1,253.9z"/>
			<path class="st3" d="M542,211.9h13.9v12H542V211.9z M542.3,267.1v-36.8h13.3v36.8H542.3z"/>
			<path class="st3" d="M589.4,248.1l15.6,19h-15.5l-7.7-9.7l-7.7,9.7h-15.5l15.6-19l-14.7-17.8h15.6l6.7,8.7l6.7-8.7h15.6
				L589.4,248.1z"/>
		</g>
	</g>
</g>
<g id="Layer_2" class="st0">
	<g class="st1">
		<path class="st3" d="M268.4,264.4c-4.1-2.2-7.2-5.4-9.3-9.5c-2.2-4.1-3.3-8.8-3.3-14.2c0-5.4,1.1-10.1,3.3-14.2
			c2.2-4.1,5.3-7.2,9.3-9.5c4.1-2.2,8.8-3.4,14.3-3.4c3.4,0,6.8,0.5,10,1.6c3.2,1,5.8,2.4,7.9,4.2l-4.3,9.7c-4.3-3-8.8-4.6-13.3-4.6
			c-4.3,0-7.6,1.3-9.8,4c-2.3,2.7-3.4,6.7-3.4,12c0,5.3,1.1,9.4,3.4,12.1c2.3,2.7,5.5,4.1,9.8,4.1c4.5,0,9-1.5,13.3-4.6l4.3,9.7
			c-2,1.7-4.7,3.1-7.9,4.2c-3.2,1-6.5,1.6-10,1.6C277.2,267.8,272.4,266.6,268.4,264.4z"/>
		<path class="st3" d="M312.6,265.3c-3.1-1.6-5.4-3.8-7.1-6.7c-1.7-2.9-2.5-6.3-2.5-10.2c0-3.9,0.8-7.3,2.5-10.1
			c1.7-2.9,4-5.1,7.1-6.6c3-1.5,6.6-2.3,10.7-2.3c4.1,0,7.6,0.8,10.7,2.3c3,1.5,5.4,3.8,7.1,6.6c1.7,2.9,2.5,6.2,2.5,10.1
			c0,3.9-0.8,7.3-2.5,10.2c-1.7,2.9-4,5.1-7.1,6.7c-3,1.6-6.6,2.4-10.7,2.4C319.3,267.7,315.7,266.9,312.6,265.3z M330.4,248.5
			c0-6.2-2.4-9.3-7.1-9.3c-4.7,0-7.1,3.1-7.1,9.3c0,6.2,2.4,9.3,7.1,9.3C328,257.7,330.4,254.6,330.4,248.5z"/>
		<path class="st3" d="M377.3,240.2l-7.3,0.7c-2.9,0.3-4.9,1.1-6.1,2.3c-1.1,1.2-1.7,3-1.7,5.3v18.5H349v-36.8h12.6v6.4
			c0.8-2.2,2.2-4,4.2-5.1c1.9-1.2,4.3-1.8,7.1-2l3.7-0.3L377.3,240.2z"/>
		<path class="st3" d="M410.7,233.4c2.8,2.7,4.1,6.8,4.1,12.4v21.2h-12.5v-5.2c-0.7,1.8-1.9,3.2-3.5,4.2c-1.6,1-3.6,1.5-5.9,1.5
			c-2.5,0-4.8-0.5-6.9-1.5c-2-1-3.7-2.4-4.8-4.3c-1.2-1.8-1.8-3.9-1.8-6.2c0-2.6,0.7-4.7,2.1-6.3c1.4-1.6,3.6-2.7,6.5-3.4
			c3-0.7,7-1,12.1-1h2v-0.9c0-1.8-0.4-3.1-1.3-3.8c-0.9-0.7-2.3-1.1-4.5-1.1c-1.7,0-3.7,0.3-5.9,1c-2.2,0.7-4.3,1.5-6.2,2.6L381,234
			c2.1-1.3,4.8-2.4,8-3.3c3.2-0.9,6.2-1.3,8.9-1.3C403.7,229.4,407.9,230.7,410.7,233.4z M400.5,256.9c1.1-1.3,1.7-2.9,1.7-4.9v-0.9
			H401c-3.2,0-5.5,0.3-6.8,0.9s-2,1.5-2,2.9c0,1.1,0.4,2.1,1.1,2.8c0.7,0.7,1.7,1.1,2.8,1.1C397.9,258.8,399.4,258.1,400.5,256.9z"
			/>
		<path class="st3" d="M421.1,267.1v-52.7h13.3v52.7H421.1z"/>
		<path class="st3" d="M449.4,265.3c-3.1-1.6-5.4-3.8-7.1-6.7c-1.7-2.9-2.5-6.3-2.5-10.2c0-3.9,0.8-7.3,2.5-10.1
			c1.7-2.9,4-5.1,7.1-6.6c3-1.5,6.6-2.3,10.7-2.3c4.1,0,7.6,0.8,10.7,2.3c3,1.5,5.4,3.8,7.1,6.6c1.7,2.9,2.5,6.2,2.5,10.1
			c0,3.9-0.8,7.3-2.5,10.2c-1.7,2.9-4,5.1-7.1,6.7c-3,1.6-6.6,2.4-10.7,2.4C456.1,267.7,452.5,266.9,449.4,265.3z M467.2,248.5
			c0-6.2-2.4-9.3-7.1-9.3c-4.7,0-7.1,3.1-7.1,9.3c0,6.2,2.4,9.3,7.1,9.3C464.8,257.7,467.2,254.6,467.2,248.5z"/>
		<path class="st3" d="M526.1,230.3v32.3c0,6.1-1.8,10.7-5.4,13.8c-3.6,3.1-9,4.7-16,4.7c-3.3,0-6.6-0.4-9.7-1.2
			c-3.1-0.8-5.9-1.9-8.1-3.3l3.4-9c2.3,1.2,4.7,2.1,7.1,2.8c2.5,0.6,4.8,1,7,1c2.9,0,5.1-0.6,6.5-1.9c1.4-1.3,2.1-3.3,2.1-6v-2.8
			c-1.1,1.6-2.7,3-4.7,3.9c-2,1-4.3,1.5-6.7,1.5c-3.2,0-6-0.7-8.5-2.2c-2.5-1.5-4.4-3.6-5.8-6.4c-1.4-2.8-2.1-6-2.1-9.6
			s0.7-6.9,2.1-9.6c1.4-2.8,3.3-4.9,5.8-6.5c2.5-1.5,5.3-2.3,8.5-2.3c2.4,0,4.7,0.5,6.7,1.5c2,1,3.6,2.4,4.7,4.1v-4.7H526.1z
			 M511.1,253.9c1.3-1.5,1.9-3.5,1.9-6.1c0-2.6-0.6-4.7-1.9-6.2c-1.3-1.5-3.1-2.2-5.5-2.2c-2.3,0-4.1,0.7-5.4,2.2
			c-1.3,1.5-1.9,3.6-1.9,6.2c0,2.6,0.7,4.6,2,6.1c1.3,1.5,3.1,2.2,5.3,2.2C508,256.1,509.8,255.4,511.1,253.9z"/>
		<path class="st3" d="M532,211.9h13.9v12H532V211.9z M532.3,267.1v-36.8h13.3v36.8H532.3z"/>
		<path class="st3" d="M579.4,248.1l15.6,19h-15.5l-7.7-9.7l-7.7,9.7h-15.5l15.6-19l-14.7-17.8h15.6l6.7,8.7l6.7-8.7h15.6
			L579.4,248.1z"/>
	</g>
	<g class="st1">
		<polygon class="st4" points="213.5,236.6 212.2,220 204.6,206.9 232.9,235.2 		"/>
		<polygon class="st5" points="215.3,240.4 232.5,263.7 235.3,239.1 		"/>
		<polygon class="st6" points="208.8,260.1 212.6,243.1 229.1,265.5 		"/>
		<polygon class="st7" points="208.3,264 227.9,269.2 207.2,279.2 		"/>
		<polygon class="st8" points="203.4,279.6 204.4,264.4 185.1,271.4 		"/>
		<polygon class="st9" points="186.5,276.3 200.7,294.1 202.9,283.7 		"/>
		<polygon class="st10" points="204.1,296.4 205.9,288 210.5,296.5 		"/>
		<polygon class="st11" points="180.5,268.8 162.4,246.3 201.1,261.4 		"/>
		<polygon class="st12" points="205.5,257.2 182.4,230.1 209.4,239.9 		"/>
		<polygon class="st13" points="184.3,226.6 208.7,222.9 209.6,236.1 		"/>
		<polygon class="st14" points="157.7,241.3 176.1,228.6 200.2,257.1 		"/>
		<polygon class="st15" points="143.6,268.6 154.1,245.6 176,269.2 		"/>
		<polygon class="st16" points="140,267.4 117.1,247.1 150.6,244.1 		"/>
		<polygon class="st17" points="116.2,243.4 133.3,214.9 150.5,240.5 		"/>
		<polygon class="st18" points="137.7,215.1 154.1,239.3 172.7,226.6 		"/>
		<polygon class="st6" points="139.5,211.8 191.7,198.1 175.6,223.6 		"/>
		<polygon class="st19" points="180.4,223.3 195.6,199.1 207.3,219.1 		"/>
	</g>
</g>
<g id="Layer_2_copy">
	<g>
		<g>
			<path class="st3" d="M204.6,84.9c-5.1-2.8-9-6.8-11.8-12c-2.7-5.1-4.1-11.1-4.1-17.9c0-6.8,1.4-12.7,4.1-17.8
				c2.7-5.1,6.7-9.1,11.8-11.9c5.1-2.8,11.1-4.2,18-4.2c4.3,0,8.5,0.7,12.6,2c4.1,1.3,7.4,3.1,9.9,5.3l-5.4,12.2
				c-5.5-3.8-11.1-5.7-16.8-5.7c-5.4,0-9.5,1.7-12.4,5.1s-4.3,8.4-4.3,15.2c0,6.7,1.4,11.8,4.3,15.2c2.9,3.4,7,5.1,12.4,5.1
				c5.7,0,11.3-1.9,16.8-5.7l5.4,12.2c-2.6,2.2-5.9,4-9.9,5.3s-8.2,2-12.6,2C215.7,89.1,209.7,87.7,204.6,84.9z"/>
			<path class="st3" d="M260.3,86.1c-3.9-2-6.8-4.8-8.9-8.4c-2.1-3.6-3.2-7.9-3.2-12.8c0-4.9,1.1-9.2,3.2-12.8
				c2.1-3.6,5.1-6.4,8.9-8.3c3.8-1.9,8.3-2.9,13.5-2.9c5.1,0,9.6,1,13.5,2.9c3.8,1.9,6.8,4.7,8.9,8.3c2.1,3.6,3.2,7.9,3.2,12.8
				c0,4.9-1.1,9.2-3.2,12.8c-2.1,3.6-5.1,6.5-8.9,8.4c-3.8,2-8.3,3-13.5,3C268.6,89,264.2,88,260.3,86.1z M282.7,64.8
				c0-7.8-3-11.7-8.9-11.7c-6,0-8.9,3.9-8.9,11.7c0,7.8,3,11.7,8.9,11.7C279.7,76.5,282.7,72.6,282.7,64.8z"/>
			<path class="st3" d="M341.8,54.5l-9.1,0.9c-3.6,0.4-6.2,1.4-7.6,2.9c-1.4,1.6-2.2,3.8-2.2,6.7v23.3h-16.8V41.9H322v8
				c1.1-2.8,2.8-5,5.3-6.5c2.4-1.5,5.4-2.3,8.9-2.5l4.6-0.4L341.8,54.5z"/>
			<path class="st3" d="M383.9,45.9c3.5,3.4,5.2,8.6,5.2,15.7v26.7h-15.7v-6.5c-0.9,2.3-2.4,4-4.4,5.3c-2.1,1.3-4.6,1.9-7.4,1.9
				c-3.2,0-6.1-0.6-8.7-1.9c-2.6-1.3-4.6-3.1-6.1-5.4c-1.5-2.3-2.2-4.9-2.2-7.8c0-3.3,0.9-6,2.6-8c1.7-2,4.5-3.4,8.2-4.3
				c3.8-0.9,8.9-1.3,15.3-1.3h2.5v-1.1c0-2.3-0.5-3.9-1.6-4.8c-1.1-0.9-3-1.4-5.7-1.4c-2.1,0-4.6,0.4-7.4,1.3
				c-2.8,0.8-5.4,1.9-7.9,3.2l-4.2-11c2.7-1.6,6.1-3,10.1-4.1c4.1-1.1,7.8-1.6,11.2-1.6C375,40.8,380.4,42.5,383.9,45.9z M371,75.4
				c1.4-1.6,2.2-3.7,2.2-6.2v-1.1h-1.5c-4,0-6.9,0.4-8.6,1.1s-2.5,1.9-2.5,3.6c0,1.4,0.5,2.6,1.4,3.6c0.9,0.9,2.1,1.4,3.5,1.4
				C367.7,77.8,369.6,77,371,75.4z"/>
			<path class="st3" d="M396.9,88.3V21.9h16.8v66.4H396.9z"/>
			<path class="st3" d="M432.6,86.1c-3.9-2-6.8-4.8-8.9-8.4c-2.1-3.6-3.2-7.9-3.2-12.8c0-4.9,1.1-9.2,3.2-12.8
				c2.1-3.6,5.1-6.4,8.9-8.3c3.8-1.9,8.3-2.9,13.5-2.9c5.1,0,9.6,1,13.5,2.9c3.8,1.9,6.8,4.7,8.9,8.3c2.1,3.6,3.2,7.9,3.2,12.8
				c0,4.9-1.1,9.2-3.2,12.8c-2.1,3.6-5.1,6.5-8.9,8.4c-3.8,2-8.3,3-13.5,3C441,89,436.5,88,432.6,86.1z M455,64.8
				c0-7.8-3-11.7-8.9-11.7c-6,0-8.9,3.9-8.9,11.7c0,7.8,3,11.7,8.9,11.7C452,76.5,455,72.6,455,64.8z"/>
			<path class="st3" d="M529.2,41.9v40.7c0,7.7-2.3,13.5-6.8,17.4c-4.6,4-11.3,5.9-20.2,5.9c-4.2,0-8.3-0.5-12.2-1.5
				c-4-1-7.4-2.3-10.3-4.1l4.2-11.4c2.9,1.5,5.9,2.7,9,3.5c3.1,0.8,6,1.2,8.8,1.2c3.7,0,6.5-0.8,8.2-2.4c1.8-1.6,2.7-4.1,2.7-7.6
				v-3.6c-1.4,2.1-3.4,3.7-5.9,4.9c-2.6,1.2-5.4,1.8-8.4,1.8c-4,0-7.6-0.9-10.7-2.8c-3.1-1.9-5.6-4.6-7.3-8.1
				c-1.8-3.5-2.6-7.5-2.6-12.1s0.9-8.6,2.6-12.1c1.8-3.5,4.2-6.2,7.3-8.1c3.1-1.9,6.7-2.9,10.7-2.9c3.1,0,5.9,0.6,8.5,1.9
				c2.6,1.3,4.6,3,5.9,5.2v-5.9H529.2z M510.3,71.7c1.6-1.9,2.4-4.4,2.4-7.7c0-3.3-0.8-5.9-2.4-7.8c-1.6-1.9-3.9-2.8-6.9-2.8
				c-2.9,0-5.1,0.9-6.8,2.8c-1.6,1.9-2.4,4.5-2.4,7.9c0,3.3,0.8,5.8,2.5,7.7c1.7,1.9,3.9,2.8,6.7,2.8
				C506.3,74.4,508.6,73.5,510.3,71.7z"/>
			<path class="st3" d="M536.6,18.8h17.5v15.2h-17.5V18.8z M537,88.3V41.9h16.8v46.3H537z"/>
			<path class="st3" d="M596.3,64.4L616,88.3h-19.6L586.7,76L577,88.3h-19.5l19.7-23.9l-18.6-22.4h19.7l8.4,10.9l8.5-10.9h19.7
				L596.3,64.4z"/>
		</g>
		<g>
			<polygon class="st20" points="72.3,35.9 27.8,21.5 48.6,52.2 			"/>
			<polygon class="st20" points="21.7,21.3 0,57.6 43.7,53.7 			"/>
			<polygon class="st20" points="1.3,62.4 30.3,88.4 44,58.6 			"/>
			<polygon class="st20" points="96.4,0 29.8,17.1 76.2,32.1 			"/>
			<polygon class="st20" points="116.9,26.6 101.8,0.7 82.2,31.8 			"/>
			<polygon class="st20" points="119.6,53.2 85.1,40.5 114.5,75.4 			"/>
			<polygon class="st20" points="52.9,55 107.7,75 76.9,38.5 			"/>
			<polygon class="st20" points="118.6,31.3 87.1,36 119.7,48 			"/>
			<polygon class="st20" points="35,90 76.5,90.6 48.6,60.4 			"/>
			<path class="st20" d="M123,27.3L123,27.3C123,27.3,123,27.3,123,27.3c0.1,0.2,0.1,0.3,0.2,0.4c0.1,0.1,0.1,0.3,0.2,0.4
				c0,0,0,0,0,0c0,0,0,0.1,0,0.1c0,0,0,0,0,0.1l1.4,20.6l25.1-1.8L113.5,11L123,27.3C123,27.2,123,27.2,123,27.3z"/>
			<polygon class="st20" points="149.1,83.6 152.6,51.9 127.1,53.7 			"/>
			<polygon class="st20" points="118.7,79 144.7,85.9 123.7,57.4 			"/>
			<polygon class="st20" points="116.7,103.5 132.9,95.1 143.4,90.7 118.1,83.9 			"/>
			<polygon class="st20" points="112.6,125.6 120.8,125.6 115,114.8 			"/>
			<polygon class="st20" points="108.3,122.5 111.1,109.1 90.1,99.6 			"/>
			<polygon class="st20" points="59.4,61.4 82.6,90.3 108.9,80.7 			"/>
			<polygon class="st20" points="88.2,93.4 111.7,104 113.1,84.4 			"/>
		</g>
	</g>
</g>
</svg>
