<?xml version="1.0" encoding="utf-8"?>
<!-- Generator: Adobe Illustrator 22.1.0, SVG Export Plug-In . SVG Version: 6.00 Build 0)  -->
<!DOCTYPE svg PUBLIC "-//W3C//DTD SVG 1.1//EN" "http://www.w3.org/Graphics/SVG/1.1/DTD/svg11.dtd">
<svg version="1.1" id="Layer_1" xmlns="http://www.w3.org/2000/svg" xmlns:xlink="http://www.w3.org/1999/xlink" x="0px" y="0px"
	 viewBox="0 0 841.9 595.3" style="enable-background:new 0 0 841.9 595.3;" xml:space="preserve">
<style type="text/css">
	.st0{fill:#00BCE7;}
	.st1{fill:#000033;}
</style>
<rect x="119.6" y="245.8" class="st0" width="21" height="17.8"/>
<rect x="119.6" y="271.2" class="st1" width="21" height="17.8"/>
<rect x="119.6" y="296.7" class="st1" width="21" height="17.8"/>
<rect x="119.6" y="322.1" class="st1" width="21" height="17.8"/>
<g>
	<path class="st1" d="M208.8,277.3c-1.9-2.5-4.6-4.5-7.9-6c-3.3-1.4-7.5-2.1-12.5-2.1c-4,0-8,0.9-11.9,2.8c-2.8,1.3-5.3,3.3-7.3,5.7
		V271H149v69.1h21v-36.1c0-6.4,1-11,3-13.7c2-2.6,5.1-3.9,9.6-3.9c3.9,0,6.5,1.1,7.9,3.4c1.6,2.4,2.3,6.3,2.3,11.5v38.8h21v-42.2
		c0-4.2-0.4-8-1.1-11.5C212.1,282.9,210.7,279.8,208.8,277.3"/>
	<path class="st1" d="M277.1,303.2c-2.1-1.5-4.5-2.7-7.1-3.6c-2.6-0.9-5.2-1.6-7.9-2.2c-2.6-0.6-5.2-1.2-7.6-1.7
		c-2.4-0.5-4.6-1.1-6.4-1.7c-1.7-0.6-3.2-1.3-4.2-2.2c-0.9-0.8-1.3-1.7-1.3-2.9c0-1,0.2-1.8,0.7-2.4c0.5-0.6,1.2-1.1,2-1.5
		c0.8-0.4,1.8-0.6,2.9-0.7c1.1-0.1,2.2-0.2,3.2-0.2c3,0,5.6,0.6,7.8,1.7c1.9,1,3,3,3.2,6l0.1,1.3h20.2l-0.1-1.5
		c-0.4-4.3-1.5-8-3.4-10.8c-1.9-2.9-4.2-5.2-7-6.9c-2.8-1.7-6-2.9-9.5-3.6c-3.5-0.7-7.1-1.1-10.7-1.1c-3.7,0-7.3,0.3-10.8,1
		c-3.6,0.7-6.8,1.8-9.7,3.5c-2.9,1.7-5.3,4-7.1,7c-1.8,2.9-2.7,6.7-2.7,11.2c0,3.2,0.7,5.9,2,8.1c1.3,2.2,3,4,5.2,5.4
		c2.1,1.4,4.4,2.5,7.1,3.4c2.5,0.8,5.2,1.5,7.9,2.2c6.4,1.3,11.4,2.7,15,4c4.5,1.7,4.5,4,4.5,4.8c0,1.3-0.3,2.4-0.9,3.2
		c-0.6,0.9-1.4,1.6-2.4,2.2c-1,0.6-2.2,1-3.4,1.3c-1.3,0.3-2.6,0.4-3.7,0.4c-1.7,0-3.3-0.2-4.8-0.6c-1.5-0.4-2.8-1-4-1.8
		c-1.1-0.8-2-1.8-2.7-3l0,0c-0.7-1.2-1-2.6-1-4.3v-1.4H220l0.1,1.5c0.2,4.7,1.3,8.6,3.2,11.8c1.9,3.1,4.5,5.7,7.5,7.6
		c3,1.9,6.4,3.2,10.3,4c3.8,0.8,7.6,1.2,11.6,1.2c3.8,0,7.6-0.4,11.4-1.1c3.8-0.8,7.2-2.1,10.2-4c3-1.9,5.4-4.5,7.3-7.6
		c1.9-3.2,2.8-7.1,2.8-11.7c0-3.3-0.7-6.1-2-8.5C280.9,306.7,279.2,304.8,277.1,303.2"/>
	<path class="st1" d="M317.3,251.2h-21V271h-11v15h11v37.6c0,3.6,0.6,6.5,1.8,8.7c1.2,2.3,2.9,4.1,5.1,5.3c2.1,1.2,4.5,2,7.2,2.4
		c2.6,0.4,5.3,0.6,8.2,0.6c1.8,0,3.6,0,5.6-0.1c1.9-0.1,3.7-0.3,5.3-0.5l1.2-0.2v-17l-1.7,0.3c-0.8,0.2-1.7,0.3-2.5,0.4
		c-0.9,0.1-1.8,0.1-2.8,0.1c-3.5,0-6.3-1.1-6.3-6.8V286h13.3v-15h-13.3V251.2z"/>
	<path class="st1" d="M516.4,333.7c1.9,2.5,4.6,4.5,7.9,6c3.3,1.4,7.5,2.1,12.5,2.1c4,0,8-0.9,11.9-2.8c2.8-1.3,5.3-3.3,7.3-5.7v6.7
		h20.1v-69.1h-21V307c0,6.4-1,11-3,13.7c-2,2.6-5.1,3.9-9.6,3.9c-3.9,0-6.5-1.1-7.9-3.4c-1.6-2.4-2.3-6.3-2.3-11.5v-38.8h-21V313
		c0,4.2,0.4,8,1.1,11.5C513.1,328.1,514.5,331.2,516.4,333.7"/>
	<path class="st1" d="M639.3,303.2c-2.1-1.5-4.5-2.7-7.1-3.6c-2.6-0.9-5.2-1.6-7.9-2.2c-2.6-0.6-5.2-1.2-7.6-1.7
		c-2.4-0.5-4.6-1.1-6.4-1.7c-1.7-0.6-3.2-1.3-4.2-2.2c-0.9-0.8-1.3-1.7-1.3-2.9c0-1,0.2-1.8,0.7-2.4c0.5-0.6,1.2-1.1,2-1.5
		c0.8-0.4,1.8-0.6,2.9-0.7c1.1-0.1,2.2-0.2,3.2-0.2c3,0,5.6,0.6,7.8,1.7c1.9,1,3,3,3.2,6l0.1,1.3h20.2l-0.1-1.5
		c-0.4-4.3-1.5-8-3.4-10.8c-1.9-2.9-4.2-5.2-7-6.9c-2.8-1.7-6-2.9-9.5-3.6c-3.5-0.7-7.1-1.1-10.7-1.1c-3.7,0-7.3,0.3-10.8,1
		c-3.6,0.7-6.8,1.8-9.7,3.5c-2.9,1.7-5.3,4-7.1,7c-1.8,2.9-2.7,6.7-2.7,11.2c0,3.2,0.7,5.9,2,8.1c1.3,2.2,3,4,5.2,5.4
		c2.1,1.4,4.4,2.5,7.1,3.4c2.5,0.8,5.2,1.5,7.9,2.2c6.4,1.3,11.4,2.7,15,4c4.5,1.7,4.5,4,4.5,4.8c0,1.3-0.3,2.4-0.9,3.2
		c-0.6,0.9-1.4,1.6-2.4,2.2c-1,0.6-2.2,1-3.4,1.3c-1.3,0.3-2.6,0.4-3.7,0.4c-1.7,0-3.3-0.2-4.8-0.6c-1.5-0.4-2.8-1-4-1.8
		c-1.1-0.8-2-1.8-2.7-3l0,0c-0.7-1.2-1-2.6-1-4.3v-1.4h-20.2l0.1,1.5c0.2,4.7,1.3,8.6,3.2,11.8c1.9,3.1,4.5,5.7,7.5,7.6
		c3,1.9,6.4,3.2,10.3,4c3.7,0.8,7.6,1.2,11.6,1.2c3.8,0,7.6-0.4,11.4-1.1c3.8-0.8,7.2-2.1,10.2-4c3-1.9,5.4-4.5,7.3-7.6
		c1.9-3.2,2.8-7.1,2.8-11.7c0-3.3-0.7-6.1-2-8.5C643.2,306.7,641.4,304.8,639.3,303.2"/>
	<path class="st1" d="M679.5,251.2h-21V271h-11v15h11v37.6c0,3.6,0.6,6.5,1.8,8.7c1.2,2.3,2.9,4.1,5.1,5.3c2.1,1.2,4.5,2,7.2,2.4
		c2.6,0.4,5.3,0.6,8.2,0.6c1.8,0,3.6,0,5.6-0.1c1.9-0.1,3.7-0.3,5.3-0.5l1.2-0.2v-17l-1.7,0.3c-0.8,0.2-1.7,0.3-2.5,0.4
		c-0.9,0.1-1.8,0.1-2.8,0.1c-3.5,0-6.3-1.1-6.3-6.8V286h13.3v-15h-13.3V251.2z"/>
	<path class="st1" d="M380.1,313c0,0.9-0.1,2.3-0.3,3.9c-0.2,1.5-0.7,3-1.6,4.5c-0.8,1.4-2.1,2.7-3.9,3.8c-1.7,1.1-4.3,1.6-7.6,1.6
		c-1.4,0-2.7-0.1-4-0.4c-1.2-0.2-2.2-0.6-3.1-1.2c-0.8-0.5-1.5-1.2-1.9-2.1c-0.5-0.9-0.7-2-0.7-3.4c0-1.5,0.2-2.7,0.7-3.6
		c0.5-0.9,1.2-1.7,2-2.3c0.9-0.6,1.9-1.1,3.1-1.5c1.3-0.4,2.6-0.7,3.8-1c1.4-0.2,2.8-0.5,4.3-0.6c1.5-0.2,2.9-0.4,4.3-0.7
		c1.4-0.3,2.7-0.6,3.9-1c0.4-0.1,0.7-0.2,1-0.4V313z M401.6,332.3c-0.3-2.7-0.5-5.5-0.5-8.4v-34.5c0-4.3-1-7.8-3-10.5
		c-1.9-2.6-4.4-4.7-7.4-6.1c-2.9-1.4-6.2-2.4-9.8-2.9c-3.5-0.5-6.9-0.7-10.3-0.7c-3.7,0-7.5,0.4-11.2,1.1c-3.8,0.8-7.2,2-10.2,3.8
		c-3.1,1.8-5.6,4.2-7.6,7.2c-2,3-3.2,6.8-3.4,11.3l-0.1,1.5h21l0.1-1.3c0.3-3.2,1.3-5.4,3-6.7c1.8-1.3,4.3-2,7.6-2
		c1.5,0,3,0.1,4.3,0.3c1.2,0.2,2.3,0.6,3.2,1.1c0.9,0.5,1.5,1.2,2.1,2.2c0.5,0.9,0.8,2.3,0.8,4l0,0.1c0.1,1.4-0.3,2.4-1.1,3.1
		c-1,0.8-2.5,1.5-4.3,2c-2,0.5-4.3,0.9-6.8,1.1c-2.7,0.3-5.4,0.6-8.2,1c-2.8,0.4-5.6,1-8.3,1.8c-2.8,0.8-5.4,1.9-7.6,3.5
		c-2.3,1.6-4.1,3.7-5.6,6.3c-1.4,2.6-2.2,6-2.2,10c0,3.6,0.6,6.8,1.9,9.4c1.2,2.7,3,4.9,5.2,6.7c2.2,1.7,4.8,3,7.7,3.8
		c2.8,0.8,5.9,1.2,9.2,1.2c4.2,0,8.4-0.6,12.5-1.9c3.2-1,6.2-2.6,8.8-4.7c0,0.2,0.1,0.4,0.1,0.6c0.2,1.1,0.5,2.2,0.9,3.3l0.3,1h22
		l-1.4-2.2C402.5,336.7,401.9,334.8,401.6,332.3"/>
	<path class="st1" d="M455.3,311.9l-0.2,1.2c-0.6,3.8-1.9,6.8-4,9c-2.1,2.2-5,3.2-9,3.2c-2.5,0-4.7-0.6-6.4-1.7
		c-1.8-1.1-3.2-2.6-4.2-4.4c-1.1-1.9-1.9-4-2.3-6.3c-0.5-2.4-0.7-4.7-0.7-7c0-2.4,0.2-4.8,0.7-7.2c0.5-2.4,1.3-4.5,2.5-6.5
		c1.1-1.9,2.6-3.5,4.4-4.7c1.7-1.2,3.9-1.7,6.5-1.7c7,0,11,3.3,12,10.2l0.2,1.2h20.5l-0.1-1.5c-0.3-4.5-1.4-8.4-3.3-11.7
		c-1.9-3.3-4.4-6-7.4-8.3c-3-2.2-6.4-3.8-10.2-4.9c-3.7-1.1-7.7-1.6-11.7-1.6c-5.5,0-10.6,0.9-14.9,2.8c-4.4,1.9-8.1,4.5-11.1,7.8
		c-3,3.3-5.3,7.3-6.9,11.9c-1.5,4.5-2.3,9.5-2.3,14.7c0,5.1,0.9,9.9,2.5,14.2c1.7,4.3,4.1,8.1,7.1,11.2c3,3.1,6.7,5.6,11.1,7.3
		c4.3,1.7,9.1,2.6,14.2,2.6c9.1,0,16.7-2.4,22.5-7.2c5.9-4.8,9.5-11.9,10.8-21l0.2-1.6H455.3z"/>
</g>
<polygon class="st1" points="481.9,251.2 481.9,291.2 481.9,299.9 481.9,339.9 502.9,339.9 502.9,299.9 502.9,291.2 502.9,251.2 "/>
<g>
	<path class="st1" d="M748.3,269.9c-2.3-0.5-5-0.7-7.9-0.7c-4,0-8,0.9-11.9,2.8c-2.8,1.3-5.3,3.3-7.3,5.7V271h-20.1v69.1h21v-34.5
		c0-6.4,1-11,3-13.7c2-2.6,5.1-3.9,9.6-3.9c8.9,0,13.5,2.1,13.5,2.1V269.9z"/>
</g>
</svg>
