<?xml version="1.0" encoding="utf-8"?>
<!-- Generator: Adobe Illustrator 23.0.3, SVG Export Plug-In . SVG Version: 6.00 Build 0)  -->
<svg version="1.1" id="Layer_1" xmlns="http://www.w3.org/2000/svg" xmlns:xlink="http://www.w3.org/1999/xlink" x="0px" y="0px"
	 viewBox="0 0 64 64" style="enable-background:new 0 0 64 64;" xml:space="preserve">
<style type="text/css">
	.st0{fill:#0A1F72;stroke:#0A1F72;stroke-width:2;stroke-miterlimit:10;}
</style>
<path class="st0" d="M23.7,9.9c0-4.9-3.9-8.8-8.8-8.8S6.1,5.1,6.1,9.9c0,4.4,3.3,8.1,7.6,8.7v26.6c-4.3,0.6-7.6,4.3-7.6,8.7
	c0,4.9,3.9,8.8,8.8,8.8s8.8-3.9,8.8-8.8c0-4.5-3.4-8.3-7.8-8.7V18.7C20.3,18.2,23.7,14.4,23.7,9.9z M8.3,9.9c0-3.6,3-6.6,6.6-6.6
	s6.6,3,6.6,6.6s-3,6.6-6.6,6.6S8.3,13.6,8.3,9.9z M21.5,53.9c0,3.6-3,6.6-6.6,6.6s-6.6-3-6.6-6.6c0-3.6,3-6.6,6.6-6.6
	S21.5,50.2,21.5,53.9z"/>
<path class="st0" d="M50.6,45.5V23.8c0-1.9,0-5.5-1.2-8.5c-1.5-3.7-4.5-5.5-8.6-5.5h-14L33.4,3c0.4-0.4,0.4-1.1,0-1.5
	c-0.2-0.2-0.5-0.3-0.8-0.3c-0.3,0-0.6,0.1-0.8,0.3l-7.8,7.7c-0.9,0.9-0.9,2.2,0,3.1l8,8c0.4,0.4,1.1,0.4,1.5,0s0.4-1.1,0-1.5l-7-6.8
	h14c6.6,0,7.7,5.7,7.7,11.9v21.7c-4.3,0.5-7.7,4.1-7.7,8.6c0,4.8,3.9,8.6,8.6,8.6S58,58.8,58,54C58,49.7,54.8,46.1,50.6,45.5z
	 M49.3,60.5c-3.6,0-6.5-2.9-6.5-6.5c0-3.6,2.9-6.5,6.5-6.5s6.5,2.9,6.5,6.5C55.8,57.6,52.9,60.5,49.3,60.5z"/>
</svg>
