<?xml version="1.0" encoding="utf-8"?>
<!-- Svg Vector Icons : http://www.onlinewebfonts.com/icon -->
<!DOCTYPE svg PUBLIC "-//W3C//DTD SVG 1.1//EN" "http://www.w3.org/Graphics/SVG/1.1/DTD/svg11.dtd">
<svg version="1.1" xmlns="http://www.w3.org/2000/svg" xmlns:xlink="http://www.w3.org/1999/xlink" x="0px" y="0px" viewBox="0 0 1000 1000" enable-background="new 0 0 1000 1000" xml:space="preserve">
<metadata> Svg Vector Icons : http://www.onlinewebfonts.com/icon </metadata>
<g><g fill="#0a1f72" transform="translate(0.000000,511.000000) scale(0.100000,-0.100000)"><path d="M4466.7,5016.2c-211.1-16.4-563.5-71.7-776.6-122.9c-282.8-69.7-821.7-258.2-821.7-286.9c0-6.1,65.6-69.7,143.4-145.5c79.9-73.8,176.2-178.3,215.2-231.5c92.2-125,225.4-391.4,260.2-518.4c18.4-73.8,32.8-94.3,57.4-86.1c110.6,43,461.1,137.3,610.6,163.9c254.1,47.1,715.2,61.5,959,32.8c762.3-94.3,1387.3-389.3,1936.4-918l217.2-211.1l100.4,94.3c215.2,198.8,534.8,354.5,866.8,422.1l131.1,26.6l-127.1,157.8c-682.4,846.3-1709,1426.2-2813.5,1584C5208.5,5008,4667.5,5030.6,4466.7,5016.2z"/><path d="M1696.3,4598.2C600,4424,98,3137.2,794.7,2286.8c225.4-274.6,663.9-475.4,1038.9-475.4c397.5,0,827.8,207,1100.4,528.7c436.5,514.3,434.4,1319.6-6.2,1813.5C2622.5,4495.7,2143,4667.9,1696.3,4598.2z"/><path d="M8245.4,2928.1c-627-135.2-1098.3-692.6-1129.1-1331.9C7063,491.7,8235.1-202.9,9196.2,360.6c149.6,86.1,426.2,362.7,512.3,512.3c207,352.5,250,817.6,110.7,1198.8c-79.9,215.2-176.2,358.6-352.5,526.6C9151.1,2893.3,8677.7,3022.4,8245.4,2928.1z"/><path d="M393.1,1979.4c-133.2-358.6-223.4-729.5-272.5-1120.9C91.8,624.9,93.9,53.2,122.6-186.5c141.4-1178.3,729.5-2243.8,1631.1-2961c84-67.6,161.9-122.9,168-122.9c8.2,0,26.6,67.6,38.9,151.6c47.1,293,194.7,592.2,409.8,831.9l94.3,104.5l-161.9,157.8c-848.3,821.7-1196.7,1965.1-950.8,3108.5c24.6,106.6,65.6,258.2,92.2,338.1c34.8,104.5,43,147.5,24.6,153.7c-401.6,122.9-569.7,215.2-811.5,454.9c-94.3,94.2-174.2,170.1-176.2,170.1C477.1,2200.7,438.1,2100.3,393.1,1979.4z"/><path d="M9050.7-14.4c-270.5-106.6-692.6-127.1-1000-49.2c-53.3,12.3-55.3,10.2-100.4-178.3c-241.8-1014.3-975.4-1911.8-1922.1-2356.5c-184.4-88.1-600.4-229.5-733.6-252l-86-12.3l28.7-106.6c73.8-278.7,55.3-637.3-51.2-938.5c-43-118.9-51.2-161.9-30.7-161.9c14.3,0,122.9,18.5,239.8,41c926.2,178.3,1715.1,588.1,2389.3,1239.7c399.6,385.2,686.5,774.6,930.3,1254.1c241.8,479.5,375,897.5,475.4,1508.2C9200.3,38.9,9188,38.9,9050.7-14.4z"/><path d="M3350-2032.8c-311.5-65.6-657.8-282.8-842.2-526.6c-207-276.6-299.2-547.1-297.1-881.1c0-383.2,129.1-696.7,389.3-957c571.7-569.6,1481.5-530.7,2038.9,86.1c145.5,159.8,288.9,440.6,332,651.6c73.8,354.5-4.1,762.3-202.9,1059.4C4464.7-2145.5,3897.1-1920.1,3350-2032.8z"/></g></g>
</svg>