<?xml version="1.0" encoding="utf-8"?>
<!-- Generator: Adobe Illustrator 23.0.1, SVG Export Plug-In . SVG Version: 6.00 Build 0)  -->
<svg version="1.1" id="Layer_1" xmlns="http://www.w3.org/2000/svg" xmlns:xlink="http://www.w3.org/1999/xlink" x="0px" y="0px"
	 viewBox="0 0 64 64" style="enable-background:new 0 0 64 64;" xml:space="preserve">
<style type="text/css">
	.st0{fill:none;stroke:#ffffff;stroke-width:4;stroke-miterlimit:10;}
	.st1{fill:#ffffff;}
</style>
<g>
	<path class="st0" d="M43.6,34.6l16.5,16.5c2.5,2.5,2.5,6.4,0,8.9l0,0c-2.5,2.5-6.4,2.5-8.9,0L35.3,44.1"/>
	<g>
		<g>
			<path class="st1" d="M24.2,4.2c11,0,20,9,20,20s-9,20-20,20s-20-9-20-20S13.1,4.2,24.2,4.2 M24.2,0.2c-13.3,0-24,10.8-24,24
				c0,13.3,10.8,24,24,24s24-10.8,24-24C48.2,10.9,37.4,0.2,24.2,0.2L24.2,0.2z"/>
		</g>
	</g>
	<g>
		<g>
			<path class="st1" d="M24.1,12.3c6.6,0,11.9,5.4,11.9,11.9s-5.4,11.9-11.9,11.9s-11.9-5.4-11.9-11.9S17.5,12.3,24.1,12.3 M24.1,8.3
				c-8.8,0-15.9,7.1-15.9,15.9s7.1,15.9,15.9,15.9S40.1,33,40.1,24.2S32.9,8.3,24.1,8.3L24.1,8.3z"/>
		</g>
	</g>
</g>
</svg>
