<?xml version="1.0" ?>
<svg version="1.1" viewBox="0 0 16 16" xmlns="http://www.w3.org/2000/svg" xmlns:sketch="http://www.bohemiancoding.com/sketch/ns" xmlns:xlink="http://www.w3.org/1999/xlink"><title/><defs/><g fill="none" fill-rule="evenodd" id="Icons with numbers" stroke="none" stroke-width="1">
<g fill="#0a1f72" id="Group" transform="translate(-96.000000, -192.000000)"><path d="M109.501837,203 C109.761831,202.376536 109.927507,201.703935 109.981055,201 L107.990159,201 C107.962638,201.696921 107.87799,202.367894 107.743941,203 Z M109.981055,200 C109.927507,199.296065 109.761831,198.623464 109.501837,198 L107.743941,198 C107.87799,198.632106 107.962638,199.303079 107.990159,200 Z M108.978182,197 L107.480972,197 C107.189886,196.082206 106.787884,195.277205 106.30471,194.634576 C107.401057,195.159772 108.327266,195.983299 108.978182,197 Z M100.69529,194.634576 C99.598943,195.159772 98.6727338,195.983299 98.0218178,197 L99.5190279,197 C99.8101136,196.082206 100.212116,195.277205 100.69529,194.634576 Z M97.4981633,198 C97.2381694,198.623464 97.0724932,199.296065 97.0189448,200 L99.0098414,200 C99.0373616,199.303079 99.1220101,198.632106 99.2560585,198 Z M97.0189448,201 C97.0724932,201.703935 97.2381694,202.376536 97.4981633,203 L99.2560585,203 C99.1220101,202.367894 99.0373616,201.696921 99.0098414,201 Z M98.0218178,204 C98.6727338,205.016701 99.598943,205.840228 100.69529,206.365424 C100.212116,205.722795 99.8101136,204.917794 99.5190279,204 Z M96,200.500019 L96,200 L96.0164023,200 C96.2628142,196.256247 99.2562471,193.262814 103,193.016402 L103,193 L103.49996,193 L103.499978,193 L104,193 L104,193.016402 C107.743753,193.262814 110.737186,196.256247 110.983598,200 L111,200 L111,200.499981 L111,201 L110.983598,201 C110.737186,204.743753 107.743753,207.737186 104,207.983598 L104,208 L103.5,208 L103,208 L103,207.983598 C99.2562471,207.737186 96.2628142,204.743753 96.0164023,201 L96,201 Z M106.30471,206.365424 C107.401057,205.840228 108.327266,205.016701 108.978182,204 L107.480972,204 C107.189886,204.917794 106.787884,205.722795 106.30471,206.365424 Z M106.44979,197 C105.913005,195.442969 105.028624,194.339053 104,194.065826 L104,197 Z M103,194.065826 C101.971376,194.339053 101.086995,195.442969 100.55021,197 L103,197 L103,194.065826 L103,194.065826 Z M103,204 L103,206.934175 C101.971341,206.660934 101.08695,205.556982 100.55021,204 Z M104,206.934175 L104,204 L106.44979,204 C105.91305,205.556982 105.028659,206.660934 104,206.934175 Z M106.731758,203 L104,203 L104,201 L106.989799,201 C106.960969,201.703915 106.871755,202.376544 106.731758,203 Z M103,201 L103,203 L100.268242,203 C100.128245,202.376544 100.039031,201.703915 100.010201,201 Z M106.989799,200 L104,200 L104,198 L106.731758,198 C106.871755,198.623456 106.960969,199.296085 106.989799,200 Z M103,198 L103,200 L100.010201,200 C100.039031,199.296085 100.128245,198.623456 100.268242,198 Z M103,198" id="Oval 322 copy"/></g></g></svg>
