<?xml version="1.0" encoding="utf-8"?>
<!-- Generator: Adobe Illustrator 24.0.1, SVG Export Plug-In . SVG Version: 6.00 Build 0)  -->
<svg version="1.1" id="Layer_1" xmlns="http://www.w3.org/2000/svg" xmlns:xlink="http://www.w3.org/1999/xlink" x="0px" y="0px"
	 viewBox="0 0 42 42.9" style="enable-background:new 0 0 42 42.9;" xml:space="preserve">
<style type="text/css">
	.st0{fill:none;stroke:#0000FF;stroke-width:3;}
</style>
<title>Layer 1</title>
<g id="Layer_2_1_">
	<g id="Layer_1-2">
		<g id="ISM-icon">
			<path id="Oval-Copy-55" class="st0" d="M30,8.9H11"/>
			<path id="Oval-Copy-72" class="st0" d="M28.9,36.4h-19"/>
			<path id="Oval-Copy-70" class="st0" d="M35.2,12.7v18.4"/>
			<circle id="Oval-Copy-66" class="st0" cx="6.5" cy="36.4" r="5"/>
			<circle id="Oval-Copy-67" class="st0" cx="35.5" cy="7.4" r="5"/>
			<path id="Triangle" class="st0" d="M10.6,8L3.2,3.6c-0.7-0.4-1.7,0.1-1.7,1v8.7c0,0.9,0.9,1.4,1.7,1l7.4-4.3
				C11.3,9.4,11.3,8.4,10.6,8z"/>
			<path id="Rectangle" class="st0" d="M31.4,34l1.7-1.7c1.2-1.2,3.1-1.2,4.3,0l1.7,1.7c1.2,1.2,1.2,3.1,0,4.3L37.4,40
				c-1.2,1.2-3.1,1.2-4.3,0l-1.7-1.7C30.2,37.1,30.2,35.2,31.4,34z"/>
		</g>
	</g>
</g>
</svg>
