<?xml version="1.0" encoding="utf-8"?>
<!-- Generator: Adobe Illustrator 23.0.1, SVG Export Plug-In . SVG Version: 6.00 Build 0)  -->
<svg version="1.1" id="Layer_1" xmlns="http://www.w3.org/2000/svg" xmlns:xlink="http://www.w3.org/1999/xlink" x="0px" y="0px"
	 viewBox="0 0 16 16" style="enable-background:new 0 0 16 16;" xml:space="preserve">
<style type="text/css">
	.st0{fill:none;stroke:#000000;stroke-miterlimit:10;}
</style>
<g>
	<path class="st0" d="M10.9,8.7l4.1,4.1c0.6,0.6,0.6,1.6,0,2.2l0,0c-0.6,0.6-1.6,0.6-2.2,0l-4-4"/>
	<g>
		<g>
			<path d="M6,1c2.8,0,5,2.2,5,5s-2.2,5-5,5s-5-2.2-5-5S3.3,1,6,1 M6,0c-3.3,0-6,2.7-6,6s2.7,6,6,6s6-2.7,6-6S9.3,0,6,0L6,0z"/>
		</g>
	</g>
	<g>
		<g>
			<path d="M6,3.1c1.6,0,3,1.3,3,3S7.7,9,6,9s-3-1.3-3-3S4.4,3.1,6,3.1 M6,2.1c-2.2,0-4,1.8-4,4c0,2.2,1.8,4,4,4s4-1.8,4-4
				C10,3.9,8.2,2.1,6,2.1L6,2.1z"/>
		</g>
	</g>
</g>
</svg>
