<?xml version="1.0" encoding="utf-8"?>
<!-- Generator: Adobe Illustrator 23.0.1, SVG Export Plug-In . SVG Version: 6.00 Build 0)  -->
<svg version="1.1" id="Layer_1" xmlns="http://www.w3.org/2000/svg" xmlns:xlink="http://www.w3.org/1999/xlink" x="0px" y="0px"
	 viewBox="0 0 32 32" style="enable-background:new 0 0 32 32;" xml:space="preserve">
<style type="text/css">
	.st0{fill:none;stroke:#000000;stroke-width:2;stroke-miterlimit:10;}
</style>
<g>
	<path class="st0" d="M21.8,17.3l8.3,8.3c1.2,1.2,1.2,3.2,0,4.5l0,0c-1.2,1.2-3.2,1.2-4.5,0l-8-8"/>
	<g>
		<g>
			<path d="M12.1,2.1c5.5,0,10,4.5,10,10s-4.5,10-10,10s-10-4.5-10-10S6.5,2.1,12.1,2.1 M12.1,0.1c-6.6,0-12,5.4-12,12
				c0,6.6,5.4,12,12,12s12-5.4,12-12C24.1,5.4,18.7,0.1,12.1,0.1L12.1,0.1z"/>
		</g>
	</g>
	<g>
		<g>
			<path d="M12,6.1c3.3,0,6,2.7,6,6s-2.7,6-6,6s-6-2.7-6-6S8.7,6.1,12,6.1 M12,4.1c-4.4,0-8,3.6-8,8s3.6,8,8,8s8-3.6,8-8
				S16.4,4.1,12,4.1L12,4.1z"/>
		</g>
	</g>
</g>
</svg>
