<?xml version="1.0" encoding="utf-8"?>
<!-- Generator: Adobe Illustrator 23.0.1, SVG Export Plug-In . SVG Version: 6.00 Build 0)  -->
<svg version="1.1" id="Layer_1" xmlns="http://www.w3.org/2000/svg" xmlns:xlink="http://www.w3.org/1999/xlink" x="0px" y="0px"
	 viewBox="0 0 64 64" style="enable-background:new 0 0 64 64;" xml:space="preserve">
<style type="text/css">
	.st0{fill:none;stroke:#ffffff;stroke-width:4;stroke-linecap:round;stroke-miterlimit:10;}
</style>
<g>
	<path class="st0" d="M8.5,47.1c2.3-2.3,6.1-2.3,8.4,0s2.3,6.1,0,8.4C14.1,58.3,4.1,60,4.1,60S5.7,49.9,8.5,47.1z"/>
	<path class="st0" d="M26.9,57l25.7-25.7c7.4-7.4,9.5-17.5,7-26.9c-9.4-2.4-19.5-0.4-26.9,7L7,37.1L26.9,57z"/>
	<circle class="st0" cx="38.4" cy="25.7" r="5.9"/>
	<polyline class="st0" points="32.8,51.3 41.1,59.6 45.8,54.8 44.7,39.4 	"/>
	<polyline class="st0" points="12.6,31 4.3,22.8 9.1,18.1 24.5,19.1 	"/>
</g>
</svg>
