<?xml version="1.0" encoding="utf-8"?>
<!-- Generator: Adobe Illustrator 23.0.1, SVG Export Plug-In . SVG Version: 6.00 Build 0)  -->
<svg version="1.1" id="Layer_1" xmlns="http://www.w3.org/2000/svg" xmlns:xlink="http://www.w3.org/1999/xlink" x="0px" y="0px"
	 viewBox="0 0 64 64" style="enable-background:new 0 0 64 64;" xml:space="preserve">
<style type="text/css">
	.st0{fill:none;stroke:#ffffff;stroke-width:4;stroke-linejoin:round;stroke-miterlimit:10;}
	.st1{fill:#ffffff;}
</style>
<g>
	<path class="st0" d="M28.7,45.9L14,62v-16l-5.9,0C4.7,46,2,43.2,2,39.9V8.1C2,4.8,4.7,2,8.1,2l47.8,0C59.3,2,62,4.7,62,8.1v31.8
		c0,3.4-2.7,6.1-6.1,6.1H28.7L28.7,45.9z"/>
	<g>
		<path class="st1" d="M9.6,29.5l1.8-2.5c1.1,1.1,2.8,2.1,4.9,2.1c1.8,0,2.7-0.8,2.7-1.7c0-2.7-8.8-0.9-8.8-6.6c0-2.6,2.2-4.7,5.8-4.7
			c2.4,0,4.5,0.7,6,2.1l-1.8,2.4c-1.2-1.2-2.9-1.7-4.5-1.7c-1.4,0-2.2,0.6-2.2,1.5c0,2.4,8.8,0.8,8.8,6.5c0,2.8-2,4.9-6.1,4.9
			C13.2,31.9,11,30.9,9.6,29.5z"/>
		<path class="st1" d="M24.7,24c0-4.6,3.4-7.9,8-7.9c4.6,0,8,3.3,8,7.9c0,2.2-0.7,4-2,5.4l1.1,1.3l-2.3,1.9l-1.2-1.4c-1.1,0.5-2.3,0.8-3.6,0.8
			C28.1,31.9,24.7,28.6,24.7,24z M34.3,28.7l-1.7-2l2.3-1.9l1.7,2c0.5-0.8,0.8-1.8,0.8-2.9c0-2.9-1.8-5-4.7-5c-2.8,0-4.6,2.2-4.6,5
			c0,2.9,1.8,5,4.6,5C33.3,29,33.8,28.9,34.3,28.7z"/>
		<path class="st1" d="M44.5,31.6V16.3h3.3v12.5h6.5v2.9H44.5z"/>
	</g>
</g>
</svg>
