<svg id="Layer_1" data-name="Layer 1" xmlns="http://www.w3.org/2000/svg" viewBox="0 0 800 600"><defs><style>.cls-1,.cls-4{fill:#00007c;}.cls-2{fill:#fff;}.cls-3{fill:none;stroke:#fff;stroke-linecap:round;stroke-miterlimit:10;stroke-width:8px;}.cls-4{font-size:23.43px;font-family:Helvetica;}</style></defs><title>Artboard 1</title><path class="cls-1" d="M398.38,187.07H393.8l-.52,0h-.23c-2.24.1-4.46.28-6.65.51l.74,7a107.63,107.63,0,0,1,11.24-.6v-7Zm-23.83,2.55c-.84.18-1.68.38-2.52.58h-.18l-.14,0h-.34c-2.84.7-5.63,1.52-8.38,2.44l2.21,6.64a101.63,101.63,0,0,1,10.84-3l-1.49-6.84Zm-22.72,7.58c-2.68,1.23-5.32,2.57-7.89,4h0l0,0h0l0,0h0l0,0h-.12l0,0,0,0h0l0,0h-.1l0,0h0l0,0h0l0,0h0c-.73.41-1.46.83-2.18,1.26l3.58,6a104.83,104.83,0,0,1,9.95-5.24l-2.92-6.36Zm-20.57,12.27q-2.77,2.09-5.41,4.34h0l-.25.22h0l0,0h0l0,0h0l0,0h0l-.14.12h0l0,0h0l0,0h0l0,0h0l0,0h0l0,0h0l0,0h0l-.07.06h0l0,0h0l0,0h0v0h0v0h0l0,0h0l0,0h0l0,0h0l0,0h0l0,0h0l0,0h0l0,0h0l0,0h0v0h0v0h0l0,0v0h0l0,0h0l0,0h0l0,0h0l0,0h0l0,0h0l0,0h0l-.09.08h0l0,0h0l0,0h0l0,0h0l0,0h0l0,0h0l-.15.13h0l0,0h0l0,0h0l0,0h0l-.24.22h0l-1.43,1.32,4.78,5.11a105.9,105.9,0,0,1,8.61-7.23l-4.21-5.6Zm-17.49,16.37a110.45,110.45,0,0,0-7.34,9.48l5.75,4a107.52,107.52,0,0,1,6.88-8.89l-5.29-4.57Zm-13.63,19.7c-.26.47-.51.94-.76,1.42h0l0,0h0l0,0h0l0,0h0l-.05.11h0v0h0v.05h0v0h0v0h0v0h0l0,0h0c-1.26,2.43-2.44,4.92-3.52,7.46h0l0,0h0l0,0h0l0,0h0l-.07.17h0l0,0h0v0h0v.17h0l-.37.9,6.48,2.66a103.44,103.44,0,0,1,4.82-10.15l-6.15-3.34ZM291,267.7h0v0h0l-.09.32h0v0h0v0h0v.08h0v0h0v0h0v0h0l-.06.24h0v0h0v0h0v.08h0v0h0v.07h0v0h0l0,.16h0v.9h0v.08h0l0,.09h0v.08h0v0h0v.08h0v.08h0v.08h0v0h0l0,.14h0v0h0v0h0v0h0v0h0v0h0v0h0v0h0l-.09.36h0q-1,3.9-1.68,7.9l6.89,1.21a107.27,107.27,0,0,1,2.53-10.95L291,267.7Zm-4.14,23.59c-.13,1.94-.2,3.89-.23,5.85h0v.24h0v.12h0v.05h0v.05h0v.06h0v.06h0v.05h0v.06h0v.06h0v0h0v.11h0v.05h0v.05h0v.05h0v.1h0v.06h0v.1h0v.06h0v.1h0v.06h0v.06h0v.06h0V299h0v.13h0v.14h0v.06h0v.14h0v.14h0v.07h0v.14h0c0,1.15,0,2.3.08,3.44l7-.28c-.06-1.4-.09-2.81-.09-4.21,0-2.35.08-4.72.24-7.05l-7-.46Zm7.88,22.92-6.93,1A111.1,111.1,0,0,0,290.24,327l6.78-1.76a103.23,103.23,0,0,1-2.24-11Zm5.65,21.72-6.55,2.48a111,111,0,0,0,4.86,11l6.23-3.17a105.56,105.56,0,0,1-4.54-10.28Zm10.17,20-5.86,3.82a110.59,110.59,0,0,0,7.08,9.68l5.42-4.43a107,107,0,0,1-6.64-9.07Zm14.21,17.39-4.91,5q2.39,2.35,4.9,4.56h0l0,0h0l0,0h0l.17.15h0l0,0h0l0,0h0l0,0h0l0,0h0l.11.09h0l0,0h0l0,0h0l0,0h0l0,0h0l0,0h0l.1.09h0l0,0h0l0,0h0l0,0h0l0,0h0l0,0h0l0,0h0l.1.09h0l0,0h0l0,0h0l0,0h0l0,0h0l0,0h0l.18.15h0l.07.06h0c.84.7,1.68,1.4,2.54,2.08l4.36-5.48a104.37,104.37,0,0,1-8.42-7.46Zm17.58,14-3.75,5.91c1.4.89,2.83,1.75,4.27,2.58h0l.29.17h0l0,0h0l0,0h0l0,0h0l0,0h0l0,0h0l.18.1h0l0,0h.13l0,0h0l0,0h0l.1.05H344l0,0h0l0,0h.14l0,0h0l0,0h0l0,0h0l0,0h.13l0,0h0l.16.09h0l0,0h0l0,0h0l0,0h0l0,0h0l.29.16h0l1.49.8h0l0,0h0l0,0h0l.29.15h0l0,0h0l0,0h0l.17.08h0l0,0h.13l0,0h0l0,0h0l.08,0h.16l0,0h.06l0,0h0l0,0h0l.1.05h0l0,0h0l0,0h0l0,0h0l0,0h0l0,0h0l.9.45,3.1-6.28a106,106,0,0,1-9.81-5.5Zm20.14,9.91-2.39,6.58c1.65.6,3.32,1.17,5,1.69h0l.32.1h0l.08,0h.05l0,0h0l.32.09h.25l.16.05h.38l.12,0h.34l.14.05h.89l.11,0h.35l.2.06h.25c.81.22,1.63.43,2.45.63l1.67-6.8a104,104,0,0,1-10.75-3.27Zm21.8,5.36-.93,6.94c1,.13,2,.25,3,.36h.44l.27,0h.19c2.66.26,5.36.43,8.07.51l.19-7a104.55,104.55,0,0,1-11.21-.9Zm33.61-.89a101.88,101.88,0,0,1-11.15,1.49l.56,7,.65-.05h1q5.19-.5,10.22-1.45l-1.29-6.88Zm21.47-6.52A105,105,0,0,1,428.85,399l2,6.69a111.19,111.19,0,0,0,11.27-4.1l-2.74-6.44Zm19.58-11a103.15,103.15,0,0,1-9.49,6l3.42,6.11a109.57,109.57,0,0,0,10.13-6.42L459,384.2Zm16.82-14.9a108.54,108.54,0,0,1-8,7.9l4.64,5.24q3.88-3.44,7.43-7.22h0l0,0h0l.06-.07h0l.06-.07h0l0,0h0v0l0,0,0,0h0l0,0h0v0l0,0h0L481,374l-5.17-4.72Zm13.26-18.12a107.83,107.83,0,0,1-6.14,9.42l5.64,4.13.07-.1h0l0,0h0l0,0h0l0,0h0l0,0h0c.94-1.29,1.85-2.59,2.73-3.93h0l0,0h0l0,0h0l0,0h0l0,0h0l.08-.13h0l0,0v0l0,0v0h0v-.06l0,0v0h0l.05-.08h0v0h0l0,0h0v0h0l0,0h0l0,0h0q1.62-2.49,3.12-5.07l-6.06-3.51Zm9.09-20.52a101.59,101.59,0,0,1-4,10.5l6.4,2.84c.28-.63.55-1.25.82-1.88h0v0h0v0h0v0h0v0h0v-.09h0l0-.1h0v0h0l0,0h0v0h0v0h0l0,0h0q1.77-4.29,3.2-8.75l-6.67-2.13Zm4.48-22A103.47,103.47,0,0,1,501,319.78l6.86,1.4h0v0h0v0h0v0h0v0h0v0h0v0h0v0h0v-.05h0a113.7,113.7,0,0,0,1.68-11.5l-7-.65Zm6.66-23.3-6.95.83a107.66,107.66,0,0,1,.74,11.23l7-.09c0-2.94-.19-5.84-.45-8.72h0v0h0v0h0v0h0v-.08h0v0h0v0h0v-.08h0v-.08h0v-.21h0v-.08h0v0h0v-.08h0v-.08h0v-.08h0v0h0v0h0v0h0v0h0v0h0v0h0l0-.32h0v0h0v0h0v-.05h0v0h0v0h0v0h0v0h0v-.05h0v0h0l-.06-.59h0v-.05h0v-.05h0v0h0v0h0v0h0v-.09h0l0-.18ZM503.9,262l-6.61,2.3a104,104,0,0,1,3.12,10.8l6.82-1.58q-.9-3.85-2.05-7.62h0l0-.09h0v0h0l-.07-.22h0v-.05h0l0,0h0v-.12h0v-.08h0v0h0v0h0v-.11h0v-.16h0v0h0v0h0l0,0h0c0-.1-.06-.21-.1-.32h0c-.26-.81-.53-1.61-.81-2.41Zm-10.27-21.64-6,3.67a105.91,105.91,0,0,1,5.37,9.88l6.32-3a112.89,112.89,0,0,0-5.53-10.22h0l-.14-.24h0l0,0h0l0,0ZM479,221.43l-5,4.85a106.26,106.26,0,0,1,7.34,8.52l5.54-4.29-.57-.72h0l0,0h0l0,0h0l0,0h0l0,0h0l0,0h0l0,0,0,0v0l0,0h0l0,0h0l0,0h0l0,0h0l0,0h0l0,0h0q-2.81-3.53-5.87-6.81h0l-.23-.24h0l0,0h0a1.8,1.8,0,0,1-.19-.2h0l0,0h0l0,0h0l0,0h0l0,0h0l-.16-.17h0l0,0h0l0,0h0l0,0h0l-.16-.16h0l0,0ZM460.64,206l-3.91,5.81a105.36,105.36,0,0,1,9,6.76l4.51-5.36c-.67-.56-1.35-1.11-2-1.66h0l0,0h0l0,0h0l0,0h0l-.14-.11h0l0,0h0l0,0h0l0,0h0l0,0h0l0,0h0l0,0h0l-.07-.06h0l0,0h0l0,0h0l0,0h0l0,0h0l0,0h0l0,0h0l0,0h0l0,0h-.05l0,0h0l0,0h0v0h0l0,0h0l0,0,0,0h0l0,0h0l0,0h0l0,0h0l0,0h0l0,0h0l-.1-.07h0l0,0h0l0,0h0l0,0h0l0,0h0l0,0h0l0,0h0l-.13-.1h0l0,0h0l0,0h0l0,0h0l0,0h0l0,0h0l-.17-.12h0l0,0h0l0,0h0l0,0h0l0,0h0c-1.71-1.3-3.47-2.55-5.25-3.75Zm-21.2-11.16-2.57,6.51a106.9,106.9,0,0,1,10.21,4.69l3.26-6.19a110.87,110.87,0,0,0-10.9-5Zm-23.1-6.35-1.11,6.91a105.24,105.24,0,0,1,11,2.39l1.85-6.75-1.51-.4h-.83c-3.08-.78-6.2-1.42-9.38-1.94Zm-18-1.44v7c1.88,0,3.79.06,5.66.16l.38-7c-1.74-.1-3.48-.15-5.23-.16h-.81Z"/><path class="cls-1" d="M398.38,119.94a178.87,178.87,0,1,1-126.47,52.39,177.68,177.68,0,0,1,126.47-52.39m0-7c-102.65,0-185.86,83.21-185.86,185.86s83.21,185.85,185.86,185.85S584.23,401.44,584.23,298.8,501,112.94,398.38,112.94Z"/><circle class="cls-1" cx="372.3" cy="215.72" r="14.84"/><circle class="cls-1" cx="470.69" cy="345.35" r="14.84"/><circle class="cls-1" cx="348.87" cy="287.57" r="14.84"/><circle class="cls-1" cx="536.29" cy="239.93" r="14.84"/><circle class="cls-1" cx="275.47" cy="215.72" r="14.84"/><circle class="cls-1" cx="572.21" cy="125.14" r="14.84"/><circle class="cls-1" cx="661.23" cy="207.13" r="14.84"/><circle class="cls-1" cx="205.19" cy="110.3" r="14.84"/><circle class="cls-1" cx="334.03" cy="104.84" r="14.84"/><circle class="cls-1" cx="175.51" cy="277.42" r="14.84"/><circle class="cls-1" cx="211.43" cy="456.24" r="14.84"/><circle class="cls-1" cx="145.84" cy="377.37" r="14.84"/><circle class="cls-1" cx="551.12" cy="492.16" r="14.84"/><circle class="cls-1" cx="631.56" cy="392.21" r="14.84"/><circle class="cls-1" cx="398.38" cy="298.8" r="31.24"/><path class="cls-2" d="M393.38,286.2a6.84,6.84,0,1,1-6.84,6.83,6.84,6.84,0,0,1,6.84-6.83m0-8A14.84,14.84,0,1,0,408.22,293a14.84,14.84,0,0,0-14.84-14.83Z"/><line class="cls-3" x1="403.92" y1="302.79" x2="414.86" y2="313.73"/><text class="cls-4" transform="translate(455.6 312.53)">K3</text><text class="cls-4" transform="translate(531.35 312.53)">K5</text></svg>