<?xml version="1.0" encoding="utf-8"?>
<!-- Generator: Adobe Illustrator 23.0.1, SVG Export Plug-In . SVG Version: 6.00 Build 0)  -->
<svg version="1.1" id="Layer_1" xmlns="http://www.w3.org/2000/svg" xmlns:xlink="http://www.w3.org/1999/xlink" x="0px" y="0px"
	 viewBox="0 0 1081 255" style="enable-background:new 0 0 1081 255;" xml:space="preserve">
<style type="text/css">
	.st0{clip-path:url(#SVGID_2_);}
	.st1{clip-path:url(#SVGID_4_);}
	.st2{fill:url(#SVGID_5_);}
	.st3{fill:url(#SVGID_6_);}
	.st4{display:none;clip-path:url(#SVGID_8_);}
	.st5{display:inline;}
	.st6{display:inline;clip-path:url(#SVGID_10_);}
	.st7{fill:url(#SVGID_11_);}
	.st8{fill:url(#SVGID_12_);}
	.st9{clip-path:url(#SVGID_8_);}
	.st10{clip-path:url(#SVGID_14_);}
	.st11{fill:url(#SVGID_15_);}
	.st12{fill:url(#SVGID_16_);}
	.st13{fill:#FFFFFF;}
	.st14{clip-path:url(#SVGID_18_);}
	.st15{clip-path:url(#SVGID_20_);}
	.st16{clip-path:url(#SVGID_22_);}
	.st17{fill:url(#SVGID_23_);}
	.st18{fill:url(#SVGID_24_);}
	.st19{display:none;clip-path:url(#SVGID_18_);}
	.st20{display:inline;clip-path:url(#SVGID_26_);}
	.st21{fill:url(#SVGID_27_);}
	.st22{fill:url(#SVGID_28_);}
	.st23{clip-path:url(#SVGID_30_);}
	.st24{clip-path:url(#SVGID_32_);}
	.st25{clip-path:url(#SVGID_34_);}
	.st26{fill:url(#SVGID_35_);}
	.st27{fill:url(#SVGID_36_);}
	.st28{display:none;clip-path:url(#SVGID_30_);}
	.st29{display:inline;clip-path:url(#SVGID_38_);}
	.st30{fill:url(#SVGID_39_);}
	.st31{fill:url(#SVGID_40_);}
	.st32{clip-path:url(#SVGID_42_);}
	.st33{clip-path:url(#SVGID_44_);}
	.st34{clip-path:url(#SVGID_46_);}
	.st35{fill:url(#SVGID_47_);}
	.st36{fill:url(#SVGID_48_);}
	.st37{display:none;clip-path:url(#SVGID_42_);}
	.st38{display:inline;clip-path:url(#SVGID_50_);}
	.st39{fill:url(#SVGID_51_);}
	.st40{fill:url(#SVGID_52_);}
	.st41{clip-path:url(#SVGID_54_);}
	.st42{clip-path:url(#SVGID_56_);}
	.st43{clip-path:url(#SVGID_58_);}
	.st44{fill:url(#SVGID_59_);}
	.st45{fill:url(#SVGID_60_);}
	.st46{display:none;clip-path:url(#SVGID_54_);}
	.st47{display:inline;clip-path:url(#SVGID_62_);}
	.st48{fill:url(#SVGID_63_);}
	.st49{fill:url(#SVGID_64_);}
	.st50{clip-path:url(#SVGID_66_);}
	.st51{clip-path:url(#SVGID_68_);}
	.st52{clip-path:url(#SVGID_70_);}
	.st53{fill:url(#SVGID_71_);}
	.st54{fill:url(#SVGID_72_);}
	.st55{fill:none;stroke:#FFFFFF;stroke-width:2;stroke-miterlimit:10;}
	.st56{fill:none;stroke:#FFFFFF;stroke-width:3;stroke-miterlimit:10;}
	.st57{fill:none;stroke:#FFFFFF;stroke-width:2;stroke-linejoin:round;stroke-miterlimit:10;}
	.st58{fill:#FFFFFF;stroke:#FFFFFF;stroke-width:0.2;stroke-miterlimit:10;}
	.st59{fill:none;stroke:#FFFFFF;stroke-width:2;stroke-linecap:round;stroke-miterlimit:10;}
</style>
<g>
	<defs>
		<path id="SVGID_1_" d="M772.5,76h-732C24.8,76,12,63.2,12,47.5v0C12,31.8,24.8,19,40.5,19h732c15.7,0,28.5,12.8,28.5,28.5v0
			C801,63.2,788.2,76,772.5,76z"/>
	</defs>
	<clipPath id="SVGID_2_">
		<use xlink:href="#SVGID_1_"  style="overflow:visible;"/>
	</clipPath>
	<g class="st0">
		<defs>
			<rect id="SVGID_3_" x="-17.3" y="-5.1" width="846.4" height="221.1"/>
		</defs>
		<clipPath id="SVGID_4_">
			<use xlink:href="#SVGID_3_"  style="overflow:visible;"/>
		</clipPath>
		<g class="st1">
			
				<linearGradient id="SVGID_5_" gradientUnits="userSpaceOnUse" x1="4507.0005" y1="-4757.0889" x2="3568.7292" y2="-4762.4092" gradientTransform="matrix(1 0 0 -1 -3656 -4508)">
				<stop  offset="0" style="stop-color:#FF006B"/>
				<stop  offset="2.000000e-02" style="stop-color:#FE0B71"/>
				<stop  offset="9.000000e-02" style="stop-color:#FA2680"/>
				<stop  offset="0.17" style="stop-color:#F73C8C"/>
				<stop  offset="0.27" style="stop-color:#F54D96"/>
				<stop  offset="0.38" style="stop-color:#F3589C"/>
				<stop  offset="0.55" style="stop-color:#F25FA0"/>
				<stop  offset="1" style="stop-color:#F261A1"/>
			</linearGradient>
			<rect x="-91.2" y="-70.3" class="st2" width="943" height="644"/>
			
				<linearGradient id="SVGID_6_" gradientUnits="userSpaceOnUse" x1="4111.249" y1="-4584.2949" x2="3693.79" y2="-5058.3047" gradientTransform="matrix(1 0 0 -1 -3656 -4508)">
				<stop  offset="0" style="stop-color:#F261A1"/>
				<stop  offset="0.17" style="stop-color:#F3599D"/>
				<stop  offset="0.42" style="stop-color:#F64390"/>
				<stop  offset="0.74" style="stop-color:#FB1F7C"/>
				<stop  offset="0.97" style="stop-color:#FF006B"/>
			</linearGradient>
			<ellipse class="st3" cx="260.9" cy="297" rx="351.4" ry="273.9"/>
		</g>
	</g>
</g>
<g>
	<defs>
		<path id="SVGID_7_" d="M237.8,157H40.5C24.8,157,12,144.2,12,128.5v0c0-15.7,12.8-28.5,28.5-28.5h197.3
			c15.7,0,28.5,12.8,28.5,28.5v0C266.3,144.2,253.5,157,237.8,157z"/>
	</defs>
	<clipPath id="SVGID_8_">
		<use xlink:href="#SVGID_7_"  style="overflow:visible;"/>
	</clipPath>
	<g class="st4">
		<defs>
			<rect id="SVGID_9_" x="8.9" y="22.9" width="260.5" height="211.1"/>
		</defs>
		<clipPath id="SVGID_10_" class="st5">
			<use xlink:href="#SVGID_9_"  style="overflow:visible;"/>
		</clipPath>
		<g class="st6">
			
				<linearGradient id="SVGID_11_" gradientUnits="userSpaceOnUse" x1="7618.0781" y1="1935.8939" x2="7285.1641" y2="1934.0079" gradientTransform="matrix(-1 0 0 1 7603.1997 -1945.55)">
				<stop  offset="0" style="stop-color:#ED20EB"/>
				<stop  offset="0" style="stop-color:#EC20EB"/>
				<stop  offset="8.000000e-02" style="stop-color:#D116F1"/>
				<stop  offset="0.16" style="stop-color:#BC0EF6"/>
				<stop  offset="0.25" style="stop-color:#AB08FA"/>
				<stop  offset="0.37" style="stop-color:#9F03FD"/>
				<stop  offset="0.54" style="stop-color:#9801FF"/>
				<stop  offset="1" style="stop-color:#9600FF"/>
			</linearGradient>
			<rect x="2.9" y="-318" class="st7" width="290.2" height="614.9"/>
			
				<linearGradient id="SVGID_12_" gradientUnits="userSpaceOnUse" x1="7587.2417" y1="2081.656" x2="7306.0234" y2="1762.3424" gradientTransform="matrix(-1 0 0 1 7603.2002 -1945.55)">
				<stop  offset="0" style="stop-color:#9600FF"/>
				<stop  offset="0.28" style="stop-color:#9901FE"/>
				<stop  offset="0.48" style="stop-color:#A204FC"/>
				<stop  offset="0.65" style="stop-color:#B10AF9"/>
				<stop  offset="0.81" style="stop-color:#C712F4"/>
				<stop  offset="0.96" style="stop-color:#E31CED"/>
				<stop  offset="1" style="stop-color:#ED20EB"/>
			</linearGradient>
			<ellipse class="st8" cx="183.8" cy="-54.4" rx="108.2" ry="261.6"/>
		</g>
	</g>
	<g class="st9">
		<defs>
			<rect id="SVGID_13_" x="-153.5" y="80.9" width="517.5" height="173.4"/>
		</defs>
		<clipPath id="SVGID_14_">
			<use xlink:href="#SVGID_13_"  style="overflow:visible;"/>
		</clipPath>
		<g class="st10">
			
				<linearGradient id="SVGID_15_" gradientUnits="userSpaceOnUse" x1="7585.6812" y1="1940.7687" x2="6928.8784" y2="1937.0479" gradientTransform="matrix(1 0 0 -1 -7176.6699 2220.7837)">
				<stop  offset="0" style="stop-color:#ED20EB"/>
				<stop  offset="0" style="stop-color:#EC20EB"/>
				<stop  offset="8.000000e-02" style="stop-color:#D116F1"/>
				<stop  offset="0.16" style="stop-color:#BC0EF6"/>
				<stop  offset="0.25" style="stop-color:#AB08FA"/>
				<stop  offset="0.37" style="stop-color:#9F03FD"/>
				<stop  offset="0.54" style="stop-color:#9801FF"/>
				<stop  offset="1" style="stop-color:#9600FF"/>
			</linearGradient>
			<rect x="-200.6" y="29.2" class="st11" width="576.5" height="505.2"/>
			
				<linearGradient id="SVGID_16_" gradientUnits="userSpaceOnUse" x1="7365.8428" y1="2098.8613" x2="7076.6548" y2="1770.4988" gradientTransform="matrix(1 0 0 -1 -7176.6699 2220.7837)">
				<stop  offset="0" style="stop-color:#9600FF"/>
				<stop  offset="0.28" style="stop-color:#9901FE"/>
				<stop  offset="0.48" style="stop-color:#A204FC"/>
				<stop  offset="0.65" style="stop-color:#B10AF9"/>
				<stop  offset="0.81" style="stop-color:#C712F4"/>
				<stop  offset="0.96" style="stop-color:#E31CED"/>
				<stop  offset="1" style="stop-color:#ED20EB"/>
			</linearGradient>
			<circle class="st12" cx="16.6" cy="317.9" r="214.9"/>
		</g>
	</g>
</g>
<g>
	<path class="st13" d="M397.6,41.7h2.1v7.8h0.1c0.4-0.6,0.9-1.2,1.3-1.7l4.9-6.1h2.6l-5.9,6.9l6.3,9.3h-2.5l-5.3-7.9l-1.5,1.8v6.2
		h-2.1V41.7z"/>
	<path class="st13" d="M412.9,43c0,0.7-0.5,1.3-1.3,1.3c-0.7,0-1.3-0.6-1.3-1.3c0-0.7,0.6-1.3,1.3-1.3
		C412.4,41.6,412.9,42.2,412.9,43z M410.5,57.8V46.2h2.1v11.6H410.5z"/>
	<path class="st13" d="M416,57.8c0-0.8,0.1-2,0.1-3v-14h2.1v7.3h0c0.7-1.3,2.1-2.1,4-2.1c2.9,0,4.9,2.4,4.9,5.9
		c0,4.2-2.6,6.2-5.2,6.2c-1.7,0-3-0.6-3.9-2.2H418l-0.1,1.9H416z M418.2,53.2c0,0.3,0,0.5,0.1,0.8c0.4,1.5,1.6,2.5,3.2,2.5
		c2.2,0,3.5-1.8,3.5-4.5c0-2.3-1.2-4.3-3.5-4.3c-1.4,0-2.8,1-3.2,2.6c0,0.2-0.1,0.5-0.1,0.9V53.2z"/>
	<path class="st13" d="M436.2,57.8l-0.2-1.5H436c-0.6,0.9-1.9,1.7-3.6,1.7c-2.4,0-3.6-1.7-3.6-3.3c0-2.8,2.5-4.3,7-4.3v-0.2
		c0-1-0.3-2.7-2.6-2.7c-1.1,0-2.2,0.3-3,0.9l-0.5-1.4c1-0.6,2.4-1,3.8-1c3.6,0,4.4,2.4,4.4,4.8V55c0,1,0,2,0.2,2.8H436.2z
		 M435.9,51.9c-2.3,0-4.9,0.4-4.9,2.6c0,1.4,0.9,2,2,2c1.5,0,2.5-1,2.8-1.9c0.1-0.2,0.1-0.5,0.1-0.7V51.9z"/>
	<path class="st13" d="M441.4,49.4c0-1.2,0-2.2-0.1-3.1h1.9l0.1,1.9h0c0.6-1.1,1.9-2.2,3.8-2.2c1.6,0,4.1,1,4.1,4.9v6.9h-2.1v-6.7
		c0-1.9-0.7-3.4-2.7-3.4c-1.4,0-2.5,1-2.8,2.2c-0.1,0.3-0.1,0.6-0.1,1v7h-2.1V49.4z"/>
	<path class="st13" d="M461.1,57.8l-0.2-1.5h-0.1c-0.6,0.9-1.9,1.7-3.6,1.7c-2.4,0-3.6-1.7-3.6-3.3c0-2.8,2.5-4.3,7-4.3v-0.2
		c0-1-0.3-2.7-2.6-2.7c-1.1,0-2.2,0.3-3,0.9l-0.5-1.4c1-0.6,2.4-1,3.8-1c3.6,0,4.4,2.4,4.4,4.8V55c0,1,0,2,0.2,2.8H461.1z
		 M460.8,51.9c-2.3,0-4.9,0.4-4.9,2.6c0,1.4,0.9,2,2,2c1.5,0,2.5-1,2.8-1.9c0.1-0.2,0.1-0.5,0.1-0.7V51.9z"/>
</g>
<g>
	<defs>
		<path id="SVGID_17_" d="M506.1,157H308.8c-15.7,0-28.5-12.8-28.5-28.5v0c0-15.7,12.8-28.5,28.5-28.5h197.3
			c15.7,0,28.5,12.8,28.5,28.5v0C534.6,144.2,521.8,157,506.1,157z"/>
	</defs>
	<clipPath id="SVGID_18_">
		<use xlink:href="#SVGID_17_"  style="overflow:visible;"/>
	</clipPath>
	<g class="st14">
		<defs>
			<rect id="SVGID_19_" x="270.8" y="75.9" width="272.8" height="221.1"/>
		</defs>
		<clipPath id="SVGID_20_">
			<use xlink:href="#SVGID_19_"  style="overflow:visible;"/>
		</clipPath>
		<g class="st15">
			<defs>
				
					<rect id="SVGID_21_" x="307.5" y="-270.4" transform="matrix(1.745326e-03 -1 1 1.745326e-03 243.7751 706.1017)" width="336" height="1002.7"/>
			</defs>
			<clipPath id="SVGID_22_">
				<use xlink:href="#SVGID_21_"  style="overflow:visible;"/>
			</clipPath>
			<g class="st16">
				
					<linearGradient id="SVGID_23_" gradientUnits="userSpaceOnUse" x1="1090.8031" y1="21.4735" x2="-96.1669" y2="21.4735" gradientTransform="matrix(1 1.745328e-03 1.745328e-03 -1 -7.6716 472.9056)">
					<stop  offset="0" style="stop-color:#9600FF"/>
					<stop  offset="3.000000e-02" style="stop-color:#A200EF"/>
					<stop  offset="0.11" style="stop-color:#BA00CC"/>
					<stop  offset="0.19" style="stop-color:#D000AE"/>
					<stop  offset="0.28" style="stop-color:#E10095"/>
					<stop  offset="0.38" style="stop-color:#EF0082"/>
					<stop  offset="0.5" style="stop-color:#F80075"/>
					<stop  offset="0.65" style="stop-color:#FD006D"/>
					<stop  offset="0.95" style="stop-color:#FF006B"/>
				</linearGradient>
				<polygon class="st17" points="-116.6,-38.2 1000.6,-36.3 998.9,942.6 -118.3,940.7 				"/>
				
					<linearGradient id="SVGID_24_" gradientUnits="userSpaceOnUse" x1="579.5778" y1="220.2189" x2="-63.6122" y2="-422.9711" gradientTransform="matrix(1 1.745328e-03 1.745328e-03 -1 -7.6756 472.9083)">
					<stop  offset="5.000000e-02" style="stop-color:#FF006B"/>
					<stop  offset="0.33" style="stop-color:#FD006D"/>
					<stop  offset="0.48" style="stop-color:#F80075"/>
					<stop  offset="0.6" style="stop-color:#EE0083"/>
					<stop  offset="0.71" style="stop-color:#E00097"/>
					<stop  offset="0.81" style="stop-color:#CE00B0"/>
					<stop  offset="0.9" style="stop-color:#B800CF"/>
					<stop  offset="0.98" style="stop-color:#9E00F3"/>
					<stop  offset="1" style="stop-color:#9600FF"/>
				</linearGradient>
				<circle class="st18" cx="303.3" cy="521.8" r="416.4"/>
			</g>
		</g>
	</g>
	<g class="st19">
		<defs>
			<rect id="SVGID_25_" x="277.2" y="22.9" width="260.5" height="211.1"/>
		</defs>
		<clipPath id="SVGID_26_" class="st5">
			<use xlink:href="#SVGID_25_"  style="overflow:visible;"/>
		</clipPath>
		<g class="st20">
			
				<linearGradient id="SVGID_27_" gradientUnits="userSpaceOnUse" x1="7349.7993" y1="1935.8939" x2="7016.8853" y2="1934.0079" gradientTransform="matrix(-1 0 0 1 7603.1997 -1945.55)">
				<stop  offset="0" style="stop-color:#ED20EB"/>
				<stop  offset="0" style="stop-color:#EC20EB"/>
				<stop  offset="8.000000e-02" style="stop-color:#D116F1"/>
				<stop  offset="0.16" style="stop-color:#BC0EF6"/>
				<stop  offset="0.25" style="stop-color:#AB08FA"/>
				<stop  offset="0.37" style="stop-color:#9F03FD"/>
				<stop  offset="0.54" style="stop-color:#9801FF"/>
				<stop  offset="1" style="stop-color:#9600FF"/>
			</linearGradient>
			<rect x="271.2" y="-318" class="st21" width="290.2" height="614.9"/>
			
				<linearGradient id="SVGID_28_" gradientUnits="userSpaceOnUse" x1="7318.9634" y1="2081.656" x2="7037.7446" y2="1762.3424" gradientTransform="matrix(-1 0 0 1 7603.2002 -1945.55)">
				<stop  offset="0" style="stop-color:#9600FF"/>
				<stop  offset="0.28" style="stop-color:#9901FE"/>
				<stop  offset="0.48" style="stop-color:#A204FC"/>
				<stop  offset="0.65" style="stop-color:#B10AF9"/>
				<stop  offset="0.81" style="stop-color:#C712F4"/>
				<stop  offset="0.96" style="stop-color:#E31CED"/>
				<stop  offset="1" style="stop-color:#ED20EB"/>
			</linearGradient>
			<ellipse class="st22" cx="452" cy="-54.4" rx="108.2" ry="261.6"/>
		</g>
	</g>
</g>
<g>
	<defs>
		<path id="SVGID_29_" d="M772.5,157H575.2c-15.7,0-28.5-12.8-28.5-28.5v0c0-15.7,12.8-28.5,28.5-28.5h197.3
			c15.7,0,28.5,12.8,28.5,28.5v0C801,144.2,788.2,157,772.5,157z"/>
	</defs>
	<clipPath id="SVGID_30_">
		<use xlink:href="#SVGID_29_"  style="overflow:visible;"/>
	</clipPath>
	<g class="st23">
		<defs>
			<rect id="SVGID_31_" x="537.2" y="75.9" width="272.8" height="221.1"/>
		</defs>
		<clipPath id="SVGID_32_">
			<use xlink:href="#SVGID_31_"  style="overflow:visible;"/>
		</clipPath>
		<g class="st24">
			<defs>
				<rect id="SVGID_33_" x="94.4" y="-44.1" width="1002.7" height="336"/>
			</defs>
			<clipPath id="SVGID_34_">
				<use xlink:href="#SVGID_33_"  style="overflow:visible;"/>
			</clipPath>
			<g class="st25">
				
					<linearGradient id="SVGID_35_" gradientUnits="userSpaceOnUse" x1="1184.35" y1="134.2671" x2="-88.3599" y2="127.057" gradientTransform="matrix(1 0 0 -1 0 476)">
					<stop  offset="0" style="stop-color:#0000FF"/>
					<stop  offset="5.000000e-02" style="stop-color:#0821FD"/>
					<stop  offset="0.11" style="stop-color:#1140FA"/>
					<stop  offset="0.17" style="stop-color:#185BF8"/>
					<stop  offset="0.25" style="stop-color:#1D71F7"/>
					<stop  offset="0.33" style="stop-color:#2282F5"/>
					<stop  offset="0.44" style="stop-color:#258EF5"/>
					<stop  offset="0.59" style="stop-color:#2795F4"/>
					<stop  offset="1" style="stop-color:#2797F4"/>
				</linearGradient>
				<rect x="3.2" y="-144.2" class="st26" width="1117.2" height="978.9"/>
				
					<linearGradient id="SVGID_36_" gradientUnits="userSpaceOnUse" x1="758.3591" y1="440.6008" x2="197.9891" y2="-195.6692" gradientTransform="matrix(1 0 0 -1 0 476)">
					<stop  offset="0" style="stop-color:#2797F4"/>
					<stop  offset="0.23" style="stop-color:#2694F4"/>
					<stop  offset="0.39" style="stop-color:#248BF5"/>
					<stop  offset="0.53" style="stop-color:#207CF6"/>
					<stop  offset="0.66" style="stop-color:#1A66F8"/>
					<stop  offset="0.78" style="stop-color:#1349FA"/>
					<stop  offset="0.9" style="stop-color:#0A27FC"/>
					<stop  offset="1" style="stop-color:#0000FF"/>
				</linearGradient>
				<circle class="st27" cx="424" cy="415.1" r="416.4"/>
			</g>
		</g>
	</g>
	<g class="st28">
		<defs>
			<rect id="SVGID_37_" x="543.6" y="22.9" width="260.5" height="211.1"/>
		</defs>
		<clipPath id="SVGID_38_" class="st5">
			<use xlink:href="#SVGID_37_"  style="overflow:visible;"/>
		</clipPath>
		<g class="st29">
			
				<linearGradient id="SVGID_39_" gradientUnits="userSpaceOnUse" x1="7083.3838" y1="1935.8939" x2="6750.4697" y2="1934.0079" gradientTransform="matrix(-1 0 0 1 7603.1997 -1945.55)">
				<stop  offset="0" style="stop-color:#ED20EB"/>
				<stop  offset="0" style="stop-color:#EC20EB"/>
				<stop  offset="8.000000e-02" style="stop-color:#D116F1"/>
				<stop  offset="0.16" style="stop-color:#BC0EF6"/>
				<stop  offset="0.25" style="stop-color:#AB08FA"/>
				<stop  offset="0.37" style="stop-color:#9F03FD"/>
				<stop  offset="0.54" style="stop-color:#9801FF"/>
				<stop  offset="1" style="stop-color:#9600FF"/>
			</linearGradient>
			<rect x="537.6" y="-318" class="st30" width="290.2" height="614.9"/>
			
				<linearGradient id="SVGID_40_" gradientUnits="userSpaceOnUse" x1="7052.5474" y1="2081.656" x2="6771.3291" y2="1762.3424" gradientTransform="matrix(-1 0 0 1 7603.2002 -1945.55)">
				<stop  offset="0" style="stop-color:#9600FF"/>
				<stop  offset="0.28" style="stop-color:#9901FE"/>
				<stop  offset="0.48" style="stop-color:#A204FC"/>
				<stop  offset="0.65" style="stop-color:#B10AF9"/>
				<stop  offset="0.81" style="stop-color:#C712F4"/>
				<stop  offset="0.96" style="stop-color:#E31CED"/>
				<stop  offset="1" style="stop-color:#ED20EB"/>
			</linearGradient>
			<ellipse class="st31" cx="718.5" cy="-54.4" rx="108.2" ry="261.6"/>
		</g>
	</g>
</g>
<g>
	<defs>
		<path id="SVGID_41_" d="M1039.5,79H842.2c-15.7,0-28.5-12.8-28.5-28.5v0c0-15.7,12.8-28.5,28.5-28.5h197.3
			c15.7,0,28.5,12.8,28.5,28.5v0C1068,66.2,1055.2,79,1039.5,79z"/>
	</defs>
	<clipPath id="SVGID_42_">
		<use xlink:href="#SVGID_41_"  style="overflow:visible;"/>
	</clipPath>
	<g class="st32">
		<defs>
			<rect id="SVGID_43_" x="804.2" y="-2.1" width="272.8" height="221.1"/>
		</defs>
		<clipPath id="SVGID_44_">
			<use xlink:href="#SVGID_43_"  style="overflow:visible;"/>
		</clipPath>
		<g class="st33">
			<defs>
				<rect id="SVGID_45_" x="110.2" y="-156.1" width="1002.7" height="336"/>
			</defs>
			<clipPath id="SVGID_46_">
				<use xlink:href="#SVGID_45_"  style="overflow:visible;"/>
			</clipPath>
			<g class="st34">
				
					<linearGradient id="SVGID_47_" gradientUnits="userSpaceOnUse" x1="3669.0601" y1="6673.0391" x2="2396.23" y2="6665.8286" gradientTransform="matrix(-1 0 0 1 3653.2 -6887.5498)">
					<stop  offset="0" style="stop-color:#9600FF"/>
					<stop  offset="0" style="stop-color:#9700FF"/>
					<stop  offset="8.000000e-02" style="stop-color:#B20AF9"/>
					<stop  offset="0.16" style="stop-color:#C712F4"/>
					<stop  offset="0.25" style="stop-color:#D818F0"/>
					<stop  offset="0.37" style="stop-color:#E41DED"/>
					<stop  offset="0.54" style="stop-color:#EB1FEB"/>
					<stop  offset="1" style="stop-color:#ED20EB"/>
				</linearGradient>
				<rect x="90" y="-717.6" class="st35" width="1117.2" height="998.7"/>
				
					<linearGradient id="SVGID_48_" gradientUnits="userSpaceOnUse" x1="1846.214" y1="7172.2642" x2="1139.244" y2="6465.3042" gradientTransform="matrix(-0.92 -0.4 -0.4 0.92 4854.27 -5961.1699)">
					<stop  offset="0" style="stop-color:#ED20EB"/>
					<stop  offset="0.28" style="stop-color:#EA1FEC"/>
					<stop  offset="0.47" style="stop-color:#E11CEE"/>
					<stop  offset="0.64" style="stop-color:#D216F1"/>
					<stop  offset="0.79" style="stop-color:#BC0EF6"/>
					<stop  offset="0.93" style="stop-color:#A004FD"/>
					<stop  offset="0.97" style="stop-color:#9600FF"/>
				</linearGradient>
				<circle class="st36" cx="786.4" cy="-298" r="416.4"/>
			</g>
		</g>
	</g>
	<g class="st37">
		<defs>
			<rect id="SVGID_49_" x="810.6" y="-55.1" width="260.5" height="211.1"/>
		</defs>
		<clipPath id="SVGID_50_" class="st5">
			<use xlink:href="#SVGID_49_"  style="overflow:visible;"/>
		</clipPath>
		<g class="st38">
			
				<linearGradient id="SVGID_51_" gradientUnits="userSpaceOnUse" x1="6816.3838" y1="1857.8939" x2="6483.4697" y2="1856.0079" gradientTransform="matrix(-1 0 0 1 7603.1997 -1945.55)">
				<stop  offset="0" style="stop-color:#ED20EB"/>
				<stop  offset="0" style="stop-color:#EC20EB"/>
				<stop  offset="8.000000e-02" style="stop-color:#D116F1"/>
				<stop  offset="0.16" style="stop-color:#BC0EF6"/>
				<stop  offset="0.25" style="stop-color:#AB08FA"/>
				<stop  offset="0.37" style="stop-color:#9F03FD"/>
				<stop  offset="0.54" style="stop-color:#9801FF"/>
				<stop  offset="1" style="stop-color:#9600FF"/>
			</linearGradient>
			<rect x="804.6" y="-396" class="st39" width="290.2" height="614.9"/>
			
				<linearGradient id="SVGID_52_" gradientUnits="userSpaceOnUse" x1="6785.5474" y1="2003.6559" x2="6504.3291" y2="1684.3424" gradientTransform="matrix(-1 0 0 1 7603.2002 -1945.55)">
				<stop  offset="0" style="stop-color:#9600FF"/>
				<stop  offset="0.28" style="stop-color:#9901FE"/>
				<stop  offset="0.48" style="stop-color:#A204FC"/>
				<stop  offset="0.65" style="stop-color:#B10AF9"/>
				<stop  offset="0.81" style="stop-color:#C712F4"/>
				<stop  offset="0.96" style="stop-color:#E31CED"/>
				<stop  offset="1" style="stop-color:#ED20EB"/>
			</linearGradient>
			<ellipse class="st40" cx="985.5" cy="-132.4" rx="108.2" ry="261.6"/>
		</g>
	</g>
</g>
<g>
	<defs>
		<path id="SVGID_53_" d="M1039.5,157H842.2c-15.7,0-28.5-12.8-28.5-28.5v0c0-15.7,12.8-28.5,28.5-28.5h197.3
			c15.7,0,28.5,12.8,28.5,28.5v0C1068,144.2,1055.2,157,1039.5,157z"/>
	</defs>
	<clipPath id="SVGID_54_">
		<use xlink:href="#SVGID_53_"  style="overflow:visible;"/>
	</clipPath>
	<g class="st41">
		<defs>
			<rect id="SVGID_55_" x="804.2" y="75.9" width="272.8" height="221.1"/>
		</defs>
		<clipPath id="SVGID_56_">
			<use xlink:href="#SVGID_55_"  style="overflow:visible;"/>
		</clipPath>
		<g class="st42">
			<defs>
				<rect id="SVGID_57_" x="111.2" y="-156.1" width="1002.7" height="336"/>
			</defs>
			<clipPath id="SVGID_58_">
				<use xlink:href="#SVGID_57_"  style="overflow:visible;"/>
			</clipPath>
			<g class="st43">
				
					<linearGradient id="SVGID_59_" gradientUnits="userSpaceOnUse" x1="3668.0601" y1="6673.0391" x2="2395.23" y2="6665.8286" gradientTransform="matrix(-1 0 0 1 3653.2 -6887.5498)">
					<stop  offset="0" style="stop-color:#9600FF"/>
					<stop  offset="0" style="stop-color:#9700FF"/>
					<stop  offset="8.000000e-02" style="stop-color:#B20AF9"/>
					<stop  offset="0.16" style="stop-color:#C712F4"/>
					<stop  offset="0.25" style="stop-color:#D818F0"/>
					<stop  offset="0.37" style="stop-color:#E41DED"/>
					<stop  offset="0.54" style="stop-color:#EB1FEB"/>
					<stop  offset="1" style="stop-color:#ED20EB"/>
				</linearGradient>
				<rect x="91" y="-717.6" class="st44" width="1117.2" height="998.7"/>
				
					<linearGradient id="SVGID_60_" gradientUnits="userSpaceOnUse" x1="1845.2999" y1="7171.8667" x2="1138.3298" y2="6464.9067" gradientTransform="matrix(-0.92 -0.4 -0.4 0.92 4854.27 -5961.1699)">
					<stop  offset="0" style="stop-color:#ED20EB"/>
					<stop  offset="0.28" style="stop-color:#EA1FEC"/>
					<stop  offset="0.47" style="stop-color:#E11CEE"/>
					<stop  offset="0.64" style="stop-color:#D216F1"/>
					<stop  offset="0.79" style="stop-color:#BC0EF6"/>
					<stop  offset="0.93" style="stop-color:#A004FD"/>
					<stop  offset="0.97" style="stop-color:#9600FF"/>
				</linearGradient>
				<circle class="st45" cx="787.4" cy="-298" r="416.4"/>
			</g>
		</g>
	</g>
	<g class="st46">
		<defs>
			<rect id="SVGID_61_" x="810.6" y="22.9" width="260.5" height="211.1"/>
		</defs>
		<clipPath id="SVGID_62_" class="st5">
			<use xlink:href="#SVGID_61_"  style="overflow:visible;"/>
		</clipPath>
		<g class="st47">
			
				<linearGradient id="SVGID_63_" gradientUnits="userSpaceOnUse" x1="6816.3838" y1="1935.8939" x2="6483.4697" y2="1934.0079" gradientTransform="matrix(-1 0 0 1 7603.1997 -1945.55)">
				<stop  offset="0" style="stop-color:#ED20EB"/>
				<stop  offset="0" style="stop-color:#EC20EB"/>
				<stop  offset="8.000000e-02" style="stop-color:#D116F1"/>
				<stop  offset="0.16" style="stop-color:#BC0EF6"/>
				<stop  offset="0.25" style="stop-color:#AB08FA"/>
				<stop  offset="0.37" style="stop-color:#9F03FD"/>
				<stop  offset="0.54" style="stop-color:#9801FF"/>
				<stop  offset="1" style="stop-color:#9600FF"/>
			</linearGradient>
			<rect x="804.6" y="-318" class="st48" width="290.2" height="614.9"/>
			
				<linearGradient id="SVGID_64_" gradientUnits="userSpaceOnUse" x1="6785.5474" y1="2081.656" x2="6504.3291" y2="1762.3424" gradientTransform="matrix(-1 0 0 1 7603.2002 -1945.55)">
				<stop  offset="0" style="stop-color:#9600FF"/>
				<stop  offset="0.28" style="stop-color:#9901FE"/>
				<stop  offset="0.48" style="stop-color:#A204FC"/>
				<stop  offset="0.65" style="stop-color:#B10AF9"/>
				<stop  offset="0.81" style="stop-color:#C712F4"/>
				<stop  offset="0.96" style="stop-color:#E31CED"/>
				<stop  offset="1" style="stop-color:#ED20EB"/>
			</linearGradient>
			<ellipse class="st49" cx="985.5" cy="-54.4" rx="108.2" ry="261.6"/>
		</g>
	</g>
</g>
<g>
	<path class="st13" d="M114.3,133.8c0.9,0.6,2.3,1.1,3.7,1.1c2.1,0,3.4-1.1,3.4-2.8c0-1.5-0.9-2.4-3-3.2c-2.6-0.9-4.3-2.3-4.3-4.6
		c0-2.5,2.1-4.4,5.2-4.4c1.7,0,2.9,0.4,3.6,0.8l-0.6,1.7c-0.5-0.3-1.6-0.8-3.1-0.8c-2.2,0-3,1.3-3,2.4c0,1.5,1,2.3,3.2,3.1
		c2.7,1.1,4.1,2.4,4.1,4.8c0,2.5-1.8,4.7-5.7,4.7c-1.6,0-3.3-0.5-4.1-1L114.3,133.8z"/>
	<path class="st13" d="M127.5,131c0,2.9,1.9,4,4,4c1.5,0,2.4-0.3,3.2-0.6l0.4,1.5c-0.7,0.3-2,0.7-3.9,0.7c-3.6,0-5.7-2.4-5.7-5.9
		c0-3.5,2.1-6.3,5.4-6.3c3.8,0,4.8,3.3,4.8,5.5c0,0.4,0,0.8-0.1,1H127.5z M133.7,129.4c0-1.3-0.6-3.4-2.9-3.4c-2.1,0-3.1,2-3.2,3.4
		H133.7z"/>
	<path class="st13" d="M146.6,135.9c-0.6,0.3-1.8,0.7-3.3,0.7c-3.5,0-5.8-2.4-5.8-5.9c0-3.6,2.4-6.2,6.2-6.2c1.2,0,2.4,0.3,2.9,0.6
		l-0.5,1.6c-0.5-0.3-1.3-0.6-2.4-0.6c-2.7,0-4.1,2-4.1,4.4c0,2.7,1.7,4.3,4,4.3c1.2,0,2-0.3,2.6-0.6L146.6,135.9z"/>
	<path class="st13" d="M158.8,133.2c0,1.2,0,2.3,0.1,3.2h-1.9l-0.1-1.9h0c-0.6,0.9-1.8,2.2-3.8,2.2c-1.8,0-4-1-4-5.1v-6.8h2.1v6.4
		c0,2.2,0.7,3.7,2.6,3.7c1.4,0,2.4-1,2.8-1.9c0.1-0.3,0.2-0.7,0.2-1.1v-7.1h2.1V133.2z"/>
	<path class="st13" d="M162.3,128.4c0-1.4,0-2.5-0.1-3.6h1.8l0.1,2.3h0.1c0.5-1.6,1.8-2.5,3.2-2.5c0.2,0,0.4,0,0.6,0.1v2
		c-0.2,0-0.4-0.1-0.7-0.1c-1.5,0-2.5,1.1-2.8,2.7c0,0.3-0.1,0.6-0.1,1v6.2h-2.1V128.4z"/>
	<path class="st13" d="M172.5,121.5c0,0.7-0.5,1.3-1.3,1.3c-0.7,0-1.3-0.6-1.3-1.3c0-0.7,0.6-1.3,1.3-1.3
		C172,120.2,172.5,120.8,172.5,121.5z M170.2,136.4v-11.6h2.1v11.6H170.2z"/>
	<path class="st13" d="M178.3,121.4v3.3h3v1.6h-3v6.3c0,1.4,0.4,2.3,1.6,2.3c0.6,0,1-0.1,1.2-0.1l0.1,1.6c-0.4,0.2-1.1,0.3-1.9,0.3
		c-1,0-1.8-0.3-2.3-0.9c-0.6-0.6-0.8-1.7-0.8-3v-6.3h-1.8v-1.6h1.8V122L178.3,121.4z"/>
	<path class="st13" d="M184.5,124.8l2.5,6.9c0.3,0.8,0.6,1.7,0.7,2.4h0c0.2-0.7,0.5-1.6,0.7-2.4l2.3-6.8h2.2L190,133
		c-1.5,4-2.5,6-4,7.3c-1,0.9-2.1,1.3-2.6,1.4l-0.5-1.8c0.5-0.2,1.2-0.5,1.8-1c0.6-0.5,1.3-1.3,1.8-2.4c0.1-0.2,0.2-0.4,0.2-0.5
		c0-0.1,0-0.3-0.1-0.6l-4.3-10.7H184.5z"/>
</g>
<g>
	<path class="st13" d="M390.2,131.3l-1.7,5.1h-2.2l5.5-16.2h2.5l5.5,16.2h-2.2l-1.7-5.1H390.2z M395.5,129.7l-1.6-4.7
		c-0.4-1.1-0.6-2-0.8-3h0c-0.2,1-0.5,1.9-0.8,2.9l-1.6,4.7H395.5z"/>
	<path class="st13" d="M402.2,119.3h2.1v17h-2.1V119.3z"/>
	<path class="st13" d="M409,131c0,2.9,1.9,4,4,4c1.5,0,2.4-0.3,3.2-0.6l0.4,1.5c-0.7,0.3-2,0.7-3.9,0.7c-3.6,0-5.7-2.4-5.7-5.9
		c0-3.5,2.1-6.3,5.4-6.3c3.8,0,4.8,3.3,4.8,5.5c0,0.4,0,0.8-0.1,1H409z M415.2,129.4c0-1.3-0.6-3.4-2.9-3.4c-2.1,0-3.1,2-3.2,3.4
		H415.2z"/>
	<path class="st13" d="M419.9,128.4c0-1.4,0-2.5-0.1-3.6h1.8l0.1,2.3h0.1c0.5-1.6,1.8-2.5,3.2-2.5c0.2,0,0.4,0,0.6,0.1v2
		c-0.2,0-0.4-0.1-0.7-0.1c-1.5,0-2.5,1.1-2.8,2.7c0,0.3-0.1,0.6-0.1,1v6.2h-2.1V128.4z"/>
	<path class="st13" d="M430.3,121.4v3.3h3v1.6h-3v6.3c0,1.4,0.4,2.3,1.6,2.3c0.6,0,1-0.1,1.2-0.1l0.1,1.6c-0.4,0.2-1.1,0.3-1.9,0.3
		c-1,0-1.8-0.3-2.3-0.9c-0.6-0.6-0.8-1.7-0.8-3v-6.3h-1.8v-1.6h1.8V122L430.3,121.4z"/>
	<path class="st13" d="M438,121.5c0,0.7-0.5,1.3-1.3,1.3c-0.7,0-1.3-0.6-1.3-1.3c0-0.7,0.6-1.3,1.3-1.3
		C437.5,120.2,438,120.8,438,121.5z M435.7,136.4v-11.6h2.1v11.6H435.7z"/>
	<path class="st13" d="M441.3,127.9c0-1.2,0-2.2-0.1-3.1h1.9l0.1,1.9h0c0.6-1.1,1.9-2.2,3.8-2.2c1.6,0,4.1,1,4.1,4.9v6.9h-2.1v-6.7
		c0-1.9-0.7-3.4-2.7-3.4c-1.4,0-2.5,1-2.8,2.2c-0.1,0.3-0.1,0.6-0.1,1v7h-2.1V127.9z"/>
	<path class="st13" d="M464.6,124.8c0,0.8-0.1,1.8-0.1,3.2v6.7c0,2.7-0.5,4.3-1.7,5.3c-1.1,1.1-2.8,1.4-4.2,1.4
		c-1.4,0-2.9-0.3-3.9-1l0.5-1.6c0.8,0.5,2,0.9,3.4,0.9c2.2,0,3.7-1.1,3.7-4.1v-1.3h0c-0.6,1.1-1.9,1.9-3.7,1.9
		c-2.9,0-4.9-2.4-4.9-5.7c0-3.9,2.6-6.2,5.2-6.2c2,0,3.1,1.1,3.6,2h0l0.1-1.8H464.6z M462.4,129.3c0-0.4,0-0.7-0.1-1
		c-0.4-1.2-1.4-2.2-3-2.2c-2,0-3.5,1.7-3.5,4.4c0,2.3,1.2,4.2,3.4,4.2c1.3,0,2.5-0.8,2.9-2.2c0.1-0.4,0.2-0.8,0.2-1.1V129.3z"/>
</g>
<g>
	<path class="st13" d="M675.3,133.8c0.9,0.6,2.3,1.1,3.7,1.1c2.1,0,3.4-1.1,3.4-2.8c0-1.5-0.9-2.4-3-3.2c-2.6-0.9-4.3-2.3-4.3-4.6
		c0-2.5,2.1-4.4,5.2-4.4c1.7,0,2.9,0.4,3.6,0.8l-0.6,1.7c-0.5-0.3-1.6-0.8-3.1-0.8c-2.2,0-3,1.3-3,2.4c0,1.5,1,2.3,3.2,3.1
		c2.7,1.1,4.1,2.4,4.1,4.8c0,2.5-1.8,4.7-5.7,4.7c-1.6,0-3.3-0.5-4.1-1L675.3,133.8z"/>
	<path class="st13" d="M700.8,138.8c-2.2-0.6-4.3-1.2-6.2-1.9c-0.3-0.1-0.7-0.2-1-0.2c-3.8-0.1-7.1-3-7.1-8.2c0-5.2,3.2-8.5,7.5-8.5
		c4.4,0,7.2,3.4,7.2,8.2c0,4.2-1.9,6.8-4.6,7.8v0.1c1.6,0.4,3.4,0.8,4.7,1L700.8,138.8z M699,128.2c0-3.2-1.7-6.6-5.1-6.6
		c-3.5,0-5.3,3.3-5.2,6.8c0,3.4,1.9,6.5,5.1,6.5C697.2,134.9,699,131.9,699,128.2z"/>
	<path class="st13" d="M703.9,120.2h2.1v14.4h6.9v1.8h-9V120.2z"/>
</g>
<g>
	<path class="st13" d="M904.6,109.4c1-0.2,2.3-0.3,4-0.3c2.1,0,3.6,0.5,4.5,1.3c0.9,0.8,1.4,1.9,1.4,3.4c0,1.5-0.4,2.6-1.2,3.5
		c-1.1,1.2-2.9,1.8-4.9,1.8c-0.6,0-1.2,0-1.7-0.1v6.5h-2.1V109.4z M906.7,117.2c0.5,0.1,1,0.2,1.7,0.2c2.5,0,4.1-1.2,4.1-3.5
		c0-2.1-1.5-3.2-3.8-3.2c-0.9,0-1.6,0.1-2,0.2V117.2z"/>
	<path class="st13" d="M918.5,120c0,2.9,1.9,4,4,4c1.5,0,2.4-0.3,3.2-0.6l0.4,1.5c-0.7,0.3-2,0.7-3.9,0.7c-3.6,0-5.7-2.4-5.7-5.9
		c0-3.5,2.1-6.3,5.4-6.3c3.8,0,4.8,3.3,4.8,5.5c0,0.4,0,0.8-0.1,1H918.5z M924.6,118.4c0-1.3-0.6-3.4-2.9-3.4c-2.1,0-3.1,2-3.2,3.4
		H924.6z"/>
	<path class="st13" d="M929.3,117.4c0-1.4,0-2.5-0.1-3.6h1.8l0.1,2.3h0.1c0.5-1.6,1.8-2.5,3.2-2.5c0.2,0,0.4,0,0.6,0.1v2
		c-0.2,0-0.4-0.1-0.7-0.1c-1.5,0-2.5,1.1-2.8,2.7c0,0.3-0.1,0.6-0.1,1v6.2h-2.1V117.4z"/>
	<path class="st13" d="M937.4,125.4v-10h-1.6v-1.6h1.6v-0.6c0-1.6,0.4-3.1,1.3-4.1c0.8-0.8,1.8-1.1,2.8-1.1c0.7,0,1.4,0.2,1.8,0.3
		l-0.3,1.6c-0.3-0.1-0.7-0.3-1.3-0.3c-1.8,0-2.3,1.6-2.3,3.4v0.6h2.8v1.6h-2.8v10H937.4z"/>
	<path class="st13" d="M954.7,119.5c0,4.3-3,6.2-5.8,6.2c-3.1,0-5.6-2.3-5.6-6c0-3.9,2.5-6.2,5.8-6.2
		C952.4,113.5,954.7,115.9,954.7,119.5z M945.4,119.6c0,2.5,1.5,4.5,3.5,4.5c2,0,3.5-1.9,3.5-4.5c0-2-1-4.5-3.5-4.5
		S945.4,117.4,945.4,119.6z"/>
	<path class="st13" d="M957.3,117.4c0-1.4,0-2.5-0.1-3.6h1.8l0.1,2.3h0.1c0.5-1.6,1.8-2.5,3.2-2.5c0.2,0,0.4,0,0.6,0.1v2
		c-0.2,0-0.4-0.1-0.7-0.1c-1.5,0-2.5,1.1-2.8,2.7c0,0.3-0.1,0.6-0.1,1v6.2h-2.1V117.4z"/>
	<path class="st13" d="M965.2,116.9c0-1.2,0-2.2-0.1-3.1h1.8l0.1,1.9h0.1c0.6-1.1,1.7-2.1,3.6-2.1c1.6,0,2.8,1,3.3,2.3h0
		c0.4-0.6,0.8-1.2,1.3-1.5c0.7-0.5,1.5-0.8,2.6-0.8c1.5,0,3.8,1,3.8,5v6.8h-2.1v-6.6c0-2.2-0.8-3.6-2.5-3.6c-1.2,0-2.1,0.9-2.5,1.9
		c-0.1,0.3-0.2,0.7-0.2,1.1v7.2h-2.1v-7c0-1.8-0.8-3.2-2.4-3.2c-1.3,0-2.3,1.1-2.6,2.1c-0.1,0.3-0.2,0.7-0.2,1v7h-2.1V116.9z"/>
	<path class="st13" d="M991.6,125.4l-0.2-1.5h-0.1c-0.6,0.9-1.9,1.7-3.6,1.7c-2.4,0-3.6-1.7-3.6-3.3c0-2.8,2.5-4.3,7-4.3v-0.2
		c0-1-0.3-2.7-2.6-2.7c-1.1,0-2.2,0.3-3,0.9l-0.5-1.4c1-0.6,2.4-1,3.8-1c3.6,0,4.4,2.4,4.4,4.8v4.3c0,1,0,2,0.2,2.8H991.6z
		 M991.3,119.4c-2.3,0-4.9,0.4-4.9,2.6c0,1.4,0.9,2,2,2c1.5,0,2.5-1,2.8-1.9c0.1-0.2,0.1-0.5,0.1-0.7V119.4z"/>
	<path class="st13" d="M996.8,116.9c0-1.2,0-2.2-0.1-3.1h1.9l0.1,1.9h0c0.6-1.1,1.9-2.2,3.8-2.2c1.6,0,4.1,1,4.1,4.9v6.9h-2.1v-6.7
		c0-1.9-0.7-3.4-2.7-3.4c-1.4,0-2.5,1-2.8,2.2c-0.1,0.3-0.1,0.6-0.1,1v7h-2.1V116.9z"/>
	<path class="st13" d="M1018.4,124.9c-0.6,0.3-1.8,0.7-3.3,0.7c-3.5,0-5.8-2.4-5.8-5.9c0-3.6,2.4-6.2,6.2-6.2c1.2,0,2.4,0.3,2.9,0.6
		l-0.5,1.6c-0.5-0.3-1.3-0.6-2.4-0.6c-2.7,0-4.1,2-4.1,4.4c0,2.7,1.7,4.3,4,4.3c1.2,0,2-0.3,2.6-0.6L1018.4,124.9z"/>
	<path class="st13" d="M1022,120c0,2.9,1.9,4,4,4c1.5,0,2.4-0.3,3.2-0.6l0.4,1.5c-0.7,0.3-2,0.7-3.9,0.7c-3.6,0-5.7-2.4-5.7-5.9
		c0-3.5,2.1-6.3,5.4-6.3c3.8,0,4.8,3.3,4.8,5.5c0,0.4,0,0.8-0.1,1H1022z M1028.2,118.4c0-1.3-0.6-3.4-2.9-3.4c-2.1,0-3.1,2-3.2,3.4
		H1028.2z"/>
</g>
<g>
	<path class="st13" d="M904.6,41.8c1-0.2,2.3-0.3,4-0.3c2.1,0,3.6,0.5,4.5,1.3c0.9,0.8,1.4,1.9,1.4,3.4c0,1.5-0.4,2.6-1.2,3.5
		c-1.1,1.2-2.9,1.8-4.9,1.8c-0.6,0-1.2,0-1.7-0.1v6.5h-2.1V41.8z M906.7,49.6c0.5,0.1,1,0.2,1.7,0.2c2.5,0,4.1-1.2,4.1-3.5
		c0-2.1-1.5-3.2-3.8-3.2c-0.9,0-1.6,0.1-2,0.2V49.6z"/>
	<path class="st13" d="M918.5,52.4c0,2.9,1.9,4,4,4c1.5,0,2.4-0.3,3.2-0.6l0.4,1.5c-0.7,0.3-2,0.7-3.9,0.7c-3.6,0-5.7-2.4-5.7-5.9
		c0-3.5,2.1-6.3,5.4-6.3c3.8,0,4.8,3.3,4.8,5.5c0,0.4,0,0.8-0.1,1H918.5z M924.6,50.9c0-1.3-0.6-3.4-2.9-3.4c-2.1,0-3.1,2-3.2,3.4
		H924.6z"/>
	<path class="st13" d="M929.3,49.8c0-1.4,0-2.5-0.1-3.6h1.8l0.1,2.3h0.1c0.5-1.6,1.8-2.5,3.2-2.5c0.2,0,0.4,0,0.6,0.1v2
		c-0.2,0-0.4-0.1-0.7-0.1c-1.5,0-2.5,1.1-2.8,2.7c0,0.3-0.1,0.6-0.1,1v6.2h-2.1V49.8z"/>
	<path class="st13" d="M937.4,57.8v-10h-1.6v-1.6h1.6v-0.6c0-1.6,0.4-3.1,1.3-4.1c0.8-0.8,1.8-1.1,2.8-1.1c0.7,0,1.4,0.2,1.8,0.3
		l-0.3,1.6c-0.3-0.1-0.7-0.3-1.3-0.3c-1.8,0-2.3,1.6-2.3,3.4v0.6h2.8v1.6h-2.8v10H937.4z"/>
	<path class="st13" d="M946.7,42.9v3.3h3v1.6h-3v6.3c0,1.4,0.4,2.3,1.6,2.3c0.6,0,1-0.1,1.2-0.1l0.1,1.6c-0.4,0.2-1.1,0.3-1.9,0.3
		c-1,0-1.8-0.3-2.3-0.9c-0.6-0.6-0.8-1.7-0.8-3v-6.3h-1.8v-1.6h1.8v-2.8L946.7,42.9z"/>
	<path class="st13" d="M962.6,51.9c0,4.3-3,6.2-5.8,6.2c-3.1,0-5.6-2.3-5.6-6c0-3.9,2.5-6.2,5.8-6.2C960.4,46,962.6,48.4,962.6,51.9
		z M953.4,52c0,2.5,1.5,4.5,3.5,4.5c2,0,3.5-1.9,3.5-4.5c0-2-1-4.5-3.5-4.5C954.5,47.5,953.4,49.8,953.4,52z"/>
	<path class="st13" d="M965.3,50c0-1.5,0-2.7-0.1-3.8h1.9l0.1,2h0c0.9-1.4,2.2-2.3,4.1-2.3c2.8,0,4.9,2.4,4.9,5.9
		c0,4.2-2.5,6.2-5.3,6.2c-1.5,0-2.9-0.7-3.6-1.8h0v6.3h-2.1V50z M967.4,53.1c0,0.3,0,0.6,0.1,0.9c0.4,1.5,1.7,2.5,3.2,2.5
		c2.2,0,3.5-1.8,3.5-4.5c0-2.3-1.2-4.3-3.5-4.3c-1.4,0-2.8,1-3.2,2.6c-0.1,0.3-0.1,0.6-0.1,0.9V53.1z"/>
</g>
<g>
	<defs>
		<path id="SVGID_65_" d="M1039.5,237h-998C25.8,237,13,224.2,13,208.5v0c0-15.7,12.8-28.5,28.5-28.5h998
			c15.7,0,28.5,12.8,28.5,28.5v0C1068,224.2,1055.2,237,1039.5,237z"/>
	</defs>
	<clipPath id="SVGID_66_">
		<use xlink:href="#SVGID_65_"  style="overflow:visible;"/>
	</clipPath>
	<g class="st50">
		<defs>
			<rect id="SVGID_67_" x="-26.2" y="155.9" width="1131.7" height="221.1"/>
		</defs>
		<clipPath id="SVGID_68_">
			<use xlink:href="#SVGID_67_"  style="overflow:visible;"/>
		</clipPath>
		<g class="st51">
			<defs>
				<rect id="SVGID_69_" x="5" y="61.9" width="1083" height="362.9"/>
			</defs>
			<clipPath id="SVGID_70_">
				<use xlink:href="#SVGID_69_"  style="overflow:visible;"/>
			</clipPath>
			<g class="st52">
				
					<linearGradient id="SVGID_71_" gradientUnits="userSpaceOnUse" x1="1804.8232" y1="5680.689" x2="438.4096" y2="5672.9448" gradientTransform="matrix(1 0 0 -1 -608.55 6143.4932)">
					<stop  offset="0" style="stop-color:#010159"/>
					<stop  offset="6.000000e-02" style="stop-color:#01017C"/>
					<stop  offset="0.14" style="stop-color:#01019F"/>
					<stop  offset="0.22" style="stop-color:#0000BD"/>
					<stop  offset="0.31" style="stop-color:#0000D5"/>
					<stop  offset="0.42" style="stop-color:#0000E8"/>
					<stop  offset="0.54" style="stop-color:#0000F5"/>
					<stop  offset="0.69" style="stop-color:#0000FD"/>
					<stop  offset="1" style="stop-color:#0000FF"/>
				</linearGradient>
				<rect x="-71.8" y="-72.7" class="st53" width="1199.3" height="1078.6"/>
				
					<linearGradient id="SVGID_72_" gradientUnits="userSpaceOnUse" x1="1347.5979" y1="5997.3877" x2="650.8368" y2="5206.2427" gradientTransform="matrix(1 0 0 -1 -608.5499 6143.4932)">
					<stop  offset="0" style="stop-color:#0000FF"/>
					<stop  offset="0.18" style="stop-color:#0000FC"/>
					<stop  offset="0.33" style="stop-color:#0000F1"/>
					<stop  offset="0.47" style="stop-color:#0000DF"/>
					<stop  offset="0.6" style="stop-color:#0000C6"/>
					<stop  offset="0.73" style="stop-color:#0101A6"/>
					<stop  offset="0.86" style="stop-color:#01017F"/>
					<stop  offset="0.96" style="stop-color:#010159"/>
				</linearGradient>
				<circle class="st54" cx="377.9" cy="556.2" r="449.7"/>
			</g>
		</g>
	</g>
</g>
<g>
	<path class="st13" d="M477.6,217.3v-16h10.5v1.8h-8.5v5.1h8.3v1.8h-8.3v5.5h8.5v1.8H477.6z"/>
	<path class="st13" d="M491.2,217.3v-16h1.8v16H491.2z"/>
	<path class="st13" d="M496,213.7c0-0.6,0.1-1.2,0.3-1.7s0.5-0.9,0.9-1.2s0.8-0.5,1.3-0.7s0.9-0.2,1.5-0.2c1.6,0,2.9,0.5,3.9,1.6
		v-2.1c0-0.8-0.3-1.3-0.8-1.8s-1.3-0.7-2.1-0.7c-1.4,0-2.6,0.5-3.5,1.6l-0.8-1.3c1.2-1.3,2.8-1.9,4.6-1.9c0.6,0,1.2,0.1,1.7,0.2
		s1,0.4,1.4,0.7s0.7,0.7,1,1.2c0.2,0.5,0.4,1.1,0.4,1.8v8h-1.8V216c-1,1.1-2.2,1.6-3.9,1.6c-0.5,0-1-0.1-1.4-0.3
		c-0.5-0.2-0.9-0.4-1.3-0.7s-0.7-0.7-0.9-1.2S496,214.3,496,213.7z M497.8,213.7c0,0.7,0.3,1.4,0.8,1.8c0.5,0.5,1.2,0.7,2.1,0.7
		c0.6,0,1.2-0.1,1.8-0.4s1-0.6,1.4-1.1v-2.2c-0.3-0.5-0.8-0.8-1.4-1s-1.2-0.4-1.8-0.4c-0.8,0-1.5,0.2-2.1,0.7
		C498,212.4,497.8,213,497.8,213.7z"/>
	<path class="st13" d="M508.3,215.7l0.9-1.3c0.4,0.5,1,0.9,1.7,1.2c0.7,0.3,1.4,0.5,2.2,0.5c0.9,0,1.5-0.2,2-0.5s0.7-0.8,0.7-1.4
		c0-0.4-0.1-0.7-0.4-0.9c-0.3-0.3-0.6-0.4-1-0.6c-0.4-0.1-0.9-0.3-1.4-0.4c-0.5-0.1-1-0.3-1.5-0.4c-0.5-0.1-1-0.3-1.4-0.6
		c-0.4-0.2-0.8-0.5-1-1c-0.3-0.4-0.4-0.9-0.4-1.5c0-1,0.4-1.8,1.1-2.4c0.8-0.6,1.8-1,3.1-1c1.8,0,3.2,0.6,4.3,1.7l-0.8,1.2
		c-0.4-0.4-0.8-0.8-1.5-1.1s-1.3-0.4-2-0.4c-0.8,0-1.4,0.2-1.9,0.5c-0.5,0.4-0.7,0.8-0.7,1.3c0,0.3,0.1,0.6,0.4,0.9s0.6,0.4,1,0.5
		c0.4,0.1,0.9,0.2,1.4,0.4c0.5,0.1,1,0.3,1.5,0.4s1,0.3,1.4,0.6s0.8,0.6,1,1s0.4,0.9,0.4,1.5c0,1-0.4,1.9-1.2,2.5
		c-0.8,0.7-1.9,1-3.3,1C511,217.6,509.5,217,508.3,215.7z"/>
	<path class="st13" d="M518.8,207.3v-1.6h2v-3.2h1.8v3.2h2.4v1.6h-2.4v7.2c0,0.5,0.1,0.8,0.3,1.1c0.2,0.3,0.5,0.4,0.9,0.4
		c0.5,0,0.9-0.2,1.2-0.5l0.5,1.4c-0.5,0.5-1.2,0.7-2.1,0.7c-0.8,0-1.5-0.2-1.9-0.7c-0.4-0.5-0.6-1.1-0.6-2v-7.6H518.8z"/>
	<path class="st13" d="M527.5,203.7c-0.2-0.2-0.4-0.5-0.4-0.9s0.1-0.6,0.4-0.9s0.5-0.4,0.9-0.4s0.6,0.1,0.9,0.4s0.4,0.5,0.4,0.9
		s-0.1,0.6-0.4,0.9s-0.5,0.4-0.9,0.4S527.8,203.9,527.5,203.7z M527.5,217.3v-11.6h1.8v11.6H527.5z"/>
	<path class="st13" d="M532.2,211.5c0-1.1,0.2-2.2,0.7-3.1s1.2-1.6,2.1-2.2s1.9-0.8,3-0.8c1.8,0,3.2,0.7,4.2,2l-1.2,1.1
		c-0.7-1-1.7-1.5-3-1.5c-1.2,0-2.2,0.4-2.9,1.3c-0.7,0.8-1.1,1.9-1.1,3.2c0,1.3,0.4,2.4,1.1,3.2c0.7,0.8,1.7,1.3,2.9,1.3
		c1.2,0,2.2-0.5,3-1.5l1.2,1.1c-1,1.3-2.5,2-4.2,2c-1.7,0-3.1-0.6-4.2-1.7C532.7,214.7,532.2,213.2,532.2,211.5z"/>
	<path class="st13" d="M543.8,215.7l0.9-1.3c0.4,0.5,1,0.9,1.7,1.2c0.7,0.3,1.4,0.5,2.2,0.5c0.9,0,1.5-0.2,2-0.5s0.7-0.8,0.7-1.4
		c0-0.4-0.1-0.7-0.4-0.9c-0.3-0.3-0.6-0.4-1-0.6c-0.4-0.1-0.9-0.3-1.4-0.4c-0.5-0.1-1-0.3-1.5-0.4c-0.5-0.1-1-0.3-1.4-0.6
		c-0.4-0.2-0.8-0.5-1-1c-0.3-0.4-0.4-0.9-0.4-1.5c0-1,0.4-1.8,1.1-2.4c0.8-0.6,1.8-1,3.1-1c1.8,0,3.2,0.6,4.3,1.7l-0.8,1.2
		c-0.4-0.4-0.8-0.8-1.5-1.1s-1.3-0.4-2-0.4c-0.8,0-1.4,0.2-1.9,0.5c-0.5,0.4-0.7,0.8-0.7,1.3c0,0.3,0.1,0.6,0.4,0.9s0.6,0.4,1,0.5
		c0.4,0.1,0.9,0.2,1.4,0.4c0.5,0.1,1,0.3,1.5,0.4s1,0.3,1.4,0.6s0.8,0.6,1,1s0.4,0.9,0.4,1.5c0,1-0.4,1.9-1.2,2.5
		c-0.8,0.7-1.9,1-3.3,1C546.5,217.6,544.9,217,543.8,215.7z"/>
	<path class="st13" d="M555.2,211.5c0-1.1,0.2-2.1,0.7-3.1c0.5-0.9,1.2-1.7,2-2.2s1.8-0.8,2.9-0.8c1.1,0,2.1,0.3,3,0.8
		c0.9,0.6,1.5,1.3,1.9,2.2c0.4,0.9,0.7,2,0.7,3.2v0.5h-9.4c0.1,1.1,0.5,2.1,1.2,2.9s1.7,1.1,2.9,1.1c0.7,0,1.3-0.1,2-0.4
		s1.2-0.6,1.6-1.1l0.9,1.2c-1.2,1.2-2.8,1.8-4.6,1.8c-1.7,0-3.1-0.6-4.3-1.7S555.2,213.3,555.2,211.5z M557.1,210.7h7.6
		c0-0.4-0.1-0.9-0.2-1.3c-0.2-0.4-0.4-0.8-0.7-1.2c-0.3-0.4-0.7-0.7-1.2-0.9c-0.5-0.2-1.1-0.4-1.7-0.4c-0.6,0-1.1,0.1-1.6,0.4
		s-0.9,0.5-1.2,0.9c-0.3,0.4-0.5,0.8-0.7,1.2C557.2,209.8,557.1,210.3,557.1,210.7z"/>
	<path class="st13" d="M568.8,213.7c0-0.6,0.1-1.2,0.3-1.7s0.5-0.9,0.9-1.2s0.8-0.5,1.3-0.7s0.9-0.2,1.5-0.2c1.6,0,2.9,0.5,3.9,1.6
		v-2.1c0-0.8-0.3-1.3-0.8-1.8s-1.3-0.7-2.1-0.7c-1.4,0-2.6,0.5-3.5,1.6l-0.8-1.3c1.2-1.3,2.8-1.9,4.6-1.9c0.6,0,1.2,0.1,1.7,0.2
		s1,0.4,1.4,0.7s0.7,0.7,1,1.2c0.2,0.5,0.4,1.1,0.4,1.8v8h-1.8V216c-1,1.1-2.2,1.6-3.9,1.6c-0.5,0-1-0.1-1.4-0.3
		c-0.5-0.2-0.9-0.4-1.3-0.7s-0.7-0.7-0.9-1.2S568.8,214.3,568.8,213.7z M570.6,213.7c0,0.7,0.3,1.4,0.8,1.8c0.5,0.5,1.2,0.7,2.1,0.7
		c0.6,0,1.2-0.1,1.8-0.4s1-0.6,1.4-1.1v-2.2c-0.3-0.5-0.8-0.8-1.4-1s-1.2-0.4-1.8-0.4c-0.8,0-1.5,0.2-2.1,0.7
		C570.9,212.4,570.6,213,570.6,213.7z"/>
	<path class="st13" d="M582.1,217.3v-11.6h1.8v1.8c0.5-0.6,1.1-1.1,1.7-1.5c0.7-0.4,1.4-0.6,2.1-0.6v1.8c-0.3,0-0.5,0-0.7,0
		c-0.6,0-1.2,0.2-1.8,0.6c-0.6,0.4-1.1,0.8-1.4,1.3v8.2H582.1z"/>
	<path class="st13" d="M589.3,211.5c0-1.1,0.2-2.2,0.7-3.1s1.2-1.6,2.1-2.2s1.9-0.8,3-0.8c1.8,0,3.2,0.7,4.2,2l-1.2,1.1
		c-0.7-1-1.7-1.5-3-1.5c-1.2,0-2.2,0.4-2.9,1.3c-0.7,0.8-1.1,1.9-1.1,3.2c0,1.3,0.4,2.4,1.1,3.2c0.7,0.8,1.7,1.3,2.9,1.3
		c1.2,0,2.2-0.5,3-1.5l1.2,1.1c-1,1.3-2.5,2-4.2,2c-1.7,0-3.1-0.6-4.2-1.7C589.9,214.7,589.3,213.2,589.3,211.5z"/>
	<path class="st13" d="M601.9,217.3v-16h1.8v6.1c0.4-0.5,1-1,1.8-1.4s1.5-0.6,2.4-0.6c2.5,0,3.7,1.2,3.7,3.7v8.2h-1.8v-7.6
		c0-1-0.2-1.7-0.7-2.1s-1.1-0.6-1.9-0.6c-0.7,0-1.3,0.2-1.9,0.5s-1.1,0.8-1.5,1.3v8.5H601.9z"/>
</g>
<g>
	<path class="st55" d="M366,139c0,2.2-1.8,4-4,4s-4-1.8-4-4"/>
	<g>
		<circle class="st55" cx="361.9" cy="116.1" r="3"/>
	</g>
	<path class="st55" d="M371.9,139H352v-9.9c0-5.5,4.5-10,10-10l0,0c5.5,0,10,4.5,10,10v9.9H371.9z"/>
</g>
<g>
	<path class="st56" d="M454.5,211.9l8.5,8.5c1.3,1.3,1.3,3.3,0,4.6l0,0c-1.3,1.3-3.3,1.3-4.6,0l-8.2-8.2"/>
	<g>
		<g>
			<path class="st13" d="M444.6,196.3c5.7,0,10.3,4.6,10.3,10.3c0,5.7-4.6,10.3-10.3,10.3c-5.7,0-10.3-4.6-10.3-10.3
				C434.3,200.9,438.8,196.3,444.6,196.3 M444.6,194.2c-6.8,0-12.4,5.6-12.4,12.4c0,6.8,5.6,12.4,12.4,12.4s12.4-5.6,12.4-12.4
				C456.9,199.7,451.3,194.2,444.6,194.2L444.6,194.2z"/>
		</g>
	</g>
	<g>
		<g>
			<path class="st13" d="M444.5,200.4c3.4,0,6.1,2.8,6.1,6.1c0,3.3-2.8,6.1-6.1,6.1c-3.3,0-6.1-2.8-6.1-6.1
				C438.4,203.2,441.1,200.4,444.5,200.4 M444.5,198.4c-4.5,0-8.2,3.7-8.2,8.2c0,4.5,3.7,8.2,8.2,8.2c4.5,0,8.2-3.7,8.2-8.2
				C452.7,202,449,198.4,444.5,198.4L444.5,198.4z"/>
		</g>
	</g>
</g>
<g>
	<path class="st55" d="M379.4,43c1.1,1.8,1.6,4,1.6,6.2c0,6.9-5.6,12.5-12.5,12.5S356,56.1,356,49.2s5.6-12.5,12.5-12.5
		c0.2,0,0.4,0,0.7,0"/>
	<path class="st55" d="M381,42.3c-2.1-4.3-6.6-7.3-11.7-7.3v13.1L381,42.3z"/>
</g>
<g>
	<path class="st13" d="M907.2,143.3l-1.7,5.1h-2.2l5.5-16.2h2.5l5.5,16.2h-2.2l-1.7-5.1H907.2z M912.5,141.7l-1.6-4.7
		c-0.4-1.1-0.6-2-0.8-3h0c-0.2,1-0.5,1.9-0.8,2.9l-1.6,4.7H912.5z"/>
	<path class="st13" d="M919.2,139.9c0-1.2,0-2.2-0.1-3.1h1.9l0.1,1.9h0c0.6-1.1,1.9-2.2,3.8-2.2c1.6,0,4.1,1,4.1,4.9v6.9H927v-6.7
		c0-1.9-0.7-3.4-2.7-3.4c-1.4,0-2.5,1-2.8,2.2c-0.1,0.3-0.1,0.6-0.1,1v7h-2.1V139.9z"/>
	<path class="st13" d="M938.9,148.4l-0.2-1.5h-0.1c-0.6,0.9-1.9,1.7-3.6,1.7c-2.4,0-3.6-1.7-3.6-3.3c0-2.8,2.5-4.3,7-4.3v-0.2
		c0-1-0.3-2.7-2.6-2.7c-1.1,0-2.2,0.3-3,0.9l-0.5-1.4c1-0.6,2.4-1,3.8-1c3.6,0,4.4,2.4,4.4,4.8v4.3c0,1,0,2,0.2,2.8H938.9z
		 M938.6,142.4c-2.3,0-4.9,0.4-4.9,2.6c0,1.4,0.9,2,2,2c1.5,0,2.5-1,2.8-1.9c0.1-0.2,0.1-0.5,0.1-0.7V142.4z"/>
	<path class="st13" d="M944.1,131.3h2.1v17h-2.1V131.3z"/>
	<path class="st13" d="M950.5,136.8l2.5,6.9c0.3,0.8,0.6,1.7,0.7,2.4h0c0.2-0.7,0.5-1.6,0.7-2.4l2.3-6.8h2.2L956,145
		c-1.5,4-2.5,6-4,7.3c-1,0.9-2.1,1.3-2.6,1.4l-0.5-1.8c0.5-0.2,1.2-0.5,1.8-1c0.6-0.5,1.3-1.3,1.8-2.4c0.1-0.2,0.2-0.4,0.2-0.5
		c0-0.1,0-0.3-0.1-0.6l-4.3-10.7H950.5z"/>
	<path class="st13" d="M959.7,147.2l5.3-6.8c0.5-0.6,1-1.2,1.5-1.8v0h-6.3v-1.7h8.9l0,1.3l-5.2,6.7c-0.5,0.6-1,1.2-1.5,1.8v0h6.8
		v1.7h-9.4V147.2z"/>
	<path class="st13" d="M972.5,143c0,2.9,1.9,4,4,4c1.5,0,2.4-0.3,3.2-0.6l0.4,1.5c-0.7,0.3-2,0.7-3.9,0.7c-3.6,0-5.7-2.4-5.7-5.9
		c0-3.5,2.1-6.3,5.4-6.3c3.8,0,4.8,3.3,4.8,5.5c0,0.4,0,0.8-0.1,1H972.5z M978.7,141.4c0-1.3-0.6-3.4-2.9-3.4c-2.1,0-3.1,2-3.2,3.4
		H978.7z"/>
	<path class="st13" d="M983.3,140.4c0-1.4,0-2.5-0.1-3.6h1.8l0.1,2.3h0.1c0.5-1.6,1.8-2.5,3.2-2.5c0.2,0,0.4,0,0.6,0.1v2
		c-0.2,0-0.4-0.1-0.7-0.1c-1.5,0-2.5,1.1-2.8,2.7c0,0.3-0.1,0.6-0.1,1v6.2h-2.1V140.4z"/>
</g>
<g>
	<path class="st55" d="M83.5,123.8v-3.5c0-4,3.3-7.2,7.2-7.2l0,0c4,0,7.2,3.3,7.2,7.2v3.5"/>
	<circle class="st55" cx="90.8" cy="132.6" r="11.4"/>
	<circle class="st55" cx="90.8" cy="132.7" r="3.1"/>
</g>
<g>
	<path class="st57" d="M646,136.8l-6.6,7.2v-7.2h-2.7c-1.5,0-2.7-1.3-2.7-2.7v-14.3c0-1.5,1.2-2.7,2.7-2.7h21.5
		c1.5,0,2.7,1.2,2.7,2.7v14.3c0,1.5-1.2,2.7-2.7,2.7L646,136.8L646,136.8z"/>
	<g>
		<path class="st58" d="M637.4,129.4l0.8-1.1c0.5,0.5,1.3,0.9,2.2,0.9c0.8,0,1.2-0.4,1.2-0.8c0-1.2-4-0.4-4-3c0-1.2,1-2.1,2.6-2.1
			c1.1,0,2,0.3,2.7,0.9l-0.8,1.1c-0.5-0.5-1.3-0.8-2-0.8c-0.6,0-1,0.3-1,0.7c0,1.1,4,0.4,4,2.9c0,1.3-0.9,2.2-2.7,2.2
			C639,130.5,638,130,637.4,129.4z"/>
		<path class="st58" d="M644.2,126.9c0-2.1,1.5-3.6,3.6-3.6s3.6,1.5,3.6,3.6c0,1-0.3,1.8-0.9,2.4l0.5,0.6l-1,0.9l-0.5-0.6
			c-0.5,0.2-1,0.4-1.6,0.4C645.7,130.5,644.2,129,644.2,126.9z M648.5,129l-0.8-0.9l1-0.9l0.8,0.9c0.2-0.4,0.4-0.8,0.4-1.3
			c0-1.3-0.8-2.2-2.1-2.2c-1.3,0-2.1,1-2.1,2.2c0,1.3,0.8,2.2,2.1,2.2C648.1,129.1,648.3,129.1,648.5,129z"/>
		<path class="st58" d="M653.1,130.3v-6.9h1.5v5.6h2.9v1.3L653.1,130.3L653.1,130.3z"/>
	</g>
</g>
<g>
	<path class="st59" d="M865,137.5c1-1,2.6-1,3.6,0c1,1,1,2.6,0,3.6c-1.2,1.2-5.4,1.9-5.4,1.9S863.8,138.7,865,137.5z"/>
	<path class="st59" d="M872.7,141.7l10.9-10.9c3.1-3.1,4-7.4,3-11.4c-4-1-8.2-0.2-11.4,3l-10.9,10.9L872.7,141.7z"/>
	<circle class="st59" cx="877.6" cy="128.5" r="2.5"/>
	<polyline class="st59" points="875.2,139.3 878.7,142.8 880.7,140.8 880.3,134.3 	"/>
	<polyline class="st59" points="866.7,130.7 863.2,127.3 865.2,125.3 871.7,125.7 	"/>
</g>
</svg>
