<svg id="Layer_1" data-name="Layer 1" xmlns="http://www.w3.org/2000/svg" viewBox="0 0 1001 505"><defs><style>.cls-1{fill:#e6e6e6;}.cls-1,.cls-2,.cls-3,.cls-4,.cls-6{stroke:#000;}.cls-1,.cls-2,.cls-3,.cls-6{stroke-miterlimit:10;}.cls-2,.cls-3,.cls-4,.cls-6{fill:none;}.cls-2{stroke-width:4px;}.cls-3,.cls-4{stroke-width:3.98px;}.cls-4{stroke-linejoin:round;}.cls-5{fill:#1e201d;}</style></defs><title>security diagram</title><rect class="cls-1" x="8.5" y="16.5" width="986" height="209" rx="10"/><path class="cls-2" d="M234,69.35v-6.8a14,14,0,0,1,14-14h0a14,14,0,0,1,14,14v6.8"/><circle class="cls-2" cx="248" cy="86.45" r="22"/><circle class="cls-2" cx="248" cy="86.55" r="6"/><path class="cls-3" d="M611.9,70.05a14.25,14.25,0,0,1,7.6,12.6v13.8H603.8"/><path class="cls-3" d="M575.2,96.45H559.5V82.65a14.3,14.3,0,0,1,7.3-12.4"/><path class="cls-3" d="M614.1,57.75a9.39,9.39,0,0,1,1.2,4.7,9.91,9.91,0,0,1-16.6,7.3"/><path class="cls-3" d="M595.5,62.45a9.4,9.4,0,0,1,1.4-5"/><path class="cls-3" d="M582.2,57.45a9.1,9.1,0,0,1,1.3,4.6"/><path class="cls-3" d="M580.1,70.05a9.81,9.81,0,0,1-6.5,2.4,9.92,9.92,0,0,1-9.9-9.9,9.39,9.39,0,0,1,1.2-4.7"/><path class="cls-3" d="M596.75,82.15a14.27,14.27,0,0,1,6.85,12.4v13.9H577.5V94.55a14.26,14.26,0,0,1,6.66-12.3"/><path class="cls-3" d="M597.7,68.85a9.75,9.75,0,0,1,1.7,5.6,9.9,9.9,0,1,1-18.5-4.9"/><path class="cls-4" d="M614,58.55c.2-3,.8-4.2,3.3-6l-11.9-4-11.9,3.9c2.4,1.7,3,3,3.2,6H614Z"/><path class="cls-4" d="M582.1,58.55c.2-3,.8-4.2,3.3-6l-11.9-4-11.9,3.9c2.4,1.7,3,3,3.2,6h17.3Z"/><path class="cls-4" d="M598.1,70.45c.2-3,.8-4.2,3.3-6l-11.9-4-11.9,4c2.4,1.7,3,3,3.2,6Z"/><path d="M428.75,48.5a20,20,0,0,0-20,20,19.83,19.83,0,0,0,.42,4l-2.23,1.12a1.25,1.25,0,0,0-.32,2l1.61,1.61L407,78.5h-2a1.25,1.25,0,0,0-1.25,1.25v2L402,83.5h-2a1.25,1.25,0,0,0-1.25,1.25v2L397,88.5h-2a1.25,1.25,0,0,0-1.25,1.25v2l-4.63,4.63a1.22,1.22,0,0,0-.37.88v10A1.25,1.25,0,0,0,390,108.5h10a1.25,1.25,0,0,0,.88-.36L420,89l1.62,1.62a1.23,1.23,0,0,0,1.08.35,1.27,1.27,0,0,0,.92-.68l1.12-2.23a20,20,0,1,0,4-39.58Zm-4.38,36.93a1.24,1.24,0,0,0-1.43.65l-.78,1.56-1.28-1.27a1.24,1.24,0,0,0-1.76,0L399.48,106h-8.23V97.77l4.63-4.63a1.24,1.24,0,0,0,.37-.89V91h1.25a1.25,1.25,0,0,0,.88-.36l2.5-2.5a1.24,1.24,0,0,0,.37-.89V86h1.25a1.25,1.25,0,0,0,.88-.36l2.5-2.5a1.24,1.24,0,0,0,.37-.89V81h1.25a1.25,1.25,0,0,0,.88-.36l2.5-2.5a1.25,1.25,0,0,0,0-1.77l-1.27-1.27,1.56-.79a1.25,1.25,0,0,0,.66-1.43,17.19,17.19,0,0,1-.58-4.38,17.5,17.5,0,1,1,13.12,16.93Z"/><path d="M435,56a6.25,6.25,0,1,0,6.25,6.25A6.26,6.26,0,0,0,435,56Zm0,10a3.75,3.75,0,1,1,3.75-3.75A3.75,3.75,0,0,1,435,66Z"/><path d="M414.12,81.37l-17.5,17.5a1.25,1.25,0,0,0,1.76,1.77l17.5-17.5a1.25,1.25,0,1,0-1.76-1.77Z"/><path d="M784.57,69.55h-1.51V62.27a.66.66,0,0,0,0-.14,1.2,1.2,0,0,0-.29-.8L770.63,47.48h0a.91.91,0,0,0-.24-.2l-.08-.05a1.09,1.09,0,0,0-.25-.1l-.06,0a1.43,1.43,0,0,0-.29,0H739.9a2.47,2.47,0,0,0-2.46,2.47v20h-1.51a3.53,3.53,0,0,0-3.53,3.53V91.41a3.52,3.52,0,0,0,3.53,3.52h1.51v12.55A2.47,2.47,0,0,0,739.9,110h40.7a2.47,2.47,0,0,0,2.46-2.47V94.93h1.51a3.52,3.52,0,0,0,3.53-3.52V73.08A3.53,3.53,0,0,0,784.57,69.55Zm-44.67-20h28.57V62.14a1.24,1.24,0,0,0,1.23,1.24h10.9v6.17H739.9Zm25.36,32.33c0,5.48-3.32,8.81-8.21,8.81s-7.86-3.75-7.86-8.51c0-5,3.2-8.75,8.13-8.75C762.46,73.41,765.26,77.25,765.26,81.86Zm-27,8.53V73.68H742V87.22h6.65v3.17Zm42.37,16.42H739.9V94.93h40.7v11.88Zm1.1-17.19a18.52,18.52,0,0,1-5.58.95c-3,0-5.25-.77-6.79-2.26A8.1,8.1,0,0,1,767,82.23c0-5.55,4.07-8.73,9.55-8.73a11.64,11.64,0,0,1,4.64.82l-.8,3a9.15,9.15,0,0,0-3.89-.72c-3.15,0-5.53,1.78-5.53,5.41,0,3.44,2.16,5.48,5.26,5.48a5,5,0,0,0,1.86-.25v-3.5h-2.58v-3h6.22v8.8Z"/><path d="M753.18,82.09c0,3.27,1.54,5.57,4.07,5.57s4-2.43,4-5.67c0-3-1.44-5.58-4-5.58S753.18,78.84,753.18,82.09Z"/><path d="M958.84,57.24c-1.3-4.81-11-9.54-27.84-9.54s-26.54,4.73-27.84,9.54a1.1,1.1,0,0,0-.16.54V99.22a1.07,1.07,0,0,0,.13.51c1.32,5.48,13.16,9.57,27.87,9.57s26.49-4.07,27.86-9.53a1.12,1.12,0,0,0,.14-.55V57.78A1.1,1.1,0,0,0,958.84,57.24Zm-2.17,28.53a2.07,2.07,0,0,1-.13.4,2.6,2.6,0,0,1-.16.34,3.93,3.93,0,0,1-.26.41l-.24.31c-.13.15-.26.29-.41.44l-.29.26c-.18.16-.38.32-.59.48l-.29.2c-.25.18-.51.35-.8.52l-.24.13c-.34.19-.68.38-1.06.56l-.15.07c-.42.2-.86.39-1.33.58l0,0a43.58,43.58,0,0,1-9.59,2.43H941c-.74.11-1.5.21-2.27.3l-.39,0c-.68.07-1.36.14-2.07.19l-1,0c-.53,0-1.05.07-1.6.09-.89,0-1.79,0-2.72,0s-1.83,0-2.72-.05c-.55,0-1.07,0-1.6-.08-.33,0-.67,0-1-.06-.71-.05-1.39-.11-2.07-.18l-.39,0c-.78-.08-1.53-.18-2.27-.29h-.06a43.07,43.07,0,0,1-9.58-2.43h0c-.47-.19-.91-.39-1.33-.58l-.15-.07c-.38-.18-.73-.37-1.06-.56l-.24-.13c-.29-.17-.55-.35-.8-.52l-.29-.2c-.22-.16-.41-.32-.59-.48l-.29-.26c-.15-.15-.28-.3-.41-.44l-.24-.31a3.19,3.19,0,0,1-.26-.42,2.49,2.49,0,0,1-.16-.33,2.16,2.16,0,0,1-.13-.41,2.44,2.44,0,0,1-.09-.54,2.31,2.31,0,0,1,0-.37,1.05,1.05,0,0,0,0-.5V76l.1.09c.25.21.5.43.78.63,4.21,3.19,12.65,5.67,24.88,5.67s20.59-2.46,24.83-5.63a10.21,10.21,0,0,0,.93-.76h0v8.32a1.05,1.05,0,0,0,0,.5,2.31,2.31,0,0,1,0,.37A2.63,2.63,0,0,1,956.67,85.77Zm.09-23.18v8.32a1.05,1.05,0,0,0,0,.5,2.31,2.31,0,0,1,0,.37,2.63,2.63,0,0,1-.09.55,2.07,2.07,0,0,1-.13.4,2.6,2.6,0,0,1-.16.34,3.93,3.93,0,0,1-.26.41l-.24.31c-.13.15-.26.29-.41.44l-.29.26c-.18.16-.38.32-.59.48l-.29.2c-.25.18-.51.35-.8.52l-.24.13c-.34.19-.68.38-1.06.56l-.15.07c-.42.2-.86.39-1.33.58l0,0a43.58,43.58,0,0,1-9.59,2.43H941c-.74.11-1.5.21-2.27.3l-.39,0c-.68.07-1.36.14-2.07.19l-1,0c-.53,0-1.05.07-1.6.09-.89,0-1.79,0-2.72,0s-1.83,0-2.72-.05c-.55,0-1.07,0-1.6-.08-.33,0-.67,0-1-.06-.71,0-1.39-.11-2.07-.18l-.39,0c-.78-.08-1.53-.18-2.27-.29h-.06A43.07,43.07,0,0,1,911.32,77h0c-.47-.19-.91-.39-1.33-.58l-.15-.07c-.38-.18-.73-.37-1.06-.56l-.24-.13c-.29-.17-.55-.35-.8-.52l-.29-.2c-.22-.16-.41-.32-.59-.48l-.29-.26c-.15-.15-.28-.3-.41-.44l-.24-.31a3.19,3.19,0,0,1-.26-.42,2.49,2.49,0,0,1-.16-.33,2.16,2.16,0,0,1-.13-.41,2.44,2.44,0,0,1-.09-.54,2.31,2.31,0,0,1,0-.37,1.05,1.05,0,0,0,0-.5V62.59c.13.12.29.24.43.36l.24.21c.34.26.7.52,1.1.78l.25.15c.33.21.68.41,1,.61l.41.21c.41.21.84.41,1.29.61l.22.1c.52.22,1.08.43,1.66.64l.49.16c.46.16.94.31,1.43.45l.54.16q1,.27,2,.51l.3.06c.63.14,1.28.27,1.95.38.22,0,.45.08.68.12.64.11,1.29.2,2,.29l.51.07c.84.1,1.7.18,2.59.26l.66,0c.71,0,1.44.09,2.18.12l.81,0c1,0,2,0,3,0s2,0,3,0l.81,0c.74,0,1.47-.07,2.18-.12l.66,0c.89-.07,1.75-.16,2.59-.26l.51-.07c.67-.09,1.32-.18,2-.29.23,0,.46-.07.68-.12.67-.11,1.32-.24,1.95-.38l.3-.06q1.07-.24,2-.51l.54-.16c.49-.14,1-.29,1.43-.45l.49-.16c.58-.21,1.14-.42,1.66-.64l.22-.1c.45-.2.88-.4,1.29-.61l.41-.21c.37-.2.72-.4,1-.61l.25-.15c.4-.26.76-.52,1.1-.78l.24-.21C956.47,62.83,956.63,62.71,956.76,62.59ZM931,49.94c15.18,0,25.76,4.43,25.76,8.4s-10.58,8.4-25.76,8.4-25.76-4.42-25.76-8.4S915.82,49.94,931,49.94Zm25.76,49a.83.83,0,0,0,0,.15c-.63,3.88-11.12,8-25.72,8s-25.09-4.14-25.72-8c0-.05,0-.1,0-.14V89.47l.1.09c.25.21.5.43.78.63,4.21,3.19,12.65,5.67,24.88,5.67s20.59-2.46,24.83-5.63a10.21,10.21,0,0,0,.93-.76h0Z"/><path d="M208.88,129.41h-3.4v-1.23h8.28v1.23h-3.41v10h-1.47Z"/><path d="M215,128.18h1.45v10h4.77v1.21H215Z"/><path d="M222.63,137.6a5.1,5.1,0,0,0,2.59.73c1.48,0,2.34-.78,2.34-1.9s-.6-1.65-2.11-2.23c-1.82-.64-2.95-1.59-2.95-3.17,0-1.74,1.44-3,3.62-3a5.13,5.13,0,0,1,2.47.54l-.4,1.18a4.45,4.45,0,0,0-2.12-.53c-1.53,0-2.11.91-2.11,1.68,0,1,.68,1.56,2.22,2.15,1.89.73,2.86,1.65,2.86,3.29s-1.28,3.22-3.92,3.22a5.72,5.72,0,0,1-2.85-.72Z"/><path d="M241.74,135.28a3.93,3.93,0,0,1-4,4.27,3.83,3.83,0,0,1-3.85-4.14,3.92,3.92,0,0,1,4-4.26A3.81,3.81,0,0,1,241.74,135.28Zm-6.37.08c0,1.76,1,3.09,2.44,3.09s2.43-1.31,2.43-3.12c0-1.36-.68-3.09-2.4-3.09S235.37,133.84,235.37,135.36Z"/><path d="M243.58,133.51c0-.83,0-1.51-.07-2.18h1.29l.09,1.33h0a3,3,0,0,1,2.65-1.51c1.12,0,2.84.66,2.84,3.42v4.79H249v-4.63c0-1.29-.48-2.37-1.86-2.37a2.14,2.14,0,0,0-2.05,2.17v4.83h-1.46Z"/><path d="M256.34,128.33a15,15,0,0,1,2.77-.23,4.58,4.58,0,0,1,3.24.91,2.8,2.8,0,0,1,.88,2.12,2.94,2.94,0,0,1-2.11,2.86v0a2.78,2.78,0,0,1,1.65,2.25,17.58,17.58,0,0,0,.86,3.07h-1.5a14.13,14.13,0,0,1-.74-2.67c-.33-1.54-.93-2.12-2.24-2.17h-1.36v4.84h-1.45Zm1.45,5.09h1.47c1.55,0,2.53-.84,2.53-2.12,0-1.44-1.05-2.08-2.58-2.09a5.75,5.75,0,0,0-1.42.13Z"/><path d="M271.06,134.12h-4.35v4h4.84v1.21h-6.28V128.18h6v1.21h-4.6v3.53h4.35Z"/><path d="M273.23,137.6a5.06,5.06,0,0,0,2.58.73c1.48,0,2.34-.78,2.34-1.9s-.59-1.65-2.1-2.23c-1.83-.64-3-1.59-3-3.17,0-1.74,1.45-3,3.62-3a5.13,5.13,0,0,1,2.47.54l-.4,1.18a4.42,4.42,0,0,0-2.12-.53c-1.53,0-2.11.91-2.11,1.68,0,1,.68,1.56,2.23,2.15,1.89.73,2.85,1.65,2.85,3.29s-1.28,3.22-3.92,3.22a5.78,5.78,0,0,1-2.85-.72Z"/><path d="M283.72,129.41h-3.4v-1.23h8.28v1.23h-3.42v10h-1.46Z"/><path d="M216.31,159.26c-.32-.31-.62-.63-1.05-1.09a4.61,4.61,0,0,1-3.27,1.28,3.16,3.16,0,0,1-3.43-3.14,3.67,3.67,0,0,1,2.19-3.27v0a3.84,3.84,0,0,1-.93-2.34,2.71,2.71,0,0,1,2.84-2.75,2.33,2.33,0,0,1,2.47,2.37c0,1.18-.68,2.11-2.46,3v.05c1,1.09,2,2.32,2.73,3.11a8.09,8.09,0,0,0,1.07-3.26h1.33a8.51,8.51,0,0,1-1.61,4.13c.6.63,1.18,1.26,1.84,2Zm-1.76-1.92c-.66-.73-1.91-2.09-3.15-3.52a2.75,2.75,0,0,0-1.45,2.27,2.21,2.21,0,0,0,2.29,2.26A3.12,3.12,0,0,0,214.55,157.34Zm-3.4-6.82a3.16,3.16,0,0,0,.84,2c1.13-.65,1.86-1.25,1.86-2.19a1.32,1.32,0,0,0-1.29-1.45A1.46,1.46,0,0,0,211.15,150.52Z"/><path d="M224.56,148.93v2.3h2.09v1.11h-2.09v4.33c0,1,.29,1.56,1.1,1.56a3.32,3.32,0,0,0,.85-.1l.06,1.1a3.47,3.47,0,0,1-1.29.2,2,2,0,0,1-1.58-.62,3,3,0,0,1-.56-2.09v-4.38h-1.25v-1.11h1.25v-1.92Z"/><path d="M228.29,153.74c0-1,0-1.76-.06-2.51h1.28l0,1.58h.07a2.42,2.42,0,0,1,2.22-1.76,1.73,1.73,0,0,1,.42,0v1.38a1.88,1.88,0,0,0-.5,0,2,2,0,0,0-2,1.87,4.53,4.53,0,0,0-.06.68v4.28h-1.45Z"/><path d="M238.08,159.26l-.12-1h-.05a3,3,0,0,1-2.45,1.2,2.29,2.29,0,0,1-2.46-2.31c0-1.94,1.73-3,4.83-3V154a1.65,1.65,0,0,0-1.82-1.86,4,4,0,0,0-2.09.59l-.34-1a5,5,0,0,1,2.64-.71c2.46,0,3.05,1.67,3.05,3.28v3a11.15,11.15,0,0,0,.14,1.92Zm-.22-4.1c-1.59,0-3.4.25-3.4,1.81a1.3,1.3,0,0,0,1.38,1.4,2,2,0,0,0,1.94-1.35,1.48,1.48,0,0,0,.08-.46Z"/><path d="M241.63,153.41c0-.83,0-1.51-.07-2.18h1.29l.09,1.33h0a3,3,0,0,1,2.66-1.51c1.11,0,2.83.66,2.83,3.42v4.79H247v-4.63c0-1.29-.48-2.37-1.86-2.37a2.14,2.14,0,0,0-2,2.17v4.83h-1.46Z"/><path d="M250.63,157.77a3.86,3.86,0,0,0,1.93.58c1.06,0,1.56-.53,1.56-1.2s-.42-1.07-1.5-1.47c-1.44-.52-2.12-1.31-2.12-2.27a2.47,2.47,0,0,1,2.77-2.36,3.93,3.93,0,0,1,2,.5l-.36,1.06a3.14,3.14,0,0,0-1.64-.47c-.87,0-1.35.5-1.35,1.1s.48,1,1.53,1.36c1.39.53,2.11,1.23,2.11,2.42,0,1.41-1.1,2.41-3,2.41a4.56,4.56,0,0,1-2.25-.55Z"/><path d="M257.4,153.85c0-1,0-1.86-.07-2.62h1.31l.07,1.38h0a3.16,3.16,0,0,1,2.86-1.56c1.94,0,3.4,1.64,3.4,4.08,0,2.89-1.76,4.32-3.65,4.32a2.82,2.82,0,0,1-2.48-1.27h0v4.37H257.4Zm1.44,2.14a2.74,2.74,0,0,0,.07.6,2.25,2.25,0,0,0,2.19,1.71c1.54,0,2.44-1.26,2.44-3.1,0-1.61-.85-3-2.39-3a2.32,2.32,0,0,0-2.21,1.81,2.35,2.35,0,0,0-.1.6Z"/><path d="M274.1,155.18a3.93,3.93,0,0,1-4,4.27,3.83,3.83,0,0,1-3.85-4.14,3.92,3.92,0,0,1,4-4.26A3.8,3.8,0,0,1,274.1,155.18Zm-6.37.08c0,1.76,1,3.09,2.44,3.09s2.44-1.31,2.44-3.12c0-1.36-.68-3.09-2.41-3.09S267.73,153.74,267.73,155.26Z"/><path d="M275.94,153.74c0-1,0-1.76-.07-2.51h1.28l.05,1.58h.06a2.42,2.42,0,0,1,2.23-1.76,1.7,1.7,0,0,1,.41,0v1.38a1.88,1.88,0,0,0-.5,0,2,2,0,0,0-1.95,1.87,3.47,3.47,0,0,0-.07.68v4.28h-1.44Z"/><path d="M283.52,148.93v2.3h2.09v1.11h-2.09v4.33c0,1,.28,1.56,1.09,1.56a3.32,3.32,0,0,0,.85-.1l.06,1.1a3.47,3.47,0,0,1-1.29.2,2,2,0,0,1-1.58-.62,3,3,0,0,1-.56-2.09v-4.38h-1.25v-1.11h1.25v-1.92Z"/><path d="M367.48,136.26l-1.16,3.52h-1.5l3.8-11.19h1.75l3.81,11.19h-1.54l-1.2-3.52Zm3.67-1.13-1.1-3.22c-.25-.73-.41-1.39-.58-2h0c-.17.67-.35,1.35-.57,2l-1.09,3.23Z"/><path d="M382.29,137.59c0,.83,0,1.56.07,2.19h-1.3l-.08-1.31h0a3.05,3.05,0,0,1-2.66,1.49c-1.26,0-2.77-.7-2.77-3.52v-4.69H377v4.44c0,1.53.47,2.56,1.79,2.56a2.12,2.12,0,0,0,1.93-1.33,2.18,2.18,0,0,0,.13-.75v-4.92h1.46Z"/><path d="M386.47,129.44v2.31h2.09v1.11h-2.09v4.33c0,1,.28,1.56,1.09,1.56a3.32,3.32,0,0,0,.85-.1l.06,1.09a3.47,3.47,0,0,1-1.29.2,2,2,0,0,1-1.58-.61,3,3,0,0,1-.56-2.09v-4.38h-1.25v-1.11H385v-1.93Z"/><path d="M390.2,128h1.46v5h0a2.67,2.67,0,0,1,1.05-1,3,3,0,0,1,1.49-.42c1.08,0,2.8.67,2.8,3.44v4.78h-1.46v-4.62c0-1.29-.48-2.38-1.86-2.38a2.08,2.08,0,0,0-1.95,1.46,1.6,1.6,0,0,0-.1.69v4.85H390.2Z"/><path d="M400.21,136a2.58,2.58,0,0,0,2.76,2.78,5.34,5.34,0,0,0,2.22-.41l.25,1a6.54,6.54,0,0,1-2.67.49,3.73,3.73,0,0,1-3.95-4.05c0-2.42,1.43-4.33,3.77-4.33,2.62,0,3.31,2.31,3.31,3.79a4.88,4.88,0,0,1,0,.68Zm4.28-1.05a2.07,2.07,0,0,0-2-2.37,2.42,2.42,0,0,0-2.24,2.37Z"/><path d="M407.71,133.92c0-.83,0-1.51-.07-2.17h1.3l.08,1.32h0a3,3,0,0,1,2.66-1.51c1.11,0,2.83.67,2.83,3.42v4.8h-1.46v-4.63c0-1.3-.48-2.37-1.85-2.37a2.07,2.07,0,0,0-2,1.49,2,2,0,0,0-.1.68v4.83h-1.46Z"/><path d="M418.6,129.44v2.31h2.09v1.11H418.6v4.33c0,1,.29,1.56,1.1,1.56a3.32,3.32,0,0,0,.85-.1l.06,1.09a3.47,3.47,0,0,1-1.29.2,2,2,0,0,1-1.58-.61,3,3,0,0,1-.56-2.09v-4.38h-1.25v-1.11h1.25v-1.93Z"/><path d="M424,129.49a.86.86,0,0,1-.93.9.87.87,0,0,1-.88-.9.89.89,0,0,1,.91-.91A.87.87,0,0,1,424,129.49Zm-1.63,10.29v-8h1.46v8Z"/><path d="M431.94,139.48a5.39,5.39,0,0,1-2.31.46,3.82,3.82,0,0,1-4-4.1,4.08,4.08,0,0,1,4.32-4.26,4.85,4.85,0,0,1,2,.42l-.33,1.12a3.39,3.39,0,0,0-1.69-.38,2.78,2.78,0,0,0-2.84,3,2.75,2.75,0,0,0,2.79,3,4,4,0,0,0,1.79-.4Z"/><path d="M438.09,139.78l-.12-1h-.05a3,3,0,0,1-2.45,1.19,2.29,2.29,0,0,1-2.46-2.31c0-1.94,1.73-3,4.83-3v-.17a1.66,1.66,0,0,0-1.82-1.86,4,4,0,0,0-2.09.6l-.34-1a5,5,0,0,1,2.64-.72c2.46,0,3.06,1.68,3.06,3.29v3a11.34,11.34,0,0,0,.13,1.93Zm-.22-4.1c-1.59,0-3.4.25-3.4,1.81a1.29,1.29,0,0,0,1.38,1.39,2,2,0,0,0,1.94-1.34,1.55,1.55,0,0,0,.08-.47Z"/><path d="M443.33,129.44v2.31h2.09v1.11h-2.09v4.33c0,1,.28,1.56,1.09,1.56a3.2,3.2,0,0,0,.85-.1l.07,1.09a3.49,3.49,0,0,1-1.3.2,2,2,0,0,1-1.57-.61,3,3,0,0,1-.57-2.09v-4.38h-1.24v-1.11h1.24v-1.93Z"/><path d="M448.69,129.49a.91.91,0,0,1-1.81,0,.89.89,0,0,1,.91-.91A.87.87,0,0,1,448.69,129.49Zm-1.63,10.29v-8h1.46v8Z"/><path d="M458.21,135.7a3.92,3.92,0,0,1-4,4.26,3.82,3.82,0,0,1-3.85-4.13,3.93,3.93,0,0,1,4-4.27A3.81,3.81,0,0,1,458.21,135.7Zm-6.37.08c0,1.76,1,3.08,2.43,3.08s2.44-1.31,2.44-3.11c0-1.36-.68-3.09-2.4-3.09S451.84,134.25,451.84,135.78Z"/><path d="M460,133.92c0-.83,0-1.51-.06-2.17h1.29l.08,1.32h0a3,3,0,0,1,2.65-1.51c1.11,0,2.84.67,2.84,3.42v4.8h-1.46v-4.63c0-1.3-.48-2.37-1.86-2.37a2.08,2.08,0,0,0-2,1.49,2.27,2.27,0,0,0-.1.68v4.83H460Z"/><path d="M370.5,159.68c-.32-.32-.61-.63-1.05-1.1a4.56,4.56,0,0,1-3.26,1.28,3.17,3.17,0,0,1-3.44-3.14,3.68,3.68,0,0,1,2.19-3.27v0a3.86,3.86,0,0,1-.93-2.34,2.72,2.72,0,0,1,2.84-2.76,2.33,2.33,0,0,1,2.47,2.37c0,1.18-.68,2.11-2.45,3v.05c.94,1.1,2,2.32,2.72,3.12a8.35,8.35,0,0,0,1.08-3.27H372a8.51,8.51,0,0,1-1.61,4.13c.6.63,1.18,1.26,1.85,2Zm-1.76-1.93c-.66-.73-1.91-2.09-3.15-3.52a2.77,2.77,0,0,0-1.45,2.28,2.2,2.2,0,0,0,2.29,2.25A3.12,3.12,0,0,0,368.74,157.75Zm-3.4-6.82a3.1,3.1,0,0,0,.85,2c1.12-.65,1.85-1.24,1.85-2.19a1.31,1.31,0,0,0-1.29-1.44A1.45,1.45,0,0,0,365.34,150.93Z"/><path d="M378.85,156.16l-1.16,3.52H376.2l3.8-11.19h1.74l3.82,11.19H384l-1.19-3.52Zm3.67-1.13-1.09-3.22c-.25-.73-.42-1.39-.58-2h0c-.16.67-.35,1.35-.56,2l-1.1,3.23Z"/><path d="M393.67,157.49c0,.83,0,1.56.06,2.19h-1.29l-.08-1.31h0a3,3,0,0,1-2.65,1.49c-1.26,0-2.77-.7-2.77-3.52v-4.69h1.46v4.44c0,1.53.46,2.56,1.79,2.56a2.09,2.09,0,0,0,1.92-1.33,2,2,0,0,0,.14-.75v-4.92h1.46Z"/><path d="M397.84,149.34v2.31h2.09v1.11h-2.09v4.33c0,1,.28,1.56,1.1,1.56a3.17,3.17,0,0,0,.84-.1l.07,1.09a3.47,3.47,0,0,1-1.29.2,2,2,0,0,1-1.58-.61,3,3,0,0,1-.56-2.09v-4.38h-1.25v-1.11h1.25v-1.93Z"/><path d="M401.57,147.9H403v5h0a2.64,2.64,0,0,1,1-1,3,3,0,0,1,1.49-.42c1.08,0,2.81.67,2.81,3.44v4.78H407v-4.62c0-1.29-.48-2.38-1.86-2.38a2.1,2.1,0,0,0-2,1.45,1.85,1.85,0,0,0-.1.7v4.85h-1.46Z"/><path d="M418,155.6a3.92,3.92,0,0,1-4,4.26,3.81,3.81,0,0,1-3.84-4.13,3.92,3.92,0,0,1,4-4.27A3.81,3.81,0,0,1,418,155.6Zm-6.37.08c0,1.76,1,3.08,2.44,3.08s2.44-1.31,2.44-3.11c0-1.37-.68-3.09-2.41-3.09S411.67,154.15,411.67,155.68Z"/><path d="M419.88,154.15c0-.94,0-1.76-.07-2.5h1.28l.05,1.57h.07a2.4,2.4,0,0,1,2.22-1.76,1.79,1.79,0,0,1,.42,0v1.38a2.41,2.41,0,0,0-.5,0,2.05,2.05,0,0,0-2,1.88,4.45,4.45,0,0,0-.07.68v4.28h-1.44Z"/><path d="M427,149.39a.91.91,0,0,1-1.81,0,.89.89,0,0,1,.91-.91A.87.87,0,0,1,427,149.39Zm-1.63,10.29v-8h1.46v8Z"/><path d="M429.05,158.18a3.73,3.73,0,0,0,1.92.58c1.07,0,1.56-.53,1.56-1.19s-.41-1.08-1.49-1.48c-1.44-.51-2.12-1.31-2.12-2.27a2.48,2.48,0,0,1,2.77-2.36,4.06,4.06,0,0,1,2,.5L433.3,153a3.15,3.15,0,0,0-1.64-.46c-.87,0-1.35.5-1.35,1.09s.48,1,1.53,1.36c1.39.54,2.1,1.23,2.1,2.43,0,1.41-1.09,2.4-3,2.4a4.56,4.56,0,0,1-2.25-.54Z"/><path d="M440.26,159.68l-.11-1h0a3,3,0,0,1-2.46,1.2,2.28,2.28,0,0,1-2.45-2.31c0-1.94,1.72-3,4.82-3v-.17a1.66,1.66,0,0,0-1.82-1.86,3.94,3.94,0,0,0-2.09.6l-.33-1a5,5,0,0,1,2.63-.72c2.46,0,3.06,1.68,3.06,3.29v3a11.34,11.34,0,0,0,.13,1.93Zm-.21-4.1c-1.6,0-3.4.25-3.4,1.81a1.29,1.29,0,0,0,1.37,1.39,2,2,0,0,0,1.94-1.34,1.56,1.56,0,0,0,.09-.47Z"/><path d="M445.5,149.34v2.31h2.09v1.11H445.5v4.33c0,1,.28,1.56,1.1,1.56a3.17,3.17,0,0,0,.84-.1l.07,1.09a3.47,3.47,0,0,1-1.29.2,2,2,0,0,1-1.58-.61,3,3,0,0,1-.57-2.09v-4.38h-1.24v-1.11h1.24v-1.93Z"/><path d="M450.86,149.39a.91.91,0,0,1-1.81,0,.89.89,0,0,1,.91-.91A.87.87,0,0,1,450.86,149.39Zm-1.63,10.29v-8h1.46v8Z"/><path d="M460.38,155.6a3.92,3.92,0,0,1-4,4.26,3.82,3.82,0,0,1-3.85-4.13,3.93,3.93,0,0,1,4-4.27A3.81,3.81,0,0,1,460.38,155.6Zm-6.37.08c0,1.76,1,3.08,2.44,3.08s2.44-1.31,2.44-3.11c0-1.37-.68-3.09-2.41-3.09S454,154.15,454,155.68Z"/><path d="M462.22,153.82c0-.83,0-1.51-.07-2.17h1.29l.09,1.32h0a3,3,0,0,1,2.66-1.51c1.11,0,2.83.67,2.83,3.42v4.8h-1.46v-4.63c0-1.3-.48-2.37-1.86-2.37a2.07,2.07,0,0,0-2,1.49,2,2,0,0,0-.1.68v4.83h-1.46Z"/><path d="M552.07,128.74a15,15,0,0,1,2.77-.23,4.6,4.6,0,0,1,3.24.91,2.8,2.8,0,0,1,.87,2.13,2.93,2.93,0,0,1-2.1,2.85v0a2.81,2.81,0,0,1,1.64,2.26,17.58,17.58,0,0,0,.86,3.07h-1.49a15.24,15.24,0,0,1-.75-2.67c-.33-1.55-.93-2.13-2.24-2.18h-1.36v4.85h-1.44Zm1.44,5.1H555c1.54,0,2.52-.85,2.52-2.13,0-1.44-1-2.07-2.57-2.09a5.64,5.64,0,0,0-1.43.14Z"/><path d="M568.27,135.7a3.92,3.92,0,0,1-4,4.26,3.81,3.81,0,0,1-3.85-4.13,3.92,3.92,0,0,1,4-4.27A3.81,3.81,0,0,1,568.27,135.7Zm-6.37.08c0,1.76,1,3.08,2.44,3.08s2.44-1.31,2.44-3.11c0-1.36-.68-3.09-2.41-3.09S561.9,134.25,561.9,135.78Z"/><path d="M570.11,128h1.46v11.78h-1.46Z"/><path d="M574.84,136a2.56,2.56,0,0,0,2.75,2.78,5.35,5.35,0,0,0,2.23-.41l.24,1a6.54,6.54,0,0,1-2.67.49,3.73,3.73,0,0,1-3.95-4.05c0-2.42,1.43-4.33,3.77-4.33,2.62,0,3.32,2.31,3.32,3.79a4.88,4.88,0,0,1,0,.68Zm4.28-1.05a2.08,2.08,0,0,0-2-2.37,2.43,2.43,0,0,0-2.24,2.37Z"/><path d="M586.18,134.75v1.08h-4.1v-1.08Z"/><path d="M587.82,139.78c0-.55.07-1.36.07-2.08V128h1.44v5h0a3,3,0,0,1,2.73-1.48c2,0,3.4,1.66,3.39,4.1,0,2.87-1.81,4.3-3.6,4.3a2.87,2.87,0,0,1-2.69-1.51h-.05l-.07,1.33Zm1.51-3.22a3.07,3.07,0,0,0,.07.53,2.26,2.26,0,0,0,2.19,1.71c1.53,0,2.44-1.25,2.44-3.09,0-1.61-.83-3-2.39-3a2.33,2.33,0,0,0-2.23,1.79,3,3,0,0,0-.08.6Z"/><path d="M601.77,139.78l-.12-1h0a3,3,0,0,1-2.45,1.19,2.29,2.29,0,0,1-2.46-2.31c0-1.94,1.73-3,4.83-3v-.17a1.66,1.66,0,0,0-1.82-1.86,4,4,0,0,0-2.09.6l-.34-1a5,5,0,0,1,2.64-.72c2.46,0,3.05,1.68,3.05,3.29v3a11.27,11.27,0,0,0,.14,1.93Zm-.22-4.1c-1.59,0-3.4.25-3.4,1.81a1.29,1.29,0,0,0,1.38,1.39,2,2,0,0,0,1.94-1.34,1.55,1.55,0,0,0,.08-.47Z"/><path d="M605.12,138.28a3.73,3.73,0,0,0,1.92.58c1.06,0,1.56-.53,1.56-1.19s-.41-1.08-1.49-1.48c-1.45-.51-2.13-1.31-2.13-2.27a2.49,2.49,0,0,1,2.78-2.36,4.06,4.06,0,0,1,2,.5l-.36,1.06a3.16,3.16,0,0,0-1.65-.46c-.86,0-1.34.5-1.34,1.09s.48,1,1.52,1.37c1.4.53,2.11,1.22,2.11,2.42,0,1.41-1.09,2.4-3,2.4a4.63,4.63,0,0,1-2.26-.54Z"/><path d="M612.7,136a2.56,2.56,0,0,0,2.75,2.78,5.27,5.27,0,0,0,2.22-.41l.25,1a6.54,6.54,0,0,1-2.67.49,3.73,3.73,0,0,1-4-4.05c0-2.42,1.43-4.33,3.77-4.33,2.62,0,3.32,2.31,3.32,3.79,0,.3,0,.53,0,.68ZM617,135a2.08,2.08,0,0,0-2-2.37,2.43,2.43,0,0,0-2.24,2.37Z"/><path d="M627.13,128v9.7c0,.72,0,1.53.06,2.08h-1.31l-.06-1.4h0a3,3,0,0,1-2.73,1.58c-1.95,0-3.44-1.64-3.44-4.08,0-2.67,1.64-4.32,3.6-4.32a2.69,2.69,0,0,1,2.42,1.23h0V128Zm-1.46,7a2.56,2.56,0,0,0-.07-.62,2.15,2.15,0,0,0-2.11-1.69c-1.51,0-2.4,1.33-2.4,3.1s.79,3,2.37,3A2.19,2.19,0,0,0,625.6,137a2.53,2.53,0,0,0,.07-.63Z"/><path d="M532.16,149.39a.86.86,0,0,1-.93.9.87.87,0,0,1-.88-.9.89.89,0,0,1,.92-.91A.87.87,0,0,1,532.16,149.39Zm-1.62,10.29v-8H532v8Z"/><path d="M534.42,153.82c0-.83,0-1.51-.07-2.17h1.29l.09,1.32h0a3,3,0,0,1,2.65-1.51c1.12,0,2.84.67,2.84,3.42v4.8h-1.46v-4.63c0-1.3-.48-2.37-1.86-2.37a2.06,2.06,0,0,0-1.95,1.49,2,2,0,0,0-.1.68v4.83h-1.46Z"/><path d="M550.56,147.9v9.7c0,.72,0,1.53.06,2.08h-1.31l-.07-1.4h0a3,3,0,0,1-2.74,1.58c-1.94,0-3.43-1.64-3.43-4.08,0-2.67,1.64-4.32,3.6-4.32a2.67,2.67,0,0,1,2.42,1.23h0V147.9Zm-1.46,7a2.56,2.56,0,0,0-.07-.62,2.15,2.15,0,0,0-2.11-1.69c-1.51,0-2.4,1.33-2.4,3.1s.79,3,2.37,3a2.2,2.2,0,0,0,2.14-1.74,2.53,2.53,0,0,0,.07-.63Z"/><path d="M553.79,155.93a2.56,2.56,0,0,0,2.75,2.78,5.3,5.3,0,0,0,2.22-.41l.25,1a6.34,6.34,0,0,1-2.67.5,3.73,3.73,0,0,1-4-4.05c0-2.42,1.43-4.33,3.77-4.33,2.62,0,3.32,2.31,3.32,3.79,0,.3,0,.53-.05.68Zm4.28-1.05a2.09,2.09,0,0,0-2-2.37,2.43,2.43,0,0,0-2.24,2.37Z"/><path d="M561.91,151.65l1.15,1.72c.29.45.54.86.81,1.31h0c.26-.48.53-.89.79-1.32l1.13-1.71h1.58l-2.74,3.88,2.82,4.15h-1.66l-1.17-1.81c-.32-.47-.59-.91-.87-1.4h0c-.27.49-.55.92-.85,1.4l-1.16,1.81h-1.61l2.86-4.1-2.73-3.93Z"/><path d="M568,161.72a23.26,23.26,0,0,0,1-4l1.62-.16a20.43,20.43,0,0,1-1.57,4Z"/><path d="M582.79,147.9v9.7c0,.72,0,1.53.07,2.08h-1.31l-.07-1.4h0a3,3,0,0,1-2.74,1.58c-1.94,0-3.43-1.64-3.43-4.08,0-2.67,1.64-4.32,3.6-4.32a2.69,2.69,0,0,1,2.42,1.23h0V147.9Zm-1.46,7a2.56,2.56,0,0,0-.06-.62,2.16,2.16,0,0,0-2.11-1.69c-1.51,0-2.41,1.33-2.41,3.1s.8,3,2.38,3a2.21,2.21,0,0,0,2.14-1.74,2.54,2.54,0,0,0,.06-.63Z"/><path d="M592.48,155.6a3.92,3.92,0,0,1-4,4.26,3.81,3.81,0,0,1-3.85-4.13,3.93,3.93,0,0,1,4-4.27A3.81,3.81,0,0,1,592.48,155.6Zm-6.37.08c0,1.76,1,3.08,2.43,3.08s2.44-1.31,2.44-3.11c0-1.37-.68-3.09-2.4-3.09S586.11,154.15,586.11,155.68Z"/><path d="M600,159.38a5.39,5.39,0,0,1-2.31.46,3.82,3.82,0,0,1-4-4.1,4.08,4.08,0,0,1,4.32-4.26,4.85,4.85,0,0,1,2,.42l-.33,1.12a3.39,3.39,0,0,0-1.69-.38,2.78,2.78,0,0,0-2.84,3,2.75,2.75,0,0,0,2.79,3,4,4,0,0,0,1.79-.4Z"/><path d="M608.46,157.49c0,.83,0,1.56.07,2.19h-1.3l-.08-1.31h0a3,3,0,0,1-2.66,1.49c-1.26,0-2.77-.7-2.77-3.52v-4.69h1.46v4.44c0,1.53.47,2.56,1.8,2.56a2.11,2.11,0,0,0,1.92-1.33,2.22,2.22,0,0,0,.13-.75v-4.92h1.46Z"/><path d="M610.88,153.82c0-.83,0-1.51-.07-2.17h1.28l.07,1.29h.05a2.77,2.77,0,0,1,2.52-1.48,2.38,2.38,0,0,1,2.27,1.61h0a3.28,3.28,0,0,1,.89-1,2.71,2.71,0,0,1,1.78-.57c1.06,0,2.64.7,2.64,3.49v4.73h-1.43v-4.55c0-1.54-.57-2.47-1.74-2.47a1.89,1.89,0,0,0-1.73,1.33,2.24,2.24,0,0,0-.11.73v5h-1.43v-4.81c0-1.28-.57-2.21-1.68-2.21a2,2,0,0,0-1.81,1.46,2,2,0,0,0-.11.71v4.85h-1.43Z"/><path d="M625.52,155.93a2.58,2.58,0,0,0,2.76,2.78,5.34,5.34,0,0,0,2.22-.41l.25,1a6.34,6.34,0,0,1-2.67.5,3.73,3.73,0,0,1-4-4.05c0-2.42,1.43-4.33,3.77-4.33,2.62,0,3.32,2.31,3.32,3.79,0,.3,0,.53-.05.68Zm4.29-1.05a2.09,2.09,0,0,0-2-2.37,2.42,2.42,0,0,0-2.24,2.37Z"/><path d="M633,153.82c0-.83,0-1.51-.07-2.17h1.3l.08,1.32h0a3,3,0,0,1,2.66-1.51c1.11,0,2.84.67,2.84,3.42v4.8H638.4v-4.63c0-1.3-.49-2.37-1.86-2.37a2.07,2.07,0,0,0-2,1.49,2,2,0,0,0-.1.68v4.83H633Z"/><path d="M643.92,149.34v2.31H646v1.11h-2.09v4.33c0,1,.28,1.56,1.09,1.56a3.32,3.32,0,0,0,.85-.1l.06,1.09a3.47,3.47,0,0,1-1.29.2,2,2,0,0,1-1.58-.61,3,3,0,0,1-.56-2.09v-4.38h-1.25v-1.11h1.25v-1.93Z"/><path d="M646.65,161.72a23.27,23.27,0,0,0,1-4l1.63-.16a20.43,20.43,0,0,1-1.57,4Z"/><path d="M557.26,179.58c-.31-.32-.61-.63-1-1.1a4.58,4.58,0,0,1-3.27,1.28,3.17,3.17,0,0,1-3.44-3.14,3.7,3.7,0,0,1,2.19-3.27v0a3.82,3.82,0,0,1-.92-2.33,2.7,2.7,0,0,1,2.83-2.76,2.33,2.33,0,0,1,2.48,2.37c0,1.18-.68,2.11-2.46,3v.05c.94,1.09,2,2.32,2.72,3.12a8.19,8.19,0,0,0,1.08-3.27h1.33a8.51,8.51,0,0,1-1.61,4.13l1.84,2Zm-1.76-1.93c-.66-.73-1.9-2.09-3.15-3.52a2.76,2.76,0,0,0-1.44,2.28,2.2,2.2,0,0,0,2.29,2.25A3.11,3.11,0,0,0,555.5,177.65Zm-3.4-6.82a3.15,3.15,0,0,0,.85,2c1.13-.65,1.86-1.24,1.86-2.19a1.31,1.31,0,0,0-1.3-1.44A1.45,1.45,0,0,0,552.1,170.83Z"/><path d="M563.91,179.58v-6.92h-1.13v-1.11h1.13v-.44a3.22,3.22,0,0,1,3.5-3.5,4.08,4.08,0,0,1,2,.53l-.41,1.12a3.07,3.07,0,0,0-1.7-.47c-1.54,0-2,1.08-2,2.36v.4H570v8h-1.45v-6.92h-3.22v6.92Z"/><path d="M573.25,175.83a2.56,2.56,0,0,0,2.75,2.78,5.27,5.27,0,0,0,2.22-.41l.25,1a6.34,6.34,0,0,1-2.67.5,3.73,3.73,0,0,1-3.95-4.05c0-2.42,1.43-4.33,3.77-4.33,2.62,0,3.32,2.31,3.32,3.79,0,.29,0,.53-.05.68Zm4.28-1.05a2.08,2.08,0,0,0-2-2.37,2.43,2.43,0,0,0-2.24,2.37Z"/><path d="M580.74,167.8h1.46v11.78h-1.46Z"/><path d="M591.59,167.8v9.7c0,.72,0,1.53.07,2.08h-1.31l-.07-1.4h0a3,3,0,0,1-2.74,1.58c-1.94,0-3.44-1.64-3.44-4.08,0-2.67,1.65-4.32,3.6-4.32a2.7,2.7,0,0,1,2.43,1.23h0V167.8Zm-1.46,7a2.54,2.54,0,0,0-.07-.61,2.14,2.14,0,0,0-2.1-1.69c-1.51,0-2.41,1.33-2.41,3.1s.8,3,2.37,3a2.19,2.19,0,0,0,2.14-1.74,2.53,2.53,0,0,0,.07-.63Z"/><path d="M597.39,174.55v1.08h-4.1v-1.08Z"/><path d="M599.1,167.8h1.46v11.78H599.1Z"/><path d="M603.82,175.83a2.58,2.58,0,0,0,2.76,2.78,5.34,5.34,0,0,0,2.22-.41l.25,1a6.34,6.34,0,0,1-2.67.5,3.73,3.73,0,0,1-4-4.05c0-2.42,1.43-4.33,3.77-4.33,2.62,0,3.32,2.31,3.32,3.79,0,.29,0,.53,0,.68Zm4.28-1.05a2.07,2.07,0,0,0-2-2.37,2.42,2.42,0,0,0-2.24,2.37Z"/><path d="M611.88,171.55l1.58,4.51a20.11,20.11,0,0,1,.65,2.06h0c.18-.67.41-1.33.68-2.06l1.56-4.51h1.52l-3.15,8h-1.39l-3.06-8Z"/><path d="M619.94,175.83a2.58,2.58,0,0,0,2.76,2.78,5.34,5.34,0,0,0,2.22-.41l.25,1a6.34,6.34,0,0,1-2.67.5,3.73,3.73,0,0,1-4-4.05c0-2.42,1.43-4.33,3.77-4.33,2.62,0,3.31,2.31,3.31,3.79,0,.29,0,.53,0,.68Zm4.28-1.05a2.07,2.07,0,0,0-2-2.37,2.42,2.42,0,0,0-2.24,2.37Z"/><path d="M627.44,167.8h1.46v11.78h-1.46Z"/><path d="M548.51,199.48l-.11-1h0a3,3,0,0,1-2.46,1.19,2.29,2.29,0,0,1-2.45-2.31c0-1.94,1.72-3,4.82-3v-.17a1.66,1.66,0,0,0-1.82-1.86,3.94,3.94,0,0,0-2.09.6l-.33-1a5,5,0,0,1,2.64-.72c2.45,0,3.05,1.68,3.05,3.29v3a11.34,11.34,0,0,0,.13,1.93Zm-.21-4.1c-1.59,0-3.4.25-3.4,1.81a1.29,1.29,0,0,0,1.37,1.39,2,2,0,0,0,1.94-1.34,1.56,1.56,0,0,0,.09-.47Z"/><path d="M557.78,199.18a5.33,5.33,0,0,1-2.3.46,3.81,3.81,0,0,1-4-4.09,4.08,4.08,0,0,1,4.31-4.27,4.86,4.86,0,0,1,2,.42l-.33,1.12a3.41,3.41,0,0,0-1.7-.38,2.78,2.78,0,0,0-2.83,3,2.75,2.75,0,0,0,2.78,3,4.1,4.1,0,0,0,1.8-.4Z"/><path d="M565.11,199.18a5.33,5.33,0,0,1-2.3.46,3.81,3.81,0,0,1-4-4.09,4.08,4.08,0,0,1,4.31-4.27,4.86,4.86,0,0,1,2,.42l-.33,1.12a3.41,3.41,0,0,0-1.7-.38,2.78,2.78,0,0,0-2.83,3,2.75,2.75,0,0,0,2.78,3,4.1,4.1,0,0,0,1.8-.4Z"/><path d="M567.53,195.73a2.58,2.58,0,0,0,2.76,2.78,5.34,5.34,0,0,0,2.22-.41l.25,1.05a6.54,6.54,0,0,1-2.67.49,3.73,3.73,0,0,1-4-4c0-2.43,1.43-4.34,3.77-4.34,2.62,0,3.31,2.31,3.31,3.79a4.88,4.88,0,0,1-.05.68Zm4.28-1a2.07,2.07,0,0,0-2-2.37,2.41,2.41,0,0,0-2.24,2.37Z"/><path d="M574.83,198a3.73,3.73,0,0,0,1.92.58c1.06,0,1.56-.53,1.56-1.19s-.41-1.08-1.49-1.48c-1.44-.51-2.12-1.31-2.12-2.27a2.48,2.48,0,0,1,2.77-2.36,4.06,4.06,0,0,1,2,.5l-.36,1.06a3.16,3.16,0,0,0-1.65-.46c-.86,0-1.34.5-1.34,1.09s.48,1,1.52,1.36c1.4.54,2.11,1.23,2.11,2.43,0,1.41-1.09,2.4-3,2.4a4.63,4.63,0,0,1-2.26-.54Z"/><path d="M581.4,198a3.73,3.73,0,0,0,1.92.58c1.06,0,1.56-.53,1.56-1.19s-.41-1.08-1.49-1.48c-1.45-.51-2.13-1.31-2.13-2.27a2.48,2.48,0,0,1,2.77-2.36,4.07,4.07,0,0,1,2,.5l-.37,1.06a3.08,3.08,0,0,0-1.64-.46c-.86,0-1.34.5-1.34,1.09s.48,1,1.52,1.36c1.4.54,2.11,1.23,2.11,2.43,0,1.41-1.1,2.4-3,2.4a4.6,4.6,0,0,1-2.26-.54Z"/><path d="M597.4,199.18a5.39,5.39,0,0,1-2.31.46,3.81,3.81,0,0,1-4-4.09,4.08,4.08,0,0,1,4.31-4.27,4.81,4.81,0,0,1,2,.42l-.33,1.12a3.36,3.36,0,0,0-1.69-.38,2.78,2.78,0,0,0-2.84,3,2.75,2.75,0,0,0,2.79,3,4,4,0,0,0,1.79-.4Z"/><path d="M606.27,195.4a3.92,3.92,0,0,1-4,4.26,3.81,3.81,0,0,1-3.85-4.13,3.93,3.93,0,0,1,4-4.27A3.8,3.8,0,0,1,606.27,195.4Zm-6.37.08c0,1.76,1,3.08,2.44,3.08s2.44-1.31,2.44-3.12c0-1.36-.68-3.08-2.4-3.08S599.9,194,599.9,195.48Z"/><path d="M608.11,193.62c0-.83,0-1.51-.07-2.17h1.3l.08,1.32h0a3,3,0,0,1,2.66-1.51c1.11,0,2.84.67,2.84,3.42v4.8h-1.46v-4.63c0-1.3-.49-2.37-1.86-2.37a2.08,2.08,0,0,0-2,1.49,2,2,0,0,0-.1.68v4.83h-1.46Z"/><path d="M619,189.14v2.31h2.09v1.11H619v4.33c0,1,.28,1.56,1.09,1.56a3.26,3.26,0,0,0,.85-.1l.06,1.09a3.47,3.47,0,0,1-1.29.2,2,2,0,0,1-1.58-.61,3,3,0,0,1-.56-2.09v-4.38h-1.25v-1.11h1.25v-1.93Z"/><path d="M622.74,194c0-.94,0-1.76-.07-2.5H624l0,1.57h.06a2.42,2.42,0,0,1,2.23-1.76,1.7,1.7,0,0,1,.41.05v1.38a2.38,2.38,0,0,0-.49-.05,2.05,2.05,0,0,0-2,1.88,3.39,3.39,0,0,0-.07.68v4.28h-1.44Z"/><path d="M635.26,195.4a3.92,3.92,0,0,1-4,4.26,3.82,3.82,0,0,1-3.85-4.13,3.93,3.93,0,0,1,4-4.27A3.81,3.81,0,0,1,635.26,195.4Zm-6.37.08c0,1.76,1,3.08,2.44,3.08s2.44-1.31,2.44-3.12c0-1.36-.68-3.08-2.41-3.08S628.89,194,628.89,195.48Z"/><path d="M637.1,187.7h1.46v11.78H637.1Z"/><path d="M745.29,136.26l-1.16,3.52h-1.5l3.8-11.19h1.74L752,139.78h-1.54l-1.2-3.52Zm3.66-1.13-1.09-3.22c-.25-.73-.42-1.39-.58-2h0c-.16.67-.34,1.35-.56,2l-1.09,3.23Z"/><path d="M760.1,137.59c0,.83,0,1.56.06,2.19h-1.29l-.08-1.31h0A3,3,0,0,1,756.1,140c-1.26,0-2.77-.7-2.77-3.52v-4.69h1.46v4.44c0,1.53.46,2.56,1.79,2.56a2.12,2.12,0,0,0,1.93-1.33,2.18,2.18,0,0,0,.13-.75v-4.92h1.46Z"/><path d="M769.45,128v9.7c0,.72,0,1.53.07,2.08h-1.31l-.07-1.4h0a3,3,0,0,1-2.74,1.58c-1.94,0-3.44-1.64-3.44-4.08,0-2.67,1.65-4.32,3.6-4.32a2.72,2.72,0,0,1,2.43,1.23h0V128ZM768,135a2.56,2.56,0,0,0-.07-.62,2.14,2.14,0,0,0-2.1-1.69c-1.51,0-2.41,1.33-2.41,3.1s.8,3,2.37,3a2.19,2.19,0,0,0,2.14-1.74,2.53,2.53,0,0,0,.07-.63Z"/><path d="M773.5,129.49a.91.91,0,0,1-1.81,0,.89.89,0,0,1,.91-.91A.87.87,0,0,1,773.5,129.49Zm-1.63,10.29v-8h1.46v8Z"/><path d="M777.51,129.44v2.31h2.09v1.11h-2.09v4.33c0,1,.28,1.56,1.09,1.56a3.26,3.26,0,0,0,.85-.1l.07,1.09a3.53,3.53,0,0,1-1.3.2,2,2,0,0,1-1.58-.61,3,3,0,0,1-.56-2.09v-4.38h-1.24v-1.11h1.24v-1.93Z"/><path d="M722.45,159.68c-.32-.32-.62-.63-1.05-1.1a4.56,4.56,0,0,1-3.27,1.28,3.16,3.16,0,0,1-3.43-3.14,3.68,3.68,0,0,1,2.19-3.27v0a3.86,3.86,0,0,1-.93-2.34,2.72,2.72,0,0,1,2.84-2.76,2.33,2.33,0,0,1,2.47,2.37c0,1.18-.68,2.11-2.46,3v.05c1,1.1,2,2.32,2.72,3.12a8,8,0,0,0,1.08-3.27h1.33a8.51,8.51,0,0,1-1.61,4.13c.6.63,1.18,1.26,1.84,2Zm-1.76-1.93c-.67-.73-1.91-2.09-3.15-3.52a2.77,2.77,0,0,0-1.45,2.28,2.2,2.2,0,0,0,2.29,2.25A3.14,3.14,0,0,0,720.69,157.75Zm-3.4-6.82a3.14,3.14,0,0,0,.84,2c1.13-.65,1.86-1.24,1.86-2.19a1.31,1.31,0,0,0-1.29-1.44A1.45,1.45,0,0,0,717.29,150.93Z"/><path d="M734.67,159.38a5.39,5.39,0,0,1-2.31.46,3.82,3.82,0,0,1-4-4.1,4.08,4.08,0,0,1,4.32-4.26,4.85,4.85,0,0,1,2,.42l-.33,1.12a3.39,3.39,0,0,0-1.69-.38,2.78,2.78,0,0,0-2.84,3,2.75,2.75,0,0,0,2.79,3,4,4,0,0,0,1.79-.4Z"/><path d="M743.54,155.6a3.92,3.92,0,0,1-4,4.26,3.82,3.82,0,0,1-3.85-4.13,3.93,3.93,0,0,1,4-4.27A3.81,3.81,0,0,1,743.54,155.6Zm-6.37.08c0,1.76,1,3.08,2.44,3.08s2.44-1.31,2.44-3.11c0-1.37-.68-3.09-2.41-3.09S737.17,154.15,737.17,155.68Z"/><path d="M745.38,153.82c0-.83,0-1.51-.07-2.17h1.28l.06,1.29h.06a2.76,2.76,0,0,1,2.52-1.48,2.38,2.38,0,0,1,2.27,1.61h0a3.44,3.44,0,0,1,.9-1,2.7,2.7,0,0,1,1.77-.57c1.07,0,2.64.7,2.64,3.49v4.73h-1.42v-4.55c0-1.54-.57-2.47-1.75-2.47A1.88,1.88,0,0,0,752,154a2.23,2.23,0,0,0-.12.73v5H750.4v-4.81c0-1.28-.56-2.21-1.67-2.21a2,2,0,0,0-1.81,1.46,2,2,0,0,0-.12.71v4.85h-1.42Z"/><path d="M759.21,154.27c0-1,0-1.86-.07-2.62h1.31l.07,1.37h0a3.16,3.16,0,0,1,2.86-1.56c1.94,0,3.4,1.65,3.4,4.09,0,2.88-1.76,4.31-3.65,4.31a2.84,2.84,0,0,1-2.48-1.26h0V163h-1.44Zm1.44,2.14a2.9,2.9,0,0,0,.07.6,2.24,2.24,0,0,0,2.19,1.7c1.54,0,2.44-1.26,2.44-3.1,0-1.61-.85-3-2.39-3a2.33,2.33,0,0,0-2.21,1.8,2.43,2.43,0,0,0-.1.6Z"/><path d="M768.64,147.9h1.46v11.78h-1.46Z"/><path d="M774.18,149.39a.86.86,0,0,1-.93.9.87.87,0,0,1-.88-.9.9.9,0,0,1,.92-.91A.87.87,0,0,1,774.18,149.39Zm-1.62,10.29v-8H774v8Z"/><path d="M780.88,159.68l-.11-1h0a3,3,0,0,1-2.46,1.2,2.29,2.29,0,0,1-2.45-2.31c0-1.94,1.72-3,4.82-3v-.17a1.66,1.66,0,0,0-1.82-1.86,3.94,3.94,0,0,0-2.09.6l-.33-1a5,5,0,0,1,2.63-.72c2.46,0,3.06,1.68,3.06,3.29v3a11.34,11.34,0,0,0,.13,1.93Zm-.21-4.1c-1.59,0-3.4.25-3.4,1.81a1.29,1.29,0,0,0,1.37,1.39,2,2,0,0,0,2-1.34,1.93,1.93,0,0,0,.08-.47Z"/><path d="M784.43,153.82c0-.83,0-1.51-.07-2.17h1.3l.08,1.32h0a3,3,0,0,1,2.66-1.51c1.11,0,2.84.67,2.84,3.42v4.8h-1.46v-4.63c0-1.3-.49-2.37-1.86-2.37a2.08,2.08,0,0,0-2,1.49,2,2,0,0,0-.1.68v4.83h-1.46Z"/><path d="M799.36,159.38a5.39,5.39,0,0,1-2.31.46,3.82,3.82,0,0,1-4-4.1,4.08,4.08,0,0,1,4.32-4.26,4.85,4.85,0,0,1,2,.42l-.33,1.12a3.39,3.39,0,0,0-1.69-.38,2.78,2.78,0,0,0-2.84,3,2.75,2.75,0,0,0,2.79,3,4,4,0,0,0,1.79-.4Z"/><path d="M801.78,155.93a2.56,2.56,0,0,0,2.75,2.78,5.27,5.27,0,0,0,2.22-.41l.25,1a6.34,6.34,0,0,1-2.67.5,3.73,3.73,0,0,1-4-4.05c0-2.42,1.43-4.33,3.77-4.33,2.62,0,3.32,2.31,3.32,3.79,0,.3,0,.53-.05.68Zm4.28-1.05a2.08,2.08,0,0,0-2-2.37,2.43,2.43,0,0,0-2.24,2.37Z"/><path d="M737.18,167.8h1.46v11.78h-1.46Z"/><path d="M748.37,175.49a3.93,3.93,0,0,1-4,4.27,3.81,3.81,0,0,1-3.85-4.13,3.93,3.93,0,0,1,4-4.27A3.81,3.81,0,0,1,748.37,175.49Zm-6.38.09c0,1.76,1,3.08,2.44,3.08s2.44-1.31,2.44-3.12c0-1.36-.68-3.08-2.4-3.08S742,174.05,742,175.58Z"/><path d="M757.12,171.55c0,.58-.06,1.22-.06,2.2v4.67c0,1.84-.37,3-1.15,3.66a4.26,4.26,0,0,1-2.92,1,5.2,5.2,0,0,1-2.67-.66l.36-1.11a4.55,4.55,0,0,0,2.36.63c1.49,0,2.59-.78,2.59-2.8v-.9h0a2.87,2.87,0,0,1-2.56,1.34c-2,0-3.42-1.69-3.42-3.91,0-2.72,1.78-4.27,3.62-4.27a2.65,2.65,0,0,1,2.5,1.4h0l.06-1.21Zm-1.51,3.16a2,2,0,0,0-.08-.66,2.11,2.11,0,0,0-2-1.54c-1.4,0-2.39,1.18-2.39,3,0,1.58.79,2.89,2.37,2.89a2.14,2.14,0,0,0,2-1.49,2.63,2.63,0,0,0,.11-.78Z"/><path d="M766.39,171.55c0,.58-.06,1.22-.06,2.2v4.67c0,1.84-.37,3-1.15,3.66a4.26,4.26,0,0,1-2.92,1,5.2,5.2,0,0,1-2.67-.66l.36-1.11a4.55,4.55,0,0,0,2.36.63c1.49,0,2.59-.78,2.59-2.8v-.9h0a2.87,2.87,0,0,1-2.56,1.34c-2,0-3.42-1.69-3.42-3.91,0-2.72,1.78-4.27,3.62-4.27a2.65,2.65,0,0,1,2.5,1.4h0l.06-1.21Zm-1.51,3.16a2,2,0,0,0-.08-.66,2.11,2.11,0,0,0-2-1.54c-1.4,0-2.39,1.18-2.39,3,0,1.58.79,2.89,2.37,2.89a2.14,2.14,0,0,0,2-1.49,2.63,2.63,0,0,0,.11-.78Z"/><path d="M770.27,169.29a.86.86,0,0,1-.93.89.87.87,0,0,1-.88-.89.88.88,0,0,1,.91-.91A.86.86,0,0,1,770.27,169.29Zm-1.63,10.29v-8h1.46v8Z"/><path d="M772.52,173.72c0-.83,0-1.51-.06-2.17h1.29l.08,1.32h0a3,3,0,0,1,2.65-1.51c1.11,0,2.84.67,2.84,3.42v4.8H777.9V175c0-1.3-.48-2.38-1.86-2.38a2.08,2.08,0,0,0-2,1.5,2.27,2.27,0,0,0-.1.68v4.83h-1.46Z"/><path d="M788.65,171.55c0,.58-.07,1.22-.07,2.2v4.67c0,1.84-.37,3-1.15,3.66a4.24,4.24,0,0,1-2.92,1,5.2,5.2,0,0,1-2.67-.66l.37-1.11a4.54,4.54,0,0,0,2.35.63c1.5,0,2.59-.78,2.59-2.8v-.9h0a2.86,2.86,0,0,1-2.56,1.34c-2,0-3.41-1.69-3.41-3.91,0-2.72,1.77-4.27,3.61-4.27a2.67,2.67,0,0,1,2.51,1.4h0l.07-1.21Zm-1.51,3.16a2,2,0,0,0-.09-.66,2.1,2.1,0,0,0-2-1.54c-1.39,0-2.39,1.18-2.39,3,0,1.58.8,2.89,2.38,2.89a2.14,2.14,0,0,0,2-1.49,2.64,2.64,0,0,0,.12-.78Z"/><path d="M895,134.53h-4.35v4h4.85v1.21h-6.29V128.59h6v1.22h-4.6v3.53H895Z"/><path d="M897.34,128h1.46v11.78h-1.46Z"/><path d="M905.7,139.78l-.12-1h-.05a3,3,0,0,1-2.45,1.19,2.29,2.29,0,0,1-2.46-2.31c0-1.94,1.73-3,4.83-3v-.17a1.66,1.66,0,0,0-1.83-1.86,4.08,4.08,0,0,0-2.09.6l-.33-1a5,5,0,0,1,2.64-.72c2.46,0,3,1.68,3,3.29v3a11.27,11.27,0,0,0,.14,1.93Zm-.22-4.1c-1.59,0-3.4.25-3.4,1.81a1.29,1.29,0,0,0,1.38,1.39,2,2,0,0,0,1.94-1.34,1.55,1.55,0,0,0,.08-.47Z"/><path d="M909.05,138.28a3.73,3.73,0,0,0,1.92.58c1.06,0,1.56-.53,1.56-1.19s-.42-1.08-1.49-1.48c-1.45-.51-2.13-1.31-2.13-2.27a2.48,2.48,0,0,1,2.77-2.36,4.07,4.07,0,0,1,2,.5l-.37,1.06a3.08,3.08,0,0,0-1.64-.46c-.86,0-1.34.5-1.34,1.09s.48,1,1.52,1.37c1.4.53,2.11,1.22,2.11,2.42,0,1.41-1.09,2.4-3,2.4a4.6,4.6,0,0,1-2.26-.54Z"/><path d="M917.57,129.44v2.31h2.09v1.11h-2.09v4.33c0,1,.28,1.56,1.1,1.56a3.17,3.17,0,0,0,.84-.1l.07,1.09a3.49,3.49,0,0,1-1.3.2,2,2,0,0,1-1.57-.61,3,3,0,0,1-.57-2.09v-4.38H914.9v-1.11h1.24v-1.93Z"/><path d="M922.93,129.49a.91.91,0,0,1-1.81,0,.89.89,0,0,1,.91-.91A.87.87,0,0,1,922.93,129.49Zm-1.63,10.29v-8h1.46v8Z"/><path d="M930.9,139.48a5.33,5.33,0,0,1-2.3.46,3.82,3.82,0,0,1-4-4.1,4.08,4.08,0,0,1,4.32-4.26,4.85,4.85,0,0,1,2,.42l-.33,1.12a3.39,3.39,0,0,0-1.69-.38,2.78,2.78,0,0,0-2.84,3,2.75,2.75,0,0,0,2.78,3,4.1,4.1,0,0,0,1.8-.4Z"/><path d="M932.41,138.28a3.77,3.77,0,0,0,1.93.58c1.06,0,1.55-.53,1.55-1.19s-.41-1.08-1.49-1.48c-1.44-.51-2.12-1.31-2.12-2.27a2.48,2.48,0,0,1,2.77-2.36,4,4,0,0,1,2,.5l-.36,1.06a3.15,3.15,0,0,0-1.64-.46c-.87,0-1.35.5-1.35,1.09s.48,1,1.53,1.37c1.39.53,2.11,1.22,2.11,2.42,0,1.41-1.1,2.4-3,2.4a4.56,4.56,0,0,1-2.25-.54Z"/><path d="M940,136a2.57,2.57,0,0,0,2.76,2.78,5.34,5.34,0,0,0,2.22-.41l.25,1a6.61,6.61,0,0,1-2.67.49,3.72,3.72,0,0,1-3.95-4.05c0-2.42,1.42-4.33,3.76-4.33,2.62,0,3.32,2.31,3.32,3.79a4.88,4.88,0,0,1,0,.68Zm4.28-1.05a2.07,2.07,0,0,0-2-2.37A2.41,2.41,0,0,0,940,135Z"/><path d="M951.93,139.78l-.11-1h-.05a3,3,0,0,1-2.46,1.19,2.29,2.29,0,0,1-2.46-2.31c0-1.94,1.73-3,4.83-3v-.17a1.66,1.66,0,0,0-1.82-1.86,4,4,0,0,0-2.09.6l-.34-1a5,5,0,0,1,2.64-.72c2.46,0,3.06,1.68,3.06,3.29v3a11.34,11.34,0,0,0,.13,1.93Zm-.21-4.1c-1.6,0-3.41.25-3.41,1.81a1.3,1.3,0,0,0,1.38,1.39,2,2,0,0,0,1.94-1.34,1.56,1.56,0,0,0,.09-.47Z"/><path d="M955.48,134.25c0-.94,0-1.76-.07-2.5h1.28l0,1.57h.07a2.4,2.4,0,0,1,2.22-1.76,1.7,1.7,0,0,1,.41.05V133a2.31,2.31,0,0,0-.49-.05,2.05,2.05,0,0,0-2,1.88,3.47,3.47,0,0,0-.07.68v4.28h-1.44Z"/><path d="M966.46,139.48a5.39,5.39,0,0,1-2.31.46,3.82,3.82,0,0,1-4-4.1,4.08,4.08,0,0,1,4.32-4.26,4.85,4.85,0,0,1,2,.42l-.33,1.12a3.39,3.39,0,0,0-1.69-.38,2.78,2.78,0,0,0-2.84,3,2.75,2.75,0,0,0,2.79,3,4,4,0,0,0,1.79-.4Z"/><path d="M968.16,128h1.46v5h0a2.71,2.71,0,0,1,1-1,3,3,0,0,1,1.5-.42c1.07,0,2.8.67,2.8,3.44v4.78h-1.46v-4.62c0-1.29-.48-2.38-1.86-2.38a2.11,2.11,0,0,0-2,1.46,1.76,1.76,0,0,0-.1.69v4.85h-1.46Z"/><path class="cls-5" d="M348.84,67.77a1.11,1.11,0,0,0-1.59,0,1.12,1.12,0,0,0,0,1.57l8.05,8H328.74a1.12,1.12,0,0,0,0,2.24H355.3l-8.05,8a1.14,1.14,0,0,0,0,1.59,1.11,1.11,0,0,0,1.59,0l10-9.95a1.1,1.1,0,0,0,0-1.57Z"/><path class="cls-5" d="M317.92,89.24a1.09,1.09,0,0,0,1.58,0,1.12,1.12,0,0,0,0-1.57l-8.05-8H338a1.1,1.1,0,0,0,1.11-1.11A1.12,1.12,0,0,0,338,77.38H311.45l8.05-8a1.13,1.13,0,0,0,0-1.58,1.09,1.09,0,0,0-1.58,0l-10,10a1.1,1.1,0,0,0,0,1.57Z"/><path class="cls-5" d="M519.59,67.77a1.11,1.11,0,0,0-1.59,0,1.12,1.12,0,0,0,0,1.57l8,8H499.49a1.12,1.12,0,0,0,0,2.24h26.56l-8,8a1.14,1.14,0,0,0,0,1.59,1.11,1.11,0,0,0,1.59,0l9.95-9.95a1.1,1.1,0,0,0,0-1.57Z"/><path class="cls-5" d="M488.67,89.24a1.09,1.09,0,0,0,1.58,0,1.12,1.12,0,0,0,0-1.57l-8.05-8h26.56a1.1,1.1,0,0,0,1.11-1.11,1.12,1.12,0,0,0-1.11-1.13H482.2l8.05-8a1.13,1.13,0,0,0,0-1.58,1.09,1.09,0,0,0-1.58,0l-10,10a1.1,1.1,0,0,0,0,1.57Z"/><path class="cls-5" d="M690.34,67.77a1.11,1.11,0,0,0-1.59,0,1.12,1.12,0,0,0,0,1.57l8,8H670.24a1.12,1.12,0,0,0,0,2.24H696.8l-8,8a1.14,1.14,0,0,0,0,1.59,1.11,1.11,0,0,0,1.59,0l9.95-9.95a1.1,1.1,0,0,0,0-1.57Z"/><path class="cls-5" d="M659.42,89.24a1.09,1.09,0,0,0,1.58,0,1.12,1.12,0,0,0,0-1.57l-8-8h26.56a1.1,1.1,0,0,0,1.11-1.11,1.12,1.12,0,0,0-1.11-1.13H653l8-8a1.13,1.13,0,0,0,0-1.58,1.09,1.09,0,0,0-1.58,0l-10,10a1.1,1.1,0,0,0,0,1.57Z"/><path class="cls-5" d="M861.09,67.77a1.11,1.11,0,0,0-1.59,0,1.12,1.12,0,0,0,0,1.57l8,8H841a1.12,1.12,0,0,0,0,2.24h26.56l-8,8a1.14,1.14,0,0,0,0,1.59,1.11,1.11,0,0,0,1.59,0L871,79.29a1.1,1.1,0,0,0,0-1.57Z"/><path class="cls-5" d="M830.17,89.24a1.09,1.09,0,0,0,1.58,0,1.12,1.12,0,0,0,0-1.57l-8-8h26.56a1.1,1.1,0,0,0,1.11-1.11,1.12,1.12,0,0,0-1.11-1.13H823.7l8-8a1.13,1.13,0,0,0,0-1.58,1.09,1.09,0,0,0-1.58,0l-10,10a1.1,1.1,0,0,0,0,1.57Z"/><path class="cls-5" d="M163.84,69.77a1.11,1.11,0,0,0-1.59,0,1.12,1.12,0,0,0,0,1.57l8.05,8H143.74a1.12,1.12,0,0,0,0,2.24H170.3l-8.05,8a1.14,1.14,0,0,0,0,1.59,1.11,1.11,0,0,0,1.59,0l9.95-9.95a1.1,1.1,0,0,0,0-1.57Z"/><path class="cls-5" d="M163.84,126.77a1.11,1.11,0,0,0-1.59,0,1.12,1.12,0,0,0,0,1.57l8.05,8H143.74a1.12,1.12,0,0,0,0,2.24H170.3l-8.05,8a1.14,1.14,0,0,0,0,1.59,1.11,1.11,0,0,0,1.59,0l9.95-10a1.1,1.1,0,0,0,0-1.57Z"/><path d="M63.2,75.15A15,15,0,0,1,66,74.92a4.55,4.55,0,0,1,3.23.91A2.76,2.76,0,0,1,70.08,78,2.94,2.94,0,0,1,68,80.81v0a2.78,2.78,0,0,1,1.65,2.25,17.58,17.58,0,0,0,.86,3.07H69a13.85,13.85,0,0,1-.75-2.67c-.33-1.54-.93-2.12-2.24-2.17H64.64v4.84H63.2Zm1.44,5.09h1.48c1.54,0,2.52-.84,2.52-2.12,0-1.44-1-2.08-2.57-2.09a5.79,5.79,0,0,0-1.43.13Z"/><path d="M77.91,80.94H73.56v4h4.85v1.21H72.12V75h6v1.21h-4.6v3.53h4.35Z"/><path d="M80.08,84.42a5.07,5.07,0,0,0,2.59.73c1.47,0,2.34-.78,2.34-1.9S84.41,81.6,82.9,81c-1.83-.64-3-1.59-3-3.17,0-1.74,1.45-3,3.62-3a5.07,5.07,0,0,1,2.47.54l-.39,1.18A4.5,4.5,0,0,0,83.51,76c-1.52,0-2.11.91-2.11,1.68,0,1,.68,1.56,2.23,2.15,1.89.73,2.85,1.65,2.85,3.29s-1.28,3.22-3.91,3.22a5.79,5.79,0,0,1-2.86-.72Z"/><path d="M90.58,76.23H87.17V75h8.28v1.23H92v10H90.58Z"/><path d="M105.88,85.88a5.3,5.3,0,0,1-2.3.47,3.81,3.81,0,0,1-4-4.1A4.08,4.08,0,0,1,103.89,78a4.89,4.89,0,0,1,2,.41l-.34,1.13a3.33,3.33,0,0,0-1.69-.38,3,3,0,0,0,0,6,4.15,4.15,0,0,0,1.79-.4Z"/><path d="M107.59,74.4h1.46V86.18h-1.46Z"/><path d="M113.13,75.9a.91.91,0,0,1-1.81,0,.89.89,0,0,1,.91-.92A.87.87,0,0,1,113.13,75.9ZM111.5,86.18v-8H113v8Z"/><path d="M116.2,82.43A2.57,2.57,0,0,0,119,85.22a5.3,5.3,0,0,0,2.22-.41l.25,1a6.5,6.5,0,0,1-2.67.5,3.73,3.73,0,0,1-4-4c0-2.42,1.43-4.33,3.77-4.33,2.62,0,3.32,2.31,3.32,3.78,0,.3,0,.53,0,.68Zm4.28-1a2.09,2.09,0,0,0-2-2.38,2.43,2.43,0,0,0-2.24,2.38Z"/><path d="M123.69,80.33c0-.83,0-1.51-.07-2.18h1.3l.08,1.33h0A3,3,0,0,1,127.69,78c1.11,0,2.84.66,2.84,3.42v4.79h-1.46V81.55c0-1.29-.48-2.37-1.86-2.37a2.14,2.14,0,0,0-2.06,2.17v4.83h-1.46Z"/><path d="M134.59,75.85v2.3h2.09v1.11h-2.09v4.33c0,1,.28,1.56,1.09,1.56a3.26,3.26,0,0,0,.85-.1l.06,1.1a3.47,3.47,0,0,1-1.29.2,2,2,0,0,1-1.58-.62,3,3,0,0,1-.56-2.09V79.26h-1.25V78.15h1.25V76.23Z"/><path d="M32.37,132H29v-1.23h8.28V132H33.83v10H32.37Z"/><path d="M37.69,136.41c0-.95,0-1.76-.06-2.51H38.9l.05,1.58H39a2.4,2.4,0,0,1,2.22-1.76,1.79,1.79,0,0,1,.42.05v1.38a1.88,1.88,0,0,0-.5-.05,2,2,0,0,0-2,1.87,4.53,4.53,0,0,0-.06.68v4.28H37.69Z"/><path d="M47.48,141.93l-.12-1h0a3,3,0,0,1-2.45,1.2,2.29,2.29,0,0,1-2.46-2.31c0-1.94,1.73-3,4.83-3v-.16a1.65,1.65,0,0,0-1.83-1.86,4,4,0,0,0-2.09.6l-.33-1a5,5,0,0,1,2.64-.71c2.46,0,3.05,1.68,3.05,3.29v3a11.07,11.07,0,0,0,.14,1.92Zm-.22-4.1c-1.59,0-3.4.25-3.4,1.81a1.3,1.3,0,0,0,1.38,1.4,2,2,0,0,0,1.94-1.35,1.48,1.48,0,0,0,.08-.46Z"/><path d="M51,136.08c0-.83,0-1.51-.06-2.18h1.29l.09,1.33h0A3,3,0,0,1,55,133.72c1.12,0,2.84.66,2.84,3.42v4.79H56.4V137.3c0-1.29-.48-2.37-1.86-2.37a2.08,2.08,0,0,0-2,1.49,2.37,2.37,0,0,0-.1.68v4.83H51Z"/><path d="M60,140.44A3.82,3.82,0,0,0,62,141c1.07,0,1.56-.53,1.56-1.19s-.41-1.08-1.49-1.48c-1.44-.52-2.12-1.31-2.12-2.27a2.47,2.47,0,0,1,2.77-2.36,4,4,0,0,1,2,.5l-.36,1.06a3.15,3.15,0,0,0-1.65-.47c-.86,0-1.34.5-1.34,1.1s.48,1,1.53,1.36c1.39.53,2.1,1.23,2.1,2.42,0,1.41-1.09,2.41-3,2.41a4.63,4.63,0,0,1-2.26-.55Z"/><path d="M66.8,136.52c0-1,0-1.85-.07-2.62H68l.07,1.38h0A3.15,3.15,0,0,1,71,133.72c1.94,0,3.4,1.64,3.4,4.08,0,2.89-1.75,4.32-3.65,4.32a2.81,2.81,0,0,1-2.47-1.27h0v4.37H66.8Zm1.44,2.14a2.74,2.74,0,0,0,.07.6A2.24,2.24,0,0,0,70.49,141c1.55,0,2.44-1.26,2.44-3.1,0-1.61-.84-3-2.38-3a2.32,2.32,0,0,0-2.21,1.81,2.35,2.35,0,0,0-.1.6Z"/><path d="M83.5,137.85a3.93,3.93,0,0,1-4,4.27A3.83,3.83,0,0,1,75.65,138a3.92,3.92,0,0,1,4-4.26A3.81,3.81,0,0,1,83.5,137.85Zm-6.37.08c0,1.76,1,3.09,2.44,3.09S82,139.71,82,137.9c0-1.36-.68-3.09-2.4-3.09S77.13,136.41,77.13,137.93Z"/><path d="M85.33,136.41c0-.95,0-1.76-.06-2.51h1.28l0,1.58h.06a2.42,2.42,0,0,1,2.22-1.76,1.73,1.73,0,0,1,.42.05v1.38a1.88,1.88,0,0,0-.5-.05,2,2,0,0,0-2,1.87,4.53,4.53,0,0,0-.06.68v4.28H85.33Z"/><path d="M92.91,131.6v2.3H95V135H92.91v4.33c0,1,.29,1.56,1.1,1.56a3.17,3.17,0,0,0,.84-.1l.07,1.1a3.47,3.47,0,0,1-1.29.2,2,2,0,0,1-1.58-.62,3,3,0,0,1-.56-2.09V135H90.24V133.9h1.25V132Z"/><path d="M105.88,141.63a5.3,5.3,0,0,1-2.3.47,3.81,3.81,0,0,1-4-4.1,4.08,4.08,0,0,1,4.31-4.26,4.89,4.89,0,0,1,2,.41l-.34,1.13a3.33,3.33,0,0,0-1.69-.38,3,3,0,0,0,0,6,4.15,4.15,0,0,0,1.79-.4Z"/><path d="M107.59,130.15h1.46v11.78h-1.46Z"/><path d="M113.13,131.65a.91.91,0,0,1-1.81,0,.89.89,0,0,1,.91-.92A.87.87,0,0,1,113.13,131.65Zm-1.63,10.28v-8H113v8Z"/><path d="M116.2,138.18A2.57,2.57,0,0,0,119,141a5.27,5.27,0,0,0,2.22-.41l.25,1a6.5,6.5,0,0,1-2.67.5,3.73,3.73,0,0,1-4-4c0-2.42,1.43-4.33,3.77-4.33,2.62,0,3.32,2.31,3.32,3.78,0,.3,0,.53,0,.68Zm4.28-1a2.09,2.09,0,0,0-2-2.37,2.43,2.43,0,0,0-2.24,2.37Z"/><path d="M123.69,136.08c0-.83,0-1.51-.07-2.18h1.3l.08,1.33h0a3,3,0,0,1,2.66-1.51c1.11,0,2.84.66,2.84,3.42v4.79h-1.46V137.3c0-1.29-.48-2.37-1.86-2.37a2.14,2.14,0,0,0-2.06,2.17v4.83h-1.46Z"/><path d="M134.59,131.6v2.3h2.09V135h-2.09v4.33c0,1,.28,1.56,1.09,1.56a3.26,3.26,0,0,0,.85-.1l.06,1.1a3.47,3.47,0,0,1-1.29.2,2,2,0,0,1-1.58-.62,3,3,0,0,1-.56-2.09V135h-1.25V133.9h1.25V132Z"/><rect class="cls-1" x="185.92" y="254.5" width="122" height="100.5" rx="10"/><path d="M193.41,269.63a17.47,17.47,0,0,1,2.77-.21,4.57,4.57,0,0,1,3.13.93,3,3,0,0,1,1,2.34,3.31,3.31,0,0,1-.86,2.39,5.67,5.67,0,0,1-4.58,1.12v4.48h-1.44Zm1.44,5.4a5,5,0,0,0,1.19.11c1.75,0,2.81-.84,2.81-2.39s-1-2.19-2.64-2.19a5.79,5.79,0,0,0-1.36.12Z"/><path d="M208,275.44h-4.35v4h4.85v1.21h-6.29V269.5h6v1.21h-4.6v3.54H208Z"/><path d="M219.81,275.77c-.08-1.56-.18-3.43-.16-4.82h-.05c-.39,1.31-.85,2.7-1.41,4.24l-2,5.43h-1.09l-1.81-5.33c-.53-1.57-1-3-1.3-4.34h0c0,1.39-.12,3.26-.22,4.94l-.29,4.79h-1.38l.78-11.18h1.84l1.91,5.41c.46,1.38.84,2.61,1.13,3.77h.05c.28-1.13.68-2.36,1.17-3.77l2-5.41h1.84l.69,11.18h-1.41Z"/><path d="M232.91,280.39a5.39,5.39,0,0,1-2.31.46,3.82,3.82,0,0,1-4-4.1,4.08,4.08,0,0,1,4.32-4.26,4.87,4.87,0,0,1,2,.41l-.33,1.13a3.36,3.36,0,0,0-1.69-.38,3,3,0,0,0,0,6,4.15,4.15,0,0,0,1.79-.4Z"/><path d="M235.33,276.93a2.57,2.57,0,0,0,2.75,2.79,5.35,5.35,0,0,0,2.23-.41l.24,1a6.34,6.34,0,0,1-2.67.5,3.73,3.73,0,0,1-3.95-4.05c0-2.42,1.43-4.33,3.77-4.33,2.62,0,3.32,2.31,3.32,3.78a4.75,4.75,0,0,1-.05.68Zm4.28-1a2.07,2.07,0,0,0-2-2.37,2.41,2.41,0,0,0-2.23,2.37Z"/><path d="M242.82,275.16c0-1,0-1.76-.06-2.51H244l.05,1.58h.07a2.41,2.41,0,0,1,2.22-1.76,1.73,1.73,0,0,1,.42,0v1.38a1.88,1.88,0,0,0-.5,0,2,2,0,0,0-2,1.87,4.65,4.65,0,0,0-.06.68v4.28h-1.45Z"/><path d="M250.4,270.35v2.3h2.09v1.12H250.4v4.33c0,1,.28,1.56,1.1,1.56a3.17,3.17,0,0,0,.84-.1l.07,1.09a3.47,3.47,0,0,1-1.29.2,2,2,0,0,1-1.58-.61,3,3,0,0,1-.56-2.09v-4.38h-1.25v-1.12H249v-1.92Z"/><path d="M255.76,270.4a.91.91,0,0,1-1.81,0,.88.88,0,0,1,.91-.91A.86.86,0,0,1,255.76,270.4Zm-1.63,10.28v-8h1.46v8Z"/><path d="M258.16,280.68v-6.91H257v-1.12h1.13v-.43a3.22,3.22,0,0,1,3.5-3.5,4,4,0,0,1,2,.53l-.41,1.11a3.15,3.15,0,0,0-1.69-.46c-1.55,0-2,1.08-2,2.36v.39h4.66v8h-1.45v-6.91h-3.21v6.91Z"/><path d="M272.41,280.39a5.39,5.39,0,0,1-2.31.46,3.82,3.82,0,0,1-4-4.1,4.08,4.08,0,0,1,4.32-4.26,4.87,4.87,0,0,1,2,.41l-.33,1.13a3.36,3.36,0,0,0-1.69-.38,3,3,0,0,0-.05,6,4.15,4.15,0,0,0,1.79-.4Z"/><path d="M278.56,280.68l-.11-1h-.05a3,3,0,0,1-2.46,1.2,2.29,2.29,0,0,1-2.46-2.31c0-1.94,1.73-3,4.83-3v-.16a1.65,1.65,0,0,0-1.82-1.86,3.94,3.94,0,0,0-2.09.6l-.34-1a5,5,0,0,1,2.64-.71c2.46,0,3.06,1.68,3.06,3.29v3a11.14,11.14,0,0,0,.13,1.92Zm-.21-4.09c-1.6,0-3.41.25-3.41,1.8a1.3,1.3,0,0,0,1.38,1.4,2,2,0,0,0,1.94-1.34,1.56,1.56,0,0,0,.09-.47Z"/><path d="M283.8,270.35v2.3h2.09v1.12H283.8v4.33c0,1,.28,1.56,1.1,1.56a3.17,3.17,0,0,0,.84-.1l.07,1.09a3.49,3.49,0,0,1-1.3.2,2,2,0,0,1-1.57-.61,3,3,0,0,1-.57-2.09v-4.38h-1.24v-1.12h1.24v-1.92Z"/><path d="M288.24,276.93a2.58,2.58,0,0,0,2.76,2.79,5.34,5.34,0,0,0,2.22-.41l.25,1a6.34,6.34,0,0,1-2.67.5,3.73,3.73,0,0,1-3.95-4.05c0-2.42,1.43-4.33,3.77-4.33,2.62,0,3.32,2.31,3.32,3.78,0,.3,0,.54-.05.68Zm4.28-1a2.07,2.07,0,0,0-2-2.37,2.42,2.42,0,0,0-2.24,2.37Z"/><path d="M295.54,279.19a3.82,3.82,0,0,0,1.92.58c1.07,0,1.56-.53,1.56-1.19s-.41-1.08-1.49-1.48c-1.44-.51-2.12-1.31-2.12-2.27a2.47,2.47,0,0,1,2.77-2.36,4,4,0,0,1,2,.5l-.36,1.06a3.15,3.15,0,0,0-1.64-.46c-.87,0-1.35.49-1.35,1.09s.48,1,1.53,1.36c1.39.53,2.1,1.23,2.1,2.43,0,1.41-1.09,2.4-3,2.4a4.45,4.45,0,0,1-2.25-.55Z"/><path d="M214.78,289.4h1.44v5.39h.05c.3-.43.6-.83.88-1.19l3.42-4.2h1.79l-4,4.75,4.36,6.43H221l-3.68-5.49-1.07,1.23v4.26h-1.44Z"/><path d="M224.53,296.84a2.58,2.58,0,0,0,2.76,2.78,5.34,5.34,0,0,0,2.22-.41l.25,1a6.54,6.54,0,0,1-2.67.5,3.73,3.73,0,0,1-4-4.05c0-2.42,1.43-4.33,3.76-4.33,2.63,0,3.32,2.31,3.32,3.78a5.05,5.05,0,0,1-.05.69Zm4.28-1a2.07,2.07,0,0,0-2-2.37,2.41,2.41,0,0,0-2.24,2.37Z"/><path d="M232.56,292.55l1.76,4.75c.18.53.38,1.16.51,1.64h0c.15-.48.32-1.09.52-1.67l1.59-4.72h1.54l-2.19,5.73c-1,2.75-1.75,4.16-2.75,5a3.87,3.87,0,0,1-1.79.94l-.37-1.23a3.77,3.77,0,0,0,1.28-.71,4.42,4.42,0,0,0,1.23-1.63,1.17,1.17,0,0,0,.11-.34,1.21,1.21,0,0,0-.1-.39l-3-7.4Z"/><path d="M239.54,299.09a3.82,3.82,0,0,0,1.92.58c1.07,0,1.56-.53,1.56-1.19s-.41-1.08-1.49-1.48c-1.44-.51-2.12-1.31-2.12-2.27a2.47,2.47,0,0,1,2.77-2.36,4,4,0,0,1,2,.5l-.36,1.06a3.16,3.16,0,0,0-1.65-.46c-.86,0-1.34.49-1.34,1.09s.48,1,1.53,1.36c1.39.53,2.1,1.23,2.1,2.42,0,1.42-1.09,2.41-3,2.41a4.63,4.63,0,0,1-2.26-.55Z"/><path d="M248.06,290.25v2.3h2.09v1.12h-2.09V298c0,1,.29,1.56,1.1,1.56a3.32,3.32,0,0,0,.85-.1l.06,1.09a3.47,3.47,0,0,1-1.29.2,2.06,2.06,0,0,1-1.58-.61,3,3,0,0,1-.56-2.09v-4.38h-1.25v-1.12h1.25v-1.92Z"/><path d="M259,296.5a3.93,3.93,0,0,1-4,4.27,3.82,3.82,0,0,1-3.85-4.13,3.93,3.93,0,0,1,4-4.27A3.8,3.8,0,0,1,259,296.5Zm-6.37.09c0,1.75,1,3.08,2.44,3.08s2.44-1.31,2.44-3.12c0-1.36-.68-3.08-2.41-3.08S252.59,295.06,252.59,296.59Z"/><path d="M260.8,295.06c0-.95,0-1.76-.07-2.51H262l.05,1.58h.07a2.4,2.4,0,0,1,2.22-1.76,1.64,1.64,0,0,1,.41.05v1.38a2.31,2.31,0,0,0-.49-.05,2,2,0,0,0-2,1.87,4.45,4.45,0,0,0-.07.68v4.28H260.8Z"/><path d="M266.87,296.84a2.56,2.56,0,0,0,2.75,2.78,5.35,5.35,0,0,0,2.23-.41l.24,1a6.5,6.5,0,0,1-2.67.5,3.73,3.73,0,0,1-3.95-4.05c0-2.42,1.43-4.33,3.77-4.33,2.62,0,3.32,2.31,3.32,3.78a5.05,5.05,0,0,1-.05.69Zm4.28-1a2.07,2.07,0,0,0-2-2.37,2.41,2.41,0,0,0-2.24,2.37Z"/><path d="M274.16,299.09a3.9,3.9,0,0,0,1.93.58c1.06,0,1.56-.53,1.56-1.19s-.42-1.08-1.49-1.48c-1.45-.51-2.13-1.31-2.13-2.27a2.48,2.48,0,0,1,2.77-2.36,4,4,0,0,1,2,.5l-.37,1.06a3.08,3.08,0,0,0-1.64-.46c-.86,0-1.34.49-1.34,1.09s.48,1,1.52,1.36c1.4.53,2.11,1.23,2.11,2.42,0,1.42-1.1,2.41-3,2.41a4.6,4.6,0,0,1-2.26-.55Z"/><path d="M215.83,309.43a17.61,17.61,0,0,1,2.78-.21,4.57,4.57,0,0,1,3.13.93,3,3,0,0,1,1,2.34,3.31,3.31,0,0,1-.86,2.39,4.66,4.66,0,0,1-3.42,1.22,4.6,4.6,0,0,1-1.16-.1v4.48h-1.45Zm1.45,5.4a5,5,0,0,0,1.19.11c1.74,0,2.81-.84,2.81-2.39s-1.05-2.19-2.64-2.19a5.79,5.79,0,0,0-1.36.12Z"/><path d="M224.66,309.3h1.44v5.39h.05c.3-.43.6-.83.88-1.19l3.42-4.2h1.79l-4.05,4.75,4.36,6.43h-1.7L227.16,315l-1.06,1.23v4.26h-1.44Z"/><path d="M241.18,320.12a7.3,7.3,0,0,1-3,.53c-3.15,0-5.52-2-5.52-5.66a5.56,5.56,0,0,1,5.84-5.87,6,6,0,0,1,2.65.5l-.34,1.17a5.37,5.37,0,0,0-2.26-.46c-2.62,0-4.36,1.68-4.36,4.61,0,2.74,1.57,4.5,4.29,4.5a5.66,5.66,0,0,0,2.36-.47Z"/><path d="M242.78,318.73a5.2,5.2,0,0,0,2.59.73c1.48,0,2.34-.78,2.34-1.91s-.6-1.65-2.11-2.23c-1.82-.64-2.95-1.59-2.95-3.17,0-1.74,1.44-3,3.62-3a5,5,0,0,1,2.47.55l-.4,1.17a4.45,4.45,0,0,0-2.12-.53c-1.53,0-2.11.92-2.11,1.68,0,1,.68,1.56,2.22,2.16,1.89.73,2.86,1.64,2.86,3.28s-1.28,3.22-3.92,3.22a5.83,5.83,0,0,1-2.85-.71Z"/><path d="M255,320.48l.44-3.25H254v-1h1.51l.32-2.4h-1.43v-1H256l.43-3.17h1l-.41,3.17h1.72l.43-3.17h1l-.41,3.17h1.36v1h-1.51l-.3,2.4h1.43v1H259.1l-.43,3.25h-1l.44-3.25h-1.73l-.43,3.25Zm3.31-4.23.31-2.4h-1.73l-.31,2.4Z"/><path d="M265.57,311.06h0l-1.88,1-.28-1.11,2.35-1.26H267v10.78h-1.41Z"/><path d="M270.91,320.48v-.89l1.14-1.11c2.76-2.63,4-4,4-5.64a1.92,1.92,0,0,0-2.14-2.11,3.68,3.68,0,0,0-2.29.91l-.47-1a4.74,4.74,0,0,1,3.05-1.09,3,3,0,0,1,3.31,3.13c0,2-1.45,3.6-3.72,5.79l-.86.8v0h4.84v1.21Z"/><line class="cls-6" x1="247.75" y1="254.5" x2="247.75" y2="225.5"/><rect class="cls-1" x="527.17" y="254.5" width="122" height="100.5" rx="10"/><path d="M538.55,269.32V274H544v-4.68h1.46V280.5H544v-5.24h-5.41v5.24H537.1V269.32Z"/><path d="M555.13,276.42a3.92,3.92,0,0,1-4,4.26,3.81,3.81,0,0,1-3.85-4.13,3.92,3.92,0,0,1,4-4.26A3.79,3.79,0,0,1,555.13,276.42Zm-6.37.08c0,1.76,1,3.09,2.44,3.09s2.44-1.31,2.44-3.12c0-1.36-.68-3.09-2.4-3.09S548.76,275,548.76,276.5Z"/><path d="M558.73,270.17v2.3h2.09v1.11h-2.09v4.33c0,1,.28,1.56,1.09,1.56a3.2,3.2,0,0,0,.85-.1l.07,1.1a3.49,3.49,0,0,1-1.3.2,2,2,0,0,1-1.57-.62,2.94,2.94,0,0,1-.57-2.09v-4.38h-1.24v-1.11h1.24v-1.92Z"/><path d="M565.76,275.47v1.08h-4.1v-1.08Z"/><path d="M567.47,275c0-1,0-1.76-.07-2.51h1.28l.05,1.58h.07a2.4,2.4,0,0,1,2.22-1.76,1.7,1.7,0,0,1,.41,0v1.38a1.85,1.85,0,0,0-.49-.05,2,2,0,0,0-2,1.87,3.47,3.47,0,0,0-.07.68v4.28h-1.44Z"/><path d="M573.54,276.75a2.57,2.57,0,0,0,2.75,2.79,5.27,5.27,0,0,0,2.22-.41l.25,1a6.5,6.5,0,0,1-2.67.5,3.73,3.73,0,0,1-4-4.05c0-2.42,1.43-4.33,3.77-4.33,2.62,0,3.32,2.31,3.32,3.78a4.88,4.88,0,0,1-.05.68Zm4.28-1a2.09,2.09,0,0,0-2-2.38,2.44,2.44,0,0,0-2.24,2.38Z"/><path d="M581,268.72h1.46V280.5H581Z"/><path d="M592.21,276.42a3.92,3.92,0,0,1-4,4.26,3.81,3.81,0,0,1-3.85-4.13,3.91,3.91,0,0,1,4-4.26A3.8,3.8,0,0,1,592.21,276.42Zm-6.37.08c0,1.76,1,3.09,2.44,3.09s2.44-1.31,2.44-3.12c0-1.36-.68-3.09-2.41-3.09S585.84,275,585.84,276.5Z"/><path d="M598.5,280.5l-.12-1h0a3,3,0,0,1-2.45,1.19,2.29,2.29,0,0,1-2.46-2.3c0-1.94,1.73-3,4.83-3v-.16a1.65,1.65,0,0,0-1.83-1.86,4.08,4.08,0,0,0-2.09.59l-.33-1a5,5,0,0,1,2.64-.71c2.45,0,3.05,1.67,3.05,3.28v3a12.42,12.42,0,0,0,.13,1.92Zm-.22-4.1c-1.59,0-3.4.25-3.4,1.81a1.3,1.3,0,0,0,1.38,1.4,2,2,0,0,0,1.94-1.35,1.48,1.48,0,0,0,.08-.46Z"/><path d="M609,268.72v9.71c0,.71,0,1.52.07,2.07h-1.32l-.06-1.39h0a3,3,0,0,1-2.73,1.57c-1.94,0-3.44-1.64-3.44-4.08,0-2.67,1.65-4.31,3.6-4.31a2.7,2.7,0,0,1,2.43,1.23h0v-4.8Zm-1.46,7a2.54,2.54,0,0,0-.07-.61,2.15,2.15,0,0,0-2.11-1.7c-1.5,0-2.4,1.33-2.4,3.11,0,1.62.8,3,2.37,3a2.19,2.19,0,0,0,2.14-1.74,2.56,2.56,0,0,0,.07-.64Z"/><path d="M615.84,280.5l-.11-1h-.05a3,3,0,0,1-2.46,1.19,2.28,2.28,0,0,1-2.45-2.3c0-1.94,1.72-3,4.82-3v-.16a1.65,1.65,0,0,0-1.82-1.86,4,4,0,0,0-2.09.59l-.33-1a5,5,0,0,1,2.63-.71c2.46,0,3.06,1.67,3.06,3.28v3a11.29,11.29,0,0,0,.13,1.92Zm-.21-4.1c-1.6,0-3.4.25-3.4,1.81a1.29,1.29,0,0,0,1.37,1.4,2,2,0,0,0,1.94-1.35,1.5,1.5,0,0,0,.09-.46Z"/><path d="M619.32,280.5c0-.55.07-1.36.07-2.07v-9.71h1.44v5h0a3,3,0,0,1,2.73-1.48c2,0,3.41,1.66,3.39,4.1,0,2.87-1.81,4.29-3.6,4.29a2.85,2.85,0,0,1-2.69-1.51h-.05l-.07,1.33Zm1.51-3.22a2.83,2.83,0,0,0,.07.53,2.24,2.24,0,0,0,2.19,1.71c1.53,0,2.44-1.24,2.44-3.08,0-1.61-.83-3-2.39-3a2.32,2.32,0,0,0-2.22,1.79,2.53,2.53,0,0,0-.09.6Z"/><path d="M628.82,268.72h1.47V280.5h-1.47Z"/><path d="M633.55,276.75a2.57,2.57,0,0,0,2.76,2.79,5.34,5.34,0,0,0,2.22-.41l.25,1a6.58,6.58,0,0,1-2.67.5,3.73,3.73,0,0,1-4-4.05c0-2.42,1.42-4.33,3.76-4.33,2.63,0,3.32,2.31,3.32,3.78a4.88,4.88,0,0,1,0,.68Zm4.28-1a2.08,2.08,0,0,0-2-2.38,2.42,2.42,0,0,0-2.24,2.38Z"/><path d="M561.72,298.91a3.86,3.86,0,0,0,1.93.58c1.06,0,1.56-.53,1.56-1.2s-.42-1.07-1.5-1.47c-1.44-.52-2.12-1.31-2.12-2.27a2.48,2.48,0,0,1,2.77-2.36,3.93,3.93,0,0,1,2,.5l-.36,1.06a3.14,3.14,0,0,0-1.64-.47c-.87,0-1.35.5-1.35,1.1s.48,1,1.53,1.36c1.39.53,2.11,1.23,2.11,2.42,0,1.41-1.1,2.41-3,2.41a4.56,4.56,0,0,1-2.25-.55Z"/><path d="M569.3,296.65a2.57,2.57,0,0,0,2.76,2.79,5.16,5.16,0,0,0,2.22-.42l.25,1.05a6.58,6.58,0,0,1-2.67.5,3.73,3.73,0,0,1-4-4.05c0-2.42,1.42-4.33,3.76-4.33,2.63,0,3.32,2.3,3.32,3.78a4.88,4.88,0,0,1,0,.68Zm4.28-1a2.08,2.08,0,0,0-2-2.38,2.41,2.41,0,0,0-2.24,2.38Z"/><path d="M582.52,300.1a5.36,5.36,0,0,1-2.31.47,3.81,3.81,0,0,1-4-4.1,4.08,4.08,0,0,1,4.31-4.27,4.85,4.85,0,0,1,2,.42l-.33,1.13a3.36,3.36,0,0,0-1.69-.38,3,3,0,0,0,0,6,4.15,4.15,0,0,0,1.79-.4Z"/><path d="M591,298.21c0,.83,0,1.56.06,2.19h-1.29l-.09-1.31h0a3,3,0,0,1-2.65,1.49c-1.27,0-2.78-.69-2.78-3.51v-4.7h1.47v4.45c0,1.52.46,2.55,1.79,2.55a2.1,2.1,0,0,0,1.92-1.32,2.27,2.27,0,0,0,.13-.75v-4.93H591Z"/><path d="M593.36,294.88c0-.95,0-1.76-.06-2.51h1.27l0,1.58h.07a2.4,2.4,0,0,1,2.22-1.76,1.34,1.34,0,0,1,.42.05v1.38a1.88,1.88,0,0,0-.5-.05,2,2,0,0,0-2,1.87,4.53,4.53,0,0,0-.06.68v4.28h-1.45Z"/><path d="M600.48,290.11a.91.91,0,0,1-1.81,0,.89.89,0,0,1,.91-.91A.87.87,0,0,1,600.48,290.11Zm-1.63,10.29v-8h1.46v8Z"/><path d="M604.49,290.06v2.31h2.09v1.11h-2.09v4.33c0,1,.28,1.56,1.1,1.56a3.17,3.17,0,0,0,.84-.1l.07,1.1a3.71,3.71,0,0,1-1.3.2,2,2,0,0,1-1.57-.62,2.94,2.94,0,0,1-.57-2.09v-4.38h-1.24v-1.11h1.24v-1.92Z"/><path d="M608.9,292.37l1.76,4.75c.18.53.38,1.16.51,1.64h0c.15-.48.31-1.1.51-1.68l1.59-4.71h1.55l-2.19,5.73c-1,2.75-1.76,4.16-2.76,5a4,4,0,0,1-1.79.95l-.36-1.23a4,4,0,0,0,1.27-.71,4.42,4.42,0,0,0,1.23-1.63,1,1,0,0,0,.12-.35,1.51,1.51,0,0,0-.1-.38l-3-7.4Z"/><path d="M547.94,320a5.3,5.3,0,0,1-2.3.47,3.82,3.82,0,0,1-4-4.1A4.08,4.08,0,0,1,546,312.1a4.86,4.86,0,0,1,2,.42l-.33,1.13a3.41,3.41,0,0,0-1.7-.38,3,3,0,0,0-.05,6,4.24,4.24,0,0,0,1.8-.4Z"/><path d="M556.82,316.22a3.92,3.92,0,0,1-4,4.26,3.82,3.82,0,0,1-3.85-4.13,3.92,3.92,0,0,1,4-4.26A3.8,3.8,0,0,1,556.82,316.22Zm-6.37.08c0,1.76,1,3.09,2.43,3.09s2.44-1.31,2.44-3.12c0-1.36-.68-3.09-2.4-3.09S550.45,314.78,550.45,316.3Z"/><path d="M558.65,314.44c0-.83,0-1.51-.06-2.17h1.29l.09,1.33h0a2.94,2.94,0,0,1,2.65-1.51c1.11,0,2.84.66,2.84,3.42v4.79H564v-4.63c0-1.29-.48-2.37-1.86-2.37a2.08,2.08,0,0,0-2,1.49,2.32,2.32,0,0,0-.1.68v4.83h-1.46Z"/><path d="M568,320.3v-6.92h-1.13v-1.11H568v-.43a3.22,3.22,0,0,1,3.5-3.5,4,4,0,0,1,2,.53l-.42,1.11a3,3,0,0,0-1.69-.46c-1.54,0-2,1.07-2,2.35v.4h4.66v8h-1.44v-6.92h-3.22v6.92Z"/><path d="M583.45,312.27c0,.58-.07,1.23-.07,2.21v4.66c0,1.84-.36,3-1.14,3.67a4.26,4.26,0,0,1-2.92,1,5.18,5.18,0,0,1-2.67-.66L577,322a4.45,4.45,0,0,0,2.36.63c1.49,0,2.59-.78,2.59-2.8v-.9h0a2.85,2.85,0,0,1-2.55,1.35c-2,0-3.42-1.69-3.42-3.92,0-2.72,1.78-4.26,3.62-4.26a2.67,2.67,0,0,1,2.5,1.39h0l.06-1.21Zm-1.51,3.17a2.25,2.25,0,0,0-.08-.66,2.11,2.11,0,0,0-2-1.55c-1.4,0-2.39,1.18-2.39,3,0,1.58.79,2.89,2.37,2.89a2.13,2.13,0,0,0,2-1.5,2.35,2.35,0,0,0,.12-.78Z"/><path d="M592.52,318.11c0,.83,0,1.56.07,2.19h-1.3l-.08-1.31h0a3,3,0,0,1-2.66,1.49c-1.26,0-2.77-.69-2.77-3.51v-4.7h1.46v4.45c0,1.52.47,2.55,1.79,2.55a2.12,2.12,0,0,0,1.93-1.33,2.17,2.17,0,0,0,.13-.74v-4.93h1.46Z"/><path d="M594.94,314.78c0-.95,0-1.76-.07-2.51h1.28l.05,1.58h.06a2.42,2.42,0,0,1,2.23-1.76,1.32,1.32,0,0,1,.41.05v1.37a2.38,2.38,0,0,0-.49-.05,2.06,2.06,0,0,0-2,1.88,3.47,3.47,0,0,0-.07.68v4.28h-1.44Z"/><path d="M604.72,320.3l-.11-1h-.05a3,3,0,0,1-2.46,1.19,2.28,2.28,0,0,1-2.45-2.3c0-1.94,1.72-3,4.82-3V315a1.65,1.65,0,0,0-1.82-1.86,4,4,0,0,0-2.09.59l-.33-1a5,5,0,0,1,2.64-.71c2.45,0,3,1.67,3,3.28v3a11.29,11.29,0,0,0,.13,1.92Zm-.21-4.1c-1.59,0-3.4.25-3.4,1.81a1.29,1.29,0,0,0,1.38,1.39,2,2,0,0,0,1.94-1.34,1.85,1.85,0,0,0,.08-.46Z"/><path d="M610,310v2.31h2.09v1.11H610v4.33c0,1,.28,1.56,1.1,1.56a3.17,3.17,0,0,0,.84-.1l.07,1.1a3.69,3.69,0,0,1-1.29.2,2,2,0,0,1-1.58-.62,3,3,0,0,1-.56-2.09v-4.38h-1.25v-1.11h1.25v-1.92Z"/><path d="M615.32,310a.86.86,0,0,1-.93.9.87.87,0,0,1-.88-.9.89.89,0,0,1,.91-.91A.87.87,0,0,1,615.32,310Zm-1.63,10.29v-8h1.46v8Z"/><path d="M624.84,316.22a3.92,3.92,0,0,1-4,4.26,3.82,3.82,0,0,1-3.85-4.13,3.92,3.92,0,0,1,4-4.26A3.8,3.8,0,0,1,624.84,316.22Zm-6.37.08c0,1.76,1,3.09,2.44,3.09s2.44-1.31,2.44-3.12c0-1.36-.68-3.09-2.41-3.09S618.47,314.78,618.47,316.3Z"/><path d="M626.68,314.44c0-.83,0-1.51-.07-2.17h1.3l.08,1.33h0a3,3,0,0,1,2.66-1.51c1.11,0,2.83.66,2.83,3.42v4.79h-1.46v-4.63c0-1.29-.48-2.37-1.85-2.37a2.07,2.07,0,0,0-2,1.49,2,2,0,0,0-.1.68v4.83h-1.46Z"/><rect class="cls-1" x="699.46" y="254.5" width="122" height="100.5" rx="10"/><path d="M717,277.17l-1.16,3.51h-1.5l3.8-11.18h1.75l3.81,11.18h-1.54l-1.2-3.51Zm3.67-1.13-1.1-3.22c-.25-.73-.41-1.39-.58-2h0c-.17.66-.35,1.34-.57,2L717.31,276Z"/><path d="M731.82,278.49c0,.83,0,1.56.07,2.19h-1.3l-.08-1.31h0a3,3,0,0,1-2.66,1.5c-1.26,0-2.77-.7-2.77-3.52v-4.7h1.46v4.45c0,1.53.47,2.56,1.79,2.56a2.12,2.12,0,0,0,1.93-1.33,2.22,2.22,0,0,0,.13-.75v-4.93h1.46Z"/><path d="M741.17,268.9v9.71c0,.71,0,1.53.07,2.07h-1.31l-.07-1.39h0a3,3,0,0,1-2.74,1.58c-1.94,0-3.43-1.64-3.43-4.08,0-2.68,1.64-4.32,3.6-4.32a2.67,2.67,0,0,1,2.42,1.23h0v-4.8Zm-1.46,7a2.53,2.53,0,0,0-.06-.61,2.15,2.15,0,0,0-2.11-1.69c-1.51,0-2.41,1.32-2.41,3.1,0,1.63.8,3,2.38,3a2.2,2.2,0,0,0,2.14-1.74,2.54,2.54,0,0,0,.06-.63Z"/><path d="M745.22,270.4a.91.91,0,0,1-1.81,0,.88.88,0,0,1,.91-.91A.86.86,0,0,1,745.22,270.4Zm-1.63,10.28v-8h1.46v8Z"/><path d="M749.23,270.35v2.3h2.09v1.12h-2.09v4.33c0,1,.28,1.56,1.09,1.56a3.2,3.2,0,0,0,.85-.1l.07,1.09a3.49,3.49,0,0,1-1.3.2,2,2,0,0,1-1.57-.61,3,3,0,0,1-.57-2.09v-4.38h-1.24v-1.12h1.24v-1.92Z"/><path d="M758.23,270.35v2.3h2.1v1.12h-2.1v4.33c0,1,.29,1.56,1.1,1.56a3.32,3.32,0,0,0,.85-.1l.06,1.09a3.47,3.47,0,0,1-1.29.2,2,2,0,0,1-1.58-.61,3,3,0,0,1-.56-2.09v-4.38h-1.25v-1.12h1.25v-1.92Z"/><path d="M762,275.16c0-1,0-1.76-.06-2.51h1.28l.05,1.58h.06a2.42,2.42,0,0,1,2.22-1.76,1.73,1.73,0,0,1,.42,0v1.38a1.88,1.88,0,0,0-.5,0,2,2,0,0,0-2,1.87,4.65,4.65,0,0,0-.06.68v4.28H762Z"/><path d="M771.75,280.68l-.11-1h0a3,3,0,0,1-2.46,1.2,2.29,2.29,0,0,1-2.46-2.31c0-1.94,1.73-3,4.83-3v-.16a1.65,1.65,0,0,0-1.82-1.86,3.94,3.94,0,0,0-2.09.6l-.34-1a5,5,0,0,1,2.64-.71c2.46,0,3.06,1.68,3.06,3.29v3a11.14,11.14,0,0,0,.13,1.92Zm-.21-4.09c-1.6,0-3.41.25-3.41,1.8a1.3,1.3,0,0,0,1.38,1.4,2,2,0,0,0,1.94-1.34,1.56,1.56,0,0,0,.09-.47Z"/><path d="M776.92,270.4a.9.9,0,0,1-1.8,0,.88.88,0,0,1,.91-.91A.86.86,0,0,1,776.92,270.4Zm-1.62,10.28v-8h1.46v8Z"/><path d="M779.18,268.9h1.46v11.78h-1.46Z"/><path d="M782.89,279.19a3.86,3.86,0,0,0,1.93.58c1.06,0,1.56-.53,1.56-1.19s-.42-1.08-1.5-1.48c-1.44-.51-2.12-1.31-2.12-2.27a2.48,2.48,0,0,1,2.77-2.36,3.93,3.93,0,0,1,2,.5l-.36,1.06a3.15,3.15,0,0,0-1.64-.46c-.87,0-1.35.49-1.35,1.09s.48,1,1.53,1.36c1.39.53,2.11,1.23,2.11,2.43,0,1.41-1.1,2.4-3,2.4a4.45,4.45,0,0,1-2.25-.55Z"/><path d="M800.44,276.6a3.93,3.93,0,0,1-4,4.27,3.82,3.82,0,0,1-3.85-4.13,3.93,3.93,0,0,1,4-4.27A3.8,3.8,0,0,1,800.44,276.6Zm-6.37.09c0,1.76,1,3.08,2.44,3.08s2.44-1.31,2.44-3.12c0-1.36-.68-3.08-2.41-3.08S794.07,275.16,794.07,276.69Z"/><path d="M802.43,280.68v-6.91H801.3v-1.12h1.13v-.38a3.78,3.78,0,0,1,.93-2.8,2.77,2.77,0,0,1,1.95-.75,3.52,3.52,0,0,1,1.25.23l-.2,1.13a2.18,2.18,0,0,0-.93-.18c-1.24,0-1.56,1.09-1.56,2.32v.43h1.94v1.12h-1.94v6.91Z"/><path d="M725.27,299.09a3.9,3.9,0,0,0,1.93.58c1.06,0,1.56-.53,1.56-1.19s-.42-1.08-1.49-1.48c-1.45-.51-2.13-1.31-2.13-2.27a2.48,2.48,0,0,1,2.77-2.36,4,4,0,0,1,2,.5l-.37,1.06a3.08,3.08,0,0,0-1.64-.46c-.86,0-1.34.49-1.34,1.09s.48,1,1.52,1.36c1.4.53,2.11,1.23,2.11,2.42,0,1.42-1.1,2.41-3,2.41a4.6,4.6,0,0,1-2.26-.55Z"/><path d="M732.85,296.84a2.58,2.58,0,0,0,2.76,2.78,5.34,5.34,0,0,0,2.22-.41l.25,1a6.5,6.5,0,0,1-2.67.5,3.73,3.73,0,0,1-3.95-4.05c0-2.42,1.43-4.33,3.77-4.33,2.62,0,3.31,2.31,3.31,3.78,0,.3,0,.54,0,.69Zm4.28-1a2.07,2.07,0,0,0-2-2.37,2.42,2.42,0,0,0-2.24,2.37Z"/><path d="M746.07,300.29a5.53,5.53,0,0,1-2.3.46,3.81,3.81,0,0,1-4-4.1,4.08,4.08,0,0,1,4.31-4.26,4.89,4.89,0,0,1,2,.41l-.34,1.13a3.33,3.33,0,0,0-1.69-.38,3,3,0,0,0-.05,6,4.15,4.15,0,0,0,1.79-.4Z"/><path d="M754.5,298.39c0,.83,0,1.56.06,2.19h-1.29l-.08-1.31h0a3,3,0,0,1-2.65,1.5c-1.26,0-2.77-.7-2.77-3.52v-4.7h1.46V297c0,1.53.46,2.56,1.79,2.56a2.09,2.09,0,0,0,1.92-1.33,2,2,0,0,0,.14-.75v-4.93h1.46Z"/><path d="M756.92,295.06c0-.95,0-1.76-.07-2.51h1.28l0,1.58h.06a2.42,2.42,0,0,1,2.23-1.76,1.7,1.7,0,0,1,.41.05v1.38a2.41,2.41,0,0,0-.5-.05,2,2,0,0,0-2,1.87,3.47,3.47,0,0,0-.07.68v4.28h-1.44Z"/><path d="M764,290.3a.86.86,0,0,1-.93.89.87.87,0,0,1-.88-.89.89.89,0,0,1,.91-.92A.87.87,0,0,1,764,290.3Zm-1.63,10.28v-8h1.46v8Z"/><path d="M768,290.25v2.3h2.09v1.12H768V298c0,1,.29,1.56,1.1,1.56a3.17,3.17,0,0,0,.84-.1l.07,1.09a3.47,3.47,0,0,1-1.29.2,2.06,2.06,0,0,1-1.58-.61,3,3,0,0,1-.56-2.09v-4.38h-1.25v-1.12h1.25v-1.92Z"/><path d="M772.45,292.55l1.76,4.75c.18.53.38,1.16.52,1.64h0c.15-.48.32-1.09.51-1.67l1.6-4.72h1.54l-2.19,5.73c-1.05,2.75-1.76,4.16-2.75,5a3.89,3.89,0,0,1-1.8.94l-.36-1.23a4,4,0,0,0,1.28-.71,4.52,4.52,0,0,0,1.22-1.63,1,1,0,0,0,.12-.34,1.21,1.21,0,0,0-.1-.39l-3-7.4Z"/><path d="M790.3,300.58c-.32-.31-.61-.63-1-1.09a4.56,4.56,0,0,1-3.26,1.28,3.17,3.17,0,0,1-3.44-3.14,3.67,3.67,0,0,1,2.19-3.27v-.05a3.84,3.84,0,0,1-.93-2.34,2.71,2.71,0,0,1,2.84-2.75,2.33,2.33,0,0,1,2.47,2.37c0,1.18-.68,2.11-2.45,3v.05c.94,1.09,2,2.32,2.72,3.12a8.35,8.35,0,0,0,1.08-3.27h1.32a8.41,8.41,0,0,1-1.61,4.13c.6.63,1.18,1.26,1.84,2Zm-1.76-1.92c-.66-.73-1.91-2.09-3.15-3.52a2.75,2.75,0,0,0-1.45,2.28,2.21,2.21,0,0,0,2.29,2.25A3.12,3.12,0,0,0,788.54,298.66Zm-3.4-6.82a3.15,3.15,0,0,0,.85,2c1.12-.65,1.85-1.25,1.85-2.19a1.32,1.32,0,0,0-1.29-1.45A1.46,1.46,0,0,0,785.14,291.84Z"/><path d="M726.7,320.19a5.59,5.59,0,0,1-2.31.46,3.82,3.82,0,0,1-4-4.1,4.08,4.08,0,0,1,4.31-4.26,4.89,4.89,0,0,1,2,.41l-.33,1.13a3.41,3.41,0,0,0-1.7-.38,3,3,0,0,0-.05,6,4.24,4.24,0,0,0,1.8-.4Z"/><path d="M735.57,316.4a3.93,3.93,0,0,1-4,4.27,3.83,3.83,0,0,1-3.85-4.14,3.92,3.92,0,0,1,4-4.26A3.81,3.81,0,0,1,735.57,316.4Zm-6.37.09c0,1.75,1,3.08,2.44,3.08s2.43-1.31,2.43-3.12c0-1.36-.68-3.08-2.4-3.08S729.2,315,729.2,316.49Z"/><path d="M737.41,314.63c0-.83,0-1.51-.07-2.18h1.28l.06,1.3h.05a2.77,2.77,0,0,1,2.53-1.48,2.38,2.38,0,0,1,2.27,1.61h0a3.1,3.1,0,0,1,.9-1,2.7,2.7,0,0,1,1.77-.57c1.06,0,2.64.7,2.64,3.49v4.72h-1.43v-4.54c0-1.55-.56-2.47-1.74-2.47a1.87,1.87,0,0,0-1.72,1.32,2.32,2.32,0,0,0-.12.73v5h-1.43v-4.81c0-1.28-.56-2.2-1.67-2.2a2,2,0,0,0-1.81,1.46,2,2,0,0,0-.12.71v4.84h-1.42Z"/><path d="M751.24,315.08c0-1,0-1.86-.07-2.63h1.31l.07,1.38h0a3.15,3.15,0,0,1,2.85-1.56c1.94,0,3.4,1.64,3.4,4.08,0,2.89-1.76,4.32-3.65,4.32a2.83,2.83,0,0,1-2.47-1.26h0v4.36h-1.44Zm1.44,2.14a2.73,2.73,0,0,0,.07.59,2.23,2.23,0,0,0,2.18,1.71c1.55,0,2.44-1.26,2.44-3.1,0-1.61-.84-3-2.38-3a2.53,2.53,0,0,0-2.31,2.41Z"/><path d="M760.67,308.7h1.46v11.78h-1.46Z"/><path d="M766.21,310.2a.86.86,0,0,1-.93.89.87.87,0,0,1-.88-.89.89.89,0,0,1,.91-.92A.87.87,0,0,1,766.21,310.2Zm-1.63,10.28v-8H766v8Z"/><path d="M772.91,320.48l-.11-1h0a3,3,0,0,1-2.46,1.2,2.29,2.29,0,0,1-2.46-2.31c0-1.94,1.73-3,4.83-3v-.16a1.65,1.65,0,0,0-1.82-1.86,3.94,3.94,0,0,0-2.09.6l-.33-1a5,5,0,0,1,2.63-.71c2.46,0,3.06,1.68,3.06,3.29v3a11.14,11.14,0,0,0,.13,1.92Zm-.21-4.09c-1.6,0-3.41.24-3.41,1.8a1.3,1.3,0,0,0,1.38,1.4,2,2,0,0,0,1.94-1.35,1.5,1.5,0,0,0,.09-.46Z"/><path d="M776.46,314.63c0-.83,0-1.51-.07-2.18h1.3l.08,1.33h0a3,3,0,0,1,2.66-1.51c1.11,0,2.83.67,2.83,3.42v4.79h-1.46v-4.63c0-1.29-.48-2.37-1.85-2.37a2.07,2.07,0,0,0-2,1.5,2,2,0,0,0-.1.68v4.82h-1.46Z"/><path d="M791.39,320.19a5.59,5.59,0,0,1-2.31.46,3.82,3.82,0,0,1-4-4.1,4.08,4.08,0,0,1,4.31-4.26,4.89,4.89,0,0,1,2,.41l-.33,1.13a3.41,3.41,0,0,0-1.7-.38,3,3,0,0,0,0,6,4.24,4.24,0,0,0,1.8-.4Z"/><path d="M793.8,316.73a2.58,2.58,0,0,0,2.76,2.79,5.34,5.34,0,0,0,2.22-.41l.25,1a6.5,6.5,0,0,1-2.67.5,3.73,3.73,0,0,1-4-4c0-2.42,1.43-4.33,3.77-4.33,2.62,0,3.32,2.31,3.32,3.78,0,.3,0,.53,0,.68Zm4.28-1a2.07,2.07,0,0,0-2-2.37,2.42,2.42,0,0,0-2.24,2.37Z"/><path d="M739.14,336.63a2.57,2.57,0,0,0,2.75,2.79,5.35,5.35,0,0,0,2.23-.41l.24,1a6.34,6.34,0,0,1-2.67.5,3.73,3.73,0,0,1-4-4.05c0-2.42,1.43-4.33,3.77-4.33,2.62,0,3.32,2.31,3.32,3.78a4.75,4.75,0,0,1-.05.68Zm4.28-1a2.07,2.07,0,0,0-2-2.37,2.43,2.43,0,0,0-2.24,2.37Z"/><path d="M747.2,332.35l1.57,4.52a18.41,18.41,0,0,1,.65,2.05h.05c.18-.66.41-1.32.68-2.05l1.56-4.52h1.53l-3.16,8h-1.39l-3.05-8Z"/><path d="M755.26,336.63a2.57,2.57,0,0,0,2.75,2.79,5.35,5.35,0,0,0,2.23-.41l.24,1a6.34,6.34,0,0,1-2.67.5,3.73,3.73,0,0,1-3.95-4.05c0-2.42,1.43-4.33,3.77-4.33,2.62,0,3.32,2.31,3.32,3.78a4.75,4.75,0,0,1-.05.68Zm4.28-1a2.08,2.08,0,0,0-2-2.37,2.43,2.43,0,0,0-2.24,2.37Z"/><path d="M762.75,334.53c0-.83,0-1.51-.06-2.18H764l.08,1.33h0a2.94,2.94,0,0,1,2.65-1.51c1.11,0,2.84.67,2.84,3.42v4.79h-1.46v-4.62c0-1.3-.48-2.38-1.86-2.38a2.08,2.08,0,0,0-2,1.5,2,2,0,0,0-.1.68v4.82h-1.46Z"/><path d="M773.65,330.05v2.3h2.09v1.12h-2.09v4.33c0,1,.28,1.56,1.09,1.56a3.26,3.26,0,0,0,.85-.1l.06,1.09a3.43,3.43,0,0,1-1.29.2,2,2,0,0,1-1.58-.61,3,3,0,0,1-.56-2.09v-4.38H771v-1.12h1.24v-1.92Z"/><path d="M777.18,338.89a3.82,3.82,0,0,0,1.92.58c1.07,0,1.56-.53,1.56-1.19s-.41-1.08-1.49-1.48c-1.44-.51-2.12-1.31-2.12-2.27a2.47,2.47,0,0,1,2.77-2.36,4,4,0,0,1,2,.5l-.36,1.06a3.16,3.16,0,0,0-1.65-.46c-.86,0-1.34.49-1.34,1.09s.48,1,1.53,1.36c1.39.53,2.1,1.23,2.1,2.43,0,1.41-1.09,2.4-3,2.4a4.52,4.52,0,0,1-2.26-.55Z"/><line class="cls-6" x1="589.5" y1="255" x2="589.5" y2="226"/><line class="cls-6" x1="760.5" y1="255" x2="760.5" y2="226"/><rect class="cls-1" x="331.96" y="254.5" width="175" height="223" rx="10"/><path d="M345.14,269.32h1.44v7.48c0,3-1.46,3.88-3.39,3.88a4.67,4.67,0,0,1-1.54-.26l.22-1.18a3.35,3.35,0,0,0,1.21.22c1.29,0,2.06-.58,2.06-2.77Z"/><path d="M348.78,278.74a5.1,5.1,0,0,0,2.59.73c1.48,0,2.34-.78,2.34-1.9s-.6-1.65-2.11-2.23c-1.82-.64-3-1.59-3-3.17,0-1.74,1.44-3,3.62-3a5.13,5.13,0,0,1,2.47.54l-.4,1.18a4.42,4.42,0,0,0-2.12-.53c-1.53,0-2.11.91-2.11,1.68,0,1,.68,1.56,2.22,2.15,1.89.73,2.86,1.65,2.86,3.29s-1.28,3.22-3.92,3.22a5.72,5.72,0,0,1-2.85-.72Z"/><path d="M366.71,274.79c0,3.85-2.34,5.89-5.19,5.89s-5-2.29-5-5.67c0-3.55,2.21-5.87,5.2-5.87S366.71,271.48,366.71,274.79ZM358,275c0,2.39,1.29,4.53,3.56,4.53s3.59-2.11,3.59-4.65c0-2.22-1.16-4.55-3.57-4.55S358,272.52,358,275Z"/><path d="M368.58,280.5V269.32h1.58l3.58,5.66a31.81,31.81,0,0,1,2,3.63l0,0c-.13-1.49-.16-2.85-.16-4.59v-4.68H377V280.5h-1.46L372,274.83a34.5,34.5,0,0,1-2.09-3.74l-.05,0c.08,1.41.11,2.75.11,4.61v4.78Z"/><path d="M383.54,272.47l1.06,4.08c.24.9.45,1.73.6,2.56h.05c.18-.81.45-1.68.71-2.54l1.31-4.1h1.23l1.25,4c.3,1,.53,1.81.71,2.62h.05a25.24,25.24,0,0,1,.61-2.61l1.15-4h1.44l-2.59,8H389.8l-1.23-3.83c-.28-.9-.52-1.69-.72-2.64h0a25.13,25.13,0,0,1-.73,2.66l-1.29,3.81h-1.33l-2.42-8Z"/><path d="M395.81,276.75a2.57,2.57,0,0,0,2.76,2.79,5.34,5.34,0,0,0,2.22-.41l.25,1a6.58,6.58,0,0,1-2.67.5,3.73,3.73,0,0,1-3.95-4.05c0-2.42,1.42-4.33,3.76-4.33,2.63,0,3.32,2.31,3.32,3.78a4.88,4.88,0,0,1-.05.68Zm4.28-1a2.08,2.08,0,0,0-2-2.38,2.42,2.42,0,0,0-2.24,2.38Z"/><path d="M403.24,280.5c0-.55.07-1.36.07-2.07v-9.71h1.44v5h0a3,3,0,0,1,2.74-1.48c2,0,3.4,1.66,3.39,4.1,0,2.87-1.81,4.29-3.6,4.29a2.84,2.84,0,0,1-2.69-1.51h-.05l-.07,1.33Zm1.51-3.22a2.19,2.19,0,0,0,.07.53,2.24,2.24,0,0,0,2.19,1.71c1.52,0,2.44-1.24,2.44-3.08,0-1.61-.83-3-2.39-3a2.33,2.33,0,0,0-2.23,1.79,3.23,3.23,0,0,0-.08.6Z"/><path d="M418,270.17v2.3h2.09v1.11H418v4.33c0,1,.28,1.56,1.09,1.56a3.26,3.26,0,0,0,.85-.1l.06,1.1a3.47,3.47,0,0,1-1.29.2,2,2,0,0,1-1.58-.62,3,3,0,0,1-.56-2.09v-4.38h-1.24v-1.11h1.24v-1.92Z"/><path d="M428.91,276.42a3.92,3.92,0,0,1-4,4.26,3.81,3.81,0,0,1-3.85-4.13,3.92,3.92,0,0,1,4-4.26A3.79,3.79,0,0,1,428.91,276.42Zm-6.37.08c0,1.76,1,3.09,2.44,3.09s2.44-1.31,2.44-3.12c0-1.36-.68-3.09-2.4-3.09S422.54,275,422.54,276.5Z"/><path d="M432.2,276.16h0c.2-.29.48-.64.71-.92l2.36-2.77h1.76l-3.11,3.3,3.54,4.73h-1.78l-2.77-3.85-.74.83v3h-1.45V268.72h1.45Z"/><path d="M439.34,276.75a2.58,2.58,0,0,0,2.76,2.79,5.34,5.34,0,0,0,2.22-.41l.25,1a6.54,6.54,0,0,1-2.67.5,3.73,3.73,0,0,1-3.95-4.05c0-2.42,1.43-4.33,3.76-4.33,2.63,0,3.32,2.31,3.32,3.78a4.88,4.88,0,0,1,0,.68Zm4.28-1a2.08,2.08,0,0,0-2-2.38,2.42,2.42,0,0,0-2.24,2.38Z"/><path d="M446.84,274.64c0-.82,0-1.5-.07-2.17h1.3l.08,1.33h0a3,3,0,0,1,2.66-1.51c1.11,0,2.83.66,2.83,3.42v4.79h-1.46v-4.63c0-1.29-.48-2.37-1.85-2.37a2.14,2.14,0,0,0-2.06,2.17v4.83h-1.46Z"/><path d="M342.65,298.64a5.06,5.06,0,0,0,2.58.73c1.48,0,2.34-.78,2.34-1.91s-.59-1.64-2.1-2.22c-1.83-.65-3-1.59-3-3.17,0-1.74,1.45-3,3.62-3a5.07,5.07,0,0,1,2.47.54l-.4,1.18a4.42,4.42,0,0,0-2.12-.53c-1.53,0-2.11.91-2.11,1.68,0,1,.68,1.56,2.23,2.15,1.89.73,2.85,1.65,2.85,3.29s-1.28,3.22-3.91,3.22a5.79,5.79,0,0,1-2.86-.72Z"/><path d="M352.83,296.88l-1.16,3.52h-1.5l3.8-11.18h1.75l3.81,11.18H358l-1.2-3.52Zm3.67-1.12-1.1-3.22c-.25-.73-.41-1.4-.58-2h0c-.17.66-.35,1.34-.57,2l-1.09,3.24Z"/><path d="M370.53,295.49c-.08-1.56-.18-3.43-.17-4.83h-.05c-.38,1.31-.84,2.71-1.41,4.25l-2,5.43h-1.1L364,295c-.53-1.58-1-3-1.29-4.35h0c0,1.4-.12,3.27-.22,4.95l-.3,4.79h-1.37l.77-11.18h1.85l1.91,5.41c.46,1.37.84,2.6,1.12,3.76h.05c.28-1.12.68-2.35,1.18-3.76l2-5.41h1.84l.7,11.18h-1.41Z"/><path d="M374.44,289.22h1.44v10h4.78v1.21h-6.22Z"/><path d="M342.85,309.12h1.44v5.39h0c.3-.43.6-.83.88-1.19l3.42-4.2h1.79l-4.05,4.74,4.36,6.44H349l-3.68-5.49L344.29,316v4.26h-1.44Z"/><path d="M352.6,316.55a2.57,2.57,0,0,0,2.75,2.79,5.09,5.09,0,0,0,2.22-.42l.25,1.05a6.5,6.5,0,0,1-2.67.5,3.73,3.73,0,0,1-3.95-4.05c0-2.42,1.43-4.33,3.77-4.33,2.62,0,3.32,2.3,3.32,3.78,0,.3,0,.53-.05.68Zm4.28-1a2.09,2.09,0,0,0-2-2.38,2.43,2.43,0,0,0-2.24,2.38Z"/><path d="M360.09,314.78c0-.95,0-1.76-.06-2.51h1.27l.05,1.58h.07a2.4,2.4,0,0,1,2.22-1.76,1.38,1.38,0,0,1,.42.05v1.37a2.41,2.41,0,0,0-.5-.05,2.06,2.06,0,0,0-2,1.88,4.53,4.53,0,0,0-.06.68v4.28h-1.45Z"/><path d="M365.51,320.3c0-.55.07-1.36.07-2.07v-9.71H367v5h0a3,3,0,0,1,2.74-1.47c2,0,3.4,1.66,3.38,4.1,0,2.87-1.81,4.29-3.6,4.29a2.85,2.85,0,0,1-2.69-1.51h-.05l-.06,1.33Zm1.51-3.22a3,3,0,0,0,.07.53,2.24,2.24,0,0,0,2.19,1.71c1.53,0,2.44-1.24,2.44-3.08,0-1.61-.83-3-2.39-3a2.33,2.33,0,0,0-2.22,1.79,2.53,2.53,0,0,0-.09.6Z"/><path d="M375.83,316.55a2.57,2.57,0,0,0,2.75,2.79,5.18,5.18,0,0,0,2.23-.42l.25,1.05a6.6,6.6,0,0,1-2.68.5,3.73,3.73,0,0,1-3.94-4.05c0-2.42,1.42-4.33,3.76-4.33,2.62,0,3.32,2.3,3.32,3.78a4.88,4.88,0,0,1,0,.68Zm4.28-1a2.08,2.08,0,0,0-2-2.38,2.41,2.41,0,0,0-2.24,2.38Z"/><path d="M383.32,314.78c0-.95,0-1.76-.06-2.51h1.28l0,1.58h.06a2.42,2.42,0,0,1,2.22-1.76,1.34,1.34,0,0,1,.42.05v1.37a2.41,2.41,0,0,0-.5-.05,2.06,2.06,0,0,0-2,1.88,4.53,4.53,0,0,0-.06.68v4.28h-1.45Z"/><path d="M395.85,316.22a3.92,3.92,0,0,1-4,4.26,3.82,3.82,0,0,1-3.85-4.13,3.92,3.92,0,0,1,4-4.26A3.8,3.8,0,0,1,395.85,316.22Zm-6.37.08c0,1.76,1,3.09,2.44,3.09s2.44-1.31,2.44-3.12c0-1.36-.69-3.09-2.41-3.09S389.48,314.78,389.48,316.3Z"/><path d="M397.49,318.81a3.82,3.82,0,0,0,1.92.58c1.06,0,1.56-.53,1.56-1.2s-.41-1.07-1.49-1.47c-1.45-.52-2.13-1.31-2.13-2.28a2.48,2.48,0,0,1,2.77-2.35,4,4,0,0,1,2,.5l-.37,1.06a3.08,3.08,0,0,0-1.64-.47c-.86,0-1.34.5-1.34,1.1s.48,1,1.52,1.36c1.4.53,2.11,1.23,2.11,2.42,0,1.41-1.09,2.41-3,2.41a4.63,4.63,0,0,1-2.26-.55Z"/><path d="M406.54,321l4.63-12h1.13l-4.65,12Z"/><path d="M416.82,318.54a5.1,5.1,0,0,0,2.59.73c1.48,0,2.34-.78,2.34-1.91s-.6-1.64-2.11-2.22c-1.82-.65-2.95-1.59-2.95-3.17,0-1.74,1.44-3,3.62-3a5.13,5.13,0,0,1,2.47.54l-.4,1.18a4.45,4.45,0,0,0-2.12-.53c-1.53,0-2.11.91-2.11,1.68,0,1,.68,1.56,2.22,2.15,1.89.73,2.86,1.65,2.86,3.29s-1.28,3.22-3.92,3.22a5.72,5.72,0,0,1-2.85-.72Z"/><path d="M425.2,309.25A17.47,17.47,0,0,1,428,309a4.62,4.62,0,0,1,3.13.92,3,3,0,0,1,1,2.34,3.3,3.3,0,0,1-.86,2.39,4.61,4.61,0,0,1-3.42,1.23,5.12,5.12,0,0,1-1.16-.1v4.48H425.2Zm1.44,5.39a4.5,4.5,0,0,0,1.19.12c1.75,0,2.81-.85,2.81-2.39s-1.05-2.19-2.64-2.19a5.79,5.79,0,0,0-1.36.12Z"/><path d="M434,320.3V309.12h1.58l3.58,5.66a31,31,0,0,1,2,3.63l0,0c-.13-1.49-.17-2.85-.17-4.59v-4.68h1.36V320.3H441l-3.55-5.67a37.36,37.36,0,0,1-2.09-3.74l-.05,0c.09,1.41.12,2.75.12,4.61v4.78Z"/><path d="M450.72,315.06h-4.35v4h4.85v1.21h-6.29V309.12h6v1.21h-4.6v3.53h4.35Z"/><path d="M461.6,319.8a10.17,10.17,0,0,1-3.43.62,5.24,5.24,0,0,1-5.74-5.64c0-3.34,2.3-5.78,6.05-5.78a6.75,6.75,0,0,1,2.79.52l-.35,1.17a5.88,5.88,0,0,0-2.47-.48,4.19,4.19,0,0,0-4.5,4.5c0,2.84,1.71,4.51,4.32,4.51a4.62,4.62,0,0,0,1.92-.3v-3.33h-2.27v-1.16h3.68Z"/><path d="M473.36,314.59c0,3.85-2.34,5.89-5.19,5.89s-5-2.29-5-5.67c0-3.55,2.2-5.87,5.19-5.87S473.36,311.28,473.36,314.59Zm-8.68.19c0,2.39,1.29,4.53,3.57,4.53s3.58-2.11,3.58-4.65c0-2.22-1.16-4.55-3.57-4.55S464.68,312.32,464.68,314.78Z"/><path d="M342.85,329.15a17.47,17.47,0,0,1,2.77-.21,4.57,4.57,0,0,1,3.13.93,3,3,0,0,1,1,2.33,3.3,3.3,0,0,1-.86,2.39,5.64,5.64,0,0,1-4.58,1.13v4.48h-1.44Zm1.44,5.39a4.45,4.45,0,0,0,1.19.12c1.75,0,2.81-.85,2.81-2.39s-1.05-2.19-2.64-2.19a5.79,5.79,0,0,0-1.36.12Z"/><path d="M351.67,329h1.44v5.39h.05c.3-.43.6-.83.88-1.19l3.42-4.2h1.79l-4.05,4.74,4.37,6.44h-1.71l-3.69-5.49-1.06,1.23v4.26h-1.44Z"/><path d="M362.1,329V340.2h-1.44V329Z"/><path d="M342.85,349.05a17.47,17.47,0,0,1,2.77-.21,4.62,4.62,0,0,1,3.13.92,3,3,0,0,1,1,2.34,3.3,3.3,0,0,1-.86,2.39,4.61,4.61,0,0,1-3.42,1.23,5.12,5.12,0,0,1-1.16-.1v4.48h-1.44Zm1.44,5.39a4.45,4.45,0,0,0,1.19.12c1.75,0,2.81-.85,2.81-2.39s-1.05-2.19-2.64-2.19a5.79,5.79,0,0,0-1.36.12Z"/><path d="M351.35,354.58c0-.95,0-1.76-.06-2.51h1.27l.05,1.58h.07a2.41,2.41,0,0,1,2.22-1.76,1.34,1.34,0,0,1,.42.05v1.37a2.47,2.47,0,0,0-.5,0,2,2,0,0,0-2,1.87,4.53,4.53,0,0,0-.06.68v4.28h-1.45Z"/><path d="M363.88,356a3.92,3.92,0,0,1-4,4.26,3.82,3.82,0,0,1-3.85-4.13,3.92,3.92,0,0,1,4-4.26A3.8,3.8,0,0,1,363.88,356Zm-6.37.08c0,1.76,1,3.09,2.43,3.09s2.44-1.31,2.44-3.12c0-1.36-.68-3.09-2.4-3.09S357.51,354.58,357.51,356.1Z"/><path d="M366.16,352.07l1.15,1.73c.3.44.54.86.81,1.31h.05c.27-.48.53-.9.8-1.33l1.12-1.71h1.58L368.93,356l2.82,4.15h-1.66l-1.17-1.81c-.32-.46-.58-.91-.87-1.39h0c-.26.48-.55.91-.85,1.39L366,360.1H364.4l2.86-4.1-2.72-3.93Z"/><path d="M373.94,352.07l1.76,4.75c.18.53.38,1.16.51,1.64h0c.15-.48.31-1.1.51-1.68l1.59-4.71h1.55l-2.19,5.73c-1,2.75-1.76,4.16-2.76,5a4,4,0,0,1-1.79.95l-.37-1.23a4,4,0,0,0,1.28-.71,4.42,4.42,0,0,0,1.23-1.63,1,1,0,0,0,.12-.35,1.51,1.51,0,0,0-.1-.38l-3-7.4Z"/><path d="M344.65,396.38l-1.16,3.52H342l3.8-11.18h1.74l3.82,11.18h-1.55l-1.19-3.52Zm3.67-1.12L347.23,392c-.25-.73-.42-1.4-.58-2h0c-.16.66-.35,1.34-.56,2l-1.1,3.24Z"/><path d="M358.47,399.6a5.36,5.36,0,0,1-2.31.47,3.82,3.82,0,0,1-4-4.1,4.09,4.09,0,0,1,4.32-4.27,4.85,4.85,0,0,1,2,.42l-.33,1.13a3.36,3.36,0,0,0-1.69-.38,3,3,0,0,0-.05,6,4.17,4.17,0,0,0,1.79-.39Z"/><path d="M362.15,389.56v2.31h2.09V393h-2.09v4.33c0,1,.28,1.56,1.09,1.56a3.2,3.2,0,0,0,.85-.1l.07,1.1a3.71,3.71,0,0,1-1.3.2,2,2,0,0,1-1.57-.62,2.94,2.94,0,0,1-.57-2.09V393h-1.24v-1.11h1.24V390Z"/><path d="M367.51,389.61a.91.91,0,0,1-1.81,0,.89.89,0,0,1,.91-.91A.87.87,0,0,1,367.51,389.61Zm-1.63,10.29v-8h1.46v8Z"/><path d="M370.32,391.87l1.58,4.51a20.92,20.92,0,0,1,.65,2.06h.05c.18-.66.41-1.33.68-2.06l1.56-4.51h1.52l-3.15,8h-1.39l-3.06-8Z"/><path d="M378.38,396.15a2.58,2.58,0,0,0,2.76,2.79,5.16,5.16,0,0,0,2.22-.42l.25,1.05a6.5,6.5,0,0,1-2.67.5A3.73,3.73,0,0,1,377,396c0-2.42,1.43-4.33,3.77-4.33,2.62,0,3.31,2.3,3.31,3.78a4.88,4.88,0,0,1-.05.68Zm4.28-1a2.08,2.08,0,0,0-2-2.38,2.42,2.42,0,0,0-2.24,2.38Z"/><path d="M389.44,388.87a19.82,19.82,0,0,1,3.07-.23A6.41,6.41,0,0,1,397,390a5.12,5.12,0,0,1,1.58,4,5.94,5.94,0,0,1-1.61,4.35,6.87,6.87,0,0,1-4.94,1.61,24.25,24.25,0,0,1-2.63-.13Zm1.45,9.89a9.88,9.88,0,0,0,1.46.08c3.08,0,4.76-1.73,4.76-4.75,0-2.63-1.48-4.31-4.53-4.31a8.34,8.34,0,0,0-1.69.15Z"/><path d="M402.06,389.61a.9.9,0,1,1-1.8,0,.89.89,0,0,1,.91-.91A.86.86,0,0,1,402.06,389.61Zm-1.62,10.29v-8h1.46v8Z"/><path d="M404.32,394.38c0-.95,0-1.76-.07-2.51h1.28l.05,1.58h.07a2.4,2.4,0,0,1,2.22-1.76,1.32,1.32,0,0,1,.41.05v1.37a2.31,2.31,0,0,0-.49-.05,2.06,2.06,0,0,0-2,1.88,3.47,3.47,0,0,0-.07.68v4.28h-1.44Z"/><path d="M410.39,396.15a2.57,2.57,0,0,0,2.75,2.79,5.18,5.18,0,0,0,2.23-.42l.24,1.05a6.5,6.5,0,0,1-2.67.5A3.73,3.73,0,0,1,409,396c0-2.42,1.43-4.33,3.77-4.33,2.62,0,3.32,2.3,3.32,3.78a4.88,4.88,0,0,1-.05.68Zm4.28-1a2.08,2.08,0,0,0-2-2.38,2.41,2.41,0,0,0-2.23,2.38Z"/><path d="M423.61,399.6a5.36,5.36,0,0,1-2.31.47,3.82,3.82,0,0,1-4-4.1,4.09,4.09,0,0,1,4.32-4.27,4.85,4.85,0,0,1,2,.42l-.33,1.13a3.39,3.39,0,0,0-1.69-.38,2.78,2.78,0,0,0-2.84,3,2.75,2.75,0,0,0,2.79,3,4.21,4.21,0,0,0,1.79-.39Z"/><path d="M427.29,389.56v2.31h2.09V393h-2.09v4.33c0,1,.28,1.56,1.09,1.56a3.26,3.26,0,0,0,.85-.1l.06,1.1a3.69,3.69,0,0,1-1.29.2,2,2,0,0,1-1.58-.62,3,3,0,0,1-.56-2.09V393h-1.24v-1.11h1.24V390Z"/><path d="M438.18,395.82a3.92,3.92,0,0,1-4,4.26,3.81,3.81,0,0,1-3.85-4.13,3.92,3.92,0,0,1,4-4.26A3.79,3.79,0,0,1,438.18,395.82Zm-6.37.08c0,1.76,1,3.09,2.44,3.09s2.44-1.31,2.44-3.12c0-1.36-.68-3.09-2.4-3.09S431.81,394.38,431.81,395.9Z"/><path d="M440,394.38c0-.95,0-1.76-.07-2.51h1.28l0,1.58h.07a2.4,2.4,0,0,1,2.22-1.76,1.38,1.38,0,0,1,.42.05v1.37a2.41,2.41,0,0,0-.5-.05,2.06,2.06,0,0,0-2,1.88,4.45,4.45,0,0,0-.07.68v4.28H440Z"/><path d="M446.39,391.87l1.76,4.75c.18.53.38,1.16.51,1.64h0c.15-.48.31-1.1.51-1.68l1.59-4.71h1.55l-2.19,5.72c-1.05,2.76-1.76,4.17-2.76,5a4,4,0,0,1-1.79.95l-.37-1.23a4,4,0,0,0,1.28-.71,4.42,4.42,0,0,0,1.23-1.63,1,1,0,0,0,.12-.35,1.51,1.51,0,0,0-.1-.38l-3-7.4Z"/><path d="M342.85,408.62h1.44v10h4.78v1.21h-6.22Z"/><path d="M350.67,408.77a19.73,19.73,0,0,1,3.07-.24,6.41,6.41,0,0,1,4.53,1.4,5.12,5.12,0,0,1,1.58,4,5.94,5.94,0,0,1-1.61,4.35,6.88,6.88,0,0,1-4.95,1.61,24.19,24.19,0,0,1-2.62-.13Zm1.45,9.89a9.88,9.88,0,0,0,1.46.08c3.08,0,4.76-1.73,4.76-4.75,0-2.64-1.48-4.31-4.53-4.31a8.34,8.34,0,0,0-1.69.15Z"/><path d="M363.29,416.28l-1.16,3.52h-1.49l3.8-11.18h1.74L370,419.8h-1.55l-1.19-3.52Zm3.67-1.13-1.09-3.21c-.25-.73-.42-1.4-.59-2h0c-.16.66-.35,1.34-.56,2l-1.1,3.23Z"/><path d="M371.63,408.75a16.28,16.28,0,0,1,2.77-.22,4.63,4.63,0,0,1,3.14.93,3,3,0,0,1,1,2.34,3.31,3.31,0,0,1-.86,2.39,4.62,4.62,0,0,1-3.42,1.23,5.12,5.12,0,0,1-1.16-.1v4.48h-1.45Zm1.45,5.39a4.9,4.9,0,0,0,1.19.12c1.74,0,2.81-.85,2.81-2.39s-1.05-2.19-2.64-2.19a5.79,5.79,0,0,0-1.36.12Z"/><path d="M344.29,428.52V439.7h-1.44V428.52Z"/><path d="M346.92,433.84c0-.83,0-1.51-.06-2.17h1.29l.09,1.33h0a2.94,2.94,0,0,1,2.65-1.51c1.12,0,2.84.66,2.84,3.42v4.79H352.3v-4.63c0-1.29-.48-2.37-1.86-2.37a2.08,2.08,0,0,0-2,1.49,2.33,2.33,0,0,0-.09.68v4.83h-1.47Z"/><path d="M357.82,429.36v2.31h2.09v1.11h-2.09v4.33c0,1,.28,1.56,1.1,1.56a3.17,3.17,0,0,0,.84-.1l.07,1.1a3.71,3.71,0,0,1-1.3.2,2,2,0,0,1-1.57-.62,2.94,2.94,0,0,1-.57-2.09v-4.38h-1.24v-1.11h1.24v-1.92Z"/><path d="M362.27,436a2.57,2.57,0,0,0,2.75,2.79,5.16,5.16,0,0,0,2.22-.42l.25,1.05a6.5,6.5,0,0,1-2.67.5,3.73,3.73,0,0,1-3.95-4.05c0-2.42,1.43-4.33,3.77-4.33,2.62,0,3.32,2.3,3.32,3.78,0,.3,0,.53,0,.68Zm4.28-1a2.09,2.09,0,0,0-2-2.38,2.42,2.42,0,0,0-2.24,2.38Z"/><path d="M369.76,434.18c0-.95,0-1.76-.07-2.51H371l0,1.58h.07a2.4,2.4,0,0,1,2.22-1.76,1.38,1.38,0,0,1,.42.05v1.37a2.41,2.41,0,0,0-.5-.05,2.06,2.06,0,0,0-2,1.88,4.45,4.45,0,0,0-.07.68v4.28h-1.44Z"/><path d="M375.25,433.84c0-.83,0-1.51-.07-2.17h1.3l.08,1.33h0a3,3,0,0,1,2.66-1.51c1.11,0,2.83.66,2.83,3.42v4.79h-1.46v-4.63c0-1.29-.48-2.37-1.85-2.37a2.07,2.07,0,0,0-2,1.49,2,2,0,0,0-.1.68v4.83h-1.46Z"/><path d="M388.9,439.7l-.12-1h0a3,3,0,0,1-2.45,1.19,2.29,2.29,0,0,1-2.46-2.3c0-1.94,1.73-3,4.83-3v-.16a1.65,1.65,0,0,0-1.82-1.86,4.08,4.08,0,0,0-2.1.59l-.33-1a5,5,0,0,1,2.64-.71c2.46,0,3,1.67,3,3.28v3a11.23,11.23,0,0,0,.14,1.92Zm-.22-4.1c-1.59,0-3.4.25-3.4,1.81a1.29,1.29,0,0,0,1.38,1.39,2,2,0,0,0,1.94-1.34,1.48,1.48,0,0,0,.08-.46Z"/><path d="M392.45,427.92h1.46V439.7h-1.46Z"/><path d="M401.37,428.52v6.62c0,2.5,1.11,3.57,2.6,3.57,1.66,0,2.72-1.1,2.72-3.57v-6.62h1.46V435c0,3.43-1.81,4.84-4.23,4.84s-4-1.31-4-4.77v-6.59Z"/><path d="M410.3,438.21a3.9,3.9,0,0,0,1.93.58c1.06,0,1.56-.53,1.56-1.2s-.42-1.07-1.49-1.47c-1.45-.52-2.13-1.31-2.13-2.28a2.48,2.48,0,0,1,2.77-2.35,4,4,0,0,1,2,.5l-.37,1.06a3.08,3.08,0,0,0-1.64-.47c-.86,0-1.34.5-1.34,1.1s.48,1,1.52,1.36c1.4.53,2.11,1.23,2.11,2.42,0,1.41-1.1,2.41-3,2.41a4.6,4.6,0,0,1-2.26-.55Z"/><path d="M417.88,436a2.58,2.58,0,0,0,2.76,2.79,5.16,5.16,0,0,0,2.22-.42l.25,1.05a6.5,6.5,0,0,1-2.67.5,3.73,3.73,0,0,1-3.95-4.05c0-2.42,1.43-4.33,3.77-4.33,2.62,0,3.32,2.3,3.32,3.78,0,.3,0,.53-.05.68Zm4.28-1a2.08,2.08,0,0,0-2-2.38,2.42,2.42,0,0,0-2.24,2.38Z"/><path d="M425.38,434.18c0-.95,0-1.76-.07-2.51h1.28l.05,1.58h.07a2.4,2.4,0,0,1,2.22-1.76,1.28,1.28,0,0,1,.41.05v1.37a2.31,2.31,0,0,0-.49-.05,2.06,2.06,0,0,0-2,1.88,4.45,4.45,0,0,0-.07.68v4.28h-1.44Z"/><path d="M434.37,428.67a19.72,19.72,0,0,1,3.07-.23,6.43,6.43,0,0,1,4.53,1.39,5.16,5.16,0,0,1,1.57,4,5.9,5.9,0,0,1-1.61,4.35A6.85,6.85,0,0,1,437,439.8a24,24,0,0,1-2.62-.13Zm1.44,9.89a10.06,10.06,0,0,0,1.46.08c3.09,0,4.76-1.73,4.76-4.75,0-2.63-1.47-4.31-4.53-4.31a8.42,8.42,0,0,0-1.69.15Z"/><path d="M449.81,439.7l-.12-1h-.05a3,3,0,0,1-2.45,1.19,2.29,2.29,0,0,1-2.46-2.3c0-1.94,1.73-3,4.83-3v-.16a1.65,1.65,0,0,0-1.83-1.86,4.08,4.08,0,0,0-2.09.59l-.33-1a5,5,0,0,1,2.64-.71c2.45,0,3.05,1.67,3.05,3.28v3a12.42,12.42,0,0,0,.13,1.92Zm-.22-4.1c-1.59,0-3.4.25-3.4,1.81a1.29,1.29,0,0,0,1.38,1.39,2,2,0,0,0,1.94-1.34,1.48,1.48,0,0,0,.08-.46Z"/><path d="M455.05,429.36v2.31h2.09v1.11h-2.09v4.33c0,1,.28,1.56,1.09,1.56a3.26,3.26,0,0,0,.85-.1l.06,1.1a3.69,3.69,0,0,1-1.29.2,2,2,0,0,1-1.58-.62,3,3,0,0,1-.56-2.09v-4.38h-1.25v-1.11h1.25v-1.92Z"/><path d="M463.22,439.7l-.11-1h-.05a3,3,0,0,1-2.46,1.19,2.28,2.28,0,0,1-2.45-2.3c0-1.94,1.72-3,4.82-3v-.16a1.65,1.65,0,0,0-1.82-1.86,4,4,0,0,0-2.09.59l-.33-1a5,5,0,0,1,2.64-.71c2.45,0,3.05,1.67,3.05,3.28v3a11.29,11.29,0,0,0,.13,1.92Zm-.21-4.1c-1.6,0-3.4.25-3.4,1.81A1.28,1.28,0,0,0,461,438.8a2,2,0,0,0,1.94-1.34A1.5,1.5,0,0,0,463,437Z"/><path d="M466.7,439.7c0-.55.07-1.36.07-2.07v-9.71h1.44v5h0a3,3,0,0,1,2.73-1.47c2,0,3.41,1.66,3.39,4.1,0,2.87-1.81,4.29-3.6,4.29a2.85,2.85,0,0,1-2.69-1.51H468L468,439.7Zm1.51-3.22a3,3,0,0,0,.07.53,2.26,2.26,0,0,0,2.19,1.71c1.53,0,2.44-1.24,2.44-3.08,0-1.61-.83-3-2.39-3a2.31,2.31,0,0,0-2.22,1.79,2.53,2.53,0,0,0-.09.6Z"/><path d="M480.65,439.7l-.11-1h-.05a3,3,0,0,1-2.46,1.19,2.29,2.29,0,0,1-2.46-2.3c0-1.94,1.73-3,4.83-3v-.16a1.65,1.65,0,0,0-1.82-1.86,4,4,0,0,0-2.09.59l-.33-1a5,5,0,0,1,2.63-.71c2.46,0,3.06,1.67,3.06,3.28v3a11.29,11.29,0,0,0,.13,1.92Zm-.21-4.1c-1.6,0-3.4.25-3.4,1.81a1.28,1.28,0,0,0,1.37,1.39,2,2,0,0,0,1.94-1.34,1.5,1.5,0,0,0,.09-.46Z"/><path d="M484,438.21a3.82,3.82,0,0,0,1.92.58c1.07,0,1.56-.53,1.56-1.2s-.41-1.07-1.49-1.47c-1.44-.52-2.12-1.31-2.12-2.28a2.47,2.47,0,0,1,2.77-2.35,4,4,0,0,1,2,.5l-.36,1.06a3.15,3.15,0,0,0-1.65-.47c-.86,0-1.34.5-1.34,1.1s.48,1,1.53,1.36c1.39.53,2.1,1.23,2.1,2.42,0,1.41-1.09,2.41-3,2.41a4.63,4.63,0,0,1-2.26-.55Z"/><path d="M491.58,436a2.57,2.57,0,0,0,2.75,2.79,5.18,5.18,0,0,0,2.23-.42l.24,1.05a6.5,6.5,0,0,1-2.67.5,3.73,3.73,0,0,1-3.95-4.05c0-2.42,1.43-4.33,3.77-4.33,2.62,0,3.32,2.3,3.32,3.78a4.88,4.88,0,0,1,0,.68Zm4.28-1a2.08,2.08,0,0,0-2-2.38,2.41,2.41,0,0,0-2.23,2.38Z"/><path d="M344.29,448.42v4.68h5.41v-4.68h1.46V459.6H349.7v-5.24h-5.41v5.24h-1.44V448.42Z"/><path d="M355.78,449.65h-3.4v-1.23h8.28v1.23h-3.42v10h-1.46Z"/><path d="M364.65,449.65h-3.4v-1.23h8.28v1.23h-3.42v10h-1.46Z"/><path d="M370.77,448.55a16.44,16.44,0,0,1,2.77-.21,4.65,4.65,0,0,1,3.14.92,3,3,0,0,1,1,2.34,3.26,3.26,0,0,1-.87,2.39,4.58,4.58,0,0,1-3.41,1.23,5.21,5.21,0,0,1-1.17-.1v4.48h-1.44Zm1.44,5.39a4.58,4.58,0,0,0,1.2.12c1.74,0,2.8-.85,2.8-2.39s-1-2.19-2.63-2.19a5.83,5.83,0,0,0-1.37.12Z"/><path d="M383.11,448.57a13.46,13.46,0,0,1,2.64-.23,4.6,4.6,0,0,1,3.07.81,2.34,2.34,0,0,1,.93,2,2.66,2.66,0,0,1-1.9,2.46v0a2.89,2.89,0,0,1,2.31,2.81,3,3,0,0,1-.94,2.23,5.6,5.6,0,0,1-3.87,1.05,18.1,18.1,0,0,1-2.24-.13Zm1.44,4.58h1.31c1.53,0,2.43-.8,2.43-1.88,0-1.31-1-1.82-2.46-1.82a6.28,6.28,0,0,0-1.28.1Zm0,5.36a9.46,9.46,0,0,0,1.21.06c1.5,0,2.87-.55,2.87-2.17s-1.31-2.16-2.88-2.16h-1.2Z"/><path d="M396.49,459.6l-.11-1h-.05a3,3,0,0,1-2.46,1.19,2.28,2.28,0,0,1-2.45-2.3c0-1.94,1.72-3,4.83-3v-.17a1.66,1.66,0,0,0-1.83-1.85,4,4,0,0,0-2.09.59l-.33-1a5,5,0,0,1,2.64-.71c2.45,0,3.05,1.67,3.05,3.28v3a11.29,11.29,0,0,0,.13,1.92Zm-.21-4.1c-1.59,0-3.4.25-3.4,1.81a1.28,1.28,0,0,0,1.37,1.39,2,2,0,0,0,1.95-1.34,1.48,1.48,0,0,0,.08-.46Z"/><path d="M399.84,458.11a3.86,3.86,0,0,0,1.93.58c1.06,0,1.56-.53,1.56-1.2s-.42-1.07-1.5-1.47c-1.44-.52-2.12-1.31-2.12-2.28a2.47,2.47,0,0,1,2.77-2.35,3.93,3.93,0,0,1,2,.5l-.36,1.06a3.14,3.14,0,0,0-1.64-.47c-.87,0-1.35.5-1.35,1.1s.48,1,1.53,1.36c1.39.53,2.11,1.23,2.11,2.42,0,1.41-1.1,2.41-3,2.41a4.56,4.56,0,0,1-2.25-.55Z"/><path d="M408.23,449.31a.86.86,0,0,1-.93.9.87.87,0,0,1-.88-.9.9.9,0,0,1,.92-.91A.87.87,0,0,1,408.23,449.31Zm-1.62,10.29v-8h1.46v8Z"/><path d="M416.21,459.3a5.34,5.34,0,0,1-2.3.47,3.82,3.82,0,0,1-4-4.1,4.08,4.08,0,0,1,4.31-4.27,4.81,4.81,0,0,1,2,.42l-.33,1.13a3.36,3.36,0,0,0-1.69-.38,3,3,0,0,0-.05,6,4.17,4.17,0,0,0,1.79-.39Z"/><line class="cls-6" x1="419.75" y1="254.5" x2="419.75" y2="225.5"/></svg>