<?xml version="1.0" encoding="utf-8"?>
<!-- Generator: Adobe Illustrator 23.0.1, SVG Export Plug-In . SVG Version: 6.00 Build 0)  -->
<svg version="1.1" id="Layer_1" xmlns="http://www.w3.org/2000/svg" xmlns:xlink="http://www.w3.org/1999/xlink" x="0px" y="0px"
	 viewBox="0 0 1001 505" style="enable-background:new 0 0 1001 505;" xml:space="preserve">
<style type="text/css">
	.st0{fill:#E6E6E6;stroke:#000000;stroke-miterlimit:10;}
	.st1{fill:none;stroke:#000000;stroke-width:4;stroke-miterlimit:10;}
	.st2{fill:none;stroke:#000000;stroke-width:3.98;stroke-miterlimit:10;}
	.st3{fill:none;stroke:#000000;stroke-width:3.98;stroke-linejoin:round;}
	.st4{fill:#1E201D;}
	.st5{fill:none;stroke:#000000;stroke-miterlimit:10;}
</style>
<title>security diagram</title>
<path class="st0" d="M18.5,16.5h966c5.5,0,10,4.5,10,10v189c0,5.5-4.5,10-10,10h-966c-5.5,0-10-4.5-10-10v-189
	C8.5,21,13,16.5,18.5,16.5z"/>
<path class="st1" d="M234,69.3v-6.8c0-7.7,6.3-14,14-14l0,0c7.7,0,14,6.3,14,14v6.8"/>
<circle class="st1" cx="248" cy="86.4" r="22"/>
<circle class="st1" cx="248" cy="86.6" r="6"/>
<path class="st2" d="M611.9,70.1c4.7,2.5,7.6,7.3,7.6,12.6v13.8h-15.7"/>
<path class="st2" d="M575.2,96.4h-15.7V82.7c0-5.1,2.8-9.9,7.3-12.4"/>
<path class="st2" d="M614.1,57.8c0.8,1.4,1.2,3.1,1.2,4.7c0,5.5-4.4,9.9-9.9,9.9c-2.5,0-4.9-0.9-6.7-2.6"/>
<path class="st2" d="M595.5,62.5c0-1.8,0.5-3.5,1.4-5"/>
<path class="st2" d="M582.2,57.5c0.8,1.4,1.3,3,1.3,4.6"/>
<path class="st2" d="M580.1,70.1c-1.8,1.6-4.1,2.4-6.5,2.4c-5.5,0-9.9-4.4-9.9-9.9c0-1.6,0.4-3.3,1.2-4.7"/>
<path class="st2" d="M596.8,82.2c4.3,2.6,6.9,7.3,6.8,12.4v13.9h-26.1V94.6c-0.1-5,2.4-9.6,6.7-12.3"/>
<path class="st2" d="M597.7,68.8c1.1,1.6,1.7,3.6,1.7,5.6c0,5.5-4.4,9.9-9.9,9.9c-5.5,0-9.9-4.4-9.9-9.9c0-1.7,0.4-3.4,1.3-4.9"/>
<path class="st3" d="M614,58.5c0.2-3,0.8-4.2,3.3-6l-11.9-4l-11.9,3.9c2.4,1.7,3,3,3.2,6L614,58.5L614,58.5z"/>
<path class="st3" d="M582.1,58.5c0.2-3,0.8-4.2,3.3-6l-11.9-4l-11.9,3.9c2.4,1.7,3,3,3.2,6L582.1,58.5L582.1,58.5z"/>
<path class="st3" d="M598.1,70.4c0.2-3,0.8-4.2,3.3-6l-11.9-4l-11.9,4c2.4,1.7,3,3,3.2,6H598.1z"/>
<path d="M428.8,48.5c-11,0-20,9-20,20c0,1.3,0.1,2.7,0.4,4l-2.2,1.1c-0.6,0.3-0.9,1.1-0.6,1.7c0.1,0.1,0.1,0.2,0.2,0.3l1.6,1.6
	l-1.2,1.3h-2c-0.7,0-1.2,0.6-1.2,1.2v2l-1.8,1.8h-2c-0.7,0-1.2,0.6-1.2,1.2v2l-1.8,1.8h-2c-0.7,0-1.2,0.6-1.2,1.2v2l-4.6,4.6
	c-0.2,0.2-0.4,0.5-0.4,0.9v10c0,0.7,0.6,1.2,1.2,1.2h10c0.3,0,0.6-0.1,0.9-0.4L420,89l1.6,1.6c0.3,0.3,0.7,0.4,1.1,0.3
	c0.4-0.1,0.7-0.3,0.9-0.7l1.1-2.2c10.8,2.3,21.4-4.7,23.7-15.5c2.3-10.8-4.7-21.4-15.5-23.7C431.5,48.6,430.1,48.5,428.8,48.5
	L428.8,48.5z M424.4,85.4c-0.6-0.2-1.2,0.1-1.4,0.7l-0.8,1.6l-1.3-1.3c-0.5-0.5-1.3-0.5-1.8,0c0,0,0,0,0,0L399.5,106h-8.2v-8.2
	l4.6-4.6c0.2-0.2,0.4-0.6,0.4-0.9V91h1.2c0.3,0,0.6-0.1,0.9-0.4l2.5-2.5c0.2-0.2,0.4-0.6,0.4-0.9V86h1.2c0.3,0,0.6-0.1,0.9-0.4
	l2.5-2.5c0.2-0.2,0.4-0.6,0.4-0.9V81h1.2c0.3,0,0.6-0.1,0.9-0.4l2.5-2.5c0.5-0.5,0.5-1.3,0-1.8c0,0,0,0,0,0l-1.3-1.3l1.6-0.8
	c0.5-0.3,0.8-0.9,0.7-1.4c-0.4-1.4-0.6-2.9-0.6-4.4c0-9.7,7.8-17.5,17.5-17.5c9.7,0,17.5,7.8,17.5,17.5c0,9.7-7.8,17.5-17.5,17.5
	C427.3,86,425.8,85.8,424.4,85.4L424.4,85.4z"/>
<path d="M435,56c-3.5,0-6.2,2.8-6.2,6.2c0,3.5,2.8,6.2,6.2,6.2s6.2-2.8,6.2-6.2l0,0C441.2,58.8,438.4,56,435,56z M435,66
	c-2.1,0-3.8-1.7-3.8-3.8s1.7-3.8,3.8-3.8s3.8,1.7,3.8,3.8S437.1,66,435,66L435,66z"/>
<path d="M414.1,81.4l-17.5,17.5c-0.5,0.5-0.4,1.3,0.1,1.8c0.5,0.4,1.2,0.4,1.7,0l17.5-17.5c0.5-0.5,0.6-1.2,0.1-1.8
	C415.5,80.9,414.7,80.8,414.1,81.4C414.2,81.3,414.2,81.3,414.1,81.4z"/>
<path d="M784.6,69.6h-1.5v-7.3c0,0,0-0.1,0-0.1c0-0.3-0.1-0.6-0.3-0.8l-12.1-13.9l0,0c-0.1-0.1-0.1-0.1-0.2-0.2l-0.1,0
	c-0.1,0-0.2-0.1-0.2-0.1H770c-0.1,0-0.2,0-0.3,0h-29.8c-1.4,0-2.5,1.1-2.5,2.5v20h-1.5c-1.9,0-3.5,1.6-3.5,3.5c0,0,0,0,0,0v18.3
	c0,1.9,1.6,3.5,3.5,3.5c0,0,0,0,0,0h1.5v12.6c0,1.4,1.1,2.5,2.4,2.5c0,0,0,0,0,0h40.7c1.4,0,2.5-1.1,2.5-2.5V94.9h1.5
	c1.9,0,3.5-1.6,3.5-3.5c0,0,0,0,0,0V73.1C788.1,71.1,786.5,69.6,784.6,69.6L784.6,69.6z M739.9,49.6h28.6v12.6
	c0,0.7,0.5,1.2,1.2,1.2h10.9v6.2h-40.7V49.6z M765.3,81.9c0,5.5-3.3,8.8-8.2,8.8s-7.9-3.8-7.9-8.5c0-5,3.2-8.8,8.1-8.8
	C762.5,73.4,765.3,77.2,765.3,81.9L765.3,81.9z M738.3,90.4V73.7h3.7v13.5h6.7v3.2L738.3,90.4z M780.6,106.8h-40.7V94.9h40.7
	L780.6,106.8L780.6,106.8z M781.7,89.6c-1.8,0.6-3.7,0.9-5.6,0.9c-3,0-5.2-0.8-6.8-2.3c-1.6-1.6-2.5-3.8-2.4-6.1
	c0-5.6,4.1-8.7,9.5-8.7c1.6,0,3.2,0.2,4.6,0.8l-0.8,3c-1.2-0.5-2.6-0.8-3.9-0.7c-3.2,0-5.5,1.8-5.5,5.4c0,3.4,2.2,5.5,5.3,5.5
	c0.6,0,1.3-0.1,1.9-0.2v-3.5h-2.6v-3h6.2L781.7,89.6L781.7,89.6z"/>
<path d="M753.2,82.1c0,3.3,1.5,5.6,4.1,5.6s4-2.4,4-5.7c0-3-1.4-5.6-4-5.6S753.2,78.8,753.2,82.1z"/>
<path d="M958.8,57.2c-1.3-4.8-11-9.5-27.8-9.5s-26.5,4.7-27.8,9.5c-0.1,0.2-0.2,0.3-0.2,0.5v41.4c0,0.2,0,0.4,0.1,0.5
	c1.3,5.5,13.2,9.6,27.9,9.6s26.5-4.1,27.9-9.5c0.1-0.2,0.1-0.4,0.1-0.6V57.8C959,57.6,958.9,57.4,958.8,57.2z M956.7,85.8
	c0,0.1-0.1,0.3-0.1,0.4c0,0.1-0.1,0.2-0.2,0.3c-0.1,0.1-0.2,0.3-0.3,0.4l-0.2,0.3c-0.1,0.2-0.3,0.3-0.4,0.4l-0.3,0.3
	c-0.2,0.2-0.4,0.3-0.6,0.5l-0.3,0.2c-0.2,0.2-0.5,0.3-0.8,0.5l-0.2,0.1c-0.3,0.2-0.7,0.4-1.1,0.6l-0.2,0.1c-0.4,0.2-0.9,0.4-1.3,0.6
	l0,0c-3.1,1.2-6.3,2-9.6,2.4H941c-0.7,0.1-1.5,0.2-2.3,0.3h-0.4c-0.7,0.1-1.4,0.1-2.1,0.2h-1c-0.5,0-1,0.1-1.6,0.1
	c-0.9,0-1.8,0-2.7,0s-1.8,0-2.7-0.1c-0.5,0-1.1,0-1.6-0.1c-0.3,0-0.7,0-1-0.1c-0.7-0.1-1.4-0.1-2.1-0.2h-0.4
	c-0.8-0.1-1.5-0.2-2.3-0.3h-0.1c-3.3-0.4-6.5-1.3-9.6-2.4l0,0c-0.5-0.2-0.9-0.4-1.3-0.6l-0.2-0.1c-0.4-0.2-0.7-0.4-1.1-0.6l-0.2-0.1
	c-0.3-0.2-0.5-0.3-0.8-0.5l-0.3-0.2c-0.2-0.2-0.4-0.3-0.6-0.5l-0.3-0.3c-0.2-0.2-0.3-0.3-0.4-0.4l-0.2-0.3c-0.1-0.1-0.2-0.3-0.3-0.4
	c-0.1-0.1-0.1-0.2-0.2-0.3c-0.1-0.1-0.1-0.3-0.1-0.4c-0.1-0.2-0.1-0.4-0.1-0.5c0-0.1,0-0.2,0-0.4c0-0.2,0-0.3,0-0.5V76l0.1,0.1
	c0.2,0.2,0.5,0.4,0.8,0.6c4.2,3.2,12.7,5.7,24.9,5.7s20.6-2.5,24.8-5.6c0.3-0.2,0.6-0.5,0.9-0.8l0,0v8.3c0,0.2,0,0.3,0,0.5
	c0,0.1,0,0.2,0,0.4C956.7,85.4,956.7,85.6,956.7,85.8L956.7,85.8z M956.8,62.6v8.3c0,0.2,0,0.3,0,0.5c0,0.1,0,0.2,0,0.4
	c0,0.2,0,0.4-0.1,0.6c0,0.1-0.1,0.3-0.1,0.4c0,0.1-0.1,0.2-0.2,0.3c-0.1,0.1-0.2,0.3-0.3,0.4l-0.2,0.3c-0.1,0.2-0.3,0.3-0.4,0.4
	l-0.3,0.3c-0.2,0.2-0.4,0.3-0.6,0.5l-0.3,0.2c-0.2,0.2-0.5,0.3-0.8,0.5l-0.2,0.1c-0.3,0.2-0.7,0.4-1.1,0.6l-0.2,0.1
	c-0.4,0.2-0.9,0.4-1.3,0.6l0,0c-3.1,1.2-6.3,2-9.6,2.4H941c-0.7,0.1-1.5,0.2-2.3,0.3h-0.4c-0.7,0.1-1.4,0.1-2.1,0.2h-1
	c-0.5,0-1,0.1-1.6,0.1c-0.9,0-1.8,0-2.7,0s-1.8,0-2.7-0.1c-0.5,0-1.1,0-1.6-0.1c-0.3,0-0.7,0-1-0.1c-0.7,0-1.4-0.1-2.1-0.2h-0.4
	c-0.8-0.1-1.5-0.2-2.3-0.3h-0.1c-3.3-0.4-6.4-1.2-9.5-2.4l0,0c-0.5-0.2-0.9-0.4-1.3-0.6l-0.2-0.1c-0.4-0.2-0.7-0.4-1.1-0.6l-0.2-0.1
	c-0.3-0.2-0.5-0.3-0.8-0.5l-0.3-0.2c-0.2-0.2-0.4-0.3-0.6-0.5l-0.3-0.3c-0.2-0.2-0.3-0.3-0.4-0.4l-0.2-0.3c-0.1-0.1-0.2-0.3-0.3-0.4
	c-0.1-0.1-0.1-0.2-0.2-0.3c-0.1-0.1-0.1-0.3-0.1-0.4c-0.1-0.2-0.1-0.4-0.1-0.5c0-0.1,0-0.2,0-0.4c0-0.2,0-0.3,0-0.5v-8.3
	c0.1,0.1,0.3,0.2,0.4,0.4l0.2,0.2c0.3,0.3,0.7,0.5,1.1,0.8l0.2,0.1c0.3,0.2,0.7,0.4,1,0.6l0.4,0.2c0.4,0.2,0.8,0.4,1.3,0.6l0.2,0.1
	c0.5,0.2,1.1,0.4,1.7,0.6l0.5,0.2c0.5,0.2,0.9,0.3,1.4,0.4l0.5,0.2c0.7,0.2,1.3,0.3,2,0.5l0.3,0.1c0.6,0.1,1.3,0.3,2,0.4
	c0.2,0,0.5,0.1,0.7,0.1c0.6,0.1,1.3,0.2,2,0.3l0.5,0.1c0.8,0.1,1.7,0.2,2.6,0.3h0.7c0.7,0,1.4,0.1,2.2,0.1h0.8c1,0,2,0,3,0s2,0,3,0
	h0.8c0.7,0,1.5-0.1,2.2-0.1h0.7c0.9-0.1,1.8-0.2,2.6-0.3l0.5-0.1c0.7-0.1,1.3-0.2,2-0.3c0.2,0,0.5-0.1,0.7-0.1
	c0.7-0.1,1.3-0.2,2-0.4l0.3-0.1c0.7-0.2,1.4-0.3,2-0.5l0.5-0.2c0.5-0.1,1-0.3,1.4-0.4l0.5-0.2c0.6-0.2,1.1-0.4,1.7-0.6l0.2-0.1
	c0.5-0.2,0.9-0.4,1.3-0.6l0.4-0.2c0.4-0.2,0.7-0.4,1-0.6l0.2-0.2c0.4-0.3,0.8-0.5,1.1-0.8l0.2-0.2C956.5,62.8,956.6,62.7,956.8,62.6
	L956.8,62.6z M931,49.9c15.2,0,25.8,4.4,25.8,8.4s-10.6,8.4-25.8,8.4s-25.8-4.4-25.8-8.4S915.8,49.9,931,49.9z M956.8,98.9
	c0,0,0,0.1,0,0.2c-0.6,3.9-11.1,8-25.7,8s-25.1-4.1-25.7-8c0-0.1,0-0.1,0-0.1v-9.5l0.1,0.1c0.2,0.2,0.5,0.4,0.8,0.6
	c4.2,3.2,12.7,5.7,24.9,5.7s20.6-2.5,24.8-5.6c0.3-0.2,0.6-0.5,0.9-0.8l0,0L956.8,98.9z"/>
<path d="M208.9,129.4h-3.4v-1.2h8.3v1.2h-3.4v10h-1.5V129.4z"/>
<path d="M215,128.2h1.4v10h4.8v1.2H215V128.2z"/>
<path d="M222.6,137.6c0.8,0.5,1.7,0.7,2.6,0.7c1.5,0,2.3-0.8,2.3-1.9s-0.6-1.6-2.1-2.2c-1.8-0.6-2.9-1.6-2.9-3.2c0-1.7,1.4-3,3.6-3
	c0.9,0,1.7,0.2,2.5,0.5l-0.4,1.2c-0.7-0.4-1.4-0.5-2.1-0.5c-1.5,0-2.1,0.9-2.1,1.7c0,1,0.7,1.6,2.2,2.1c1.9,0.7,2.9,1.6,2.9,3.3
	s-1.3,3.2-3.9,3.2c-1,0-2-0.2-2.9-0.7L222.6,137.6z"/>
<path d="M241.7,135.3c0.2,2.2-1.4,4.1-3.6,4.3c-0.1,0-0.3,0-0.4,0c-2.1,0-3.8-1.7-3.9-3.8c0-0.1,0-0.2,0-0.3
	c-0.2-2.2,1.4-4.1,3.6-4.2c0.1,0,0.3,0,0.4,0c2.1,0,3.8,1.7,3.9,3.8C241.8,135,241.8,135.2,241.7,135.3z M235.4,135.4
	c0,1.8,1,3.1,2.4,3.1s2.4-1.3,2.4-3.1c0-1.4-0.7-3.1-2.4-3.1S235.4,133.8,235.4,135.4L235.4,135.4z"/>
<path d="M243.6,133.5c0-0.8,0-1.5-0.1-2.2h1.3l0.1,1.3l0,0c0.5-0.9,1.6-1.5,2.6-1.5c1.1,0,2.8,0.7,2.8,3.4v4.8H249v-4.6
	c0-1.3-0.5-2.4-1.9-2.4c-1.2,0-2.1,1-2.1,2.2v4.8h-1.5L243.6,133.5z"/>
<path d="M256.3,128.3c0.9-0.2,1.8-0.2,2.8-0.2c1.2-0.1,2.3,0.2,3.2,0.9c0.6,0.5,0.9,1.3,0.9,2.1c0,1.3-0.8,2.5-2.1,2.9l0,0
	c0.9,0.4,1.5,1.3,1.6,2.2c0.2,1,0.5,2.1,0.9,3.1h-1.5c-0.3-0.9-0.6-1.8-0.7-2.7c-0.3-1.5-0.9-2.1-2.2-2.2h-1.4v4.8h-1.5V128.3z
	 M257.8,133.4h1.5c1.5,0,2.5-0.8,2.5-2.1c0-1.4-1-2.1-2.6-2.1c-0.5,0-1,0-1.4,0.1V133.4z"/>
<path d="M271.1,134.1h-4.4v4h4.8v1.2h-6.3v-11.2h6v1.2h-4.6v3.5h4.4L271.1,134.1z"/>
<path d="M273.2,137.6c0.8,0.5,1.7,0.7,2.6,0.7c1.5,0,2.3-0.8,2.3-1.9s-0.6-1.6-2.1-2.2c-1.8-0.6-3-1.6-3-3.2c0-1.7,1.5-3,3.6-3
	c0.9,0,1.7,0.2,2.5,0.5l-0.4,1.2c-0.7-0.4-1.4-0.5-2.1-0.5c-1.5,0-2.1,0.9-2.1,1.7c0,1,0.7,1.6,2.2,2.1c1.9,0.7,2.9,1.6,2.9,3.3
	s-1.3,3.2-3.9,3.2c-1,0-2-0.2-2.9-0.7L273.2,137.6z"/>
<path d="M283.7,129.4h-3.4v-1.2h8.3v1.2h-3.4v10h-1.5V129.4z"/>
<path d="M216.3,159.3c-0.3-0.3-0.6-0.6-1.1-1.1c-0.9,0.8-2.1,1.3-3.3,1.3c-1.7,0.1-3.3-1.1-3.4-2.9c0-0.1,0-0.2,0-0.3
	c0-1.4,0.9-2.7,2.2-3.3l0,0c-0.6-0.7-0.9-1.5-0.9-2.3c0-1.5,1.2-2.7,2.7-2.8c0.1,0,0.1,0,0.2,0c1.3-0.1,2.4,0.9,2.5,2.2
	c0,0.1,0,0.1,0,0.2c0,1.2-0.7,2.1-2.5,3v0.1c1,1.1,2,2.3,2.7,3.1c0.6-1,1-2.1,1.1-3.3h1.3c-0.2,1.5-0.7,2.9-1.6,4.1
	c0.6,0.6,1.2,1.3,1.8,2L216.3,159.3z M214.6,157.3c-0.7-0.7-1.9-2.1-3.1-3.5c-0.8,0.5-1.4,1.3-1.4,2.3c0,1.2,0.9,2.2,2.2,2.3
	c0,0,0.1,0,0.1,0C213.1,158.4,214,158,214.6,157.3z M211.2,150.5c0,0.7,0.3,1.5,0.8,2c1.1-0.6,1.9-1.2,1.9-2.2
	c0.1-0.7-0.5-1.4-1.2-1.4c0,0-0.1,0-0.1,0c-0.8,0-1.4,0.7-1.4,1.5C211.1,150.4,211.1,150.5,211.2,150.5L211.2,150.5z"/>
<path d="M224.6,148.9v2.3h2.1v1.1h-2.1v4.3c0,1,0.3,1.6,1.1,1.6c0.3,0,0.6,0,0.9-0.1l0.1,1.1c-0.4,0.1-0.9,0.2-1.3,0.2
	c-0.6,0-1.2-0.2-1.6-0.6c-0.4-0.6-0.6-1.3-0.6-2.1v-4.4h-1.2v-1.1h1.2v-1.9L224.6,148.9z"/>
<path d="M228.3,153.7c0-1,0-1.8-0.1-2.5h1.3v1.6h0.1c0.3-1,1.2-1.7,2.2-1.8c0.1,0,0.3,0,0.4,0v1.4c-0.2,0-0.3,0-0.5,0
	c-1.1,0-1.9,0.8-2,1.9c0,0.2-0.1,0.5-0.1,0.7v4.3h-1.4L228.3,153.7z"/>
<path d="M238.1,159.3l-0.1-1h-0.1c-0.6,0.8-1.5,1.2-2.4,1.2c-1.3,0.1-2.4-0.9-2.5-2.1c0-0.1,0-0.1,0-0.2c0-1.9,1.7-3,4.8-3V154
	c0.1-0.9-0.5-1.7-1.4-1.9c-0.1,0-0.3,0-0.4,0c-0.7,0-1.5,0.2-2.1,0.6l-0.3-1c0.8-0.5,1.7-0.7,2.6-0.7c2.5,0,3.1,1.7,3.1,3.3v3
	c0,0.6,0,1.3,0.1,1.9L238.1,159.3z M237.9,155.2c-1.6,0-3.4,0.2-3.4,1.8c-0.1,0.7,0.5,1.3,1.2,1.4c0.1,0,0.1,0,0.2,0
	c0.9,0,1.7-0.5,1.9-1.4c0.1-0.1,0.1-0.3,0.1-0.5L237.9,155.2z"/>
<path d="M241.6,153.4c0-0.8,0-1.5-0.1-2.2h1.3l0.1,1.3l0,0c0.5-1,1.6-1.5,2.7-1.5c1.1,0,2.8,0.7,2.8,3.4v4.8H247v-4.6
	c0-1.3-0.5-2.4-1.9-2.4c-1.1,0.1-2,1-2,2.2v4.8h-1.5L241.6,153.4z"/>
<path d="M250.6,157.8c0.6,0.4,1.2,0.6,1.9,0.6c1.1,0,1.6-0.5,1.6-1.2s-0.4-1.1-1.5-1.5c-1.4-0.5-2.1-1.3-2.1-2.3
	c0.1-1.4,1.2-2.4,2.6-2.4c0.1,0,0.1,0,0.2,0c0.7,0,1.4,0.2,2,0.5l-0.4,1.1c-0.5-0.3-1.1-0.5-1.6-0.5c-0.9,0-1.4,0.5-1.4,1.1
	s0.5,1,1.5,1.4c1.4,0.5,2.1,1.2,2.1,2.4c0,1.4-1.1,2.4-3,2.4c-0.8,0-1.6-0.2-2.2-0.6L250.6,157.8z"/>
<path d="M257.4,153.9c0-1,0-1.9-0.1-2.6h1.3l0.1,1.4l0,0c0.6-1,1.7-1.6,2.9-1.6c1.9,0,3.4,1.6,3.4,4.1c0,2.9-1.8,4.3-3.6,4.3
	c-1,0-1.9-0.4-2.5-1.3l0,0v4.4h-1.4V153.9z M258.8,156c0,0.2,0,0.4,0.1,0.6c0.2,1,1.2,1.7,2.2,1.7c1.5,0,2.4-1.3,2.4-3.1
	c0-1.6-0.9-3-2.4-3c-1.1,0-2,0.8-2.2,1.8c-0.1,0.2-0.1,0.4-0.1,0.6V156z"/>
<path d="M274.1,155.2c0.2,2.2-1.4,4.1-3.6,4.3c-0.1,0-0.3,0-0.4,0c-2.1,0-3.8-1.7-3.9-3.8c0-0.1,0-0.2,0-0.3
	c-0.2-2.2,1.4-4.1,3.6-4.2c0.1,0,0.3,0,0.4,0c2.1,0,3.8,1.6,3.9,3.7C274.1,154.9,274.1,155,274.1,155.2z M267.7,155.3
	c0,1.8,1,3.1,2.4,3.1s2.4-1.3,2.4-3.1c0-1.4-0.7-3.1-2.4-3.1S267.7,153.7,267.7,155.3z"/>
<path d="M275.9,153.7c0-1,0-1.8-0.1-2.5h1.3l0,1.6h0.1c0.3-1,1.2-1.7,2.2-1.8c0.1,0,0.3,0,0.4,0v1.4c-0.2,0-0.3,0-0.5,0
	c-1,0-1.9,0.8-2,1.9c0,0.2-0.1,0.5-0.1,0.7v4.3h-1.4L275.9,153.7z"/>
<path d="M283.5,148.9v2.3h2.1v1.1h-2.1v4.3c0,1,0.3,1.6,1.1,1.6c0.3,0,0.6,0,0.9-0.1l0.1,1.1c-0.4,0.1-0.9,0.2-1.3,0.2
	c-0.6,0-1.2-0.2-1.6-0.6c-0.4-0.6-0.6-1.3-0.6-2.1v-4.4h-1.2v-1.1h1.2v-1.9L283.5,148.9z"/>
<path d="M367.5,136.3l-1.2,3.5h-1.5l3.8-11.2h1.8l3.8,11.2h-1.5l-1.2-3.5H367.5z M371.2,135.1l-1.1-3.2c-0.2-0.7-0.4-1.4-0.6-2l0,0
	c-0.2,0.7-0.4,1.4-0.6,2l-1.1,3.2L371.2,135.1z"/>
<path d="M382.3,137.6c0,0.8,0,1.6,0.1,2.2h-1.3l-0.1-1.3l0,0c-0.6,0.9-1.6,1.5-2.7,1.5c-1.3,0-2.8-0.7-2.8-3.5v-4.7h1.4v4.4
	c0,1.5,0.5,2.6,1.8,2.6c0.9,0,1.6-0.5,1.9-1.3c0.1-0.2,0.1-0.5,0.1-0.8v-4.9h1.5L382.3,137.6z"/>
<path d="M386.5,129.4v2.3h2.1v1.1h-2.1v4.3c0,1,0.3,1.6,1.1,1.6c0.3,0,0.6,0,0.9-0.1l0.1,1.1c-0.4,0.1-0.9,0.2-1.3,0.2
	c-0.6,0-1.2-0.2-1.6-0.6c-0.4-0.6-0.6-1.3-0.6-2.1v-4.4h-1.2v-1.1h1.2v-1.9L386.5,129.4z"/>
<path d="M390.2,128h1.5v5l0,0c0.3-0.4,0.6-0.8,1-1c0.5-0.3,1-0.4,1.5-0.4c1.1,0,2.8,0.7,2.8,3.4v4.8h-1.5v-4.6
	c0-1.3-0.5-2.4-1.9-2.4c-0.9,0-1.7,0.6-2,1.5c-0.1,0.2-0.1,0.5-0.1,0.7v4.9h-1.4V128z"/>
<path d="M400.2,136c-0.1,1.4,0.9,2.7,2.4,2.8c0.1,0,0.3,0,0.4,0c0.8,0,1.5-0.1,2.2-0.4l0.2,1c-0.8,0.3-1.8,0.5-2.7,0.5
	c-2.1,0.1-3.8-1.4-4-3.5c0-0.2,0-0.4,0-0.6c0-2.4,1.4-4.3,3.8-4.3c2.6,0,3.3,2.3,3.3,3.8c0,0.2,0,0.5,0,0.7L400.2,136z M404.5,134.9
	c0.2-1.1-0.6-2.2-1.7-2.3c-0.1,0-0.2,0-0.3,0c-1.2,0.1-2.2,1.1-2.2,2.4H404.5z"/>
<path d="M407.7,133.9c0-0.8,0-1.5-0.1-2.2h1.3l0.1,1.3l0,0c0.5-1,1.6-1.5,2.7-1.5c1.1,0,2.8,0.7,2.8,3.4v4.8H413v-4.6
	c0-1.3-0.5-2.4-1.9-2.4c-0.9,0-1.7,0.6-2,1.5c-0.1,0.2-0.1,0.4-0.1,0.7v4.8h-1.5L407.7,133.9z"/>
<path d="M418.6,129.4v2.3h2.1v1.1h-2.1v4.3c0,1,0.3,1.6,1.1,1.6c0.3,0,0.6,0,0.9-0.1l0.1,1.1c-0.4,0.1-0.9,0.2-1.3,0.2
	c-0.6,0-1.2-0.2-1.6-0.6c-0.4-0.6-0.6-1.3-0.6-2.1v-4.4h-1.2v-1.1h1.2v-1.9L418.6,129.4z"/>
<path d="M424,129.5c0,0.5-0.3,0.9-0.8,0.9c0,0-0.1,0-0.1,0c-0.5,0-0.9-0.4-0.9-0.9c0,0,0,0,0,0c0-0.5,0.4-0.9,0.9-0.9c0,0,0,0,0,0
	C423.6,128.6,424,128.9,424,129.5C424,129.4,424,129.5,424,129.5z M422.4,139.8v-8h1.5v8H422.4z"/>
<path d="M431.9,139.5c-0.7,0.3-1.5,0.5-2.3,0.5c-2.1,0.1-3.9-1.5-4-3.6c0-0.2,0-0.3,0-0.5c-0.1-2.3,1.6-4.2,3.9-4.3
	c0.1,0,0.3,0,0.4,0c0.7,0,1.4,0.1,2,0.4l-0.3,1.1c-0.5-0.3-1.1-0.4-1.7-0.4c-1.5,0-2.8,1.2-2.8,2.7c0,0.1,0,0.2,0,0.3
	c-0.1,1.5,1,2.9,2.5,3c0.1,0,0.2,0,0.3,0c0.6,0,1.2-0.1,1.8-0.4L431.9,139.5z"/>
<path d="M438.1,139.8l-0.1-1h0c-0.6,0.8-1.5,1.2-2.5,1.2c-1.3,0.1-2.4-0.9-2.5-2.1c0-0.1,0-0.1,0-0.2c0-1.9,1.7-3,4.8-3v-0.2
	c0.1-0.9-0.5-1.7-1.4-1.9c-0.1,0-0.3,0-0.4,0c-0.7,0-1.5,0.2-2.1,0.6l-0.3-1c0.8-0.5,1.7-0.7,2.6-0.7c2.5,0,3.1,1.7,3.1,3.3v3
	c0,0.6,0,1.3,0.1,1.9L438.1,139.8z M437.9,135.7c-1.6,0-3.4,0.2-3.4,1.8c-0.1,0.7,0.5,1.3,1.2,1.4c0.1,0,0.1,0,0.2,0
	c0.9,0,1.7-0.5,1.9-1.3c0.1-0.2,0.1-0.3,0.1-0.5V135.7z"/>
<path d="M443.3,129.4v2.3h2.1v1.1h-2.1v4.3c0,1,0.3,1.6,1.1,1.6c0.3,0,0.6,0,0.9-0.1l0.1,1.1c-0.4,0.1-0.9,0.2-1.3,0.2
	c-0.6,0-1.2-0.2-1.6-0.6c-0.4-0.6-0.6-1.3-0.6-2.1v-4.4h-1.2v-1.1h1.2v-1.9L443.3,129.4z"/>
<path d="M448.7,129.5c-0.1,0.5-0.5,0.9-1,0.8c-0.4,0-0.8-0.4-0.8-0.8c0-0.5,0.4-0.9,0.9-0.9c0,0,0,0,0,0
	C448.3,128.6,448.7,128.9,448.7,129.5C448.7,129.4,448.7,129.5,448.7,129.5z M447.1,139.8v-8h1.5v8H447.1z"/>
<path d="M458.2,135.7c0.2,2.2-1.4,4.1-3.6,4.2c-0.1,0-0.3,0-0.4,0c-2.1,0-3.8-1.7-3.9-3.8c0-0.1,0-0.2,0-0.4
	c-0.2-2.2,1.4-4.1,3.6-4.3c0.1,0,0.3,0,0.4,0c2.1,0,3.8,1.7,3.9,3.8C458.2,135.4,458.2,135.6,458.2,135.7z M451.8,135.8
	c0,1.8,1,3.1,2.4,3.1s2.4-1.3,2.4-3.1c0-1.4-0.7-3.1-2.4-3.1S451.8,134.2,451.8,135.8z"/>
<path d="M460,133.9c0-0.8,0-1.5-0.1-2.2h1.3l0.1,1.3l0,0c0.5-0.9,1.6-1.5,2.6-1.5c1.1,0,2.8,0.7,2.8,3.4v4.8h-1.5v-4.6
	c0-1.3-0.5-2.4-1.9-2.4c-0.9,0-1.7,0.6-2,1.5c-0.1,0.2-0.1,0.4-0.1,0.7v4.8H460V133.9z"/>
<path d="M370.5,159.7c-0.3-0.3-0.6-0.6-1-1.1c-0.9,0.8-2,1.3-3.3,1.3c-1.7,0.1-3.3-1.1-3.4-2.9c0-0.1,0-0.2,0-0.3
	c0-1.4,0.9-2.7,2.2-3.3l0,0c-0.6-0.7-0.9-1.5-0.9-2.3c0-1.5,1.2-2.7,2.7-2.8c0.1,0,0.1,0,0.2,0c1.3-0.1,2.4,0.9,2.5,2.2
	c0,0.1,0,0.1,0,0.2c0,1.2-0.7,2.1-2.5,3v0.1c0.9,1.1,2,2.3,2.7,3.1c0.6-1,1-2.1,1.1-3.3h1.3c-0.2,1.5-0.7,2.9-1.6,4.1
	c0.6,0.6,1.2,1.3,1.9,2L370.5,159.7z M368.7,157.8c-0.7-0.7-1.9-2.1-3.1-3.5c-0.8,0.5-1.4,1.3-1.5,2.3c0,1.2,0.9,2.2,2.1,2.3
	c0,0,0.1,0,0.1,0C367.3,158.8,368.1,158.4,368.7,157.8z M365.3,150.9c0,0.7,0.3,1.5,0.9,2c1.1-0.6,1.9-1.2,1.9-2.2
	c0.1-0.7-0.5-1.4-1.2-1.4c0,0-0.1,0-0.1,0c-0.8,0-1.4,0.7-1.4,1.5C365.3,150.8,365.3,150.9,365.3,150.9z"/>
<path d="M378.9,156.2l-1.2,3.5h-1.5l3.8-11.2h1.7l3.8,11.2H384l-1.2-3.5H378.9z M382.5,155l-1.1-3.2c-0.2-0.7-0.4-1.4-0.6-2l0,0
	c-0.2,0.7-0.4,1.4-0.6,2l-1.1,3.2L382.5,155z"/>
<path d="M393.7,157.5c0,0.8,0,1.6,0.1,2.2h-1.3l-0.1-1.3l0,0c-0.5,0.9-1.6,1.5-2.6,1.5c-1.3,0-2.8-0.7-2.8-3.5v-4.7h1.5v4.4
	c0,1.5,0.5,2.6,1.8,2.6c0.9,0,1.6-0.5,1.9-1.3c0.1-0.2,0.1-0.5,0.1-0.8v-4.9h1.5L393.7,157.5z"/>
<path d="M397.8,149.3v2.3h2.1v1.1h-2.1v4.3c0,1,0.3,1.6,1.1,1.6c0.3,0,0.6,0,0.8-0.1l0.1,1.1c-0.4,0.1-0.9,0.2-1.3,0.2
	c-0.6,0-1.2-0.2-1.6-0.6c-0.4-0.6-0.6-1.3-0.6-2.1v-4.4h-1.2v-1.1h1.2v-1.9L397.8,149.3z"/>
<path d="M401.6,147.9h1.4v5l0,0c0.2-0.4,0.6-0.8,1-1c0.5-0.3,1-0.4,1.5-0.4c1.1,0,2.8,0.7,2.8,3.4v4.8H407v-4.6
	c0-1.3-0.5-2.4-1.9-2.4c-0.9,0-1.7,0.6-2,1.4c-0.1,0.2-0.1,0.5-0.1,0.7v4.9h-1.5L401.6,147.9z"/>
<path d="M418,155.6c0.2,2.2-1.4,4.1-3.6,4.2c-0.1,0-0.3,0-0.4,0c-2.1,0-3.8-1.7-3.9-3.8c0-0.1,0-0.2,0-0.4c-0.2-2.2,1.4-4.1,3.6-4.3
	c0.1,0,0.3,0,0.4,0c2.1,0,3.8,1.7,3.9,3.8C418,155.4,418,155.5,418,155.6z M411.6,155.7c0,1.8,1,3.1,2.4,3.1s2.4-1.3,2.4-3.1
	c0-1.4-0.7-3.1-2.4-3.1S411.7,154.1,411.6,155.7L411.6,155.7z"/>
<path d="M419.9,154.1c0-0.9,0-1.8-0.1-2.5h1.3l0,1.6h0.1c0.3-1,1.2-1.7,2.2-1.8c0.1,0,0.3,0,0.4,0v1.4c-0.2,0-0.3,0-0.5,0
	c-1,0-1.9,0.8-2,1.9c0,0.2-0.1,0.5-0.1,0.7v4.3h-1.4L419.9,154.1z"/>
<path d="M427,149.4c-0.1,0.5-0.5,0.9-1,0.8c-0.4,0-0.8-0.4-0.8-0.8c0-0.5,0.4-0.9,0.9-0.9c0,0,0,0,0,0
	C426.6,148.5,427,148.8,427,149.4C427,149.3,427,149.4,427,149.4z M425.4,159.7v-8h1.5v8H425.4z"/>
<path d="M442.3,159.7l-0.1-1l0,0c-0.6,0.8-1.5,1.2-2.5,1.2c-1.3,0.1-2.3-0.8-2.4-2.1c0-0.1,0-0.1,0-0.2c0-1.9,1.7-3,4.8-3v-0.2
	c0.1-0.9-0.5-1.7-1.4-1.9c-0.1,0-0.3,0-0.4,0c-0.7,0-1.5,0.2-2.1,0.6l-0.3-1c0.8-0.5,1.7-0.7,2.6-0.7c2.5,0,3.1,1.7,3.1,3.3v3
	c0,0.6,0,1.3,0.1,1.9L442.3,159.7z M442.1,155.6c-1.6,0-3.4,0.2-3.4,1.8c-0.1,0.7,0.5,1.3,1.2,1.4c0.1,0,0.1,0,0.2,0
	c0.9,0,1.7-0.5,1.9-1.3c0.1-0.2,0.1-0.3,0.1-0.5V155.6z"/>
<path d="M447.5,149.3v2.3h2.1v1.1h-2.1v4.3c0,1,0.3,1.6,1.1,1.6c0.3,0,0.6,0,0.8-0.1l0.1,1.1c-0.4,0.1-0.9,0.2-1.3,0.2
	c-0.6,0-1.2-0.2-1.6-0.6c-0.4-0.6-0.6-1.3-0.6-2.1v-4.4h-1.2v-1.1h1.2v-1.9L447.5,149.3z"/>
<path d="M452.9,149.4c-0.1,0.5-0.5,0.9-1,0.8c-0.4,0-0.8-0.4-0.8-0.8c0-0.5,0.4-0.9,0.9-0.9c0,0,0,0,0,0
	C452.4,148.5,452.8,148.8,452.9,149.4C452.9,149.3,452.9,149.4,452.9,149.4z M451.2,159.7v-8h1.5v8H451.2z"/>
<path d="M462.4,155.6c0.2,2.2-1.4,4.1-3.6,4.2c-0.1,0-0.3,0-0.4,0c-2.1,0-3.8-1.7-3.9-3.8c0-0.1,0-0.2,0-0.4
	c-0.2-2.2,1.4-4.1,3.6-4.3c0.1,0,0.3,0,0.4,0c2.1,0,3.8,1.7,3.9,3.8C462.4,155.3,462.4,155.5,462.4,155.6z M456,155.7
	c0,1.8,1,3.1,2.4,3.1s2.4-1.3,2.4-3.1c0-1.4-0.7-3.1-2.4-3.1S456,154.1,456,155.7L456,155.7z"/>
<path d="M464.2,153.8c0-0.8,0-1.5-0.1-2.2h1.3l0.1,1.3l0,0c0.5-1,1.6-1.5,2.7-1.5c1.1,0,2.8,0.7,2.8,3.4v4.8h-1.5v-4.6
	c0-1.3-0.5-2.4-1.9-2.4c-0.9,0-1.7,0.6-2,1.5c-0.1,0.2-0.1,0.4-0.1,0.7v4.8h-1.5L464.2,153.8z"/>
<path d="M552.1,128.7c0.9-0.2,1.8-0.2,2.8-0.2c1.2-0.1,2.3,0.2,3.2,0.9c0.6,0.6,0.9,1.3,0.9,2.1c0,1.3-0.8,2.5-2.1,2.9l0,0
	c0.9,0.4,1.5,1.3,1.6,2.3c0.2,1,0.5,2.1,0.9,3.1h-1.5c-0.3-0.9-0.6-1.8-0.8-2.7c-0.3-1.6-0.9-2.1-2.2-2.2h-1.4v4.9h-1.4L552.1,128.7
	z M553.5,133.8h1.5c1.5,0,2.5-0.9,2.5-2.1c0-1.4-1-2.1-2.6-2.1c-0.5,0-1,0-1.4,0.1L553.5,133.8z"/>
<path d="M568.3,135.7c0.2,2.2-1.4,4.1-3.6,4.2c-0.1,0-0.3,0-0.4,0c-2.1,0-3.8-1.7-3.9-3.8c0-0.1,0-0.2,0-0.4
	c-0.2-2.2,1.4-4.1,3.6-4.3c0.1,0,0.3,0,0.4,0c2.1,0,3.8,1.7,3.9,3.8C568.3,135.4,568.3,135.6,568.3,135.7z M561.9,135.8
	c0,1.8,1,3.1,2.4,3.1s2.4-1.3,2.4-3.1c0-1.4-0.7-3.1-2.4-3.1S561.9,134.2,561.9,135.8z"/>
<path d="M570.1,128h1.5v11.8h-1.5V128z"/>
<path d="M574.8,136c-0.1,1.4,0.9,2.7,2.3,2.8c0.1,0,0.3,0,0.4,0c0.8,0,1.5-0.1,2.2-0.4l0.2,1c-0.8,0.3-1.8,0.5-2.7,0.5
	c-2.1,0.1-3.8-1.4-4-3.5c0-0.2,0-0.4,0-0.6c0-2.4,1.4-4.3,3.8-4.3c2.6,0,3.3,2.3,3.3,3.8c0,0.2,0,0.5,0,0.7L574.8,136z M579.1,134.9
	c0.2-1.1-0.6-2.2-1.8-2.4c-0.1,0-0.2,0-0.2,0c-1.2,0.1-2.2,1.1-2.2,2.4H579.1z"/>
<path d="M586.2,134.8v1.1h-4.1v-1.1H586.2z"/>
<path d="M587.8,139.8c0-0.6,0.1-1.4,0.1-2.1V128h1.4v5l0,0c0.6-1,1.6-1.5,2.7-1.5c2,0,3.4,1.7,3.4,4.1c0,2.9-1.8,4.3-3.6,4.3
	c-1.1,0.1-2.2-0.5-2.7-1.5h0l-0.1,1.3L587.8,139.8z M589.3,136.6c0,0.2,0,0.4,0.1,0.5c0.3,1,1.2,1.7,2.2,1.7c1.5,0,2.4-1.2,2.4-3.1
	c0-1.6-0.8-3-2.4-3c-1.1,0-2,0.8-2.2,1.8c0,0.2-0.1,0.4-0.1,0.6V136.6z"/>
<path d="M601.8,139.8l-0.1-1l0,0c-0.6,0.8-1.5,1.2-2.5,1.2c-1.3,0.1-2.4-0.9-2.5-2.1c0-0.1,0-0.1,0-0.2c0-1.9,1.7-3,4.8-3v-0.2
	c0.1-0.9-0.5-1.7-1.4-1.9c-0.1,0-0.3,0-0.4,0c-0.7,0-1.5,0.2-2.1,0.6l-0.3-1c0.8-0.5,1.7-0.7,2.6-0.7c2.5,0,3,1.7,3,3.3v3
	c0,0.6,0,1.3,0.1,1.9L601.8,139.8z M601.6,135.7c-1.6,0-3.4,0.2-3.4,1.8c-0.1,0.7,0.5,1.3,1.2,1.4c0.1,0,0.1,0,0.2,0
	c0.9,0,1.7-0.5,1.9-1.3c0.1-0.2,0.1-0.3,0.1-0.5V135.7z"/>
<path d="M605.1,138.3c0.6,0.4,1.2,0.6,1.9,0.6c1.1,0,1.6-0.5,1.6-1.2s-0.4-1.1-1.5-1.5c-1.5-0.5-2.1-1.3-2.1-2.3
	c0.1-1.4,1.2-2.4,2.6-2.4c0.1,0,0.1,0,0.2,0c0.7,0,1.4,0.2,2,0.5l-0.4,1.1c-0.5-0.3-1.1-0.5-1.7-0.5c-0.9,0-1.3,0.5-1.3,1.1
	s0.5,1,1.5,1.4c1.4,0.5,2.1,1.2,2.1,2.4c0,1.4-1.1,2.4-3,2.4c-0.8,0-1.6-0.2-2.3-0.5L605.1,138.3z"/>
<path d="M612.7,136c-0.1,1.4,0.9,2.7,2.3,2.8c0.1,0,0.3,0,0.4,0c0.8,0,1.5-0.1,2.2-0.4l0.2,1c-0.8,0.3-1.8,0.5-2.7,0.5
	c-2.1,0.2-3.8-1.4-4-3.4c0-0.2,0-0.4,0-0.6c0-2.4,1.4-4.3,3.8-4.3c2.6,0,3.3,2.3,3.3,3.8c0,0.3,0,0.5,0,0.7L612.7,136z M617,135
	c0.2-1.1-0.6-2.2-1.8-2.4c-0.1,0-0.2,0-0.2,0c-1.2,0.1-2.2,1.1-2.2,2.4H617z"/>
<path d="M627.1,128v9.7c0,0.7,0,1.5,0.1,2.1h-1.3l-0.1-1.4l0,0c-0.5,1-1.6,1.6-2.7,1.6c-2,0-3.4-1.6-3.4-4.1c0-2.7,1.6-4.3,3.6-4.3
	c1-0.1,1.9,0.4,2.4,1.2l0,0V128H627.1z M625.7,135c0-0.2,0-0.4-0.1-0.6c-0.2-1-1.1-1.7-2.1-1.7c-1.5,0-2.4,1.3-2.4,3.1s0.8,3,2.4,3
	c1.1,0,1.9-0.8,2.1-1.8c0-0.2,0.1-0.4,0.1-0.6V135z"/>
<path d="M532.2,149.4c0,0.5-0.3,0.9-0.8,0.9c0,0-0.1,0-0.1,0c-0.5,0-0.9-0.4-0.9-0.9c0,0,0,0,0,0c0-0.5,0.4-0.9,0.9-0.9
	c0,0,0,0,0.1,0C531.8,148.5,532.1,148.8,532.2,149.4C532.2,149.3,532.2,149.4,532.2,149.4z M530.5,159.7v-8h1.5v8H530.5z"/>
<path d="M534.4,153.8c0-0.8,0-1.5-0.1-2.2h1.3l0.1,1.3l0,0c0.5-0.9,1.6-1.5,2.7-1.5c1.1,0,2.8,0.7,2.8,3.4v4.8h-1.5v-4.6
	c0-1.3-0.5-2.4-1.9-2.4c-0.9,0-1.7,0.6-2,1.5c-0.1,0.2-0.1,0.4-0.1,0.7v4.8h-1.5L534.4,153.8z"/>
<path d="M550.6,147.9v9.7c0,0.7,0,1.5,0.1,2.1h-1.3l-0.1-1.4l0,0c-0.5,1-1.6,1.6-2.7,1.6c-1.9,0-3.4-1.6-3.4-4.1
	c0-2.7,1.6-4.3,3.6-4.3c1-0.1,1.9,0.4,2.4,1.2l0,0v-4.8H550.6z M549.1,154.9c0-0.2,0-0.4-0.1-0.6c-0.2-1-1.1-1.7-2.1-1.7
	c-1.5,0-2.4,1.3-2.4,3.1s0.8,3,2.4,3c1,0,1.9-0.7,2.1-1.7c0-0.2,0.1-0.4,0.1-0.6V154.9z"/>
<path d="M553.8,155.9c-0.1,1.4,0.9,2.7,2.3,2.8c0.1,0,0.3,0,0.4,0c0.8,0,1.5-0.1,2.2-0.4l0.2,1c-0.8,0.4-1.8,0.5-2.7,0.5
	c-2.1,0.2-3.8-1.4-4-3.4c0-0.2,0-0.4,0-0.6c0-2.4,1.4-4.3,3.8-4.3c2.6,0,3.3,2.3,3.3,3.8c0,0.3,0,0.5,0,0.7L553.8,155.9z
	 M558.1,154.9c0.2-1.1-0.6-2.2-1.8-2.4c-0.1,0-0.1,0-0.2,0c-1.2,0.1-2.2,1.1-2.2,2.4H558.1z"/>
<path d="M561.9,151.6l1.2,1.7c0.3,0.4,0.5,0.9,0.8,1.3l0,0c0.3-0.5,0.5-0.9,0.8-1.3l1.1-1.7h1.6l-2.7,3.9l2.8,4.1h-1.7l-1.2-1.8
	c-0.3-0.5-0.6-0.9-0.9-1.4l0,0c-0.3,0.5-0.5,0.9-0.8,1.4l-1.2,1.8h-1.6l2.9-4.1l-2.7-3.9L561.9,151.6z"/>
<path d="M568,161.7c0.5-1.3,0.8-2.6,1-4l1.6-0.2c-0.4,1.4-0.9,2.7-1.6,4L568,161.7z"/>
<path d="M582.8,147.9v9.7c0,0.7,0,1.5,0.1,2.1h-1.3l-0.1-1.4l0,0c-0.5,1-1.6,1.6-2.7,1.6c-1.9,0-3.4-1.6-3.4-4.1
	c0-2.7,1.6-4.3,3.6-4.3c1-0.1,1.9,0.4,2.4,1.2l0,0v-4.8H582.8z M581.3,154.9c0-0.2,0-0.4-0.1-0.6c-0.2-1-1.1-1.7-2.1-1.7
	c-1.5,0-2.4,1.3-2.4,3.1s0.8,3,2.4,3c1,0,1.9-0.7,2.1-1.7c0-0.2,0.1-0.4,0.1-0.6L581.3,154.9z"/>
<path d="M592.5,155.6c0.2,2.2-1.4,4.1-3.6,4.2c-0.1,0-0.3,0-0.4,0c-2.1,0-3.8-1.7-3.9-3.8c0-0.1,0-0.2,0-0.4
	c-0.2-2.2,1.4-4.1,3.6-4.3c0.1,0,0.3,0,0.4,0c2.1,0,3.8,1.7,3.9,3.8C592.5,155.3,592.5,155.5,592.5,155.6z M586.1,155.7
	c0,1.8,1,3.1,2.4,3.1s2.4-1.3,2.4-3.1c0-1.4-0.7-3.1-2.4-3.1S586.1,154.1,586.1,155.7L586.1,155.7z"/>
<path d="M600,159.4c-0.7,0.3-1.5,0.5-2.3,0.5c-2.1,0.1-3.9-1.5-4-3.6c0-0.2,0-0.3,0-0.5c-0.1-2.3,1.6-4.2,3.9-4.3c0.1,0,0.3,0,0.4,0
	c0.7,0,1.4,0.1,2,0.4l-0.3,1.1c-0.5-0.3-1.1-0.4-1.7-0.4c-1.5,0-2.8,1.2-2.8,2.7c0,0.1,0,0.2,0,0.3c-0.1,1.5,1,2.9,2.5,3
	c0.1,0,0.2,0,0.3,0c0.6,0,1.2-0.1,1.8-0.4L600,159.4z"/>
<path d="M608.5,157.5c0,0.8,0,1.6,0.1,2.2h-1.3l-0.1-1.3l0,0c-0.5,0.9-1.6,1.5-2.7,1.5c-1.3,0-2.8-0.7-2.8-3.5v-4.7h1.5v4.4
	c0,1.5,0.5,2.6,1.8,2.6c0.8,0,1.6-0.5,1.9-1.3c0.1-0.2,0.1-0.5,0.1-0.8v-4.9h1.5L608.5,157.5z"/>
<path d="M610.9,153.8c0-0.8,0-1.5-0.1-2.2h1.3l0.1,1.3h0c0.5-0.9,1.5-1.5,2.5-1.5c1,0,1.9,0.6,2.3,1.6l0,0c0.2-0.4,0.5-0.7,0.9-1
	c0.5-0.4,1.1-0.6,1.8-0.6c1.1,0,2.6,0.7,2.6,3.5v4.7h-1.4v-4.6c0-1.5-0.6-2.5-1.7-2.5c-0.8,0-1.5,0.6-1.7,1.3
	c-0.1,0.2-0.1,0.5-0.1,0.7v5h-1.4v-4.8c0-1.3-0.6-2.2-1.7-2.2c-0.9,0-1.6,0.6-1.8,1.5c-0.1,0.2-0.1,0.5-0.1,0.7v4.9h-1.4
	L610.9,153.8z"/>
<path d="M625.5,155.9c-0.1,1.4,0.9,2.7,2.4,2.8c0.1,0,0.3,0,0.4,0c0.8,0,1.5-0.1,2.2-0.4l0.2,1c-0.8,0.4-1.8,0.5-2.7,0.5
	c-2.1,0.2-3.8-1.4-4-3.4c0-0.2,0-0.4,0-0.6c0-2.4,1.4-4.3,3.8-4.3c2.6,0,3.3,2.3,3.3,3.8c0,0.3,0,0.5,0,0.7L625.5,155.9z
	 M629.8,154.9c0.2-1.1-0.6-2.2-1.8-2.4c-0.1,0-0.1,0-0.2,0c-1.2,0.1-2.2,1.1-2.2,2.4H629.8z"/>
<path d="M633,153.8c0-0.8,0-1.5-0.1-2.2h1.3l0.1,1.3l0,0c0.5-1,1.6-1.5,2.7-1.5c1.1,0,2.8,0.7,2.8,3.4v4.8h-1.4v-4.6
	c0-1.3-0.5-2.4-1.9-2.4c-0.9,0-1.7,0.6-2,1.5c-0.1,0.2-0.1,0.4-0.1,0.7v4.8H633V153.8z"/>
<path d="M643.9,149.3v2.3h2.1v1.1h-2.1v4.3c0,1,0.3,1.6,1.1,1.6c0.3,0,0.6,0,0.8-0.1l0.1,1.1c-0.4,0.1-0.9,0.2-1.3,0.2
	c-0.6,0-1.2-0.2-1.6-0.6c-0.4-0.6-0.6-1.3-0.6-2.1v-4.4h-1.2v-1.1h1.2v-1.9L643.9,149.3z"/>
<path d="M646.7,161.7c0.5-1.3,0.8-2.6,1-4l1.6-0.2c-0.4,1.4-0.9,2.7-1.6,4L646.7,161.7z"/>
<path d="M557.3,179.6c-0.3-0.3-0.6-0.6-1-1.1c-0.9,0.8-2.1,1.3-3.3,1.3c-1.7,0.1-3.3-1.1-3.4-2.9c0-0.1,0-0.2,0-0.3
	c0-1.4,0.9-2.7,2.2-3.3l0,0c-0.6-0.7-0.9-1.5-0.9-2.3c0-1.5,1.1-2.7,2.6-2.8c0.1,0,0.1,0,0.2,0c1.3-0.1,2.4,0.9,2.5,2.2
	c0,0.1,0,0.1,0,0.2c0,1.2-0.7,2.1-2.5,3v0.1c0.9,1.1,2,2.3,2.7,3.1c0.6-1,1-2.1,1.1-3.3h1.3c-0.2,1.5-0.7,2.9-1.6,4.1l1.8,2
	L557.3,179.6z M555.5,177.7c-0.7-0.7-1.9-2.1-3.2-3.5c-0.8,0.5-1.4,1.3-1.4,2.3c0,1.2,0.9,2.2,2.1,2.3c0,0,0.1,0,0.1,0
	C554.1,178.7,554.9,178.3,555.5,177.7L555.5,177.7z M552.1,170.8c0,0.7,0.3,1.5,0.8,2c1.1-0.6,1.9-1.2,1.9-2.2
	c0.1-0.7-0.5-1.4-1.2-1.4c0,0-0.1,0-0.1,0c-0.8,0-1.4,0.7-1.4,1.5C552.1,170.7,552.1,170.8,552.1,170.8z"/>
<path d="M563.9,179.6v-6.9h-1.1v-1.1h1.1v-0.4c-0.2-1.8,1.1-3.3,2.9-3.5c0.2,0,0.4,0,0.6,0c0.7,0,1.4,0.2,2,0.5l-0.4,1.1
	c-0.5-0.3-1.1-0.5-1.7-0.5c-1.5,0-2,1.1-2,2.4v0.4h4.7v8h-1.5v-6.9h-3.2v6.9L563.9,179.6z"/>
<path d="M573.2,175.8c-0.1,1.4,0.9,2.7,2.3,2.8c0.1,0,0.3,0,0.4,0c0.8,0,1.5-0.1,2.2-0.4l0.2,1c-0.8,0.4-1.8,0.5-2.7,0.5
	c-2.1,0.1-3.8-1.4-4-3.5c0-0.2,0-0.4,0-0.6c0-2.4,1.4-4.3,3.8-4.3c2.6,0,3.3,2.3,3.3,3.8c0,0.3,0,0.5,0,0.7L573.2,175.8z
	 M577.5,174.8c0.2-1.1-0.6-2.2-1.8-2.4c-0.1,0-0.2,0-0.2,0c-1.2,0.1-2.2,1.1-2.2,2.4H577.5z"/>
<path d="M580.7,167.8h1.5v11.8h-1.5V167.8z"/>
<path d="M591.6,167.8v9.7c0,0.7,0,1.5,0.1,2.1h-1.3l-0.1-1.4l0,0c-0.5,1-1.6,1.6-2.7,1.6c-1.9,0-3.4-1.6-3.4-4.1
	c0-2.7,1.7-4.3,3.6-4.3c1-0.1,1.9,0.4,2.4,1.2l0,0v-4.8H591.6z M590.1,174.8c0-0.2,0-0.4-0.1-0.6c-0.2-1-1.1-1.7-2.1-1.7
	c-1.5,0-2.4,1.3-2.4,3.1s0.8,3,2.4,3c1,0,1.9-0.7,2.1-1.7c0-0.2,0.1-0.4,0.1-0.6L590.1,174.8z"/>
<path d="M597.4,174.6v1.1h-4.1v-1.1H597.4z"/>
<path d="M599.1,167.8h1.5v11.8h-1.5V167.8z"/>
<path d="M603.8,175.8c-0.1,1.4,0.9,2.7,2.4,2.8c0.1,0,0.3,0,0.4,0c0.8,0,1.5-0.1,2.2-0.4l0.2,1c-0.8,0.4-1.8,0.5-2.7,0.5
	c-2.1,0.2-3.8-1.4-4-3.4c0-0.2,0-0.4,0-0.6c0-2.4,1.4-4.3,3.8-4.3c2.6,0,3.3,2.3,3.3,3.8c0,0.3,0,0.5,0,0.7L603.8,175.8z
	 M608.1,174.8c0.2-1.1-0.6-2.2-1.7-2.3c-0.1,0-0.2,0-0.3,0c-1.2,0.1-2.2,1.1-2.2,2.4H608.1z"/>
<path d="M611.9,171.6l1.6,4.5c0.3,0.7,0.5,1.4,0.7,2.1l0,0c0.2-0.7,0.4-1.3,0.7-2.1l1.6-4.5h1.5l-3.2,8h-1.4l-3.1-8H611.9z"/>
<path d="M619.9,175.8c-0.1,1.4,0.9,2.7,2.4,2.8c0.1,0,0.3,0,0.4,0c0.8,0,1.5-0.1,2.2-0.4l0.2,1c-0.8,0.4-1.8,0.5-2.7,0.5
	c-2.1,0.2-3.8-1.4-4-3.4c0-0.2,0-0.4,0-0.6c0-2.4,1.4-4.3,3.8-4.3c2.6,0,3.3,2.3,3.3,3.8c0,0.3,0,0.5,0,0.7L619.9,175.8z
	 M624.2,174.8c0.2-1.1-0.6-2.2-1.7-2.3c-0.1,0-0.2,0-0.3,0c-1.2,0.1-2.2,1.1-2.2,2.4H624.2z"/>
<path d="M627.4,167.8h1.5v11.8h-1.5V167.8z"/>
<path d="M548.5,199.5l-0.1-1l0,0c-0.6,0.8-1.5,1.2-2.5,1.2c-1.3,0.1-2.4-0.9-2.4-2.1c0-0.1,0-0.1,0-0.2c0-1.9,1.7-3,4.8-3v-0.2
	c0.1-0.9-0.5-1.7-1.4-1.9c-0.1,0-0.3,0-0.4,0c-0.7,0-1.5,0.2-2.1,0.6l-0.3-1c0.8-0.5,1.7-0.7,2.6-0.7c2.5,0,3,1.7,3,3.3v3
	c0,0.6,0,1.3,0.1,1.9L548.5,199.5z M548.3,195.4c-1.6,0-3.4,0.2-3.4,1.8c-0.1,0.7,0.5,1.3,1.2,1.4c0.1,0,0.1,0,0.2,0
	c0.9,0,1.7-0.5,1.9-1.3c0.1-0.2,0.1-0.3,0.1-0.5V195.4z"/>
<path d="M557.8,199.2c-0.7,0.3-1.5,0.5-2.3,0.5c-2.1,0.1-3.9-1.5-4-3.6c0-0.2,0-0.3,0-0.5c-0.1-2.3,1.6-4.2,3.9-4.3
	c0.1,0,0.3,0,0.4,0c0.7,0,1.4,0.1,2,0.4l-0.3,1.1c-0.5-0.3-1.1-0.4-1.7-0.4c-1.5,0-2.8,1.2-2.8,2.7c0,0.1,0,0.2,0,0.3
	c-0.1,1.5,1,2.9,2.5,3c0.1,0,0.2,0,0.3,0c0.6,0,1.2-0.1,1.8-0.4L557.8,199.2z"/>
<path d="M565.1,199.2c-0.7,0.3-1.5,0.5-2.3,0.5c-2.1,0.1-3.9-1.5-4-3.6c0-0.2,0-0.3,0-0.5c-0.1-2.3,1.6-4.2,3.9-4.3
	c0.1,0,0.3,0,0.4,0c0.7,0,1.4,0.1,2,0.4l-0.3,1.1c-0.5-0.3-1.1-0.4-1.7-0.4c-1.5,0-2.8,1.2-2.8,2.7c0,0.1,0,0.2,0,0.3
	c-0.1,1.5,1,2.9,2.5,3c0.1,0,0.2,0,0.3,0c0.6,0,1.2-0.1,1.8-0.4L565.1,199.2z"/>
<path d="M567.5,195.7c-0.1,1.4,0.9,2.7,2.4,2.8c0.1,0,0.3,0,0.4,0c0.8,0,1.5-0.1,2.2-0.4l0.2,1.1c-0.8,0.3-1.8,0.5-2.7,0.5
	c-2.1,0.2-3.8-1.4-4-3.4c0-0.2,0-0.4,0-0.6c0-2.4,1.4-4.3,3.8-4.3c2.6,0,3.3,2.3,3.3,3.8c0,0.2,0,0.5,0,0.7L567.5,195.7z
	 M571.8,194.7c0.2-1.1-0.6-2.2-1.7-2.3c-0.1,0-0.2,0-0.3,0c-1.2,0.1-2.2,1.1-2.2,2.4H571.8z"/>
<path d="M574.8,198c0.6,0.4,1.2,0.6,1.9,0.6c1.1,0,1.6-0.5,1.6-1.2s-0.4-1.1-1.5-1.5c-1.4-0.5-2.1-1.3-2.1-2.3
	c0.1-1.4,1.2-2.4,2.6-2.4c0.1,0,0.1,0,0.2,0c0.7,0,1.4,0.2,2,0.5l-0.4,1.1c-0.5-0.3-1.1-0.5-1.7-0.5c-0.9,0-1.3,0.5-1.3,1.1
	s0.5,1,1.5,1.4c1.4,0.5,2.1,1.2,2.1,2.4c0,1.4-1.1,2.4-3,2.4c-0.8,0-1.6-0.2-2.3-0.5L574.8,198z"/>
<path d="M581.4,198c0.6,0.4,1.2,0.6,1.9,0.6c1.1,0,1.6-0.5,1.6-1.2s-0.4-1.1-1.5-1.5c-1.5-0.5-2.1-1.3-2.1-2.3
	c0.1-1.4,1.2-2.4,2.6-2.4c0.1,0,0.1,0,0.2,0c0.7,0,1.4,0.2,2,0.5l-0.4,1.1c-0.5-0.3-1.1-0.5-1.6-0.5c-0.9,0-1.3,0.5-1.3,1.1
	s0.5,1,1.5,1.4c1.4,0.5,2.1,1.2,2.1,2.4c0,1.4-1.1,2.4-3,2.4c-0.8,0-1.6-0.2-2.3-0.5L581.4,198z"/>
<path d="M597.4,199.2c-0.7,0.3-1.5,0.5-2.3,0.5c-2.1,0.1-3.9-1.5-4-3.6c0-0.2,0-0.3,0-0.5c-0.1-2.3,1.6-4.2,3.9-4.3
	c0.1,0,0.3,0,0.4,0c0.7,0,1.4,0.1,2,0.4l-0.3,1.1c-0.5-0.3-1.1-0.4-1.7-0.4c-1.5,0-2.8,1.2-2.8,2.7c0,0.1,0,0.2,0,0.3
	c-0.1,1.5,1,2.9,2.5,3c0.1,0,0.2,0,0.3,0c0.6,0,1.2-0.1,1.8-0.4L597.4,199.2z"/>
<path d="M606.3,195.4c0.2,2.2-1.4,4.1-3.6,4.2c-0.1,0-0.3,0-0.4,0c-2.1,0-3.8-1.7-3.9-3.8c0-0.1,0-0.2,0-0.4
	c-0.2-2.2,1.4-4.1,3.6-4.3c0.1,0,0.3,0,0.4,0c2.1,0,3.8,1.6,3.9,3.7C606.3,195.1,606.3,195.3,606.3,195.4z M599.9,195.5
	c0,1.8,1,3.1,2.4,3.1s2.4-1.3,2.4-3.1c0-1.4-0.7-3.1-2.4-3.1S599.9,194,599.9,195.5z"/>
<path d="M608.1,193.6c0-0.8,0-1.5-0.1-2.2h1.3l0.1,1.3l0,0c0.5-1,1.6-1.5,2.7-1.5c1.1,0,2.8,0.7,2.8,3.4v4.8h-1.5v-4.6
	c0-1.3-0.5-2.4-1.9-2.4c-0.9,0-1.7,0.6-2,1.5c-0.1,0.2-0.1,0.4-0.1,0.7v4.8H608L608.1,193.6z"/>
<path d="M619,189.1v2.3h2.1v1.1H619v4.3c0,1,0.3,1.6,1.1,1.6c0.3,0,0.6,0,0.8-0.1l0.1,1.1c-0.4,0.1-0.9,0.2-1.3,0.2
	c-0.6,0-1.2-0.2-1.6-0.6c-0.4-0.6-0.6-1.3-0.6-2.1v-4.4h-1.2v-1.1h1.2v-1.9L619,189.1z"/>
<path d="M622.7,194c0-0.9,0-1.8-0.1-2.5h1.3v1.6h0.1c0.3-1,1.2-1.7,2.2-1.8c0.1,0,0.3,0,0.4,0.1v1.4c-0.2,0-0.3-0.1-0.5-0.1
	c-1,0-1.9,0.8-2,1.9c0,0.2-0.1,0.5-0.1,0.7v4.3h-1.4L622.7,194z"/>
<path d="M635.3,195.4c0.2,2.2-1.4,4.1-3.6,4.2c-0.1,0-0.3,0-0.4,0c-2.1,0-3.8-1.7-3.9-3.8c0-0.1,0-0.2,0-0.4
	c-0.2-2.2,1.4-4.1,3.6-4.3c0.1,0,0.3,0,0.4,0c2.1,0,3.8,1.7,3.9,3.8C635.3,195.1,635.3,195.3,635.3,195.4z M628.9,195.5
	c0,1.8,1,3.1,2.4,3.1s2.4-1.3,2.4-3.1c0-1.4-0.7-3.1-2.4-3.1S628.9,194,628.9,195.5z"/>
<path d="M637.1,187.7h1.5v11.8h-1.5V187.7z"/>
<path d="M745.3,136.3l-1.2,3.5h-1.5l3.8-11.2h1.7l3.8,11.2h-1.5l-1.2-3.5H745.3z M748.9,135.1l-1.1-3.2c-0.2-0.7-0.4-1.4-0.6-2l0,0
	c-0.2,0.7-0.3,1.4-0.6,2l-1.1,3.2L748.9,135.1z"/>
<path d="M760.1,137.6c0,0.8,0,1.6,0.1,2.2h-1.3l-0.1-1.3l0,0c-0.5,1-1.6,1.6-2.7,1.5c-1.3,0-2.8-0.7-2.8-3.5v-4.7h1.5v4.4
	c0,1.5,0.5,2.6,1.8,2.6c0.9,0,1.6-0.5,1.9-1.3c0.1-0.2,0.1-0.5,0.1-0.8v-4.9h1.5V137.6z"/>
<path d="M769.5,128v9.7c0,0.7,0,1.5,0.1,2.1h-1.3l-0.1-1.4l0,0c-0.5,1-1.6,1.6-2.7,1.6c-1.9,0-3.4-1.6-3.4-4.1
	c0-2.7,1.7-4.3,3.6-4.3c1-0.1,1.9,0.4,2.4,1.2l0,0V128H769.5z M768,135c0-0.2,0-0.4-0.1-0.6c-0.2-1-1.1-1.7-2.1-1.7
	c-1.5,0-2.4,1.3-2.4,3.1s0.8,3,2.4,3c1,0,1.9-0.7,2.1-1.7c0-0.2,0.1-0.4,0.1-0.6L768,135z"/>
<path d="M773.5,129.5c-0.1,0.5-0.5,0.9-1,0.8c-0.4,0-0.8-0.4-0.8-0.8c0-0.5,0.4-0.9,0.9-0.9c0,0,0,0,0,0
	C773.1,128.6,773.5,128.9,773.5,129.5C773.5,129.4,773.5,129.5,773.5,129.5z M771.9,139.8v-8h1.5v8H771.9z"/>
<path d="M777.5,129.4v2.3h2.1v1.1h-2.1v4.3c0,1,0.3,1.6,1.1,1.6c0.3,0,0.6,0,0.8-0.1l0.1,1.1c-0.4,0.1-0.9,0.2-1.3,0.2
	c-0.6,0-1.2-0.2-1.6-0.6c-0.4-0.6-0.6-1.3-0.6-2.1v-4.4h-1.2v-1.1h1.2v-1.9L777.5,129.4z"/>
<path d="M722.5,159.7c-0.3-0.3-0.6-0.6-1-1.1c-0.9,0.8-2.1,1.3-3.3,1.3c-1.7,0.1-3.3-1.1-3.4-2.9c0-0.1,0-0.2,0-0.3
	c0-1.4,0.9-2.7,2.2-3.3l0,0c-0.6-0.7-0.9-1.5-0.9-2.3c0-1.5,1.2-2.7,2.7-2.8c0.1,0,0.1,0,0.2,0c1.3-0.1,2.4,0.9,2.5,2.2
	c0,0.1,0,0.1,0,0.2c0,1.2-0.7,2.1-2.5,3v0.1c1,1.1,2,2.3,2.7,3.1c0.6-1,1-2.1,1.1-3.3h1.3c-0.2,1.5-0.7,2.9-1.6,4.1
	c0.6,0.6,1.2,1.3,1.8,2L722.5,159.7z M720.7,157.8c-0.7-0.7-1.9-2.1-3.2-3.5c-0.8,0.5-1.4,1.3-1.5,2.3c0,1.2,0.9,2.2,2.1,2.3
	c0,0,0.1,0,0.1,0C719.3,158.8,720.1,158.4,720.7,157.8z M717.3,150.9c0,0.7,0.3,1.5,0.8,2c1.1-0.6,1.9-1.2,1.9-2.2
	c0.1-0.7-0.5-1.4-1.2-1.4c0,0-0.1,0-0.1,0c-0.8,0-1.4,0.7-1.4,1.5C717.3,150.8,717.3,150.9,717.3,150.9z"/>
<path d="M734.7,159.4c-0.7,0.3-1.5,0.5-2.3,0.5c-2.1,0.1-3.9-1.5-4-3.6c0-0.2,0-0.3,0-0.5c-0.1-2.3,1.6-4.2,3.9-4.3
	c0.1,0,0.3,0,0.4,0c0.7,0,1.4,0.1,2,0.4l-0.3,1.1c-0.5-0.3-1.1-0.4-1.7-0.4c-1.5,0-2.8,1.2-2.8,2.7c0,0.1,0,0.2,0,0.3
	c-0.1,1.5,1,2.9,2.5,3c0.1,0,0.2,0,0.3,0c0.6,0,1.2-0.1,1.8-0.4L734.7,159.4z"/>
<path d="M743.5,155.6c0.2,2.2-1.4,4.1-3.6,4.2c-0.1,0-0.3,0-0.4,0c-2.1,0-3.8-1.7-3.9-3.8c0-0.1,0-0.2,0-0.4
	c-0.2-2.2,1.4-4.1,3.6-4.3c0.1,0,0.3,0,0.4,0c2.1,0,3.8,1.7,3.9,3.8C743.6,155.3,743.6,155.5,743.5,155.6z M737.2,155.7
	c0,1.8,1,3.1,2.4,3.1s2.4-1.3,2.4-3.1c0-1.4-0.7-3.1-2.4-3.1S737.2,154.1,737.2,155.7L737.2,155.7z"/>
<path d="M745.4,153.8c0-0.8,0-1.5-0.1-2.2h1.3l0.1,1.3h0.1c0.5-0.9,1.5-1.5,2.5-1.5c1,0,1.9,0.6,2.3,1.6l0,0c0.2-0.4,0.5-0.7,0.9-1
	c0.5-0.4,1.1-0.6,1.8-0.6c1.1,0,2.6,0.7,2.6,3.5v4.7h-1.4v-4.6c0-1.5-0.6-2.5-1.8-2.5c-0.8,0.1-1.4,0.6-1.6,1.3
	c-0.1,0.2-0.1,0.5-0.1,0.7v5h-1.5v-4.8c0-1.3-0.6-2.2-1.7-2.2c-0.9,0-1.6,0.6-1.8,1.5c-0.1,0.2-0.1,0.5-0.1,0.7v4.9h-1.4
	L745.4,153.8z"/>
<path d="M759.2,154.3c0-1,0-1.9-0.1-2.6h1.3l0.1,1.4l0,0c0.6-1,1.7-1.6,2.9-1.6c1.9,0,3.4,1.6,3.4,4.1c0,2.9-1.8,4.3-3.7,4.3
	c-1,0-1.9-0.4-2.5-1.3l0,0v4.4h-1.4V154.3z M760.7,156.4c0,0.2,0,0.4,0.1,0.6c0.2,1,1.2,1.7,2.2,1.7c1.5,0,2.4-1.3,2.4-3.1
	c0-1.6-0.8-3-2.4-3c-1.1,0-2,0.8-2.2,1.8c-0.1,0.2-0.1,0.4-0.1,0.6V156.4z"/>
<path d="M768.6,147.9h1.5v11.8h-1.5V147.9z"/>
<path d="M774.2,149.4c0,0.5-0.3,0.9-0.8,0.9c0,0-0.1,0-0.1,0c-0.5,0-0.9-0.4-0.9-0.9c0,0,0,0,0,0c0-0.5,0.4-0.9,0.9-0.9c0,0,0,0,0,0
	C773.8,148.5,774.2,148.8,774.2,149.4C774.2,149.3,774.2,149.4,774.2,149.4z M772.6,159.7v-8h1.4v8H772.6z"/>
<path d="M780.9,159.7l-0.1-1l0,0c-0.6,0.8-1.5,1.2-2.5,1.2c-1.3,0.1-2.4-0.9-2.4-2.1c0-0.1,0-0.1,0-0.2c0-1.9,1.7-3,4.8-3v-0.2
	c0.1-0.9-0.5-1.7-1.4-1.9c-0.1,0-0.3,0-0.4,0c-0.7,0-1.5,0.2-2.1,0.6l-0.3-1c0.8-0.5,1.7-0.7,2.6-0.7c2.5,0,3.1,1.7,3.1,3.3v3
	c0,0.6,0,1.3,0.1,1.9L780.9,159.7z M780.7,155.6c-1.6,0-3.4,0.2-3.4,1.8c-0.1,0.7,0.5,1.3,1.2,1.4c0.1,0,0.1,0,0.2,0
	c0.9,0,1.7-0.5,2-1.3c0-0.2,0.1-0.3,0.1-0.5L780.7,155.6z"/>
<path d="M784.4,153.8c0-0.8,0-1.5-0.1-2.2h1.3l0.1,1.3l0,0c0.5-1,1.6-1.5,2.7-1.5c1.1,0,2.8,0.7,2.8,3.4v4.8h-1.5v-4.6
	c0-1.3-0.5-2.4-1.9-2.4c-0.9,0-1.7,0.6-2,1.5c-0.1,0.2-0.1,0.4-0.1,0.7v4.8h-1.5L784.4,153.8z"/>
<path d="M799.4,159.4c-0.7,0.3-1.5,0.5-2.3,0.5c-2.1,0.1-3.9-1.5-4-3.6c0-0.2,0-0.3,0-0.5c-0.1-2.3,1.6-4.2,3.9-4.3
	c0.1,0,0.3,0,0.4,0c0.7,0,1.4,0.1,2,0.4L799,153c-0.5-0.3-1.1-0.4-1.7-0.4c-1.5,0-2.8,1.2-2.8,2.7c0,0.1,0,0.2,0,0.3
	c-0.1,1.5,1,2.9,2.5,3c0.1,0,0.2,0,0.3,0c0.6,0,1.2-0.1,1.8-0.4L799.4,159.4z"/>
<path d="M801.8,155.9c-0.1,1.4,0.9,2.7,2.3,2.8c0.1,0,0.3,0,0.4,0c0.8,0,1.5-0.1,2.2-0.4l0.2,1c-0.8,0.4-1.8,0.5-2.7,0.5
	c-2.1,0.2-3.8-1.4-4-3.4c0-0.2,0-0.4,0-0.6c0-2.4,1.4-4.3,3.8-4.3c2.6,0,3.3,2.3,3.3,3.8c0,0.3,0,0.5,0,0.7L801.8,155.9z
	 M806.1,154.9c0.2-1.1-0.6-2.2-1.8-2.4c-0.1,0-0.2,0-0.2,0c-1.2,0.1-2.2,1.1-2.2,2.4H806.1z"/>
<path d="M737.2,167.8h1.5v11.8h-1.5V167.8z"/>
<path d="M748.4,175.5c0.2,2.2-1.4,4.1-3.6,4.3c-0.1,0-0.3,0-0.4,0c-2.1,0-3.8-1.7-3.9-3.8c0-0.1,0-0.2,0-0.4
	c-0.2-2.2,1.4-4.1,3.6-4.3c0.1,0,0.3,0,0.4,0c2.1,0,3.8,1.7,3.9,3.8C748.4,175.2,748.4,175.4,748.4,175.5z M742,175.6
	c0,1.8,1,3.1,2.4,3.1s2.4-1.3,2.4-3.1c0-1.4-0.7-3.1-2.4-3.1S742,174.1,742,175.6L742,175.6z"/>
<path d="M757.1,171.6c0,0.6-0.1,1.2-0.1,2.2v4.7c0,1.8-0.4,3-1.2,3.7c-0.8,0.7-1.9,1-2.9,1c-0.9,0-1.9-0.2-2.7-0.7l0.4-1.1
	c0.7,0.4,1.5,0.6,2.4,0.6c1.5,0,2.6-0.8,2.6-2.8v-0.9l0,0c-0.5,0.9-1.5,1.4-2.6,1.3c-2,0-3.4-1.7-3.4-3.9c0-2.7,1.8-4.3,3.6-4.3
	c1-0.1,2,0.5,2.5,1.4l0,0l0.1-1.2L757.1,171.6z M755.6,174.7c0-0.2,0-0.4-0.1-0.7c-0.3-0.9-1.1-1.5-2-1.5c-1.4,0-2.4,1.2-2.4,3
	c0,1.6,0.8,2.9,2.4,2.9c0.9,0,1.7-0.6,2-1.5c0.1-0.3,0.1-0.5,0.1-0.8L755.6,174.7z"/>
<path d="M766.4,171.6c0,0.6-0.1,1.2-0.1,2.2v4.7c0,1.8-0.4,3-1.2,3.7c-0.8,0.7-1.9,1-2.9,1c-0.9,0-1.9-0.2-2.7-0.7l0.4-1.1
	c0.7,0.4,1.5,0.6,2.4,0.6c1.5,0,2.6-0.8,2.6-2.8v-0.9l0,0c-0.5,0.9-1.5,1.4-2.6,1.3c-2,0-3.4-1.7-3.4-3.9c0-2.7,1.8-4.3,3.6-4.3
	c1-0.1,2,0.5,2.5,1.4l0,0l0.1-1.2L766.4,171.6z M764.9,174.7c0-0.2,0-0.4-0.1-0.7c-0.3-0.9-1.1-1.5-2-1.5c-1.4,0-2.4,1.2-2.4,3
	c0,1.6,0.8,2.9,2.4,2.9c0.9,0,1.7-0.6,2-1.5c0.1-0.3,0.1-0.5,0.1-0.8L764.9,174.7z"/>
<path d="M770.3,169.3c0,0.5-0.4,0.9-0.8,0.9c0,0-0.1,0-0.1,0c-0.5,0-0.9-0.4-0.9-0.9c0,0,0,0,0,0c0-0.5,0.4-0.9,0.8-0.9
	c0,0,0,0,0.1,0C769.8,168.4,770.2,168.7,770.3,169.3C770.3,169.2,770.3,169.3,770.3,169.3z M768.6,179.6v-8h1.5v8H768.6z"/>
<path d="M772.5,173.7c0-0.8,0-1.5-0.1-2.2h1.3l0.1,1.3l0,0c0.5-0.9,1.6-1.5,2.7-1.5c1.1,0,2.8,0.7,2.8,3.4v4.8h-1.4V175
	c0-1.3-0.5-2.4-1.9-2.4c-0.9,0-1.7,0.6-2,1.5c-0.1,0.2-0.1,0.4-0.1,0.7v4.8h-1.5L772.5,173.7z"/>
<path d="M788.7,171.6c0,0.6-0.1,1.2-0.1,2.2v4.7c0,1.8-0.4,3-1.2,3.7c-0.8,0.7-1.9,1-2.9,1c-0.9,0-1.9-0.2-2.7-0.7l0.4-1.1
	c0.7,0.4,1.5,0.6,2.3,0.6c1.5,0,2.6-0.8,2.6-2.8v-0.9l0,0c-0.5,0.9-1.5,1.4-2.6,1.3c-2,0-3.4-1.7-3.4-3.9c0-2.7,1.8-4.3,3.6-4.3
	c1-0.1,2,0.5,2.5,1.4l0,0l0.1-1.2L788.7,171.6z M787.1,174.7c0-0.2,0-0.4-0.1-0.7c-0.2-0.9-1.1-1.5-2-1.5c-1.4,0-2.4,1.2-2.4,3
	c0,1.6,0.8,2.9,2.4,2.9c0.9,0,1.7-0.6,2-1.5c0.1-0.3,0.1-0.5,0.1-0.8L787.1,174.7z"/>
<path d="M895,134.5h-4.3v4h4.8v1.2h-6.3v-11.2h6v1.2h-4.6v3.5h4.4V134.5z"/>
<path d="M897.3,128h1.5v11.8h-1.5V128z"/>
<path d="M905.7,139.8l-0.1-1h0c-0.6,0.8-1.5,1.2-2.5,1.2c-1.3,0.1-2.4-0.9-2.5-2.1c0-0.1,0-0.1,0-0.2c0-1.9,1.7-3,4.8-3v-0.2
	c0.1-0.9-0.5-1.7-1.4-1.9c-0.1,0-0.3,0-0.4,0c-0.7,0-1.5,0.2-2.1,0.6l-0.3-1c0.8-0.5,1.7-0.7,2.6-0.7c2.5,0,3,1.7,3,3.3v3
	c0,0.6,0,1.3,0.1,1.9L905.7,139.8z M905.5,135.7c-1.6,0-3.4,0.2-3.4,1.8c-0.1,0.7,0.5,1.3,1.2,1.4c0.1,0,0.1,0,0.2,0
	c0.9,0,1.7-0.5,1.9-1.3c0.1-0.2,0.1-0.3,0.1-0.5V135.7z"/>
<path d="M909,138.3c0.6,0.4,1.2,0.6,1.9,0.6c1.1,0,1.6-0.5,1.6-1.2s-0.4-1.1-1.5-1.5c-1.5-0.5-2.1-1.3-2.1-2.3
	c0.1-1.4,1.2-2.4,2.6-2.4c0.1,0,0.1,0,0.2,0c0.7,0,1.4,0.2,2,0.5l-0.4,1.1c-0.5-0.3-1.1-0.5-1.6-0.5c-0.9,0-1.3,0.5-1.3,1.1
	s0.5,1,1.5,1.4c1.4,0.5,2.1,1.2,2.1,2.4c0,1.4-1.1,2.4-3,2.4c-0.8,0-1.6-0.2-2.3-0.5L909,138.3z"/>
<path d="M917.6,129.4v2.3h2.1v1.1h-2.1v4.3c0,1,0.3,1.6,1.1,1.6c0.3,0,0.6,0,0.8-0.1l0.1,1.1c-0.4,0.1-0.9,0.2-1.3,0.2
	c-0.6,0-1.2-0.2-1.6-0.6c-0.4-0.6-0.6-1.3-0.6-2.1v-4.4h-1.2v-1.1h1.2v-1.9L917.6,129.4z"/>
<path d="M922.9,129.5c-0.1,0.5-0.5,0.9-1,0.8c-0.4,0-0.8-0.4-0.8-0.8c0-0.5,0.4-0.9,0.9-0.9c0,0,0,0,0,0
	C922.5,128.6,922.9,128.9,922.9,129.5C922.9,129.4,922.9,129.5,922.9,129.5z M921.3,139.8v-8h1.5v8H921.3z"/>
<path d="M930.9,139.5c-0.7,0.3-1.5,0.5-2.3,0.5c-2.1,0.1-3.9-1.5-4-3.6c0-0.2,0-0.3,0-0.5c-0.1-2.3,1.6-4.2,3.9-4.3
	c0.1,0,0.3,0,0.4,0c0.7,0,1.4,0.1,2,0.4l-0.3,1.1c-0.5-0.3-1.1-0.4-1.7-0.4c-1.5,0-2.8,1.2-2.8,2.7c0,0.1,0,0.2,0,0.3
	c-0.1,1.5,1,2.9,2.5,3c0.1,0,0.2,0,0.3,0c0.6,0,1.2-0.1,1.8-0.4L930.9,139.5z"/>
<path d="M932.4,138.3c0.6,0.4,1.2,0.6,1.9,0.6c1.1,0,1.5-0.5,1.5-1.2s-0.4-1.1-1.5-1.5c-1.4-0.5-2.1-1.3-2.1-2.3
	c0.1-1.4,1.2-2.4,2.6-2.4c0.1,0,0.1,0,0.2,0c0.7,0,1.4,0.2,2,0.5l-0.4,1.1c-0.5-0.3-1.1-0.5-1.6-0.5c-0.9,0-1.3,0.5-1.3,1.1
	s0.5,1,1.5,1.4c1.4,0.5,2.1,1.2,2.1,2.4c0,1.4-1.1,2.4-3,2.4c-0.8,0-1.6-0.2-2.2-0.5L932.4,138.3z"/>
<path d="M940,136c-0.1,1.4,0.9,2.7,2.3,2.8c0.1,0,0.3,0,0.4,0c0.8,0,1.5-0.1,2.2-0.4l0.2,1c-0.8,0.3-1.8,0.5-2.7,0.5
	c-2.1,0.1-3.8-1.4-4-3.5c0-0.2,0-0.4,0-0.6c0-2.4,1.4-4.3,3.8-4.3c2.6,0,3.3,2.3,3.3,3.8c0,0.2,0,0.5,0,0.7L940,136z M944.3,134.9
	c0.2-1.1-0.6-2.2-1.7-2.3c-0.1,0-0.2,0-0.3,0c-1.3,0.1-2.3,1.1-2.3,2.4L944.3,134.9z"/>
<path d="M951.9,139.8l-0.1-1h0c-0.6,0.8-1.5,1.2-2.5,1.2c-1.3,0.1-2.4-0.9-2.5-2.1c0-0.1,0-0.1,0-0.2c0-1.9,1.7-3,4.8-3v-0.2
	c0.1-0.9-0.5-1.7-1.4-1.9c-0.1,0-0.3,0-0.4,0c-0.7,0-1.5,0.2-2.1,0.6l-0.3-1c0.8-0.5,1.7-0.7,2.6-0.7c2.5,0,3.1,1.7,3.1,3.3v3
	c0,0.6,0,1.3,0.1,1.9L951.9,139.8z M951.7,135.7c-1.6,0-3.4,0.2-3.4,1.8c-0.1,0.7,0.5,1.3,1.2,1.4c0.1,0,0.1,0,0.2,0
	c0.9,0,1.7-0.5,1.9-1.3c0.1-0.2,0.1-0.3,0.1-0.5L951.7,135.7z"/>
<path d="M955.5,134.2c0-0.9,0-1.8-0.1-2.5h1.3v1.6h0.1c0.3-1,1.2-1.7,2.2-1.8c0.1,0,0.3,0,0.4,0.1v1.4c-0.2,0-0.3-0.1-0.5-0.1
	c-1,0-1.9,0.8-2,1.9c0,0.2-0.1,0.5-0.1,0.7v4.3h-1.4L955.5,134.2z"/>
<path d="M966.5,139.5c-0.7,0.3-1.5,0.5-2.3,0.5c-2.1,0.1-3.9-1.5-4-3.6c0-0.2,0-0.3,0-0.5c-0.1-2.3,1.6-4.2,3.9-4.3
	c0.1,0,0.3,0,0.4,0c0.7,0,1.4,0.1,2,0.4l-0.3,1.1c-0.5-0.3-1.1-0.4-1.7-0.4c-1.5,0-2.8,1.2-2.8,2.7c0,0.1,0,0.2,0,0.3
	c-0.1,1.5,1,2.9,2.5,3c0.1,0,0.2,0,0.3,0c0.6,0,1.2-0.1,1.8-0.4L966.5,139.5z"/>
<path d="M968.2,128h1.5v5l0,0c0.2-0.4,0.6-0.8,1-1c0.5-0.3,1-0.4,1.5-0.4c1.1,0,2.8,0.7,2.8,3.4v4.8h-1.5v-4.6
	c0-1.3-0.5-2.4-1.9-2.4c-0.9,0-1.7,0.6-2,1.5c-0.1,0.2-0.1,0.5-0.1,0.7v4.9H968L968.2,128z"/>
<path class="st4" d="M348.8,67.8c-0.4-0.4-1.1-0.4-1.6,0c0,0,0,0,0,0c-0.4,0.4-0.4,1.1,0,1.6l8,8h-26.6c-0.6,0-1.1,0.5-1.1,1.1
	c0,0.6,0.5,1.1,1.1,1.1h26.6l-8,8c-0.4,0.4-0.4,1.1,0,1.6c0.4,0.4,1.1,0.4,1.6,0c0,0,0,0,0,0l10-9.9c0.4-0.4,0.4-1.1,0-1.6
	c0,0,0,0,0,0L348.8,67.8z"/>
<path class="st4" d="M317.9,89.2c0.4,0.4,1.1,0.5,1.5,0c0,0,0,0,0,0c0.4-0.4,0.4-1.1,0-1.6l-8-8H338c0.6,0,1.1-0.5,1.1-1.1
	c0,0,0,0,0,0c0-0.6-0.4-1.1-1.1-1.2c0,0,0,0-0.1,0h-26.5l8-8c0.4-0.4,0.4-1.1,0-1.6c-0.4-0.4-1.1-0.5-1.5,0c0,0,0,0,0,0l-10,10
	c-0.4,0.4-0.4,1.1,0,1.6c0,0,0,0,0,0L317.9,89.2z"/>
<path class="st4" d="M519.6,67.8c-0.4-0.4-1.1-0.4-1.6,0c0,0,0,0,0,0c-0.4,0.4-0.4,1.1,0,1.6l8,8h-26.5c-0.6,0-1.1,0.5-1.1,1.1
	c0,0.6,0.5,1.1,1.1,1.1H526l-8,8c-0.4,0.4-0.4,1.1,0,1.6c0.4,0.4,1.1,0.4,1.6,0c0,0,0,0,0,0l10-9.9c0.4-0.4,0.4-1.1,0-1.6
	c0,0,0,0,0,0L519.6,67.8z"/>
<path class="st4" d="M488.7,89.2c0.4,0.4,1.1,0.5,1.5,0c0,0,0,0,0,0c0.4-0.4,0.4-1.1,0-1.6l-8-8h26.6c0.6,0,1.1-0.5,1.1-1.1
	c0,0,0,0,0,0c0-0.6-0.5-1.1-1.1-1.1c0,0,0,0,0,0h-26.6l8-8c0.4-0.4,0.4-1.1,0-1.6c-0.4-0.4-1.1-0.5-1.5,0c0,0,0,0,0,0l-10,10
	c-0.4,0.4-0.4,1.1,0,1.6c0,0,0,0,0,0L488.7,89.2z"/>
<path class="st4" d="M690.3,67.8c-0.4-0.4-1.1-0.4-1.6,0c0,0,0,0,0,0c-0.4,0.4-0.4,1.1,0,1.6l8,8h-26.5c-0.6,0-1.1,0.5-1.1,1.1
	c0,0.6,0.5,1.1,1.1,1.1h26.6l-8,8c-0.4,0.4-0.4,1.1,0,1.6c0.4,0.4,1.1,0.4,1.6,0c0,0,0,0,0,0l10-9.9c0.4-0.4,0.4-1.1,0-1.6
	c0,0,0,0,0,0L690.3,67.8z"/>
<path class="st4" d="M659.4,89.2c0.4,0.4,1.1,0.5,1.5,0c0,0,0,0,0,0c0.4-0.4,0.4-1.1,0-1.6l-8-8h26.6c0.6,0,1.1-0.5,1.1-1.1
	c0,0,0,0,0,0c0-0.6-0.5-1.1-1.1-1.1h0H653l8-8c0.4-0.4,0.4-1.1,0-1.6c-0.4-0.4-1.1-0.5-1.5,0c0,0,0,0,0,0l-10,10
	c-0.4,0.4-0.4,1.1,0,1.6c0,0,0,0,0,0L659.4,89.2z"/>
<path class="st4" d="M861.1,67.8c-0.4-0.4-1.1-0.4-1.6,0c0,0,0,0,0,0c-0.4,0.4-0.4,1.1,0,1.6l8,8H841c-0.6,0-1.1,0.5-1.1,1.1
	c0,0.6,0.5,1.1,1.1,1.1h26.6l-8,8c-0.4,0.4-0.4,1.1,0,1.6c0.4,0.4,1.1,0.4,1.6,0c0,0,0,0,0,0l9.8-9.9c0.4-0.4,0.4-1.1,0-1.6
	c0,0,0,0,0,0L861.1,67.8z"/>
<path class="st4" d="M830.2,89.2c0.4,0.4,1.1,0.5,1.5,0c0,0,0,0,0,0c0.4-0.4,0.4-1.1,0-1.6l-8-8h26.6c0.6,0,1.1-0.5,1.1-1.1
	c0,0,0,0,0,0c0-0.6-0.5-1.1-1.1-1.1h0h-26.6l8-8c0.4-0.4,0.4-1.1,0-1.6c-0.4-0.4-1.1-0.5-1.5,0c0,0,0,0,0,0l-10,10
	c-0.4,0.4-0.4,1.1,0,1.6c0,0,0,0,0,0L830.2,89.2z"/>
<path class="st4" d="M163.8,69.8c-0.4-0.4-1.1-0.4-1.6,0c0,0,0,0,0,0c-0.4,0.4-0.4,1.1,0,1.6l8.1,8h-26.6c-0.6,0-1.1,0.5-1.1,1.1
	c0,0.6,0.5,1.1,1.1,1.1h26.6l-8.1,8c-0.4,0.4-0.4,1.1,0,1.6c0.4,0.4,1.1,0.4,1.6,0c0,0,0,0,0,0l9.9-9.9c0.4-0.4,0.4-1.1,0-1.6
	c0,0,0,0,0,0L163.8,69.8z"/>
<path class="st4" d="M163.8,126.8c-0.4-0.4-1.1-0.4-1.6,0c0,0,0,0,0,0c-0.4,0.4-0.4,1.1,0,1.6l8.1,8h-26.6c-0.6,0-1.1,0.5-1.1,1.1
	c0,0.6,0.5,1.1,1.1,1.1l0,0h26.6l-8.1,8c-0.4,0.4-0.4,1.1,0,1.6c0.4,0.4,1.1,0.4,1.6,0c0,0,0,0,0,0l9.9-10c0.4-0.4,0.4-1.1,0-1.6
	c0,0,0,0,0,0L163.8,126.8z"/>
<path d="M63.2,75.2c0.9-0.2,1.9-0.2,2.8-0.2c1.2-0.1,2.3,0.2,3.2,0.9c0.6,0.6,0.9,1.4,0.8,2.2c0,1.3-0.8,2.4-2.1,2.8l0,0
	c0.9,0.4,1.5,1.3,1.7,2.2c0.2,1,0.5,2.1,0.9,3.1H69c-0.3-0.9-0.6-1.8-0.8-2.7c-0.3-1.5-0.9-2.1-2.2-2.2h-1.4v4.8h-1.4V75.2z
	 M64.6,80.2h1.5c1.5,0,2.5-0.8,2.5-2.1c0-1.4-1-2.1-2.6-2.1c-0.5,0-1,0-1.4,0.1V80.2z"/>
<path d="M77.9,80.9h-4.4v4h4.8v1.2h-6.3V75h6v1.2h-4.6v3.5h4.3L77.9,80.9z"/>
<path d="M80.1,84.4c0.8,0.5,1.7,0.7,2.6,0.7c1.5,0,2.3-0.8,2.3-1.9s-0.6-1.7-2.1-2.2c-1.8-0.6-3-1.6-3-3.2c0-1.7,1.4-3,3.6-3
	c0.9,0,1.7,0.2,2.5,0.5l-0.4,1.2C85,76.2,84.2,76,83.5,76c-1.5,0-2.1,0.9-2.1,1.7c0,1,0.7,1.6,2.2,2.2c1.9,0.7,2.8,1.7,2.8,3.3
	s-1.3,3.2-3.9,3.2c-1,0-2-0.2-2.9-0.7L80.1,84.4z"/>
<path d="M90.6,76.2h-3.4V75h8.3v1.2H92v10h-1.4V76.2z"/>
<path d="M105.9,85.9c-0.7,0.3-1.5,0.5-2.3,0.5c-2.1,0.1-3.9-1.5-4-3.6c0-0.2,0-0.3,0-0.5c-0.1-2.3,1.6-4.2,3.9-4.3
	c0.1,0,0.3,0,0.4,0c0.7,0,1.4,0.1,2,0.4l-0.3,1.1c-0.5-0.3-1.1-0.4-1.7-0.4c-1.7,0-3,1.3-3,3s1.3,3,3,3c0.6,0,1.2-0.1,1.8-0.4
	L105.9,85.9z"/>
<path d="M107.6,74.4h1.5v11.8h-1.5V74.4z"/>
<path d="M113.1,75.9c-0.1,0.5-0.5,0.9-1,0.8c-0.4,0-0.8-0.4-0.8-0.8c0-0.5,0.4-0.9,0.9-0.9c0,0,0,0,0.1,0
	C112.7,75,113.1,75.3,113.1,75.9C113.1,75.8,113.1,75.9,113.1,75.9z M111.5,86.2v-8h1.5v8H111.5z"/>
<path d="M116.2,82.4c-0.1,1.4,0.9,2.7,2.3,2.8c0.2,0,0.3,0,0.5,0c0.8,0,1.5-0.1,2.2-0.4l0.2,1c-0.8,0.4-1.8,0.5-2.7,0.5
	c-2.1,0.2-3.8-1.4-4-3.4c0-0.2,0-0.4,0-0.6c0-2.4,1.4-4.3,3.8-4.3c2.6,0,3.3,2.3,3.3,3.8c0,0.3,0,0.5,0,0.7L116.2,82.4z M120.5,81.4
	c0.2-1.1-0.6-2.2-1.8-2.4c-0.1,0-0.1,0-0.2,0c-1.2,0.1-2.2,1.1-2.2,2.4H120.5z"/>
<path d="M123.7,80.3c0-0.8,0-1.5-0.1-2.2h1.3l0.1,1.3l0,0c0.6-0.9,1.6-1.5,2.7-1.5c1.1,0,2.8,0.7,2.8,3.4v4.8h-1.5v-4.7
	c0-1.3-0.5-2.4-1.9-2.4c-1.2,0-2.1,1-2.1,2.2v4.8h-1.5L123.7,80.3z"/>
<path d="M134.6,75.8v2.3h2.1v1.1h-2.1v4.3c0,1,0.3,1.6,1.1,1.6c0.3,0,0.6,0,0.9-0.1l0.1,1.1c-0.4,0.1-0.9,0.2-1.3,0.2
	c-0.6,0-1.2-0.2-1.6-0.6c-0.4-0.6-0.6-1.3-0.6-2.1v-4.4h-1.2v-1.1h1.2v-1.9L134.6,75.8z"/>
<path d="M32.4,132H29v-1.2h8.3v1.2h-3.4v10h-1.5V132z"/>
<path d="M37.7,136.4c0-0.9,0-1.8-0.1-2.5h1.3l0,1.6h0c0.3-1,1.2-1.7,2.2-1.8c0.1,0,0.3,0,0.4,0.1v1.4c-0.2,0-0.3-0.1-0.5-0.1
	c-1.1,0-1.9,0.8-2,1.9c0,0.2-0.1,0.5-0.1,0.7v4.3h-1.4V136.4z"/>
<path d="M47.5,141.9l-0.1-1l0,0c-0.6,0.8-1.5,1.2-2.5,1.2c-1.3,0.1-2.4-0.9-2.5-2.1c0-0.1,0-0.1,0-0.2c0-1.9,1.7-3,4.8-3v-0.2
	c0.1-0.9-0.5-1.7-1.4-1.9c-0.1,0-0.3,0-0.4,0c-0.7,0-1.5,0.2-2.1,0.6l-0.3-1c0.8-0.5,1.7-0.7,2.6-0.7c2.5,0,3,1.7,3,3.3v3
	c0,0.6,0,1.3,0.1,1.9L47.5,141.9z M47.3,137.8c-1.6,0-3.4,0.2-3.4,1.8c-0.1,0.7,0.5,1.3,1.2,1.4c0.1,0,0.1,0,0.2,0
	c0.9,0,1.7-0.5,1.9-1.4c0.1-0.1,0.1-0.3,0.1-0.5V137.8z"/>
<path d="M51,136.1c0-0.8,0-1.5-0.1-2.2h1.3l0.1,1.3l0,0c0.5-1,1.6-1.5,2.7-1.5c1.1,0,2.8,0.7,2.8,3.4v4.8h-1.4v-4.6
	c0-1.3-0.5-2.4-1.9-2.4c-0.9,0-1.7,0.6-2,1.5c-0.1,0.2-0.1,0.4-0.1,0.7v4.8H51V136.1z"/>
<path d="M60,140.4c0.6,0.4,1.3,0.6,2,0.6c1.1,0,1.6-0.5,1.6-1.2s-0.4-1.1-1.5-1.5c-1.4-0.5-2.1-1.3-2.1-2.3c0.1-1.4,1.2-2.4,2.6-2.4
	c0.1,0,0.1,0,0.2,0c0.7,0,1.4,0.2,2,0.5l-0.4,1.1c-0.5-0.3-1.1-0.5-1.7-0.5c-0.9,0-1.3,0.5-1.3,1.1s0.5,1,1.5,1.4
	c1.4,0.5,2.1,1.2,2.1,2.4c0,1.4-1.1,2.4-3,2.4c-0.8,0-1.6-0.2-2.3-0.6L60,140.4z"/>
<path d="M66.8,136.5c0-1,0-1.9-0.1-2.6H68l0.1,1.4l0,0c0.6-1,1.7-1.6,2.9-1.6c1.9,0,3.4,1.6,3.4,4.1c0,2.9-1.8,4.3-3.7,4.3
	c-1,0-1.9-0.4-2.5-1.3l0,0v4.4h-1.5V136.5z M68.2,138.7c0,0.2,0,0.4,0.1,0.6c0.2,1,1.1,1.7,2.2,1.7c1.6,0,2.4-1.3,2.4-3.1
	c0-1.6-0.8-3-2.4-3c-1.1,0-2,0.8-2.2,1.8c-0.1,0.2-0.1,0.4-0.1,0.6V138.7z"/>
<path d="M83.5,137.9c0.2,2.2-1.4,4.1-3.6,4.3c-0.1,0-0.3,0-0.4,0c-2.1,0-3.8-1.7-3.9-3.8c0-0.1,0-0.2,0-0.3
	c-0.2-2.2,1.4-4.1,3.6-4.2c0.1,0,0.3,0,0.4,0c2.1,0,3.8,1.7,3.9,3.8C83.5,137.6,83.5,137.7,83.5,137.9z M77.1,137.9
	c0,1.8,1,3.1,2.4,3.1s2.4-1.3,2.4-3.1c0-1.4-0.7-3.1-2.4-3.1S77.1,136.4,77.1,137.9L77.1,137.9z"/>
<path d="M85.3,136.4c0-0.9,0-1.8-0.1-2.5h1.3v1.6h0.1c0.3-1,1.2-1.7,2.2-1.8c0.1,0,0.3,0,0.4,0.1v1.4c-0.2,0-0.3-0.1-0.5-0.1
	c-1.1,0-1.9,0.8-2,1.9c0,0.2-0.1,0.5-0.1,0.7v4.3h-1.4V136.4z"/>
<path d="M92.9,131.6v2.3H95v1.1h-2.1v4.3c0,1,0.3,1.6,1.1,1.6c0.3,0,0.6,0,0.8-0.1l0.1,1.1c-0.4,0.1-0.9,0.2-1.3,0.2
	c-0.6,0-1.2-0.2-1.6-0.6c-0.4-0.6-0.6-1.3-0.6-2.1V135h-1.2v-1.1h1.2V132L92.9,131.6z"/>
<path d="M105.9,141.6c-0.7,0.3-1.5,0.5-2.3,0.5c-2.1,0.1-3.9-1.5-4-3.6c0-0.2,0-0.3,0-0.5c-0.1-2.3,1.6-4.2,3.9-4.3
	c0.1,0,0.3,0,0.4,0c0.7,0,1.4,0.1,2,0.4l-0.3,1.1c-0.5-0.3-1.1-0.4-1.7-0.4c-1.7,0-3,1.3-3,3s1.3,3,3,3c0.6,0,1.2-0.1,1.8-0.4
	L105.9,141.6z"/>
<path d="M107.6,130.1h1.5v11.8h-1.5V130.1z"/>
<path d="M113.1,131.6c-0.1,0.5-0.5,0.9-1,0.8c-0.4,0-0.8-0.4-0.8-0.8c0-0.5,0.4-0.9,0.9-0.9c0,0,0,0,0.1,0
	C112.7,130.7,113.1,131.1,113.1,131.6C113.1,131.6,113.1,131.6,113.1,131.6z M111.5,141.9v-8h1.5v8H111.5z"/>
<path d="M116.2,138.2c-0.1,1.4,0.9,2.7,2.3,2.8c0.2,0,0.3,0,0.5,0c0.8,0,1.5-0.1,2.2-0.4l0.2,1c-0.8,0.4-1.8,0.5-2.7,0.5
	c-2.1,0.2-3.8-1.4-4-3.4c0-0.2,0-0.4,0-0.6c0-2.4,1.4-4.3,3.8-4.3c2.6,0,3.3,2.3,3.3,3.8c0,0.3,0,0.5,0,0.7L116.2,138.2z
	 M120.5,137.2c0.2-1.1-0.6-2.2-1.8-2.4c-0.1,0-0.1,0-0.2,0c-1.2,0.1-2.2,1.1-2.2,2.4H120.5z"/>
<path d="M123.7,136.1c0-0.8,0-1.5-0.1-2.2h1.3l0.1,1.3l0,0c0.5-1,1.6-1.5,2.7-1.5c1.1,0,2.8,0.7,2.8,3.4v4.8H129v-4.6
	c0-1.3-0.5-2.4-1.9-2.4c-1.2,0-2.1,1-2.1,2.2v4.8h-1.5L123.7,136.1z"/>
<path d="M134.6,131.6v2.3h2.1v1.1h-2.1v4.3c0,1,0.3,1.6,1.1,1.6c0.3,0,0.6,0,0.9-0.1l0.1,1.1c-0.4,0.1-0.9,0.2-1.3,0.2
	c-0.6,0-1.2-0.2-1.6-0.6c-0.4-0.6-0.6-1.3-0.6-2.1V135h-1.2v-1.1h1.2V132L134.6,131.6z"/>
<path class="st0" d="M195.9,254.5h102c5.5,0,10,4.5,10,10V345c0,5.5-4.5,10-10,10h-102c-5.5,0-10-4.5-10-10v-80.5
	C185.9,259,190.4,254.5,195.9,254.5z"/>
<path d="M193.4,269.6c0.9-0.1,1.8-0.2,2.8-0.2c1.1-0.1,2.2,0.2,3.1,0.9c0.7,0.6,1,1.5,1,2.3c0,0.9-0.3,1.7-0.9,2.4
	c-1.3,1-3,1.4-4.6,1.1v4.5h-1.4L193.4,269.6z M194.9,275c0.4,0.1,0.8,0.1,1.2,0.1c1.8,0,2.8-0.8,2.8-2.4s-1-2.2-2.6-2.2
	c-0.5,0-0.9,0-1.4,0.1V275z"/>
<path d="M208,275.4h-4.4v4h4.9v1.2h-6.3v-11.1h6v1.2h-4.6v3.5h4.4V275.4z"/>
<path d="M219.8,275.8c-0.1-1.6-0.2-3.4-0.2-4.8h-0.1c-0.4,1.3-0.9,2.7-1.4,4.2l-2,5.4h-1.1l-1.8-5.3c-0.5-1.6-1-3-1.3-4.3l0,0
	c0,1.4-0.1,3.3-0.2,4.9l-0.3,4.8h-1.4l0.8-11.2h1.8l1.9,5.4c0.5,1.4,0.8,2.6,1.1,3.8h0.1c0.3-1.1,0.7-2.4,1.2-3.8l2-5.4h1.8
	l0.7,11.2h-1.4L219.8,275.8z"/>
<path d="M232.9,280.4c-0.7,0.3-1.5,0.5-2.3,0.5c-2.1,0.1-3.9-1.5-4-3.6c0-0.2,0-0.3,0-0.5c-0.1-2.3,1.6-4.2,3.9-4.3
	c0.1,0,0.3,0,0.4,0c0.7,0,1.4,0.1,2,0.4l-0.3,1.1c-0.5-0.3-1.1-0.4-1.7-0.4c-1.7,0-3,1.3-3,3s1.3,3,3,3c0.6,0,1.2-0.1,1.8-0.4
	L232.9,280.4z"/>
<path d="M235.3,276.9c-0.1,1.4,0.9,2.7,2.3,2.8c0.1,0,0.3,0,0.4,0c0.8,0,1.5-0.1,2.2-0.4l0.2,1c-0.8,0.4-1.8,0.5-2.7,0.5
	c-2.1,0.1-3.8-1.4-4-3.5c0-0.2,0-0.4,0-0.6c0-2.4,1.4-4.3,3.8-4.3c2.6,0,3.3,2.3,3.3,3.8c0,0.2,0,0.5-0.1,0.7L235.3,276.9z
	 M239.6,275.9c0.2-1.1-0.6-2.2-1.7-2.3c-0.1,0-0.2,0-0.3,0c-1.2,0.1-2.2,1.1-2.2,2.4H239.6z"/>
<path d="M242.8,275.2c0-1,0-1.8-0.1-2.5h1.2l0.1,1.6h0.1c0.3-1,1.2-1.7,2.2-1.8c0.1,0,0.3,0,0.4,0v1.4c-0.2,0-0.3,0-0.5,0
	c-1.1,0-1.9,0.8-2,1.9c0,0.2-0.1,0.5-0.1,0.7v4.3h-1.4L242.8,275.2z"/>
<path d="M250.4,270.4v2.3h2.1v1.1h-2.1v4.3c0,1,0.3,1.6,1.1,1.6c0.3,0,0.6,0,0.8-0.1l0.1,1.1c-0.4,0.1-0.9,0.2-1.3,0.2
	c-0.6,0-1.2-0.2-1.6-0.6c-0.4-0.6-0.6-1.3-0.6-2.1v-4.4h-1.2v-1.1h1.3v-1.9L250.4,270.4z"/>
<path d="M255.8,270.4c-0.1,0.5-0.5,0.9-1,0.8c-0.4,0-0.8-0.4-0.8-0.8c0-0.5,0.4-0.9,0.8-0.9c0,0,0,0,0.1,0
	C255.3,269.5,255.7,269.8,255.8,270.4C255.8,270.3,255.8,270.4,255.8,270.4z M254.1,280.7v-8h1.5v8H254.1z"/>
<path d="M258.2,280.7v-6.9H257v-1.1h1.1v-0.4c-0.2-1.8,1.1-3.3,2.9-3.5c0.2,0,0.4,0,0.6,0c0.7,0,1.4,0.2,2,0.5l-0.4,1.1
	c-0.5-0.3-1.1-0.5-1.7-0.5c-1.5,0-2,1.1-2,2.4v0.4h4.7v8h-1.5v-6.9h-3.2v6.9L258.2,280.7z"/>
<path d="M272.4,280.4c-0.7,0.3-1.5,0.5-2.3,0.5c-2.1,0.1-3.9-1.5-4-3.6c0-0.2,0-0.3,0-0.5c-0.1-2.3,1.6-4.2,3.9-4.3
	c0.1,0,0.3,0,0.4,0c0.7,0,1.4,0.1,2,0.4l-0.3,1.1c-0.5-0.3-1.1-0.4-1.7-0.4c-1.7,0-3,1.3-3,3s1.3,3,3,3c0.6,0,1.2-0.1,1.8-0.4
	L272.4,280.4z"/>
<path d="M278.6,280.7l-0.1-1h0c-0.6,0.8-1.5,1.2-2.5,1.2c-1.3,0.1-2.4-0.9-2.5-2.1c0-0.1,0-0.1,0-0.2c0-1.9,1.7-3,4.8-3v-0.2
	c0.1-0.9-0.5-1.7-1.4-1.9c-0.1,0-0.3,0-0.4,0c-0.7,0-1.5,0.2-2.1,0.6l-0.3-1c0.8-0.5,1.7-0.7,2.6-0.7c2.5,0,3.1,1.7,3.1,3.3v3
	c0,0.6,0,1.3,0.1,1.9L278.6,280.7z M278.4,276.6c-1.6,0-3.4,0.2-3.4,1.8c-0.1,0.7,0.5,1.3,1.2,1.4c0.1,0,0.1,0,0.2,0
	c0.9,0,1.7-0.5,1.9-1.3c0.1-0.2,0.1-0.3,0.1-0.5V276.6z"/>
<path d="M283.8,270.4v2.3h2.1v1.1h-2.1v4.3c0,1,0.3,1.6,1.1,1.6c0.3,0,0.6,0,0.8-0.1l0.1,1.1c-0.4,0.1-0.9,0.2-1.3,0.2
	c-0.6,0-1.2-0.2-1.6-0.6c-0.4-0.6-0.6-1.3-0.6-2.1v-4.4h-1.2v-1.1h1.2v-1.9L283.8,270.4z"/>
<path d="M288.2,276.9c-0.1,1.4,0.9,2.7,2.4,2.8c0.1,0,0.3,0,0.4,0c0.8,0,1.5-0.1,2.2-0.4l0.2,1c-0.8,0.4-1.8,0.5-2.7,0.5
	c-2.1,0.1-3.8-1.4-4-3.5c0-0.2,0-0.4,0-0.6c0-2.4,1.4-4.3,3.8-4.3c2.6,0,3.3,2.3,3.3,3.8c0,0.3,0,0.5,0,0.7L288.2,276.9z
	 M292.5,275.9c0.2-1.1-0.6-2.2-1.7-2.3c-0.1,0-0.2,0-0.3,0c-1.2,0.1-2.2,1.1-2.2,2.4H292.5z"/>
<path d="M295.5,279.2c0.6,0.4,1.2,0.6,1.9,0.6c1.1,0,1.6-0.5,1.6-1.2s-0.4-1.1-1.5-1.5c-1.4-0.5-2.1-1.3-2.1-2.3
	c0.1-1.4,1.2-2.4,2.6-2.4c0.1,0,0.1,0,0.2,0c0.7,0,1.4,0.2,2,0.5l-0.4,1.1c-0.5-0.3-1.1-0.5-1.6-0.5c-0.9,0-1.4,0.5-1.4,1.1
	s0.5,1,1.5,1.4c1.4,0.5,2.1,1.2,2.1,2.4c0,1.4-1.1,2.4-3,2.4c-0.8,0-1.6-0.2-2.2-0.5L295.5,279.2z"/>
<path d="M214.8,289.4h1.4v5.4h0.1c0.3-0.4,0.6-0.8,0.9-1.2l3.4-4.2h1.8l-4,4.8l4.4,6.4H221l-3.7-5.5l-1.1,1.2v4.3h-1.4L214.8,289.4z
	"/>
<path d="M224.5,296.8c-0.1,1.4,0.9,2.7,2.4,2.8c0.1,0,0.3,0,0.4,0c0.8,0,1.5-0.1,2.2-0.4l0.2,1c-0.8,0.4-1.8,0.5-2.7,0.5
	c-2.1,0.2-3.8-1.4-4-3.4c0-0.2,0-0.4,0-0.6c0-2.4,1.4-4.3,3.8-4.3c2.6,0,3.3,2.3,3.3,3.8c0,0.2,0,0.5-0.1,0.7L224.5,296.8z
	 M228.8,295.8c0.2-1.1-0.6-2.2-1.7-2.3c-0.1,0-0.2,0-0.3,0c-1.2,0.1-2.2,1.1-2.2,2.4H228.8z"/>
<path d="M232.6,292.5l1.8,4.8c0.2,0.5,0.4,1.2,0.5,1.6l0,0c0.1-0.5,0.3-1.1,0.5-1.7l1.6-4.7h1.5l-2.2,5.7c-1,2.8-1.8,4.2-2.8,5
	c-0.5,0.5-1.1,0.8-1.8,0.9l-0.4-1.2c0.5-0.2,0.9-0.4,1.3-0.7c0.5-0.4,1-1,1.2-1.6c0.1-0.1,0.1-0.2,0.1-0.3c0-0.1,0-0.3-0.1-0.4
	l-3-7.4L232.6,292.5z"/>
<path d="M239.5,299.1c0.6,0.4,1.2,0.6,1.9,0.6c1.1,0,1.6-0.5,1.6-1.2s-0.4-1.1-1.5-1.5c-1.4-0.5-2.1-1.3-2.1-2.3
	c0.1-1.4,1.2-2.4,2.6-2.4c0.1,0,0.1,0,0.2,0c0.7,0,1.4,0.2,2,0.5l-0.4,1.1c-0.5-0.3-1.1-0.5-1.6-0.5c-0.9,0-1.3,0.5-1.3,1.1
	s0.5,1,1.5,1.4c1.4,0.5,2.1,1.2,2.1,2.4c0,1.4-1.1,2.4-3,2.4c-0.8,0-1.6-0.2-2.3-0.5L239.5,299.1z"/>
<path d="M248.1,290.2v2.3h2.1v1.1h-2.1v4.3c0,1,0.3,1.6,1.1,1.6c0.3,0,0.6,0,0.9-0.1l0.1,1.1c-0.4,0.1-0.9,0.2-1.3,0.2
	c-0.6,0-1.2-0.2-1.6-0.6c-0.4-0.6-0.6-1.3-0.6-2.1v-4.4h-1.2v-1.1h1.2v-1.9L248.1,290.2z"/>
<path d="M259,296.5c0.2,2.2-1.4,4.1-3.6,4.3c-0.1,0-0.3,0-0.4,0c-2.1,0-3.8-1.7-3.9-3.8c0-0.1,0-0.2,0-0.4c-0.2-2.2,1.4-4.1,3.6-4.3
	c0.1,0,0.3,0,0.4,0c2.1,0,3.8,1.6,3.9,3.7C259,296.2,259,296.4,259,296.5z M252.6,296.6c0,1.8,1,3.1,2.4,3.1s2.4-1.3,2.4-3.1
	c0-1.4-0.7-3.1-2.4-3.1S252.6,295.1,252.6,296.6L252.6,296.6z"/>
<path d="M260.8,295.1c0-1,0-1.8-0.1-2.5h1.3l0,1.6h0.1c0.3-1,1.2-1.7,2.2-1.8c0.1,0,0.3,0,0.4,0v1.4c-0.2,0-0.3-0.1-0.5,0
	c-1.1,0-1.9,0.8-2,1.9c0,0.2-0.1,0.5-0.1,0.7v4.3h-1.4V295.1z"/>
<path d="M266.9,296.8c-0.1,1.4,0.9,2.7,2.3,2.8c0.1,0,0.3,0,0.4,0c0.8,0,1.5-0.1,2.2-0.4l0.2,1c-0.8,0.4-1.8,0.5-2.7,0.5
	c-2.1,0.1-3.8-1.4-4-3.5c0-0.2,0-0.4,0-0.6c0-2.4,1.4-4.3,3.8-4.3c2.6,0,3.3,2.3,3.3,3.8c0,0.2,0,0.5,0,0.7L266.9,296.8z
	 M271.1,295.8c0.2-1.1-0.6-2.2-1.7-2.3c-0.1,0-0.2,0-0.3,0c-1.2,0.1-2.2,1.1-2.2,2.4H271.1z"/>
<path d="M274.2,299.1c0.6,0.4,1.2,0.6,1.9,0.6c1.1,0,1.6-0.5,1.6-1.2s-0.4-1.1-1.5-1.5c-1.5-0.5-2.1-1.3-2.1-2.3
	c0.1-1.4,1.2-2.4,2.6-2.4c0.1,0,0.1,0,0.2,0c0.7,0,1.4,0.2,2,0.5l-0.4,1.1c-0.5-0.3-1.1-0.5-1.6-0.5c-0.9,0-1.3,0.5-1.3,1.1
	s0.5,1,1.5,1.4c1.4,0.5,2.1,1.2,2.1,2.4c0,1.4-1.1,2.4-3,2.4c-0.8,0-1.6-0.2-2.3-0.5L274.2,299.1z"/>
<path d="M215.8,309.4c0.9-0.1,1.8-0.2,2.8-0.2c1.1-0.1,2.2,0.2,3.1,0.9c0.7,0.6,1,1.5,1,2.3c0,0.9-0.3,1.7-0.9,2.4
	c-0.9,0.9-2.2,1.3-3.4,1.2c-0.4,0-0.8,0-1.2-0.1v4.5h-1.4L215.8,309.4z M217.3,314.8c0.4,0.1,0.8,0.1,1.2,0.1c1.7,0,2.8-0.8,2.8-2.4
	s-1.1-2.2-2.6-2.2c-0.5,0-0.9,0-1.4,0.1V314.8z"/>
<path d="M224.7,309.3h1.4v5.4h0.1c0.3-0.4,0.6-0.8,0.9-1.2l3.4-4.2h1.8l-4.1,4.8l4.4,6.4h-1.7l-3.7-5.5l-1.1,1.2v4.3h-1.4V309.3z"/>
<path d="M241.2,320.1c-1,0.4-2,0.6-3,0.5c-3.1,0-5.5-2-5.5-5.7c-0.2-3.1,2.2-5.7,5.2-5.9c0.2,0,0.4,0,0.6,0c0.9,0,1.8,0.1,2.6,0.5
	l-0.3,1.2c-0.7-0.3-1.5-0.5-2.3-0.5c-2.6,0-4.4,1.7-4.4,4.6c0,2.7,1.6,4.5,4.3,4.5c0.8,0,1.6-0.1,2.4-0.5L241.2,320.1z"/>
<path d="M242.8,318.7c0.8,0.5,1.7,0.7,2.6,0.7c1.5,0,2.3-0.8,2.3-1.9s-0.6-1.6-2.1-2.2c-1.8-0.6-2.9-1.6-2.9-3.2c0-1.7,1.4-3,3.6-3
	c0.9,0,1.7,0.2,2.5,0.5l-0.4,1.2c-0.7-0.4-1.4-0.5-2.1-0.5c-1.5,0-2.1,0.9-2.1,1.7c0,1,0.7,1.6,2.2,2.2c1.9,0.7,2.9,1.6,2.9,3.3
	s-1.3,3.2-3.9,3.2c-1,0-2-0.2-2.9-0.7L242.8,318.7z"/>
<path d="M255,320.5l0.4-3.2H254v-1h1.5l0.3-2.4h-1.4v-1h1.6l0.4-3.2h1l-0.4,3.2h1.7l0.4-3.2h1l-0.4,3.2h1.4v1h-1.5l-0.3,2.4h1.4v1
	h-1.6l-0.4,3.2h-1l0.4-3.2h-1.7l-0.4,3.2H255z M258.3,316.2l0.3-2.4h-1.7l-0.3,2.4H258.3z"/>
<path d="M265.6,311.1L265.6,311.1l-1.9,1l-0.3-1.1l2.4-1.3h1.2v10.8h-1.4L265.6,311.1z"/>
<path d="M270.9,320.5v-0.9l1.1-1.1c2.8-2.6,4-4,4-5.6c0.1-1.1-0.7-2-1.7-2.1c-0.1,0-0.3,0-0.4,0c-0.8,0-1.7,0.4-2.3,0.9l-0.5-1
	c0.9-0.7,1.9-1.1,3-1.1c1.6-0.2,3.1,1,3.3,2.7c0,0.2,0,0.3,0,0.5c0,2-1.5,3.6-3.7,5.8l-0.9,0.8l0,0h4.8v1.2H270.9z"/>
<line class="st5" x1="247.8" y1="254.5" x2="247.8" y2="225.5"/>
<path class="st0" d="M537.2,254.5h102c5.5,0,10,4.5,10,10V345c0,5.5-4.5,10-10,10h-102c-5.5,0-10-4.5-10-10v-80.5
	C527.2,259,531.6,254.5,537.2,254.5z"/>
<path d="M538.5,269.3v4.7h5.5v-4.7h1.5v11.2H544v-5.2h-5.4v5.2h-1.5v-11.2H538.5z"/>
<path d="M555.1,276.4c0.2,2.2-1.4,4.1-3.6,4.2c-0.1,0-0.3,0-0.4,0c-2.1,0-3.8-1.7-3.9-3.8c0-0.1,0-0.2,0-0.4
	c-0.2-2.2,1.4-4.1,3.6-4.2c0.1,0,0.3,0,0.4,0c2.1,0,3.8,1.6,3.9,3.7C555.1,276.1,555.1,276.3,555.1,276.4z M548.8,276.5
	c0,1.8,1,3.1,2.4,3.1s2.4-1.3,2.4-3.1c0-1.4-0.7-3.1-2.4-3.1S548.8,275,548.8,276.5z"/>
<path d="M558.7,270.2v2.3h2.1v1.1h-2.1v4.3c0,1,0.3,1.6,1.1,1.6c0.3,0,0.6,0,0.8-0.1l0.1,1.1c-0.4,0.1-0.9,0.2-1.3,0.2
	c-0.6,0-1.2-0.2-1.6-0.6c-0.4-0.6-0.7-1.3-0.6-2.1v-4.4h-1.2v-1.1h1.2v-1.9L558.7,270.2z"/>
<path d="M565.8,275.5v1.1h-4.1v-1.1H565.8z"/>
<path d="M567.5,275c0-1,0-1.8-0.1-2.5h1.3l0,1.6h0.1c0.3-1,1.2-1.7,2.2-1.8c0.1,0,0.3,0,0.4,0v1.4c-0.2,0-0.3-0.1-0.5,0
	c-1.1,0-1.9,0.8-2,1.9c0,0.2-0.1,0.5-0.1,0.7v4.3h-1.4L567.5,275z"/>
<path d="M573.5,276.8c-0.1,1.4,0.9,2.7,2.3,2.8c0.1,0,0.3,0,0.4,0c0.8,0,1.5-0.1,2.2-0.4l0.2,1c-0.8,0.4-1.8,0.5-2.7,0.5
	c-2.1,0.2-3.8-1.4-4-3.4c0-0.2,0-0.4,0-0.6c0-2.4,1.4-4.3,3.8-4.3c2.6,0,3.3,2.3,3.3,3.8c0,0.2,0,0.5,0,0.7L573.5,276.8z
	 M577.8,275.8c0.2-1.1-0.6-2.2-1.8-2.4c-0.1,0-0.1,0-0.2,0c-1.2,0.1-2.2,1.1-2.2,2.4H577.8z"/>
<path d="M581,268.7h1.5v11.8H581V268.7z"/>
<path d="M592.2,276.4c0.2,2.2-1.4,4.1-3.6,4.2c-0.1,0-0.3,0-0.4,0c-2.1,0-3.8-1.7-3.9-3.8c0-0.1,0-0.2,0-0.4
	c-0.2-2.2,1.4-4.1,3.5-4.2c0.2,0,0.3,0,0.5,0c2.1,0,3.8,1.6,3.9,3.7C592.2,276.2,592.2,276.3,592.2,276.4z M585.8,276.5
	c0,1.8,1,3.1,2.4,3.1s2.4-1.3,2.4-3.1c0-1.4-0.7-3.1-2.4-3.1S585.8,275,585.8,276.5z"/>
<path d="M598.5,280.5l-0.1-1l0,0c-0.6,0.8-1.5,1.2-2.5,1.2c-1.3,0.1-2.4-0.9-2.5-2.1c0-0.1,0-0.1,0-0.2c0-1.9,1.7-3,4.8-3v-0.2
	c0.1-0.9-0.5-1.7-1.4-1.9c-0.1,0-0.3,0-0.4,0c-0.7,0-1.5,0.2-2.1,0.6l-0.3-1c0.8-0.5,1.7-0.7,2.6-0.7c2.5,0,3,1.7,3,3.3v3
	c0,0.6,0,1.3,0.1,1.9L598.5,280.5z M598.3,276.4c-1.6,0-3.4,0.2-3.4,1.8c-0.1,0.7,0.5,1.3,1.2,1.4c0.1,0,0.1,0,0.2,0
	c0.9,0,1.7-0.5,1.9-1.4c0.1-0.1,0.1-0.3,0.1-0.5V276.4z"/>
<path d="M609,268.7v9.7c0,0.7,0,1.5,0.1,2.1h-1.3l-0.1-1.4l0,0c-0.5,1-1.6,1.6-2.7,1.6c-1.9,0-3.4-1.6-3.4-4.1
	c0-2.7,1.7-4.3,3.6-4.3c1-0.1,1.9,0.4,2.4,1.2l0,0v-4.8L609,268.7z M607.5,275.7c0-0.2,0-0.4-0.1-0.6c-0.2-1-1.1-1.7-2.1-1.7
	c-1.5,0-2.4,1.3-2.4,3.1c0,1.6,0.8,3,2.4,3c1,0,1.9-0.7,2.1-1.7c0.1-0.2,0.1-0.4,0.1-0.6V275.7z"/>
<path d="M615.8,280.5l-0.1-1h0c-0.6,0.8-1.5,1.2-2.5,1.2c-1.3,0.1-2.3-0.8-2.4-2.1c0-0.1,0-0.1,0-0.2c0-1.9,1.7-3,4.8-3v-0.2
	c0.1-0.9-0.5-1.7-1.4-1.9c-0.1,0-0.3,0-0.4,0c-0.7,0-1.5,0.2-2.1,0.6l-0.3-1c0.8-0.5,1.7-0.7,2.6-0.7c2.5,0,3.1,1.7,3.1,3.3v3
	c0,0.6,0,1.3,0.1,1.9L615.8,280.5z M615.6,276.4c-1.6,0-3.4,0.2-3.4,1.8c-0.1,0.7,0.5,1.3,1.2,1.4c0.1,0,0.1,0,0.2,0
	c0.9,0,1.7-0.5,1.9-1.4c0.1-0.1,0.1-0.3,0.1-0.5V276.4z"/>
<path d="M619.3,280.5c0-0.5,0.1-1.4,0.1-2.1v-9.7h1.4v5l0,0c0.6-1,1.6-1.5,2.7-1.5c2,0,3.4,1.7,3.4,4.1c0,2.9-1.8,4.3-3.6,4.3
	c-1.1,0.1-2.2-0.5-2.7-1.5h0l-0.1,1.3L619.3,280.5z M620.8,277.3c0,0.2,0,0.4,0.1,0.5c0.2,1,1.2,1.7,2.2,1.7c1.5,0,2.4-1.2,2.4-3.1
	c0-1.6-0.8-3-2.4-3c-1.1,0-2,0.8-2.2,1.8c-0.1,0.2-0.1,0.4-0.1,0.6V277.3z"/>
<path d="M628.8,268.7h1.5v11.8h-1.5V268.7z"/>
<path d="M633.5,276.8c-0.1,1.4,0.9,2.7,2.3,2.8c0.1,0,0.3,0,0.4,0c0.8,0,1.5-0.1,2.2-0.4l0.2,1c-0.8,0.4-1.8,0.5-2.7,0.5
	c-2.1,0.2-3.8-1.4-4-3.4c0-0.2,0-0.4,0-0.6c0-2.4,1.4-4.3,3.8-4.3c2.6,0,3.3,2.3,3.3,3.8c0,0.2,0,0.5,0,0.7L633.5,276.8z
	 M637.8,275.8c0.2-1.1-0.6-2.2-1.8-2.4c-0.1,0-0.2,0-0.2,0c-1.3,0.1-2.2,1.1-2.2,2.4H637.8z"/>
<path d="M561.7,298.9c0.6,0.4,1.2,0.6,1.9,0.6c1.1,0,1.6-0.5,1.6-1.2s-0.4-1.1-1.5-1.5c-1.4-0.5-2.1-1.3-2.1-2.3
	c0.1-1.4,1.2-2.4,2.6-2.4c0.1,0,0.1,0,0.2,0c0.7,0,1.4,0.2,2,0.5l-0.4,1.1c-0.5-0.3-1.1-0.5-1.6-0.5c-0.9,0-1.3,0.5-1.3,1.1
	s0.5,1,1.5,1.4c1.4,0.5,2.1,1.2,2.1,2.4c0,1.4-1.1,2.4-3,2.4c-0.8,0-1.6-0.2-2.2-0.5L561.7,298.9z"/>
<path d="M569.3,296.6c-0.1,1.4,0.9,2.7,2.3,2.8c0.1,0,0.3,0,0.4,0c0.8,0,1.5-0.1,2.2-0.4l0.2,1c-0.8,0.4-1.8,0.5-2.7,0.5
	c-2.1,0.2-3.8-1.4-4-3.4c0-0.2,0-0.4,0-0.6c0-2.4,1.4-4.3,3.8-4.3c2.6,0,3.3,2.3,3.3,3.8c0,0.2,0,0.5,0,0.7H569.3z M573.6,295.6
	c0.2-1.1-0.6-2.2-1.8-2.4c-0.1,0-0.2,0-0.2,0c-1.3,0.1-2.2,1.1-2.2,2.4H573.6z"/>
<path d="M582.5,300.1c-0.7,0.3-1.5,0.5-2.3,0.5c-2.1,0.1-3.9-1.5-4-3.6c0-0.2,0-0.3,0-0.5c-0.1-2.3,1.6-4.2,3.9-4.3
	c0.1,0,0.3,0,0.4,0c0.7,0,1.4,0.1,2,0.4l-0.3,1.1c-0.5-0.3-1.1-0.4-1.7-0.4c-1.7,0-3,1.3-3,3s1.3,3,3,3c0.6,0,1.2-0.1,1.8-0.4
	L582.5,300.1z"/>
<path d="M591,298.2c0,0.8,0,1.6,0.1,2.2h-1.3l-0.1-1.3l0,0c-0.5,0.9-1.6,1.5-2.7,1.5c-1.3,0-2.8-0.7-2.8-3.5v-4.7h1.5v4.5
	c0,1.5,0.5,2.5,1.8,2.5c0.8,0,1.6-0.5,1.9-1.3c0.1-0.2,0.1-0.5,0.1-0.8v-4.9h1.4V298.2z"/>
<path d="M593.4,294.9c0-1,0-1.8-0.1-2.5h1.3v1.6h0.1c0.3-1,1.2-1.7,2.2-1.8c0.1,0,0.3,0,0.4,0v1.4c-0.2,0-0.3-0.1-0.5,0
	c-1.1,0-1.9,0.8-2,1.9c0,0.2-0.1,0.5-0.1,0.7v4.3h-1.5L593.4,294.9z"/>
<path d="M600.5,290.1c-0.1,0.5-0.5,0.9-1,0.8c-0.4,0-0.8-0.4-0.8-0.8c0-0.5,0.4-0.9,0.9-0.9c0,0,0,0,0,0
	C600.1,289.2,600.5,289.6,600.5,290.1C600.5,290.1,600.5,290.1,600.5,290.1z M598.8,300.4v-8h1.5v8H598.8z"/>
<path d="M604.5,290.1v2.3h2.1v1.1h-2.1v4.3c0,1,0.3,1.6,1.1,1.6c0.3,0,0.6,0,0.8-0.1l0.1,1.1c-0.4,0.1-0.9,0.2-1.3,0.2
	c-0.6,0-1.2-0.2-1.6-0.6c-0.4-0.6-0.7-1.3-0.6-2.1v-4.4h-1.2v-1.1h1.2v-1.9L604.5,290.1z"/>
<path d="M608.9,292.4l1.8,4.8c0.2,0.5,0.4,1.2,0.5,1.6l0,0c0.2-0.5,0.3-1.1,0.5-1.7l1.6-4.7h1.5l-2.2,5.7c-1,2.8-1.8,4.2-2.8,5
	c-0.5,0.5-1.1,0.8-1.8,1l-0.4-1.2c0.5-0.2,0.9-0.4,1.3-0.7c0.5-0.4,1-1,1.2-1.6c0.1-0.1,0.1-0.2,0.1-0.4c0-0.1-0.1-0.3-0.1-0.4
	l-3-7.4L608.9,292.4z"/>
<path d="M547.9,320c-0.7,0.3-1.5,0.5-2.3,0.5c-2.1,0.1-3.9-1.5-4-3.6c0-0.2,0-0.3,0-0.5c-0.1-2.3,1.6-4.2,3.9-4.3c0.2,0,0.3,0,0.5,0
	c0.7,0,1.4,0.1,2,0.4l-0.3,1.1c-0.5-0.3-1.1-0.4-1.7-0.4c-1.7,0-3,1.3-3,3c0,1.7,1.3,3,3,3c0.6,0,1.2-0.1,1.8-0.4L547.9,320z"/>
<path d="M556.8,316.2c0.2,2.2-1.4,4.1-3.6,4.2c-0.1,0-0.3,0-0.4,0c-2.1,0-3.8-1.7-3.9-3.8c0-0.1,0-0.2,0-0.4
	c-0.2-2.2,1.4-4.1,3.6-4.2c0.1,0,0.3,0,0.4,0c2.1,0,3.8,1.6,3.9,3.7C556.8,316,556.8,316.1,556.8,316.2z M550.5,316.3
	c0,1.8,1,3.1,2.4,3.1s2.4-1.3,2.4-3.1c0-1.4-0.7-3.1-2.4-3.1S550.5,314.8,550.5,316.3z"/>
<path d="M558.7,314.4c0-0.8,0-1.5-0.1-2.2h1.3l0.1,1.3l0,0c0.5-1,1.6-1.5,2.7-1.5c1.1,0,2.8,0.7,2.8,3.4v4.8H564v-4.6
	c0-1.3-0.5-2.4-1.9-2.4c-0.9,0-1.7,0.6-2,1.5c-0.1,0.2-0.1,0.4-0.1,0.7v4.8h-1.5L558.7,314.4z"/>
<path d="M568,320.3v-6.9h-1.1v-1.1h1.1v-0.4c-0.2-1.8,1.1-3.3,2.9-3.5c0.2,0,0.4,0,0.6,0c0.7,0,1.4,0.2,2,0.5l-0.4,1.1
	c-0.5-0.3-1.1-0.5-1.7-0.5c-1.5,0-2,1.1-2,2.4v0.4h4.7v8h-1.4v-6.9h-3.2v6.9L568,320.3z"/>
<path d="M583.5,312.3c0,0.6-0.1,1.2-0.1,2.2v4.7c0,1.8-0.4,3-1.1,3.7c-0.8,0.7-1.9,1-2.9,1c-0.9,0-1.9-0.2-2.7-0.7l0.3-1.1
	c0.7,0.4,1.5,0.6,2.4,0.6c1.5,0,2.6-0.8,2.6-2.8v-0.9l0,0c-0.5,0.9-1.5,1.4-2.5,1.4c-2,0-3.4-1.7-3.4-3.9c0-2.7,1.8-4.3,3.6-4.3
	c1-0.1,2,0.5,2.5,1.4l0,0l0.1-1.2L583.5,312.3z M581.9,315.4c0-0.2,0-0.4-0.1-0.7c-0.2-0.9-1.1-1.5-2-1.5c-1.4,0-2.4,1.2-2.4,3
	c0,1.6,0.8,2.9,2.4,2.9c0.9,0,1.7-0.6,2-1.5c0.1-0.3,0.1-0.5,0.1-0.8L581.9,315.4z"/>
<path d="M592.5,318.1c0,0.8,0,1.6,0.1,2.2h-1.3l-0.1-1.3l0,0c-0.5,0.9-1.6,1.5-2.7,1.5c-1.3,0-2.8-0.7-2.8-3.5v-4.7h1.5v4.5
	c0,1.5,0.5,2.5,1.8,2.5c0.9,0,1.6-0.5,1.9-1.3c0.1-0.2,0.1-0.5,0.1-0.7v-4.9h1.5L592.5,318.1z"/>
<path d="M594.9,314.8c0-1,0-1.8-0.1-2.5h1.3l0,1.6h0.1c0.3-1,1.2-1.7,2.2-1.8c0.1,0,0.3,0,0.4,0v1.4c-0.2,0-0.3-0.1-0.5,0
	c-1,0-1.9,0.8-2,1.9c0,0.2-0.1,0.5-0.1,0.7v4.3h-1.4L594.9,314.8z"/>
<path d="M604.7,320.3l-0.1-1h0c-0.6,0.8-1.5,1.2-2.5,1.2c-1.3,0.1-2.3-0.8-2.4-2.1c0-0.1,0-0.1,0-0.2c0-1.9,1.7-3,4.8-3V315
	c0.1-0.9-0.5-1.7-1.4-1.9c-0.1,0-0.3,0-0.4,0c-0.7,0-1.5,0.2-2.1,0.6l-0.3-1c0.8-0.5,1.7-0.7,2.6-0.7c2.5,0,3,1.7,3,3.3v3
	c0,0.6,0,1.3,0.1,1.9L604.7,320.3z M604.5,316.2c-1.6,0-3.4,0.2-3.4,1.8c-0.1,0.7,0.5,1.3,1.2,1.4c0.1,0,0.1,0,0.2,0
	c0.9,0,1.7-0.5,1.9-1.3c0-0.1,0.1-0.3,0.1-0.5V316.2z"/>
<path d="M610,310v2.3h2.1v1.1H610v4.3c0,1,0.3,1.6,1.1,1.6c0.3,0,0.6,0,0.8-0.1l0.1,1.1c-0.4,0.1-0.9,0.2-1.3,0.2
	c-0.6,0-1.2-0.2-1.6-0.6c-0.4-0.6-0.6-1.3-0.6-2.1v-4.4h-1.2v-1.1h1.2v-1.9L610,310z"/>
<path d="M615.3,310c0,0.5-0.3,0.9-0.8,0.9c0,0-0.1,0-0.1,0c-0.5,0-0.9-0.4-0.9-0.9c0,0,0,0,0,0c0-0.5,0.4-0.9,0.9-0.9c0,0,0,0,0,0
	C614.9,309.1,615.3,309.4,615.3,310C615.3,310,615.3,310,615.3,310z M613.7,320.3v-8h1.5v8H613.7z"/>
<path d="M624.8,316.2c0.2,2.2-1.4,4.1-3.6,4.2c-0.1,0-0.3,0-0.4,0c-2.1,0-3.8-1.7-3.9-3.8c0-0.1,0-0.2,0-0.4
	c-0.2-2.2,1.4-4.1,3.6-4.2c0.1,0,0.3,0,0.4,0c2.1,0,3.8,1.6,3.9,3.7C624.9,316,624.9,316.1,624.8,316.2z M618.5,316.3
	c0,1.8,1,3.1,2.4,3.1s2.4-1.3,2.4-3.1c0-1.4-0.7-3.1-2.4-3.1S618.5,314.8,618.5,316.3L618.5,316.3z"/>
<path d="M626.7,314.4c0-0.8,0-1.5-0.1-2.2h1.3l0.1,1.3l0,0c0.5-1,1.6-1.5,2.7-1.5c1.1,0,2.8,0.7,2.8,3.4v4.8H632v-4.6
	c0-1.3-0.5-2.4-1.8-2.4c-0.9,0-1.7,0.6-2,1.5c-0.1,0.2-0.1,0.4-0.1,0.7v4.8h-1.5L626.7,314.4z"/>
<path class="st0" d="M709.5,254.5h102c5.5,0,10,4.5,10,10V345c0,5.5-4.5,10-10,10h-102c-5.5,0-10-4.5-10-10v-80.5
	C699.5,259,703.9,254.5,709.5,254.5z"/>
<path d="M717,277.2l-1.2,3.5h-1.5l3.8-11.2h1.8l3.8,11.2h-1.5l-1.2-3.5H717z M720.7,276l-1.1-3.2c-0.2-0.7-0.4-1.4-0.6-2l0,0
	c-0.2,0.7-0.3,1.3-0.6,2l-1.1,3.2L720.7,276z"/>
<path d="M731.8,278.5c0,0.8,0,1.6,0.1,2.2h-1.3l-0.1-1.3l0,0c-0.5,0.9-1.6,1.5-2.7,1.5c-1.3,0-2.8-0.7-2.8-3.5v-4.7h1.5v4.5
	c0,1.5,0.5,2.6,1.8,2.6c0.9,0,1.6-0.5,1.9-1.3c0.1-0.2,0.1-0.5,0.1-0.8v-4.9h1.5L731.8,278.5z"/>
<path d="M741.2,268.9v9.7c0,0.7,0,1.5,0.1,2.1h-1.3l-0.1-1.4l0,0c-0.5,1-1.6,1.6-2.7,1.6c-1.9,0-3.4-1.6-3.4-4.1
	c0-2.7,1.6-4.3,3.6-4.3c1-0.1,1.9,0.4,2.4,1.2l0,0v-4.8H741.2z M739.7,275.9c0-0.2,0-0.4-0.1-0.6c-0.2-1-1.1-1.7-2.1-1.7
	c-1.5,0-2.4,1.3-2.4,3.1c0,1.6,0.8,3,2.4,3c1,0,1.9-0.7,2.1-1.7c0-0.2,0.1-0.4,0.1-0.6L739.7,275.9z"/>
<path d="M745.2,270.4c-0.1,0.5-0.5,0.9-1,0.8c-0.4,0-0.8-0.4-0.8-0.8c0-0.5,0.4-0.9,0.8-0.9c0,0,0,0,0.1,0
	C744.8,269.5,745.2,269.8,745.2,270.4C745.2,270.3,745.2,270.4,745.2,270.4z M743.6,280.7v-8h1.5v8H743.6z"/>
<path d="M749.2,270.4v2.3h2.1v1.1h-2.1v4.3c0,1,0.3,1.6,1.1,1.6c0.3,0,0.6,0,0.8-0.1l0.1,1.1c-0.4,0.1-0.9,0.2-1.3,0.2
	c-0.6,0-1.2-0.2-1.6-0.6c-0.4-0.6-0.6-1.3-0.6-2.1v-4.4h-1.2v-1.1h1.2v-1.9L749.2,270.4z"/>
<path d="M758.2,270.4v2.3h2.1v1.1h-2.1v4.3c0,1,0.3,1.6,1.1,1.6c0.3,0,0.6,0,0.8-0.1l0.1,1.1c-0.4,0.1-0.9,0.2-1.3,0.2
	c-0.6,0-1.2-0.2-1.6-0.6c-0.4-0.6-0.6-1.3-0.6-2.1v-4.4h-1.2v-1.1h1.2v-1.9L758.2,270.4z"/>
<path d="M762,275.2c0-1,0-1.8-0.1-2.5h1.3l0,1.6h0.1c0.3-1,1.2-1.7,2.2-1.8c0.1,0,0.3,0,0.4,0v1.4c-0.2,0-0.3,0-0.5,0
	c-1.1,0-1.9,0.8-2,1.9c0,0.2-0.1,0.5-0.1,0.7v4.3H762V275.2z"/>
<path d="M771.8,280.7l-0.1-1l0,0c-0.6,0.8-1.5,1.2-2.5,1.2c-1.3,0.1-2.4-0.9-2.5-2.1c0-0.1,0-0.1,0-0.2c0-1.9,1.7-3,4.8-3v-0.2
	c0.1-0.9-0.5-1.7-1.4-1.9c-0.1,0-0.3,0-0.4,0c-0.7,0-1.5,0.2-2.1,0.6l-0.3-1c0.8-0.5,1.7-0.7,2.6-0.7c2.5,0,3.1,1.7,3.1,3.3v3
	c0,0.6,0,1.3,0.1,1.9L771.8,280.7z M771.5,276.6c-1.6,0-3.4,0.2-3.4,1.8c-0.1,0.7,0.5,1.3,1.2,1.4c0.1,0,0.1,0,0.2,0
	c0.9,0,1.7-0.5,1.9-1.3c0.1-0.2,0.1-0.3,0.1-0.5L771.5,276.6z"/>
<path d="M776.9,270.4c0,0.5-0.4,0.9-0.9,0.9c-0.5,0-0.9-0.4-0.9-0.9c0-0.5,0.4-0.9,0.8-0.9c0,0,0,0,0.1,0
	C776.5,269.5,776.9,269.8,776.9,270.4C776.9,270.3,776.9,270.4,776.9,270.4z M775.3,280.7v-8h1.5v8H775.3z"/>
<path d="M779.2,268.9h1.5v11.8h-1.5V268.9z"/>
<path d="M782.9,279.2c0.6,0.4,1.2,0.6,1.9,0.6c1.1,0,1.6-0.5,1.6-1.2s-0.4-1.1-1.5-1.5c-1.4-0.5-2.1-1.3-2.1-2.3
	c0.1-1.4,1.2-2.4,2.6-2.4c0.1,0,0.1,0,0.2,0c0.7,0,1.4,0.2,2,0.5l-0.4,1.1c-0.5-0.3-1.1-0.5-1.6-0.5c-0.9,0-1.3,0.5-1.3,1.1
	s0.5,1,1.5,1.4c1.4,0.5,2.1,1.2,2.1,2.4c0,1.4-1.1,2.4-3,2.4c-0.8,0-1.6-0.2-2.2-0.5L782.9,279.2z"/>
<path d="M800.4,276.6c0.2,2.2-1.4,4.1-3.6,4.3c-0.1,0-0.3,0-0.4,0c-2.1,0-3.8-1.7-3.9-3.8c0-0.1,0-0.2,0-0.4
	c-0.2-2.2,1.4-4.1,3.6-4.3c0.1,0,0.3,0,0.4,0c2.1,0,3.8,1.6,3.9,3.7C800.5,276.3,800.5,276.5,800.4,276.6z M794.1,276.7
	c0,1.8,1,3.1,2.4,3.1s2.4-1.3,2.4-3.1c0-1.4-0.7-3.1-2.4-3.1S794.1,275.2,794.1,276.7z"/>
<path d="M802.4,280.7v-6.9h-1.1v-1.1h1.1v-0.4c-0.1-1,0.3-2,0.9-2.8c0.5-0.5,1.2-0.8,2-0.8c0.4,0,0.9,0.1,1.2,0.2l-0.2,1.1
	c-0.3-0.1-0.6-0.2-0.9-0.2c-1.2,0-1.6,1.1-1.6,2.3v0.4h1.9v1.1h-1.9v6.9L802.4,280.7z"/>
<path d="M725.3,299.1c0.6,0.4,1.2,0.6,1.9,0.6c1.1,0,1.6-0.5,1.6-1.2s-0.4-1.1-1.5-1.5c-1.5-0.5-2.1-1.3-2.1-2.3
	c0.1-1.4,1.2-2.4,2.6-2.4c0.1,0,0.1,0,0.2,0c0.7,0,1.4,0.2,2,0.5l-0.4,1.1c-0.5-0.3-1.1-0.5-1.6-0.5c-0.9,0-1.3,0.5-1.3,1.1
	s0.5,1,1.5,1.4c1.4,0.5,2.1,1.2,2.1,2.4c0,1.4-1.1,2.4-3,2.4c-0.8,0-1.6-0.2-2.3-0.5L725.3,299.1z"/>
<path d="M732.8,296.8c-0.1,1.4,0.9,2.7,2.4,2.8c0.1,0,0.3,0,0.4,0c0.8,0,1.5-0.1,2.2-0.4l0.2,1c-0.8,0.4-1.8,0.5-2.7,0.5
	c-2.1,0.1-3.8-1.4-4-3.5c0-0.2,0-0.4,0-0.6c0-2.4,1.4-4.3,3.8-4.3c2.6,0,3.3,2.3,3.3,3.8c0,0.3,0,0.5,0,0.7L732.8,296.8z
	 M737.1,295.8c0.2-1.1-0.6-2.2-1.7-2.3c-0.1,0-0.2,0-0.3,0c-1.2,0.1-2.2,1.1-2.2,2.4H737.1z"/>
<path d="M746.1,300.3c-0.7,0.3-1.5,0.5-2.3,0.5c-2.1,0.1-3.9-1.5-4-3.6c0-0.2,0-0.3,0-0.5c-0.1-2.3,1.6-4.2,3.9-4.3
	c0.1,0,0.3,0,0.4,0c0.7,0,1.4,0.1,2,0.4l-0.3,1.1c-0.5-0.3-1.1-0.4-1.7-0.4c-1.7,0-3,1.3-3,3c0,1.7,1.3,3,3,3c0.6,0,1.2-0.1,1.8-0.4
	L746.1,300.3z"/>
<path d="M754.5,298.4c0,0.8,0,1.6,0.1,2.2h-1.3l-0.1-1.3l0,0c-0.5,0.9-1.6,1.5-2.7,1.5c-1.3,0-2.8-0.7-2.8-3.5v-4.7h1.5v4.4
	c0,1.5,0.5,2.6,1.8,2.6c0.9,0,1.6-0.5,1.9-1.3c0.1-0.2,0.1-0.5,0.1-0.8v-4.9h1.5L754.5,298.4z"/>
<path d="M756.9,295.1c0-1,0-1.8-0.1-2.5h1.3v1.6h0.1c0.3-1,1.2-1.7,2.2-1.8c0.1,0,0.3,0,0.4,0v1.4c-0.2,0-0.3-0.1-0.5,0
	c-1.1,0-1.9,0.8-2,1.9c0,0.2-0.1,0.5-0.1,0.7v4.3h-1.4L756.9,295.1z"/>
<path d="M764,290.3c0,0.5-0.4,0.9-0.8,0.9c0,0-0.1,0-0.1,0c-0.5,0-0.9-0.4-0.9-0.9c0,0,0,0,0,0c0-0.5,0.4-0.9,0.9-0.9c0,0,0,0,0.1,0
	C763.6,289.4,764,289.7,764,290.3C764,290.2,764,290.3,764,290.3z M762.4,300.6v-8h1.5v8H762.4z"/>
<path d="M768,290.2v2.3h2.1v1.1H768v4.3c0,1,0.3,1.6,1.1,1.6c0.3,0,0.6,0,0.8-0.1l0.1,1.1c-0.4,0.1-0.9,0.2-1.3,0.2
	c-0.6,0-1.2-0.2-1.6-0.6c-0.4-0.6-0.6-1.3-0.6-2.1v-4.4h-1.2v-1.1h1.2v-1.9L768,290.2z"/>
<path d="M772.5,292.5l1.8,4.8c0.2,0.5,0.4,1.2,0.5,1.6l0,0c0.2-0.5,0.3-1.1,0.5-1.7l1.6-4.7h1.5l-2.2,5.7c-1,2.8-1.8,4.2-2.8,5
	c-0.5,0.5-1.1,0.8-1.8,0.9l-0.4-1.2c0.5-0.2,0.9-0.4,1.3-0.7c0.5-0.4,0.9-1,1.2-1.6c0.1-0.1,0.1-0.2,0.1-0.3c0-0.1,0-0.3-0.1-0.4
	l-3-7.4L772.5,292.5z"/>
<path d="M790.3,300.6c-0.3-0.3-0.6-0.6-1-1.1c-0.9,0.8-2,1.3-3.3,1.3c-1.7,0.1-3.3-1.1-3.4-2.9c0-0.1,0-0.2,0-0.3
	c0-1.4,0.9-2.7,2.2-3.3v0c-0.6-0.7-0.9-1.5-0.9-2.3c0-1.5,1.2-2.7,2.7-2.8c0.1,0,0.1,0,0.2,0c1.3-0.1,2.4,0.9,2.5,2.2
	c0,0.1,0,0.1,0,0.2c0,1.2-0.7,2.1-2.5,3v0c0.9,1.1,2,2.3,2.7,3.1c0.6-1,1-2.1,1.1-3.3h1.3c-0.2,1.5-0.7,2.9-1.6,4.1
	c0.6,0.6,1.2,1.3,1.8,2L790.3,300.6z M788.5,298.7c-0.7-0.7-1.9-2.1-3.2-3.5c-0.8,0.5-1.4,1.3-1.5,2.3c0,1.2,0.9,2.2,2.2,2.3
	c0,0,0.1,0,0.1,0C787.1,299.7,787.9,299.3,788.5,298.7L788.5,298.7z M785.1,291.8c0,0.7,0.3,1.5,0.8,2c1.1-0.6,1.8-1.2,1.8-2.2
	c0.1-0.7-0.5-1.4-1.2-1.4c0,0-0.1,0-0.1,0c-0.8,0-1.4,0.7-1.4,1.5C785.1,291.7,785.1,291.8,785.1,291.8L785.1,291.8z"/>
<path d="M726.7,320.2c-0.7,0.3-1.5,0.5-2.3,0.5c-2.1,0.1-3.9-1.5-4-3.6c0-0.2,0-0.3,0-0.5c-0.1-2.3,1.6-4.2,3.9-4.3
	c0.1,0,0.3,0,0.4,0c0.7,0,1.4,0.1,2,0.4l-0.3,1.1c-0.5-0.3-1.1-0.4-1.7-0.4c-1.7,0-3,1.3-3,3c0,1.7,1.3,3,3,3c0.6,0,1.2-0.1,1.8-0.4
	L726.7,320.2z"/>
<path d="M735.6,316.4c0.2,2.2-1.4,4.1-3.6,4.3c-0.1,0-0.3,0-0.4,0c-2.1,0-3.8-1.7-3.9-3.8c0-0.1,0-0.2,0-0.3
	c-0.2-2.2,1.4-4.1,3.6-4.2c0.1,0,0.3,0,0.4,0c2.1,0,3.8,1.7,3.9,3.8C735.6,316.2,735.6,316.3,735.6,316.4z M729.2,316.5
	c0,1.8,1,3.1,2.4,3.1s2.4-1.3,2.4-3.1c0-1.4-0.7-3.1-2.4-3.1S729.2,315,729.2,316.5z"/>
<path d="M737.4,314.6c0-0.8,0-1.5-0.1-2.2h1.3l0.1,1.3h0c0.5-0.9,1.5-1.5,2.5-1.5c1,0,1.9,0.6,2.3,1.6l0,0c0.2-0.4,0.5-0.7,0.9-1
	c0.5-0.4,1.1-0.6,1.8-0.6c1.1,0,2.6,0.7,2.6,3.5v4.7h-1.4V316c0-1.5-0.6-2.5-1.7-2.5c-0.8,0-1.5,0.6-1.7,1.3
	c-0.1,0.2-0.1,0.5-0.1,0.7v5h-1.4v-4.8c0-1.3-0.6-2.2-1.7-2.2c-0.9,0-1.6,0.6-1.8,1.5c-0.1,0.2-0.1,0.5-0.1,0.7v4.8h-1.4
	L737.4,314.6z"/>
<path d="M751.2,315.1c0-1,0-1.9-0.1-2.6h1.3l0.1,1.4l0,0c0.6-1,1.7-1.6,2.8-1.6c1.9,0,3.4,1.6,3.4,4.1c0,2.9-1.8,4.3-3.7,4.3
	c-1,0-1.9-0.4-2.5-1.3l0,0v4.4h-1.4V315.1z M752.7,317.2c0,0.2,0,0.4,0.1,0.6c0.2,1,1.1,1.7,2.2,1.7c1.5,0,2.4-1.3,2.4-3.1
	c0-1.6-0.8-3-2.4-3c-1.3,0.1-2.3,1.1-2.3,2.4V317.2z"/>
<path d="M760.7,308.7h1.5v11.8h-1.5V308.7z"/>
<path d="M766.2,310.2c0,0.5-0.4,0.9-0.8,0.9c0,0-0.1,0-0.1,0c-0.5,0-0.9-0.4-0.9-0.9c0,0,0,0,0,0c0-0.5,0.4-0.9,0.9-0.9
	c0,0,0,0,0.1,0C765.8,309.3,766.2,309.6,766.2,310.2C766.2,310.1,766.2,310.2,766.2,310.2z M764.6,320.5v-8h1.4v8H764.6z"/>
<path d="M772.9,320.5l-0.1-1l0,0c-0.6,0.8-1.5,1.2-2.5,1.2c-1.3,0.1-2.4-0.9-2.5-2.1c0-0.1,0-0.1,0-0.2c0-1.9,1.7-3,4.8-3v-0.2
	c0.1-0.9-0.5-1.7-1.4-1.9c-0.1,0-0.3,0-0.4,0c-0.7,0-1.5,0.2-2.1,0.6l-0.3-1c0.8-0.5,1.7-0.7,2.6-0.7c2.5,0,3.1,1.7,3.1,3.3v3
	c0,0.6,0,1.3,0.1,1.9L772.9,320.5z M772.7,316.4c-1.6,0-3.4,0.2-3.4,1.8c-0.1,0.7,0.5,1.3,1.2,1.4c0.1,0,0.1,0,0.2,0
	c0.9,0,1.7-0.5,1.9-1.4c0.1-0.1,0.1-0.3,0.1-0.5L772.7,316.4z"/>
<path d="M776.5,314.6c0-0.8,0-1.5-0.1-2.2h1.3l0.1,1.3l0,0c0.5-1,1.6-1.5,2.7-1.5c1.1,0,2.8,0.7,2.8,3.4v4.8h-1.5v-4.6
	c0-1.3-0.5-2.4-1.8-2.4c-0.9,0-1.7,0.6-2,1.5c-0.1,0.2-0.1,0.4-0.1,0.7v4.8h-1.5L776.5,314.6z"/>
<path d="M791.4,320.2c-0.7,0.3-1.5,0.5-2.3,0.5c-2.1,0.1-3.9-1.5-4-3.6c0-0.2,0-0.3,0-0.5c-0.1-2.3,1.6-4.2,3.9-4.3
	c0.1,0,0.3,0,0.4,0c0.7,0,1.4,0.1,2,0.4l-0.3,1.1c-0.5-0.3-1.1-0.4-1.7-0.4c-1.7,0-3,1.3-3,3s1.3,3,3,3c0.6,0,1.2-0.1,1.8-0.4
	L791.4,320.2z"/>
<path d="M793.8,316.7c-0.1,1.4,0.9,2.7,2.4,2.8c0.1,0,0.3,0,0.4,0c0.8,0,1.5-0.1,2.2-0.4l0.2,1c-0.8,0.4-1.8,0.5-2.7,0.5
	c-2.1,0.2-3.8-1.4-4-3.4c0-0.2,0-0.4,0-0.6c0-2.4,1.4-4.3,3.8-4.3c2.6,0,3.3,2.3,3.3,3.8c0,0.3,0,0.5,0,0.7L793.8,316.7z
	 M798.1,315.7c0.2-1.1-0.6-2.2-1.7-2.3c-0.1,0-0.2,0-0.3,0c-1.2,0.1-2.2,1.1-2.2,2.4H798.1z"/>
<path d="M739.1,336.6c-0.1,1.4,0.9,2.7,2.3,2.8c0.1,0,0.3,0,0.4,0c0.8,0,1.5-0.1,2.2-0.4l0.2,1c-0.8,0.4-1.8,0.5-2.7,0.5
	c-2.1,0.2-3.8-1.4-4-3.4c0-0.2,0-0.4,0-0.6c0-2.4,1.4-4.3,3.8-4.3c2.6,0,3.3,2.3,3.3,3.8c0,0.2,0,0.5,0,0.7L739.1,336.6z
	 M743.4,335.6c0.2-1.1-0.6-2.2-1.7-2.3c-0.1,0-0.2,0-0.3,0c-1.2,0.1-2.2,1.1-2.2,2.4H743.4z"/>
<path d="M747.2,332.4l1.6,4.5c0.3,0.7,0.5,1.4,0.7,2h0c0.2-0.7,0.4-1.3,0.7-2l1.6-4.5h1.5l-3.2,8h-1.4l-3-8H747.2z"/>
<path d="M755.3,336.6c-0.1,1.4,0.9,2.7,2.3,2.8c0.1,0,0.3,0,0.4,0c0.8,0,1.5-0.1,2.2-0.4l0.2,1c-0.8,0.4-1.8,0.5-2.7,0.5
	c-2.1,0.1-3.8-1.4-4-3.5c0-0.2,0-0.4,0-0.6c0-2.4,1.4-4.3,3.8-4.3c2.6,0,3.3,2.3,3.3,3.8c0,0.2,0,0.5,0,0.7L755.3,336.6z
	 M759.5,335.6c0.2-1.1-0.6-2.2-1.8-2.4c-0.1,0-0.2,0-0.2,0c-1.2,0.1-2.2,1.1-2.2,2.4H759.5z"/>
<path d="M762.8,334.5c0-0.8,0-1.5-0.1-2.2h1.3l0.1,1.3l0,0c0.5-1,1.6-1.5,2.7-1.5c1.1,0,2.8,0.7,2.8,3.4v4.8h-1.5v-4.6
	c0-1.3-0.5-2.4-1.9-2.4c-0.9,0-1.7,0.6-2,1.5c-0.1,0.2-0.1,0.4-0.1,0.7v4.8h-1.5L762.8,334.5z"/>
<path d="M773.7,330v2.3h2.1v1.1h-2.1v4.3c0,1,0.3,1.6,1.1,1.6c0.3,0,0.6,0,0.8-0.1l0.1,1.1c-0.4,0.1-0.9,0.2-1.3,0.2
	c-0.6,0-1.2-0.2-1.6-0.6c-0.4-0.6-0.6-1.3-0.6-2.1v-4.4H771v-1.1h1.2v-1.9L773.7,330z"/>
<path d="M777.2,338.9c0.6,0.4,1.2,0.6,1.9,0.6c1.1,0,1.6-0.5,1.6-1.2s-0.4-1.1-1.5-1.5c-1.4-0.5-2.1-1.3-2.1-2.3
	c0.1-1.4,1.2-2.4,2.6-2.4c0.1,0,0.1,0,0.2,0c0.7,0,1.4,0.2,2,0.5l-0.4,1.1c-0.5-0.3-1.1-0.5-1.7-0.5c-0.9,0-1.3,0.5-1.3,1.1
	s0.5,1,1.5,1.4c1.4,0.5,2.1,1.2,2.1,2.4c0,1.4-1.1,2.4-3,2.4c-0.8,0-1.6-0.2-2.3-0.5L777.2,338.9z"/>
<line class="st5" x1="589.5" y1="255" x2="589.5" y2="226"/>
<line class="st5" x1="760.5" y1="255" x2="760.5" y2="226"/>
<path class="st0" d="M342,254.5h155c5.5,0,10,4.5,10,10v203c0,5.5-4.5,10-10,10H342c-5.5,0-10-4.5-10-10v-203
	C332,259,336.4,254.5,342,254.5z"/>
<path d="M345.1,269.3h1.4v7.5c0,3-1.5,3.9-3.4,3.9c-0.5,0-1-0.1-1.5-0.3l0.2-1.2c0.4,0.1,0.8,0.2,1.2,0.2c1.3,0,2.1-0.6,2.1-2.8
	L345.1,269.3z"/>
<path d="M348.8,278.7c0.8,0.5,1.7,0.7,2.6,0.7c1.5,0,2.3-0.8,2.3-1.9s-0.6-1.6-2.1-2.2c-1.8-0.6-3-1.6-3-3.2c0-1.7,1.4-3,3.6-3
	c0.9,0,1.7,0.2,2.5,0.5l-0.4,1.2c-0.7-0.4-1.4-0.5-2.1-0.5c-1.5,0-2.1,0.9-2.1,1.7c0,1,0.7,1.6,2.2,2.1c1.9,0.7,2.9,1.6,2.9,3.3
	s-1.3,3.2-3.9,3.2c-1,0-2-0.2-2.9-0.7L348.8,278.7z"/>
<path d="M366.7,274.8c0,3.9-2.3,5.9-5.2,5.9s-5-2.3-5-5.7c0-3.5,2.2-5.9,5.2-5.9S366.7,271.5,366.7,274.8z M358,275
	c0,2.4,1.3,4.5,3.6,4.5s3.6-2.1,3.6-4.6c0-2.2-1.2-4.5-3.6-4.5S358,272.5,358,275z"/>
<path d="M368.6,280.5v-11.2h1.6l3.6,5.7c0.7,1.2,1.4,2.4,2,3.6l0,0c-0.1-1.5-0.2-2.9-0.2-4.6v-4.7h1.4v11.2h-1.5l-3.5-5.7
	c-0.8-1.2-1.5-2.5-2.1-3.7h0c0.1,1.4,0.1,2.8,0.1,4.6v4.8L368.6,280.5z"/>
<path d="M383.5,272.5l1.1,4.1c0.2,0.9,0.5,1.7,0.6,2.6h0c0.2-0.8,0.5-1.7,0.7-2.5l1.3-4.1h1.2l1.2,4c0.3,1,0.5,1.8,0.7,2.6h0
	c0.2-0.9,0.4-1.8,0.6-2.6l1.1-4h1.4l-2.6,8h-1.3l-1.2-3.8c-0.3-0.9-0.5-1.7-0.7-2.6l0,0c-0.2,0.9-0.4,1.8-0.7,2.7l-1.3,3.8h-1.3
	l-2.4-8L383.5,272.5z"/>
<path d="M395.8,276.8c-0.1,1.4,0.9,2.7,2.3,2.8c0.1,0,0.3,0,0.4,0c0.8,0,1.5-0.1,2.2-0.4l0.2,1c-0.8,0.4-1.8,0.5-2.7,0.5
	c-2.1,0.1-3.8-1.4-4-3.5c0-0.2,0-0.4,0-0.6c0-2.4,1.4-4.3,3.8-4.3c2.6,0,3.3,2.3,3.3,3.8c0,0.2,0,0.5,0,0.7L395.8,276.8z
	 M400.1,275.8c0.2-1.1-0.6-2.2-1.8-2.4c-0.1,0-0.2,0-0.2,0c-1.3,0.1-2.2,1.1-2.2,2.4H400.1z"/>
<path d="M403.2,280.5c0-0.5,0.1-1.4,0.1-2.1v-9.7h1.4v5l0,0c0.6-1,1.6-1.5,2.7-1.5c2,0,3.4,1.7,3.4,4.1c0,2.9-1.8,4.3-3.6,4.3
	c-1.1,0.1-2.2-0.5-2.7-1.5h0l-0.1,1.3L403.2,280.5z M404.8,277.3c0,0.2,0,0.4,0.1,0.5c0.2,1,1.2,1.7,2.2,1.7c1.5,0,2.4-1.2,2.4-3.1
	c0-1.6-0.8-3-2.4-3c-1.1,0-2,0.8-2.2,1.8c0,0.2-0.1,0.4-0.1,0.6V277.3z"/>
<path d="M418,270.2v2.3h2.1v1.1H418v4.3c0,1,0.3,1.6,1.1,1.6c0.3,0,0.6,0,0.9-0.1l0.1,1.1c-0.4,0.1-0.9,0.2-1.3,0.2
	c-0.6,0-1.2-0.2-1.6-0.6c-0.4-0.6-0.6-1.3-0.6-2.1v-4.4h-1.2v-1.1h1.2v-1.9L418,270.2z"/>
<path d="M428.9,276.4c0.2,2.2-1.4,4.1-3.6,4.2c-0.1,0-0.3,0-0.4,0c-2.1,0-3.8-1.7-3.9-3.8c0-0.1,0-0.2,0-0.4
	c-0.2-2.2,1.4-4.1,3.6-4.2c0.1,0,0.3,0,0.4,0c2.1,0,3.8,1.6,3.9,3.7C428.9,276.1,428.9,276.3,428.9,276.4z M422.5,276.5
	c0,1.8,1,3.1,2.4,3.1s2.4-1.3,2.4-3.1c0-1.4-0.7-3.1-2.4-3.1S422.5,275,422.5,276.5z"/>
<path d="M432.2,276.2L432.2,276.2c0.2-0.3,0.5-0.6,0.7-0.9l2.4-2.8h1.8l-3.1,3.3l3.5,4.7h-1.8l-2.8-3.9l-0.7,0.8v3h-1.5v-11.8h1.5
	L432.2,276.2z"/>
<path d="M439.3,276.8c-0.1,1.4,0.9,2.7,2.4,2.8c0.1,0,0.3,0,0.4,0c0.8,0,1.5-0.1,2.2-0.4l0.2,1c-0.8,0.4-1.8,0.5-2.7,0.5
	c-2.1,0.1-3.8-1.4-4-3.5c0-0.2,0-0.4,0-0.6c0-2.4,1.4-4.3,3.8-4.3c2.6,0,3.3,2.3,3.3,3.8c0,0.2,0,0.5,0,0.7L439.3,276.8z
	 M443.6,275.8c0.2-1.1-0.6-2.2-1.8-2.4c-0.1,0-0.2,0-0.2,0c-1.3,0.1-2.2,1.1-2.2,2.4H443.6z"/>
<path d="M446.8,274.6c0-0.8,0-1.5-0.1-2.2h1.3l0.1,1.3l0,0c0.5-1,1.6-1.5,2.7-1.5c1.1,0,2.8,0.7,2.8,3.4v4.8h-1.5v-4.6
	c0-1.3-0.5-2.4-1.9-2.4c-1.2,0-2.1,1-2.1,2.2v4.8h-1.5L446.8,274.6z"/>
<path d="M342.6,298.6c0.8,0.5,1.7,0.7,2.6,0.7c1.5,0,2.3-0.8,2.3-1.9s-0.6-1.6-2.1-2.2c-1.8-0.6-3-1.6-3-3.2c0-1.7,1.5-3,3.6-3
	c0.9,0,1.7,0.2,2.5,0.5l-0.4,1.2c-0.7-0.4-1.4-0.5-2.1-0.5c-1.5,0-2.1,0.9-2.1,1.7c0,1,0.7,1.6,2.2,2.1c1.9,0.7,2.9,1.6,2.9,3.3
	s-1.3,3.2-3.9,3.2c-1,0-2-0.2-2.9-0.7L342.6,298.6z"/>
<path d="M352.8,296.9l-1.2,3.5h-1.5l3.8-11.2h1.8l3.8,11.2H358l-1.2-3.5H352.8z M356.5,295.8l-1.1-3.2c-0.2-0.7-0.4-1.4-0.6-2l0,0
	c-0.2,0.7-0.4,1.3-0.6,2l-1.1,3.2L356.5,295.8z"/>
<path d="M370.5,295.5c-0.1-1.6-0.2-3.4-0.2-4.8h0c-0.4,1.3-0.8,2.7-1.4,4.2l-2,5.4h-1.1L364,295c-0.5-1.6-1-3-1.3-4.4l0,0
	c0,1.4-0.1,3.3-0.2,5l-0.3,4.8h-1.4l0.8-11.2h1.9l1.9,5.4c0.5,1.4,0.8,2.6,1.1,3.8h0c0.3-1.1,0.7-2.4,1.2-3.8l2-5.4h1.8l0.7,11.2
	h-1.4L370.5,295.5z"/>
<path d="M374.4,289.2h1.4v10h4.8v1.2h-6.2V289.2z"/>
<path d="M342.9,309.1h1.4v5.4l0,0c0.3-0.4,0.6-0.8,0.9-1.2l3.4-4.2h1.8l-4,4.7l4.4,6.4H349l-3.7-5.5l-1,1.2v4.3h-1.4V309.1z"/>
<path d="M352.6,316.5c-0.1,1.4,0.9,2.7,2.3,2.8c0.1,0,0.3,0,0.4,0c0.8,0,1.5-0.1,2.2-0.4l0.2,1c-0.8,0.4-1.8,0.5-2.7,0.5
	c-2.1,0.1-3.8-1.4-4-3.5c0-0.2,0-0.4,0-0.6c0-2.4,1.4-4.3,3.8-4.3c2.6,0,3.3,2.3,3.3,3.8c0,0.3,0,0.5,0,0.7H352.6z M356.9,315.5
	c0.2-1.1-0.6-2.2-1.8-2.4c-0.1,0-0.1,0-0.2,0c-1.2,0.1-2.2,1.1-2.2,2.4H356.9z"/>
<path d="M360.1,314.8c0-1,0-1.8-0.1-2.5h1.3l0,1.6h0.1c0.3-1,1.2-1.7,2.2-1.8c0.1,0,0.3,0,0.4,0v1.4c-0.2,0-0.3-0.1-0.5,0
	c-1,0-1.9,0.8-2,1.9c0,0.2-0.1,0.5-0.1,0.7v4.3H360L360.1,314.8z"/>
<path d="M365.5,320.3c0-0.5,0.1-1.4,0.1-2.1v-9.7h1.4v5l0,0c0.6-1,1.6-1.5,2.7-1.5c2,0,3.4,1.7,3.4,4.1c0,2.9-1.8,4.3-3.6,4.3
	c-1.1,0.1-2.2-0.5-2.7-1.5h0l-0.1,1.3L365.5,320.3z M367,317.1c0,0.2,0,0.4,0.1,0.5c0.2,1,1.2,1.7,2.2,1.7c1.5,0,2.4-1.2,2.4-3.1
	c0-1.6-0.8-3-2.4-3c-1.1,0-2,0.8-2.2,1.8c-0.1,0.2-0.1,0.4-0.1,0.6V317.1z"/>
<path d="M375.8,316.5c-0.1,1.4,0.9,2.7,2.3,2.8c0.1,0,0.3,0,0.4,0c0.8,0,1.5-0.1,2.2-0.4l0.2,1c-0.8,0.4-1.8,0.5-2.7,0.5
	c-2.1,0.1-3.8-1.4-3.9-3.5c0-0.2,0-0.4,0-0.6c0-2.4,1.4-4.3,3.8-4.3c2.6,0,3.3,2.3,3.3,3.8c0,0.2,0,0.5,0,0.7H375.8z M380.1,315.5
	c0.2-1.1-0.6-2.2-1.8-2.4c-0.1,0-0.2,0-0.2,0c-1.3,0.1-2.2,1.1-2.2,2.4H380.1z"/>
<path d="M383.3,314.8c0-1,0-1.8-0.1-2.5h1.3v1.6h0.1c0.3-1,1.2-1.7,2.2-1.8c0.1,0,0.3,0,0.4,0v1.4c-0.2,0-0.3-0.1-0.5,0
	c-1,0-1.9,0.8-2,1.9c0,0.2-0.1,0.5-0.1,0.7v4.3h-1.5L383.3,314.8z"/>
<path d="M395.9,316.2c0.2,2.2-1.4,4.1-3.6,4.2c-0.1,0-0.3,0-0.4,0c-2.1,0-3.8-1.7-3.9-3.8c0-0.1,0-0.2,0-0.4
	c-0.2-2.2,1.4-4.1,3.6-4.2c0.1,0,0.3,0,0.4,0c2.1,0,3.8,1.6,3.9,3.7C395.9,316,395.9,316.1,395.9,316.2z M389.5,316.3
	c0,1.8,1,3.1,2.4,3.1s2.4-1.3,2.4-3.1c0-1.4-0.7-3.1-2.4-3.1S389.5,314.8,389.5,316.3z"/>
<path d="M397.5,318.8c0.6,0.4,1.2,0.6,1.9,0.6c1.1,0,1.6-0.5,1.6-1.2s-0.4-1.1-1.5-1.5c-1.5-0.5-2.1-1.3-2.1-2.3
	c0.1-1.4,1.2-2.4,2.6-2.4c0.1,0,0.1,0,0.2,0c0.7,0,1.4,0.2,2,0.5l-0.4,1.1c-0.5-0.3-1.1-0.5-1.6-0.5c-0.9,0-1.3,0.5-1.3,1.1
	s0.5,1,1.5,1.4c1.4,0.5,2.1,1.2,2.1,2.4c0,1.4-1.1,2.4-3,2.4c-0.8,0-1.6-0.2-2.3-0.5L397.5,318.8z"/>
<path d="M406.5,321l4.6-12h1.1l-4.6,12H406.5z"/>
<path d="M416.8,318.5c0.8,0.5,1.7,0.7,2.6,0.7c1.5,0,2.3-0.8,2.3-1.9s-0.6-1.6-2.1-2.2c-1.8-0.6-3-1.6-3-3.2c0-1.7,1.4-3,3.6-3
	c0.9,0,1.7,0.2,2.5,0.5l-0.4,1.2c-0.7-0.4-1.4-0.5-2.1-0.5c-1.5,0-2.1,0.9-2.1,1.7c0,1,0.7,1.6,2.2,2.1c1.9,0.7,2.9,1.6,2.9,3.3
	s-1.3,3.2-3.9,3.2c-1,0-2-0.2-2.9-0.7L416.8,318.5z"/>
<path d="M425.2,309.2c0.9-0.2,1.9-0.2,2.8-0.2c1.1-0.1,2.2,0.2,3.1,0.9c0.7,0.6,1,1.5,1,2.3c0,0.9-0.3,1.7-0.9,2.4
	c-0.9,0.9-2.2,1.3-3.4,1.2c-0.4,0-0.8,0-1.2-0.1v4.5h-1.5V309.2z M426.6,314.6c0.4,0.1,0.8,0.1,1.2,0.1c1.8,0,2.8-0.9,2.8-2.4
	s-1-2.2-2.6-2.2c-0.5,0-0.9,0-1.4,0.1V314.6z"/>
<path d="M434,320.3v-11.2h1.6l3.6,5.7c0.7,1.2,1.4,2.4,2,3.6l0,0c-0.1-1.5-0.2-2.9-0.2-4.6v-4.7h1.4v11.2H441l-3.5-5.7
	c-0.8-1.2-1.5-2.5-2.1-3.7h0c0.1,1.4,0.1,2.8,0.1,4.6v4.8L434,320.3z"/>
<path d="M450.7,315.1h-4.4v4h4.9v1.2h-6.3v-11.1h6v1.2h-4.6v3.5h4.4L450.7,315.1z"/>
<path d="M461.6,319.8c-1.1,0.4-2.3,0.6-3.4,0.6c-2.9,0.3-5.4-1.8-5.7-4.7c0-0.3,0-0.6,0-0.9c0-3.3,2.3-5.8,6-5.8
	c1,0,1.9,0.2,2.8,0.5l-0.4,1.2c-0.8-0.3-1.6-0.5-2.5-0.5c-2.3-0.2-4.3,1.5-4.5,3.9c0,0.2,0,0.4,0,0.6c0,2.8,1.7,4.5,4.3,4.5
	c0.7,0,1.3-0.1,1.9-0.3v-3.3h-2.3v-1.2h3.7L461.6,319.8z"/>
<path d="M473.4,314.6c0,3.9-2.3,5.9-5.2,5.9s-5-2.3-5-5.7c0-3.5,2.2-5.9,5.2-5.9S473.4,311.3,473.4,314.6z M464.7,314.8
	c0,2.4,1.3,4.5,3.6,4.5s3.6-2.1,3.6-4.6c0-2.2-1.2-4.5-3.6-4.5S464.7,312.3,464.7,314.8z"/>
<path d="M342.9,329.1c0.9-0.1,1.8-0.2,2.8-0.2c1.1-0.1,2.2,0.2,3.1,0.9c0.7,0.6,1,1.4,1,2.3c0,0.9-0.3,1.7-0.9,2.4
	c-1.3,1-3,1.4-4.6,1.1v4.5h-1.4L342.9,329.1z M344.3,334.5c0.4,0.1,0.8,0.1,1.2,0.1c1.8,0,2.8-0.9,2.8-2.4s-1-2.2-2.6-2.2
	c-0.5,0-0.9,0-1.4,0.1V334.5z"/>
<path d="M351.7,329h1.4v5.4h0c0.3-0.4,0.6-0.8,0.9-1.2l3.4-4.2h1.8l-4,4.7l4.4,6.4h-1.7l-3.7-5.5l-1.1,1.2v4.3h-1.4L351.7,329z"/>
<path d="M362.1,329v11.2h-1.4V329H362.1z"/>
<path d="M342.9,349c0.9-0.1,1.8-0.2,2.8-0.2c1.1-0.1,2.2,0.2,3.1,0.9c0.7,0.6,1,1.5,1,2.3c0,0.9-0.3,1.7-0.9,2.4
	c-0.9,0.9-2.2,1.3-3.4,1.2c-0.4,0-0.8,0-1.2-0.1v4.5h-1.4L342.9,349z M344.3,354.4c0.4,0.1,0.8,0.1,1.2,0.1c1.8,0,2.8-0.9,2.8-2.4
	s-1-2.2-2.6-2.2c-0.5,0-0.9,0-1.4,0.1V354.4z"/>
<path d="M351.4,354.6c0-1,0-1.8-0.1-2.5h1.3l0,1.6h0.1c0.3-1,1.2-1.7,2.2-1.8c0.1,0,0.3,0,0.4,0v1.4c-0.2,0-0.3,0-0.5,0
	c-1.1,0-1.9,0.8-2,1.9c0,0.2-0.1,0.5-0.1,0.7v4.3h-1.5L351.4,354.6z"/>
<path d="M363.9,356c0.2,2.2-1.4,4.1-3.6,4.2c-0.1,0-0.3,0-0.4,0c-2.1,0-3.8-1.7-3.9-3.8c0-0.1,0-0.2,0-0.4c-0.2-2.2,1.4-4.1,3.6-4.2
	c0.1,0,0.3,0,0.4,0c2.1,0,3.8,1.6,3.9,3.7C363.9,355.7,363.9,355.9,363.9,356z M357.5,356.1c0,1.8,1,3.1,2.4,3.1s2.4-1.3,2.4-3.1
	c0-1.4-0.7-3.1-2.4-3.1S357.5,354.6,357.5,356.1L357.5,356.1z"/>
<path d="M366.2,352.1l1.1,1.7c0.3,0.4,0.5,0.9,0.8,1.3h0c0.3-0.5,0.5-0.9,0.8-1.3l1.1-1.7h1.6l-2.7,3.9l2.8,4.1h-1.7l-1.2-1.8
	c-0.3-0.5-0.6-0.9-0.9-1.4l0,0c-0.3,0.5-0.5,0.9-0.9,1.4l-1.2,1.8h-1.6l2.9-4.1l-2.7-3.9H366.2z"/>
<path d="M373.9,352.1l1.8,4.8c0.2,0.5,0.4,1.2,0.5,1.6l0,0c0.1-0.5,0.3-1.1,0.5-1.7l1.6-4.7h1.5l-2.2,5.7c-1,2.8-1.8,4.2-2.8,5
	c-0.5,0.5-1.1,0.8-1.8,1l-0.4-1.2c0.5-0.2,0.9-0.4,1.3-0.7c0.5-0.4,1-1,1.2-1.6c0.1-0.1,0.1-0.2,0.1-0.4c0-0.1-0.1-0.3-0.1-0.4
	l-3-7.4L373.9,352.1z"/>
<path d="M344.6,396.4l-1.2,3.5H342l3.8-11.2h1.7l3.8,11.2h-1.5l-1.2-3.5H344.6z M348.3,395.3l-1.1-3.3c-0.2-0.7-0.4-1.4-0.6-2l0,0
	c-0.2,0.7-0.4,1.3-0.6,2l-1.1,3.2L348.3,395.3z"/>
<path d="M358.5,399.6c-0.7,0.3-1.5,0.5-2.3,0.5c-2.1,0.1-3.9-1.5-4-3.6c0-0.2,0-0.3,0-0.5c-0.1-2.3,1.6-4.2,3.9-4.3
	c0.1,0,0.3,0,0.4,0c0.7,0,1.4,0.1,2,0.4l-0.3,1.1c-0.5-0.3-1.1-0.4-1.7-0.4c-1.7,0-3,1.3-3,3s1.3,3,3,3c0.6,0,1.2-0.1,1.8-0.4
	L358.5,399.6z"/>
<path d="M362.1,389.6v2.3h2.1v1.1h-2.1v4.3c0,1,0.3,1.6,1.1,1.6c0.3,0,0.6,0,0.9-0.1l0.1,1.1c-0.4,0.1-0.9,0.2-1.3,0.2
	c-0.6,0-1.2-0.2-1.6-0.6c-0.4-0.6-0.7-1.3-0.6-2.1V393h-1.2v-1.1h1.2V390L362.1,389.6z"/>
<path d="M367.5,389.6c-0.1,0.5-0.5,0.9-1,0.8c-0.4,0-0.8-0.4-0.8-0.8c0-0.5,0.4-0.9,0.9-0.9c0,0,0,0,0,0
	C367.1,388.7,367.5,389.1,367.5,389.6C367.5,389.6,367.5,389.6,367.5,389.6z M365.9,399.9v-8h1.5v8H365.9z"/>
<path d="M370.3,391.9l1.6,4.5c0.3,0.7,0.5,1.4,0.6,2.1h0c0.2-0.7,0.4-1.3,0.7-2.1l1.6-4.5h1.5l-3.1,8h-1.4l-3.1-8H370.3z"/>
<path d="M378.4,396.1c-0.1,1.4,0.9,2.7,2.4,2.8c0.1,0,0.3,0,0.4,0c0.8,0,1.5-0.1,2.2-0.4l0.2,1c-0.8,0.4-1.8,0.5-2.7,0.5
	c-2.1,0.1-3.8-1.4-3.9-3.5c0-0.2,0-0.4,0-0.6c0-2.4,1.4-4.3,3.8-4.3c2.6,0,3.3,2.3,3.3,3.8c0,0.2,0,0.5,0,0.7L378.4,396.1z
	 M382.7,395.1c0.2-1.1-0.6-2.2-1.8-2.4c-0.1,0-0.2,0-0.2,0c-1.3,0.1-2.2,1.1-2.2,2.4H382.7z"/>
<path d="M389.4,388.9c1-0.2,2-0.2,3.1-0.2c1.6-0.1,3.2,0.4,4.5,1.4c1.1,1,1.7,2.5,1.6,4c0.1,1.6-0.5,3.2-1.6,4.4
	c-1.4,1.2-3.1,1.7-4.9,1.6c-0.9,0-1.8,0-2.6-0.1L389.4,388.9z M390.9,398.8c0.5,0.1,1,0.1,1.5,0.1c3.1,0,4.8-1.7,4.8-4.8
	c0-2.6-1.5-4.3-4.5-4.3c-0.6,0-1.1,0-1.7,0.1V398.8z"/>
<path d="M402.1,389.6c0,0.5-0.4,0.9-0.9,0.9c-0.5,0-0.9-0.4-0.9-0.9c0,0,0,0,0,0c0-0.5,0.4-0.9,0.9-0.9c0,0,0,0,0,0
	C401.6,388.7,402,389.1,402.1,389.6C402.1,389.6,402.1,389.6,402.1,389.6z M400.4,399.9v-8h1.5v8H400.4z"/>
<path d="M404.3,394.4c0-1,0-1.8-0.1-2.5h1.3l0,1.6h0.1c0.3-1,1.2-1.7,2.2-1.8c0.1,0,0.3,0,0.4,0v1.4c-0.2,0-0.3-0.1-0.5,0
	c-1,0-1.9,0.8-2,1.9c0,0.2-0.1,0.5-0.1,0.7v4.3h-1.4L404.3,394.4z"/>
<path d="M410.4,396.1c-0.1,1.4,0.9,2.7,2.3,2.8c0.1,0,0.3,0,0.4,0c0.8,0,1.5-0.1,2.2-0.4l0.2,1c-0.8,0.4-1.8,0.5-2.7,0.5
	c-2.1,0.1-3.8-1.4-3.9-3.5c0-0.2,0-0.4,0-0.6c0-2.4,1.4-4.3,3.8-4.3c2.6,0,3.3,2.3,3.3,3.8c0,0.2,0,0.5,0,0.7L410.4,396.1z
	 M414.7,395.1c0.2-1.1-0.6-2.2-1.8-2.4c-0.1,0-0.2,0-0.2,0c-1.2,0.1-2.2,1.1-2.2,2.4H414.7z"/>
<path d="M423.6,399.6c-0.7,0.3-1.5,0.5-2.3,0.5c-2.1,0.1-3.9-1.5-4-3.6c0-0.2,0-0.3,0-0.5c-0.1-2.3,1.6-4.2,3.9-4.3
	c0.1,0,0.3,0,0.4,0c0.7,0,1.4,0.1,2,0.4l-0.3,1.1c-0.5-0.3-1.1-0.4-1.7-0.4c-1.5,0-2.8,1.2-2.8,2.7c0,0.1,0,0.2,0,0.3
	c-0.1,1.5,1,2.9,2.5,3c0.1,0,0.2,0,0.3,0c0.6,0,1.2-0.1,1.8-0.4L423.6,399.6z"/>
<path d="M427.3,389.6v2.3h2.1v1.1h-2.1v4.3c0,1,0.3,1.6,1.1,1.6c0.3,0,0.6,0,0.9-0.1l0.1,1.1c-0.4,0.1-0.9,0.2-1.3,0.2
	c-0.6,0-1.2-0.2-1.6-0.6c-0.4-0.6-0.6-1.3-0.6-2.1V393h-1.2v-1.1h1.2V390L427.3,389.6z"/>
<path d="M438.2,395.8c0.2,2.2-1.4,4.1-3.6,4.2c-0.1,0-0.3,0-0.4,0c-2.1,0-3.8-1.7-3.9-3.8c0-0.1,0-0.2,0-0.4
	c-0.2-2.2,1.4-4.1,3.6-4.2c0.1,0,0.3,0,0.4,0c2.1,0,3.8,1.6,3.9,3.7C438.2,395.5,438.2,395.7,438.2,395.8z M431.8,395.9
	c0,1.8,1,3.1,2.4,3.1s2.4-1.3,2.4-3.1c0-1.4-0.7-3.1-2.4-3.1S431.8,394.4,431.8,395.9z"/>
<path d="M440,394.4c0-1,0-1.8-0.1-2.5h1.3v1.6h0.1c0.3-1,1.2-1.7,2.2-1.8c0.1,0,0.3,0,0.4,0v1.4c-0.2,0-0.3-0.1-0.5,0
	c-1,0-1.9,0.8-2,1.9c0,0.2-0.1,0.5-0.1,0.7v4.3H440V394.4z"/>
<path d="M446.4,391.9l1.8,4.8c0.2,0.5,0.4,1.2,0.5,1.6l0,0c0.1-0.5,0.3-1.1,0.5-1.7l1.6-4.7h1.5l-2.2,5.7c-1,2.8-1.8,4.2-2.8,5
	c-0.5,0.5-1.1,0.8-1.8,1l-0.4-1.2c0.5-0.2,0.9-0.4,1.3-0.7c0.5-0.4,1-1,1.2-1.6c0.1-0.1,0.1-0.2,0.1-0.4c0-0.1-0.1-0.3-0.1-0.4
	l-3-7.4L446.4,391.9z"/>
<path d="M342.9,408.6h1.4v10h4.8v1.2h-6.2V408.6z"/>
<path d="M350.7,408.8c1-0.2,2-0.2,3.1-0.2c1.6-0.1,3.3,0.4,4.5,1.4c1.1,1,1.7,2.5,1.6,4c0.1,1.6-0.5,3.2-1.6,4.4
	c-1.4,1.2-3.2,1.7-5,1.6c-0.9,0-1.7,0-2.6-0.1V408.8z M352.1,418.7c0.5,0.1,1,0.1,1.5,0.1c3.1,0,4.8-1.7,4.8-4.8
	c0-2.6-1.5-4.3-4.5-4.3c-0.6,0-1.1,0-1.7,0.1V418.7z"/>
<path d="M363.3,416.3l-1.2,3.5h-1.5l3.8-11.2h1.7l3.8,11.2h-1.5l-1.2-3.5H363.3z M367,415.1l-1.1-3.2c-0.2-0.7-0.4-1.4-0.6-2l0,0
	c-0.2,0.7-0.4,1.3-0.6,2l-1.1,3.2L367,415.1z"/>
<path d="M371.6,408.8c0.9-0.2,1.8-0.2,2.8-0.2c1.1-0.1,2.2,0.2,3.1,0.9c0.7,0.6,1,1.5,1,2.3c0,0.9-0.3,1.7-0.9,2.4
	c-0.9,0.9-2.2,1.3-3.4,1.2c-0.4,0-0.8,0-1.2-0.1v4.5h-1.5L371.6,408.8z M373.1,414.1c0.4,0.1,0.8,0.1,1.2,0.1c1.7,0,2.8-0.9,2.8-2.4
	s-1-2.2-2.6-2.2c-0.5,0-0.9,0-1.4,0.1V414.1z"/>
<path d="M344.3,428.5v11.2h-1.4v-11.2H344.3z"/>
<path d="M346.9,433.8c0-0.8,0-1.5-0.1-2.2h1.3l0.1,1.3l0,0c0.5-1,1.6-1.5,2.6-1.5c1.1,0,2.8,0.7,2.8,3.4v4.8h-1.4v-4.6
	c0-1.3-0.5-2.4-1.9-2.4c-0.9,0-1.7,0.6-2,1.5c-0.1,0.2-0.1,0.5-0.1,0.7v4.8h-1.5L346.9,433.8z"/>
<path d="M357.8,429.4v2.3h2.1v1.1h-2.1v4.3c0,1,0.3,1.6,1.1,1.6c0.3,0,0.6,0,0.8-0.1l0.1,1.1c-0.4,0.1-0.9,0.2-1.3,0.2
	c-0.6,0-1.2-0.2-1.6-0.6c-0.4-0.6-0.7-1.3-0.6-2.1v-4.4h-1.2v-1.1h1.2v-1.9L357.8,429.4z"/>
<path d="M362.3,436c-0.1,1.4,0.9,2.7,2.3,2.8c0.1,0,0.3,0,0.4,0c0.8,0,1.5-0.1,2.2-0.4l0.2,1c-0.8,0.4-1.8,0.5-2.7,0.5
	c-2.1,0.1-3.8-1.4-4-3.5c0-0.2,0-0.4,0-0.6c0-2.4,1.4-4.3,3.8-4.3c2.6,0,3.3,2.3,3.3,3.8c0,0.3,0,0.5,0,0.7H362.3z M366.5,435
	c0.2-1.1-0.6-2.2-1.8-2.4c-0.1,0-0.1,0-0.2,0c-1.3,0.1-2.2,1.1-2.2,2.4H366.5z"/>
<path d="M369.8,434.2c0-1,0-1.8-0.1-2.5h1.3v1.6h0.1c0.3-1,1.2-1.7,2.2-1.8c0.1,0,0.3,0,0.4,0v1.4c-0.2,0-0.3-0.1-0.5,0
	c-1,0-1.9,0.8-2,1.9c0,0.2-0.1,0.5-0.1,0.7v4.3h-1.4L369.8,434.2z"/>
<path d="M375.2,433.8c0-0.8,0-1.5-0.1-2.2h1.3l0.1,1.3l0,0c0.5-1,1.6-1.5,2.7-1.5c1.1,0,2.8,0.7,2.8,3.4v4.8h-1.5v-4.6
	c0-1.3-0.5-2.4-1.9-2.4c-0.9,0-1.7,0.6-2,1.5c-0.1,0.2-0.1,0.4-0.1,0.7v4.8h-1.5L375.2,433.8z"/>
<path d="M388.9,439.7l-0.1-1l0,0c-0.6,0.8-1.5,1.2-2.5,1.2c-1.3,0.1-2.4-0.9-2.5-2.1c0-0.1,0-0.1,0-0.2c0-1.9,1.7-3,4.8-3v-0.2
	c0.1-0.9-0.5-1.7-1.4-1.9c-0.1,0-0.3,0-0.4,0c-0.7,0-1.5,0.2-2.1,0.6l-0.3-1c0.8-0.5,1.7-0.7,2.6-0.7c2.5,0,3,1.7,3,3.3v3
	c0,0.6,0,1.3,0.1,1.9L388.9,439.7z M388.7,435.6c-1.6,0-3.4,0.2-3.4,1.8c-0.1,0.7,0.5,1.3,1.2,1.4c0.1,0,0.1,0,0.2,0
	c0.9,0,1.7-0.5,1.9-1.3c0.1-0.1,0.1-0.3,0.1-0.5V435.6z"/>
<path d="M392.5,427.9h1.5v11.8h-1.5V427.9z"/>
<path d="M401.4,428.5v6.6c0,2.5,1.1,3.6,2.6,3.6c1.7,0,2.7-1.1,2.7-3.6v-6.6h1.5v6.5c0,3.4-1.8,4.8-4.2,4.8s-4-1.3-4-4.8v-6.6
	L401.4,428.5z"/>
<path d="M410.3,438.2c0.6,0.4,1.2,0.6,1.9,0.6c1.1,0,1.6-0.5,1.6-1.2s-0.4-1.1-1.5-1.5c-1.5-0.5-2.1-1.3-2.1-2.3
	c0.1-1.4,1.2-2.4,2.6-2.4c0.1,0,0.1,0,0.2,0c0.7,0,1.4,0.2,2,0.5l-0.4,1.1c-0.5-0.3-1.1-0.5-1.6-0.5c-0.9,0-1.3,0.5-1.3,1.1
	s0.5,1,1.5,1.4c1.4,0.5,2.1,1.2,2.1,2.4c0,1.4-1.1,2.4-3,2.4c-0.8,0-1.6-0.2-2.3-0.5L410.3,438.2z"/>
<path d="M417.9,436c-0.1,1.4,0.9,2.7,2.4,2.8c0.1,0,0.3,0,0.4,0c0.8,0,1.5-0.1,2.2-0.4l0.2,1c-0.8,0.4-1.8,0.5-2.7,0.5
	c-2.1,0.1-3.8-1.4-4-3.5c0-0.2,0-0.4,0-0.6c0-2.4,1.4-4.3,3.8-4.3c2.6,0,3.3,2.3,3.3,3.8c0,0.3,0,0.5,0,0.7H417.9z M422.2,435
	c0.2-1.1-0.6-2.2-1.8-2.4c-0.1,0-0.2,0-0.2,0c-1.3,0.1-2.2,1.1-2.2,2.4H422.2z"/>
<path d="M425.4,434.2c0-1,0-1.8-0.1-2.5h1.3l0,1.6h0.1c0.3-1,1.2-1.7,2.2-1.8c0.1,0,0.3,0,0.4,0v1.4c-0.2,0-0.3-0.1-0.5,0
	c-1,0-1.9,0.8-2,1.9c0,0.2-0.1,0.5-0.1,0.7v4.3h-1.4L425.4,434.2z"/>
<path d="M434.4,428.7c1-0.2,2-0.2,3.1-0.2c1.6-0.1,3.3,0.4,4.5,1.4c1.1,1,1.7,2.5,1.6,4c0.1,1.6-0.5,3.2-1.6,4.4
	c-1.4,1.2-3.1,1.7-4.9,1.6c-0.9,0-1.7,0-2.6-0.1L434.4,428.7z M435.8,438.6c0.5,0.1,1,0.1,1.5,0.1c3.1,0,4.8-1.7,4.8-4.8
	c0-2.6-1.5-4.3-4.5-4.3c-0.6,0-1.1,0-1.7,0.1V438.6z"/>
<path d="M449.8,439.7l-0.1-1h0c-0.6,0.8-1.5,1.2-2.5,1.2c-1.3,0.1-2.4-0.9-2.5-2.1c0-0.1,0-0.1,0-0.2c0-1.9,1.7-3,4.8-3v-0.2
	c0.1-0.9-0.5-1.7-1.4-1.9c-0.1,0-0.3,0-0.4,0c-0.7,0-1.5,0.2-2.1,0.6l-0.3-1c0.8-0.5,1.7-0.7,2.6-0.7c2.5,0,3,1.7,3,3.3v3
	c0,0.6,0,1.3,0.1,1.9L449.8,439.7z M449.6,435.6c-1.6,0-3.4,0.2-3.4,1.8c-0.1,0.7,0.5,1.3,1.2,1.4c0.1,0,0.1,0,0.2,0
	c0.9,0,1.7-0.5,1.9-1.3c0.1-0.1,0.1-0.3,0.1-0.5V435.6z"/>
<path d="M455,429.4v2.3h2.1v1.1H455v4.3c0,1,0.3,1.6,1.1,1.6c0.3,0,0.6,0,0.9-0.1l0.1,1.1c-0.4,0.1-0.9,0.2-1.3,0.2
	c-0.6,0-1.2-0.2-1.6-0.6c-0.4-0.6-0.6-1.3-0.6-2.1v-4.4h-1.2v-1.1h1.2v-1.9L455,429.4z"/>
<path d="M463.2,439.7l-0.1-1h0c-0.6,0.8-1.5,1.2-2.5,1.2c-1.3,0.1-2.3-0.8-2.4-2.1c0-0.1,0-0.1,0-0.2c0-1.9,1.7-3,4.8-3v-0.2
	c0.1-0.9-0.5-1.7-1.4-1.9c-0.1,0-0.3,0-0.4,0c-0.7,0-1.5,0.2-2.1,0.6l-0.3-1c0.8-0.5,1.7-0.7,2.6-0.7c2.5,0,3,1.7,3,3.3v3
	c0,0.6,0,1.3,0.1,1.9L463.2,439.7z M463,435.6c-1.6,0-3.4,0.2-3.4,1.8c-0.1,0.7,0.5,1.3,1.2,1.4c0.1,0,0.2,0,0.2,0
	c0.9,0,1.7-0.5,1.9-1.3c0-0.1,0.1-0.3,0.1-0.5L463,435.6z"/>
<path d="M466.7,439.7c0-0.5,0.1-1.4,0.1-2.1v-9.7h1.4v5l0,0c0.6-1,1.6-1.5,2.7-1.5c2,0,3.4,1.7,3.4,4.1c0,2.9-1.8,4.3-3.6,4.3
	c-1.1,0.1-2.2-0.5-2.7-1.5h0v1.4H466.7z M468.2,436.5c0,0.2,0,0.4,0.1,0.5c0.3,1,1.2,1.7,2.2,1.7c1.5,0,2.4-1.2,2.4-3.1
	c0-1.6-0.8-3-2.4-3c-1.1,0-2,0.8-2.2,1.8c-0.1,0.2-0.1,0.4-0.1,0.6V436.5z"/>
<path d="M480.6,439.7l-0.1-1h0c-0.6,0.8-1.5,1.2-2.5,1.2c-1.3,0.1-2.4-0.9-2.5-2.1c0-0.1,0-0.1,0-0.2c0-1.9,1.7-3,4.8-3v-0.2
	c0.1-0.9-0.5-1.7-1.4-1.9c-0.1,0-0.3,0-0.4,0c-0.7,0-1.5,0.2-2.1,0.6l-0.3-1c0.8-0.5,1.7-0.7,2.6-0.7c2.5,0,3.1,1.7,3.1,3.3v3
	c0,0.6,0,1.3,0.1,1.9L480.6,439.7z M480.4,435.6c-1.6,0-3.4,0.2-3.4,1.8c-0.1,0.7,0.5,1.3,1.2,1.4c0.1,0,0.1,0,0.2,0
	c0.9,0,1.7-0.5,1.9-1.3c0.1-0.1,0.1-0.3,0.1-0.5V435.6z"/>
<path d="M484,438.2c0.6,0.4,1.2,0.6,1.9,0.6c1.1,0,1.6-0.5,1.6-1.2s-0.4-1.1-1.5-1.5c-1.4-0.5-2.1-1.3-2.1-2.3
	c0.1-1.4,1.2-2.4,2.6-2.4c0.1,0,0.1,0,0.2,0c0.7,0,1.4,0.2,2,0.5l-0.4,1.1c-0.5-0.3-1.1-0.5-1.6-0.5c-0.9,0-1.3,0.5-1.3,1.1
	s0.5,1,1.5,1.4c1.4,0.5,2.1,1.2,2.1,2.4c0,1.4-1.1,2.4-3,2.4c-0.8,0-1.6-0.2-2.3-0.5L484,438.2z"/>
<path d="M491.6,436c-0.1,1.4,0.9,2.7,2.3,2.8c0.1,0,0.3,0,0.4,0c0.8,0,1.5-0.1,2.2-0.4l0.2,1c-0.8,0.4-1.8,0.5-2.7,0.5
	c-2.1,0.1-3.8-1.4-4-3.5c0-0.2,0-0.4,0-0.6c0-2.4,1.4-4.3,3.8-4.3c2.6,0,3.3,2.3,3.3,3.8c0,0.2,0,0.5,0,0.7H491.6z M495.9,435
	c0.2-1.1-0.6-2.2-1.8-2.4c-0.1,0-0.2,0-0.2,0c-1.2,0.1-2.2,1.1-2.2,2.4H495.9z"/>
<path d="M344.3,448.4v4.7h5.4v-4.7h1.5v11.2h-1.5v-5.2h-5.4v5.2h-1.4v-11.2H344.3z"/>
<path d="M355.8,449.6h-3.4v-1.2h8.3v1.2h-3.4v10h-1.5V449.6z"/>
<path d="M364.6,449.6h-3.4v-1.2h8.3v1.2h-3.4v10h-1.5V449.6z"/>
<path d="M370.8,448.5c0.9-0.1,1.8-0.2,2.8-0.2c1.1-0.1,2.2,0.2,3.1,0.9c0.7,0.6,1,1.5,1,2.3c0,0.9-0.3,1.7-0.9,2.4
	c-0.9,0.9-2.2,1.3-3.4,1.2c-0.4,0-0.8,0-1.2-0.1v4.5h-1.4L370.8,448.5z M372.2,453.9c0.4,0.1,0.8,0.1,1.2,0.1c1.7,0,2.8-0.9,2.8-2.4
	s-1-2.2-2.6-2.2c-0.5,0-0.9,0-1.4,0.1V453.9z"/>
<path d="M383.1,448.6c0.9-0.2,1.8-0.2,2.6-0.2c1.1-0.1,2.2,0.2,3.1,0.8c0.6,0.5,1,1.2,0.9,2c0,1.1-0.8,2.1-1.9,2.5l0,0
	c1.3,0.3,2.3,1.4,2.3,2.8c0,0.8-0.3,1.7-0.9,2.2c-1.1,0.8-2.5,1.2-3.9,1c-0.7,0-1.5,0-2.2-0.1L383.1,448.6z M384.5,453.1h1.3
	c1.5,0,2.4-0.8,2.4-1.9c0-1.3-1-1.8-2.5-1.8c-0.4,0-0.9,0-1.3,0.1V453.1z M384.5,458.5c0.4,0,0.8,0.1,1.2,0.1c1.5,0,2.9-0.5,2.9-2.2
	s-1.3-2.2-2.9-2.2h-1.2L384.5,458.5z"/>
<path d="M396.5,459.6l-0.1-1h0c-0.6,0.8-1.5,1.2-2.5,1.2c-1.3,0.1-2.3-0.8-2.4-2.1c0-0.1,0-0.1,0-0.2c0-1.9,1.7-3,4.8-3v-0.2
	c0.1-0.9-0.5-1.7-1.4-1.8c-0.1,0-0.3,0-0.4,0c-0.7,0-1.5,0.2-2.1,0.6l-0.3-1c0.8-0.5,1.7-0.7,2.6-0.7c2.5,0,3,1.7,3,3.3v3
	c0,0.6,0,1.3,0.1,1.9L396.5,459.6z M396.3,455.5c-1.6,0-3.4,0.2-3.4,1.8c-0.1,0.7,0.5,1.3,1.2,1.4c0.1,0,0.1,0,0.2,0
	c0.9,0,1.7-0.5,2-1.3c0.1-0.1,0.1-0.3,0.1-0.5V455.5z"/>
<path d="M399.8,458.1c0.6,0.4,1.2,0.6,1.9,0.6c1.1,0,1.6-0.5,1.6-1.2s-0.4-1.1-1.5-1.5c-1.4-0.5-2.1-1.3-2.1-2.3
	c0.1-1.4,1.2-2.4,2.6-2.4c0.1,0,0.1,0,0.2,0c0.7,0,1.4,0.2,2,0.5l-0.4,1.1c-0.5-0.3-1.1-0.5-1.6-0.5c-0.9,0-1.4,0.5-1.4,1.1
	s0.5,1,1.5,1.4c1.4,0.5,2.1,1.2,2.1,2.4c0,1.4-1.1,2.4-3,2.4c-0.8,0-1.6-0.2-2.2-0.5L399.8,458.1z"/>
<path d="M408.2,449.3c0,0.5-0.3,0.9-0.8,0.9c0,0-0.1,0-0.1,0c-0.5,0-0.9-0.4-0.9-0.9c0,0,0,0,0,0c0-0.5,0.4-0.9,0.9-0.9c0,0,0,0,0,0
	C407.8,448.4,408.2,448.8,408.2,449.3C408.2,449.3,408.2,449.3,408.2,449.3z M406.6,459.6v-8h1.5v8H406.6z"/>
<path d="M416.2,459.3c-0.7,0.3-1.5,0.5-2.3,0.5c-2.1,0.1-3.9-1.5-4-3.6c0-0.2,0-0.3,0-0.5c-0.1-2.3,1.6-4.2,3.9-4.3
	c0.1,0,0.3,0,0.4,0c0.7,0,1.4,0.1,2,0.4l-0.3,1.1c-0.5-0.3-1.1-0.4-1.7-0.4c-1.7,0-3,1.3-3,3s1.3,3,3,3c0.6,0,1.2-0.1,1.8-0.4
	L416.2,459.3z"/>
<line class="st5" x1="419.8" y1="254.5" x2="419.8" y2="225.5"/>
<g>
	<path d="M428.9,158.8l3.6-4.7c0.3-0.4,0.7-0.8,1-1.2v0h-4.3v-1.2h6.1l0,0.9l-3.6,4.7c-0.3,0.4-0.7,0.8-1,1.3v0h4.7v1.2h-6.5V158.8z
		"/>
</g>
</svg>
