<?xml version="1.0" encoding="UTF-8" standalone="no"?>
<svg
   version="1.1"
   id="Layer_1"
   x="0px"
   y="0px"
   viewBox="0 0 131.2 35.9"
   style="enable-background:new 0 0 131.2 35.9;"
   xml:space="preserve"
   sodipodi:docname="OpenDistro-logo.svg"
   inkscape:version="1.1.1 (c3084ef, 2021-09-22)"
   xmlns:inkscape="http://www.inkscape.org/namespaces/inkscape"
   xmlns:sodipodi="http://sodipodi.sourceforge.net/DTD/sodipodi-0.dtd"
   xmlns="http://www.w3.org/2000/svg"
   xmlns:svg="http://www.w3.org/2000/svg"><defs
   id="defs1024">
	

		
	
			
			
			
			
			
			
			
			
			
			
			
			
			
			
			
			
			
			
			
			
			
			
			
			
			
			
		</defs><sodipodi:namedview
   id="namedview1022"
   pagecolor="#ffffff"
   bordercolor="#666666"
   borderopacity="1.0"
   inkscape:pageshadow="2"
   inkscape:pageopacity="0.0"
   inkscape:pagecheckerboard="0"
   showgrid="false"
   inkscape:zoom="5.7088415"
   inkscape:cx="65.6"
   inkscape:cy="17.954606"
   inkscape:window-width="1312"
   inkscape:window-height="969"
   inkscape:window-x="0"
   inkscape:window-y="25"
   inkscape:window-maximized="0"
   inkscape:current-layer="Layer_1" />
<style
   type="text/css"
   id="style945">
	.st0{fill:#36499B;}
	.st1{fill:#0081C3;}
	.st2{fill:#67CFEE;}
	.st3{fill:#9D7AD1;}
	.st4{fill:#FF5892;}
	.st5{fill:#E470C0;}
</style>
<g
   id="g1277"
   transform="translate(0,5.2)"><path
     class="st0"
     d="m 40.2,11.7 c 0,-2.4 1.8,-4.2 4.2,-4.2 2.4,0 4.2,1.7 4.2,4.2 0,2.4 -1.8,4.2 -4.2,4.2 -2.5,0 -4.2,-1.8 -4.2,-4.2 z m 6.6,0 c 0,-1.5 -1,-2.6 -2.5,-2.6 -1.5,0 -2.4,1.1 -2.4,2.6 0,1.5 1,2.6 2.4,2.6 1.6,0 2.5,-1.1 2.5,-2.6 z"
     id="path947" /><path
     class="st0"
     d="m 51.1,15 v 3 H 49.6 V 9.9 h 1.5 v 0.7 c 0.4,-0.6 1.1,-0.9 1.8,-0.9 1.5,0 2.6,1.1 2.6,3.1 0,1.9 -1.1,3.1 -2.6,3.1 -0.7,0 -1.3,-0.3 -1.8,-0.9 z m 2.8,-2.2 c 0,-1 -0.6,-1.7 -1.5,-1.7 -0.5,0 -1.1,0.3 -1.3,0.7 v 2.1 c 0.3,0.4 0.8,0.7 1.3,0.7 0.9,-0.1 1.5,-0.8 1.5,-1.8 z"
     id="path949" /><path
     class="st0"
     d="m 56.1,12.8 c 0,-1.7 1.2,-3.1 3,-3.1 1.7,0 2.9,1.3 2.9,3.2 v 0.3 h -4.3 c 0.1,0.7 0.7,1.4 1.7,1.4 0.5,0 1.2,-0.2 1.6,-0.6 l 0.7,1 c -0.6,0.5 -1.5,0.8 -2.4,0.8 -1.8,0.1 -3.2,-1.1 -3.2,-3 z M 59.2,11 c -1,0 -1.4,0.7 -1.4,1.3 h 2.9 C 60.6,11.7 60.2,11 59.2,11 Z"
     id="path951" /><path
     class="st0"
     d="m 67,15.7 v -3.5 c 0,-0.8 -0.4,-1.1 -1.1,-1.1 -0.6,0 -1.1,0.3 -1.3,0.7 v 3.9 H 63.1 V 9.9 h 1.5 v 0.8 c 0.4,-0.4 1.1,-0.9 2,-0.9 1.3,0 1.9,0.7 1.9,1.9 v 4.1 H 67 Z"
     id="path953" /><path
     class="st0"
     d="m 73,15.7 v -8 h 3.2 c 2.5,0 4.3,1.6 4.3,4 0,2.4 -1.8,4 -4.3,4 z m 5.7,-4 c 0,-1.4 -0.9,-2.5 -2.5,-2.5 h -1.5 v 5 h 1.5 c 1.5,0 2.5,-1.1 2.5,-2.5 z"
     id="path955" /><path
     class="st0"
     d="m 81.3,8.3 c 0,-0.5 0.4,-0.9 0.9,-0.9 0.5,0 0.9,0.4 0.9,0.9 0,0.5 -0.4,0.9 -0.9,0.9 -0.5,0.1 -0.9,-0.4 -0.9,-0.9 z m 0.1,7.4 V 9.9 H 83 v 5.8 z"
     id="path957" /><path
     class="st0"
     d="m 83.8,15 0.7,-1.1 c 0.4,0.4 1.3,0.8 2,0.8 0.7,0 1,-0.3 1,-0.6 0,-1 -3.5,-0.2 -3.5,-2.5 0,-1 0.9,-1.8 2.4,-1.8 1,0 1.8,0.3 2.4,0.8 l -0.6,1 c -0.4,-0.4 -1,-0.7 -1.7,-0.7 -0.6,0 -0.9,0.3 -0.9,0.6 0,0.9 3.5,0.1 3.5,2.5 0,1.1 -0.9,1.9 -2.5,1.9 -1.2,0 -2.1,-0.4 -2.8,-0.9 z"
     id="path959" /><path
     class="st0"
     d="m 90.4,14.3 v -3 h -1 V 9.9 h 1 V 8.3 h 1.5 v 1.6 h 1.2 v 1.3 h -1.2 v 2.6 c 0,0.4 0.2,0.6 0.5,0.6 0.2,0 0.4,-0.1 0.5,-0.2 l 0.3,1.2 c -0.2,0.2 -0.6,0.4 -1.3,0.4 -1,0.1 -1.5,-0.5 -1.5,-1.5 z"
     id="path961" /><path
     class="st0"
     d="M 94.1,15.7 V 9.9 h 1.5 v 0.8 C 96,10.2 96.7,9.8 97.5,9.8 v 1.5 c -0.1,0 -0.3,0 -0.4,0 -0.5,0 -1.2,0.3 -1.4,0.7 v 3.9 h -1.6 z"
     id="path963" /><path
     class="st0"
     d="m 97.9,12.8 c 0,-1.7 1.2,-3.1 3.1,-3.1 1.9,0 3.1,1.4 3.1,3.1 0,1.7 -1.2,3.1 -3.1,3.1 -2,0 -3.1,-1.4 -3.1,-3.1 z m 4.5,0 c 0,-0.9 -0.5,-1.7 -1.5,-1.7 -1,0 -1.5,0.8 -1.5,1.7 0,0.9 0.5,1.7 1.5,1.7 1,0 1.5,-0.8 1.5,-1.7 z"
     id="path965" /></g>
<g
   id="g1019">
	<g
   id="g1007">
		<path
   class="st0"
   d="M21.1,26c4.1-0.4,7.3-3.9,7.3-8.1c0-4.2-3.2-7.7-7.3-8.1V4.9c6.8,0.4,12.3,6.1,12.3,13    c0,6.9-5.4,12.6-12.3,13V26z"
   id="path1005" />
	</g>
	<circle
   class="st1"
   cx="17"
   cy="28"
   r="2.4"
   id="circle1009" />
	<circle
   class="st2"
   cx="11.7"
   cy="24.1"
   r="2.4"
   id="circle1011" />
	<circle
   class="st3"
   cx="9.7"
   cy="18"
   r="2.4"
   id="circle1013" />
	<circle
   class="st4"
   cx="11.7"
   cy="11.8"
   r="2.4"
   id="circle1015" />
	<circle
   class="st5"
   cx="17"
   cy="7.8"
   r="2.4"
   id="circle1017" />
</g>
</svg>
